<svg width="95" height="143" viewBox="0 0 95 143" fill="none" xmlns="http://www.w3.org/2000/svg">
<path opacity="0.2" d="M0.864258 129.388C17.3566 116.142 30.2777 105.299 39.6277 96.8576C48.9777 88.2868 56.8342 79.3913 63.1974 70.1712C69.6904 60.8212 72.937 51.6661 72.937 42.7057C72.937 34.2647 70.8592 27.6418 66.7036 22.837C62.678 17.9023 56.12 15.4349 47.0297 15.4349C38.1992 15.4349 31.3166 18.2269 26.3819 23.8109C21.577 29.2651 18.9798 36.6022 18.5902 45.8223H1.44863C1.96807 31.2779 6.38334 20.045 14.6944 12.1235C23.0055 4.20197 33.719 0.241211 46.835 0.241211C60.2106 0.241211 70.7943 3.94224 78.5859 11.3443C86.5074 18.7464 90.4682 28.9404 90.4682 41.9265C90.4682 52.7049 87.2216 63.2237 80.7286 73.4827C74.3654 83.6118 67.0932 92.5722 58.912 100.364C50.7308 108.026 40.277 116.986 27.5506 127.245H94.5588V142.049H0.864258V129.388Z" fill="url(#paint0_linear_153_2963)"/>
<defs>
<linearGradient id="paint0_linear_153_2963" x1="72.5386" y1="-66.5224" x2="72.5386" y2="150.218" gradientUnits="userSpaceOnUse">
<stop/>
<stop offset="1" stop-color="white"/>
</linearGradient>
</defs>
</svg>
