<svg width="94" height="142" viewBox="0 0 94 142" fill="none" xmlns="http://www.w3.org/2000/svg">
<path opacity="0.2" d="M0.260986 129.146C16.7533 115.901 29.6744 105.057 39.0244 96.6164C48.3744 88.0456 56.231 79.1501 62.5941 69.93C69.0872 60.58 72.3337 51.4249 72.3337 42.4645C72.3337 34.0235 70.2559 27.4006 66.1004 22.5958C62.0747 17.6611 55.5167 15.1937 46.4265 15.1937C37.5959 15.1937 30.7133 17.9857 25.7786 23.5697C20.9738 29.0239 18.3766 36.361 17.987 45.5811H0.845359C1.3648 31.0367 5.78007 19.8038 14.0912 11.8823C22.4022 3.96075 33.1158 0 46.2317 0C59.6073 0 70.191 3.70103 77.9826 11.1031C85.9041 18.5052 89.8649 28.6992 89.8649 41.6853C89.8649 52.4637 86.6184 62.9825 80.1253 73.2415C73.7622 83.3706 66.49 92.331 58.3087 100.123C50.1275 107.784 39.6737 116.745 26.9474 127.004H93.9555V141.808H0.260986V129.146Z" fill="url(#paint0_linear_480_13411)"/>
<defs>
<linearGradient id="paint0_linear_480_13411" x1="71.9353" y1="-66.7636" x2="71.9353" y2="149.976" gradientUnits="userSpaceOnUse">
<stop/>
<stop offset="1" stop-color="white"/>
</linearGradient>
</defs>
</svg>
