<svg width="95" height="145" viewBox="0 0 95 145" fill="none" xmlns="http://www.w3.org/2000/svg">
<path opacity="0.2" d="M3.09815 38.1791C4.00717 26.2319 8.61723 16.8819 16.9283 10.1291C25.2394 3.37638 36.0178 0 49.2636 0C58.0942 0 65.691 1.62326 72.0542 4.86978C78.5472 7.98644 83.417 12.2718 86.6635 17.726C90.0399 23.1801 91.7281 29.3485 91.7281 36.2312C91.7281 44.2825 89.3906 51.2301 84.7156 57.0738C80.1705 62.9175 74.1969 66.6835 66.7948 68.3717V69.3456C75.2358 71.4234 81.9236 75.514 86.8583 81.6175C91.793 87.7209 94.2604 95.7074 94.2604 105.577C94.2604 112.979 92.5722 119.667 89.1958 125.64C85.8194 131.484 80.7549 136.094 74.0021 139.47C67.2493 142.847 59.133 144.535 49.6532 144.535C35.888 144.535 24.5901 140.964 15.7596 133.821C6.92904 126.549 1.99433 116.29 0.955444 103.044H18.0971C19.0061 110.836 22.1877 117.199 27.6418 122.134C33.096 127.069 40.3682 129.536 49.4584 129.536C58.5487 129.536 65.4313 127.199 70.1063 122.524C74.9111 117.719 77.3135 111.55 77.3135 104.018C77.3135 94.2789 74.067 87.2664 67.574 82.981C61.081 78.6956 51.2765 76.5529 38.1605 76.5529H33.6803V61.7488H38.3553C50.3025 61.6189 59.3278 59.671 65.4313 55.905C71.5347 52.0092 74.5865 46.0356 74.5865 37.9843C74.5865 31.1016 72.3139 25.5826 67.7688 21.427C63.3535 17.2715 56.9903 15.1937 48.6793 15.1937C40.6279 15.1937 34.1349 17.2715 29.2002 21.427C24.2654 25.5826 21.3436 31.1666 20.4346 38.1791H3.09815Z" fill="url(#paint0_linear_480_13412)"/>
<defs>
<linearGradient id="paint0_linear_480_13412" x1="74.351" y1="-66.5687" x2="74.351" y2="150.171" gradientUnits="userSpaceOnUse">
<stop/>
<stop offset="1" stop-color="white"/>
</linearGradient>
</defs>
</svg>
