<svg width="95" height="145" viewBox="0 0 95 145" fill="none" xmlns="http://www.w3.org/2000/svg">
<path opacity="0.2" d="M2.89905 38.4042C3.80807 26.457 8.41813 17.107 16.7292 10.3542C25.0403 3.60148 35.8187 0.225098 49.0645 0.225098C57.8951 0.225098 65.4919 1.84836 71.8551 5.09488C78.3481 8.21154 83.2179 12.4969 86.4644 17.9511C89.8408 23.4052 91.529 29.5736 91.529 36.4562C91.529 44.5076 89.1915 51.4552 84.5165 57.2989C79.9714 63.1426 73.9978 66.9086 66.5957 68.5968V69.5707C75.0367 71.6485 81.7245 75.7391 86.6592 81.8426C91.5939 87.946 94.0613 95.9325 94.0613 105.802C94.0613 113.204 92.3731 119.892 88.9967 125.865C85.6203 131.709 80.5558 136.319 73.803 139.696C67.0502 143.072 58.934 144.76 49.4541 144.76C35.6889 144.76 24.391 141.189 15.5605 134.047C6.72994 126.774 1.79523 116.515 0.756348 103.27H17.898C18.807 111.061 21.9886 117.424 27.4427 122.359C32.8969 127.294 40.1691 129.761 49.2593 129.761C58.3496 129.761 65.2322 127.424 69.9072 122.749C74.712 117.944 77.1144 111.775 77.1144 104.244C77.1144 94.504 73.8679 87.4915 67.3749 83.2061C60.8819 78.9207 51.0774 76.778 37.9614 76.778H33.4813V61.9739H38.1562C50.1034 61.844 59.1287 59.8961 65.2322 56.1301C71.3357 52.2343 74.3874 46.2607 74.3874 38.2094C74.3874 31.3267 72.1148 25.8077 67.5697 21.6521C63.1544 17.4966 56.7912 15.4188 48.4802 15.4188C40.4288 15.4188 33.9358 17.4966 29.0011 21.6521C24.0663 25.8077 21.1445 31.3917 20.2355 38.4042H2.89905Z" fill="url(#paint0_linear_153_2968)"/>
<defs>
<linearGradient id="paint0_linear_153_2968" x1="74.1519" y1="-66.3436" x2="74.1519" y2="150.396" gradientUnits="userSpaceOnUse">
<stop/>
<stop offset="1" stop-color="white"/>
</linearGradient>
</defs>
</svg>
