<svg width="64" height="64" viewBox="0 0 64 64" fill="none" xmlns="http://www.w3.org/2000/svg">
<path d="M54 30.7203V33.2973C53.9675 33.4197 53.9429 33.544 53.9263 33.6696C53.7347 36.7072 52.8748 39.6652 51.408 42.3323C47.9855 48.5234 42.7918 52.3 35.827 53.6619C34.9851 53.8256 34.1253 53.8417 33.2817 54H30.7094C30.601 53.9681 30.4904 53.9441 30.3785 53.9281C27.3407 53.7542 24.3805 52.9019 21.7155 51.4337C14.4881 47.3838 10.5451 41.1993 10.0433 32.9269C9.76492 28.6619 10.8346 24.4173 13.1012 20.7933C17.2186 14.1178 23.2373 10.5085 31.0692 10.0392C34.9834 9.79692 38.8851 10.6819 42.3115 12.5892C48.5173 16.0025 52.2996 21.1962 53.6582 28.1702C53.8255 29.019 53.8507 29.8768 54 30.7203ZM36.9458 42.5696L36.2425 42.8034C35.5628 43.0349 34.8383 43.1038 34.1271 43.0048C33.3734 42.8951 33.0478 42.5876 32.9039 41.8431C32.8337 41.3024 32.8661 40.7533 32.9993 40.2246C33.2943 38.678 33.7799 37.18 34.2027 35.6658C34.584 34.29 35.0229 32.9287 35.0697 31.4792C35.1092 30.1736 34.7261 29.0802 33.6019 28.3357C32.4776 27.5911 31.2635 27.5264 30.0043 27.6685C28.5833 27.8285 27.2792 28.404 25.9553 28.9039C25.8938 28.9197 25.838 28.9526 25.7944 28.9987C25.7507 29.0449 25.7211 29.1024 25.7088 29.1647C25.6153 29.5927 25.5056 30.0153 25.403 30.4379C25.5829 30.5081 25.6872 30.4235 25.8042 30.3822C26.6244 30.0891 27.4554 29.9236 28.3225 30.1106C28.934 30.2419 29.2111 30.5171 29.3316 31.1231C29.4701 31.8299 29.3496 32.5204 29.1967 33.2074C28.8657 34.7144 28.4016 36.1891 27.9789 37.6727C27.5957 39.0215 27.2144 40.3702 27.1784 41.7874C27.146 42.4806 27.3299 43.1668 27.7047 43.7509C28.0795 44.335 28.6266 44.7882 29.2704 45.0478C30.4144 45.5333 31.6088 45.5585 32.8122 45.3751C34.0821 45.1827 35.2226 44.5748 36.4241 44.163C36.4729 44.1507 36.5173 44.1253 36.5526 44.0894C36.5878 44.0536 36.6124 44.0087 36.6238 43.9598L36.9458 42.5696ZM34.0318 18.4807C33.605 18.4845 33.181 18.5493 32.7726 18.6731C30.8174 19.3223 29.9557 21.59 31.0836 23.2589C31.9074 24.4764 33.1234 24.8936 34.5606 24.7084C35.3814 24.5912 36.1236 24.1571 36.628 23.4991C37.1324 22.8412 37.3589 22.0119 37.2588 21.189C37.0573 19.646 35.6309 18.4807 34.0318 18.4807Z" fill="#C1C1C1"/>
</svg>
