<svg width="24" height="24" viewBox="0 0 24 24" fill="none" xmlns="http://www.w3.org/2000/svg">
<path d="M12 0C9.62663 0 7.30655 0.703788 5.33316 2.02236C3.35977 3.34094 1.8217 5.21509 0.913451 7.4078C0.00519936 9.60051 -0.232441 12.0133 0.230582 14.3411C0.693605 16.6689 1.83649 18.807 3.51472 20.4853C5.19295 22.1635 7.33115 23.3064 9.65892 23.7694C11.9867 24.2324 14.3995 23.9948 16.5922 23.0866C18.7849 22.1783 20.6591 20.6402 21.9776 18.6668C23.2962 16.6934 24 14.3734 24 12C23.9967 8.8184 22.7314 5.76805 20.4817 3.51832C18.232 1.26859 15.1816 0.00325817 12 0ZM12 22.1538C9.99176 22.1538 8.02862 21.5583 6.35883 20.4426C4.68904 19.3269 3.38759 17.7411 2.61907 15.8857C1.85055 14.0303 1.64947 11.9887 2.04126 10.0191C2.43305 8.04943 3.40011 6.24019 4.82015 4.82015C6.24019 3.4001 8.04943 2.43305 10.0191 2.04126C11.9887 1.64947 14.0303 1.85055 15.8857 2.61907C17.7411 3.38759 19.3269 4.68903 20.4426 6.35882C21.5583 8.02861 22.1538 9.99176 22.1538 12C22.1506 14.692 21.0798 17.2727 19.1763 19.1763C17.2727 21.0798 14.692 22.1506 12 22.1538ZM14.1538 17.6985C14.1507 17.9423 14.0524 18.1752 13.88 18.3476C13.7075 18.5201 13.4746 18.6183 13.2308 18.6215H10.7692C10.5244 18.6215 10.2896 18.5243 10.1165 18.3512C9.94341 18.1781 9.84616 17.9433 9.84616 17.6985C9.84616 17.4536 9.94341 17.2189 10.1165 17.0457C10.2896 16.8726 10.5244 16.7754 10.7692 16.7754H11.0769V10.0062H10.7692C10.5244 10.0062 10.2896 9.9089 10.1165 9.73579C9.94341 9.56268 9.84616 9.32789 9.84616 9.08308C9.84616 8.83826 9.94341 8.60347 10.1165 8.43036C10.2896 8.25725 10.5244 8.16 10.7692 8.16H12C12.2448 8.16 12.4796 8.25725 12.6527 8.43036C12.8258 8.60347 12.9231 8.83826 12.9231 9.08308V16.7754H13.2308C13.4756 16.7754 13.7104 16.8726 13.8835 17.0457C14.0566 17.2189 14.1538 17.4536 14.1538 17.6985ZM10.4615 6.00615C10.4615 5.76273 10.5337 5.52477 10.669 5.32237C10.8042 5.11998 10.9964 4.96222 11.2213 4.86907C11.4462 4.77592 11.6937 4.75154 11.9324 4.79903C12.1712 4.84652 12.3905 4.96374 12.5626 5.13587C12.7347 5.30799 12.8519 5.5273 12.8994 5.76604C12.9469 6.00479 12.9225 6.25225 12.8294 6.47715C12.7362 6.70204 12.5785 6.89426 12.3761 7.0295C12.1737 7.16474 11.9357 7.23692 11.6923 7.23692C11.3659 7.23692 11.0528 7.10725 10.822 6.87644C10.5912 6.64562 10.4615 6.33257 10.4615 6.00615Z" fill="url(#paint0_linear_629_872)"/>
<defs>
<linearGradient id="paint0_linear_629_872" x1="0" y1="12" x2="24" y2="12" gradientUnits="userSpaceOnUse">
<stop stop-color="#9B248E"/>
<stop offset="0.739" stop-color="#4A4792"/>
<stop offset="1" stop-color="#2D5393"/>
</linearGradient>
</defs>
</svg>
