<svg width="64" height="65" viewBox="0 0 64 65" fill="none" xmlns="http://www.w3.org/2000/svg">
<path d="M54 30.821V33.398C53.9675 33.5204 53.9429 33.6448 53.9263 33.7703C53.7347 36.8079 52.8748 39.7659 51.408 42.433C47.9855 48.6241 42.7918 52.4007 35.827 53.7626C34.9851 53.9263 34.1253 53.9425 33.2817 54.1007H30.7094C30.601 54.0688 30.4904 54.0448 30.3785 54.0288C27.3407 53.8549 24.3805 53.0026 21.7155 51.5345C14.4881 47.4846 10.5451 41.3 10.0433 33.0276C9.76492 28.7626 10.8346 24.518 13.1012 20.8941C17.2186 14.2186 23.2373 10.6093 31.0692 10.1399C34.9834 9.89763 38.8851 10.7826 42.3115 12.69C48.5173 16.1032 52.2996 21.2969 53.6582 28.2709C53.8255 29.1197 53.8507 29.9776 54 30.821ZM36.9458 42.6704L36.2425 42.9041C35.5628 43.1356 34.8383 43.2045 34.1271 43.1056C33.3734 42.9959 33.0478 42.6883 32.9039 41.9438C32.8337 41.4031 32.8661 40.854 32.9993 40.3253C33.2943 38.7787 33.7799 37.2807 34.2027 35.7665C34.584 34.3907 35.0229 33.0294 35.0697 31.5799C35.1092 30.2743 34.7261 29.1809 33.6019 28.4364C32.4776 27.6918 31.2635 27.6271 30.0043 27.7692C28.5833 27.9292 27.2792 28.5047 25.9553 29.0047C25.8938 29.0204 25.838 29.0533 25.7944 29.0994C25.7507 29.1456 25.7211 29.2031 25.7088 29.2654C25.6153 29.6934 25.5056 30.116 25.403 30.5386C25.5829 30.6088 25.6872 30.5243 25.8042 30.4829C26.6244 30.1898 27.4554 30.0243 28.3225 30.2113C28.934 30.3426 29.2111 30.6178 29.3316 31.2238C29.4701 31.9306 29.3496 32.6211 29.1967 33.3081C28.8657 34.8151 28.4016 36.2898 27.9789 37.7734C27.5957 39.1222 27.2144 40.471 27.1784 41.8881C27.146 42.5813 27.3299 43.2675 27.7047 43.8516C28.0795 44.4357 28.6266 44.889 29.2704 45.1485C30.4144 45.634 31.6088 45.6592 32.8122 45.4758C34.0821 45.2834 35.2226 44.6755 36.4241 44.2637C36.4729 44.2514 36.5173 44.226 36.5525 44.1901C36.5878 44.1543 36.6124 44.1094 36.6238 44.0605L36.9458 42.6704ZM34.0318 18.5814C33.605 18.5852 33.181 18.65 32.7726 18.7738C30.8174 19.423 29.9557 21.6907 31.0836 23.3596C31.9074 24.5771 33.1234 24.9943 34.5606 24.8091C35.3814 24.6919 36.1236 24.2578 36.628 23.5998C37.1324 22.9419 37.3589 22.1126 37.2588 21.2897C37.0573 19.7467 35.6309 18.5814 34.0318 18.5814Z" fill="url(#paint0_linear_369_709)"/>
<defs>
<linearGradient id="paint0_linear_369_709" x1="10" y1="32.1007" x2="54" y2="32.1007" gradientUnits="userSpaceOnUse">
<stop stop-color="#9B248E"/>
<stop offset="0.739" stop-color="#4A4792"/>
<stop offset="1" stop-color="#2D5393"/>
</linearGradient>
</defs>
</svg>
