<svg width="80" height="60" viewBox="0 0 80 60" fill="none" xmlns="http://www.w3.org/2000/svg">
<rect width="80" height="60" rx="12" fill="white"/>
<g clip-path="url(#clip0_672_795)">
<path d="M29.9604 41.5082L25.1841 46.2841C24.9883 46.4732 24.726 46.5779 24.4538 46.5755C24.1815 46.5732 23.9211 46.464 23.7286 46.2715C23.5361 46.079 23.4269 45.8186 23.4245 45.5463C23.4221 45.2741 23.5268 45.0119 23.7159 44.8161L28.4922 40.0402C28.688 39.851 28.9503 39.7464 29.2226 39.7488C29.4948 39.7511 29.7552 39.8603 29.9477 40.0528C30.1402 40.2453 30.2494 40.5057 30.2518 40.7779C30.2542 41.0502 30.1495 41.3124 29.9604 41.5082ZM28.3496 36.3302C28.524 36.117 28.6066 35.8432 28.5791 35.5691C28.5517 35.2951 28.4164 35.0431 28.2032 34.8687C27.99 34.6943 27.7162 34.6118 27.4421 34.6392C27.168 34.6667 26.916 34.8019 26.7416 35.0151L22.2346 40.5351C22.1482 40.6407 22.0835 40.7623 22.0442 40.8929C22.0048 41.0235 21.9916 41.1606 22.0052 41.2964C22.0188 41.4321 22.0591 41.5638 22.1236 41.684C22.1881 41.8042 22.2757 41.9105 22.3813 41.9969C22.487 42.0832 22.6086 42.1479 22.7392 42.1873C22.8699 42.2267 23.007 42.2399 23.1427 42.2263C23.2785 42.2127 23.4102 42.1724 23.5304 42.1079C23.6506 42.0434 23.7569 41.9558 23.8433 41.8502L28.3496 36.3302ZM33.6706 41.6508L28.1516 46.1575C27.9384 46.3318 27.8032 46.5838 27.7757 46.8579C27.7483 47.132 27.8308 47.4057 28.0052 47.6189C28.1796 47.8322 28.4316 47.9674 28.7057 47.9948C28.9798 48.0223 29.2536 47.9397 29.4668 47.7653L34.9851 43.2594C35.1985 43.085 35.3338 42.833 35.3613 42.5589C35.3888 42.2847 35.3063 42.0109 35.1319 41.7976C34.9575 41.5842 34.7055 41.4489 34.4313 41.4214C34.1571 41.3939 33.8833 41.4764 33.6699 41.6508H33.6706ZM26.6378 29.3879C27.8509 29.546 29.0318 29.8931 30.1376 30.4164C30.939 28.9727 31.7825 27.5527 32.6669 26.1583C30.4538 26.3117 28.3068 26.9786 26.3962 28.106C26.2727 28.178 26.1745 28.2864 26.1151 28.4165C26.0557 28.5465 26.038 28.6917 26.0645 28.8322C26.0909 28.9727 26.1603 29.1015 26.2629 29.201C26.3656 29.3005 26.4965 29.3658 26.6378 29.3879ZM40.6135 43.3632C40.6357 43.5044 40.7011 43.6353 40.8006 43.7378C40.9002 43.8404 41.029 43.9096 41.1695 43.936C41.31 43.9624 41.4552 43.9447 41.5852 43.8852C41.7152 43.8258 41.8236 43.7276 41.8955 43.6041C43.0229 41.6933 43.6901 39.5463 43.8441 37.3331C42.0443 38.4724 40.5215 39.3452 39.5849 39.863C40.1083 40.9689 40.4554 42.1499 40.6135 43.3632ZM54.9568 25.1692C50.6513 31.1356 40.9465 36.742 38.3161 38.1886L35.7964 35.6692L42.1579 29.3083C42.3508 29.1128 42.459 28.8492 42.459 28.5746C42.459 28.2999 42.3508 28.0364 42.1579 27.8409C42.0619 27.7439 41.9476 27.6669 41.8217 27.6143C41.6957 27.5617 41.5606 27.5347 41.4241 27.5347C41.2876 27.5347 41.1525 27.5617 41.0266 27.6143C40.9006 27.6669 40.7863 27.7439 40.6904 27.8409L34.3289 34.2018L31.8093 31.6824C33.256 29.0522 38.8629 19.3481 44.8298 15.0429C46.6227 13.689 48.6958 12.7532 50.8972 12.3041C53.0986 11.8549 55.3726 11.9039 57.5526 12.4473C58.0961 14.6272 58.1451 16.901 57.6959 19.1023C57.2468 21.3035 56.3109 23.3764 54.9568 25.1692ZM52.0219 17.9777C51.4307 17.387 50.6776 16.9849 49.8579 16.8222C49.0381 16.6595 48.1885 16.7434 47.4165 17.0635C46.6445 17.3835 45.9847 17.9253 45.5206 18.6202C45.0565 19.3152 44.8089 20.1321 44.809 20.9678C44.8086 21.8036 45.0562 22.6207 45.5206 23.3157C45.985 24.0107 46.6452 24.5522 47.4176 24.8716C48.19 25.1911 49.0399 25.2741 49.8595 25.1103C50.6792 24.9464 51.4317 24.5429 52.0219 23.951C52.8135 23.1587 53.2583 22.0848 53.2588 20.9649C53.2594 19.845 52.8155 18.7706 52.0246 17.9777H52.0219ZM49.0315 18.8152C48.4616 18.8164 47.9155 19.0439 47.5131 19.4475C47.1108 19.8511 46.8851 20.3979 46.8857 20.9678C46.884 21.2497 46.9388 21.5291 47.047 21.7895C47.1552 22.0499 47.3145 22.2859 47.5156 22.4836C47.9238 22.8765 48.4684 23.096 49.035 23.096C49.6016 23.096 50.1462 22.8765 50.5544 22.4836C50.855 22.1828 51.0597 21.7996 51.1424 21.3825C51.2252 20.9654 51.1823 20.5331 51.0193 20.1404C50.8562 19.7476 50.5803 19.4121 50.2265 19.1762C49.8727 18.9403 49.4568 18.8146 49.0315 18.8152ZM31.927 36.5967C31.7314 36.7922 31.6216 37.0574 31.6216 37.3338C31.6216 37.6103 31.7314 37.8755 31.927 38.071C32.1225 38.2665 32.3877 38.3763 32.6642 38.3763C32.9407 38.3763 33.2058 38.2665 33.4014 38.071L35.7964 35.6692L34.3289 34.2018L31.927 36.5967Z" fill="url(#paint0_linear_672_795)"/>
</g>
<defs>
<linearGradient id="paint0_linear_672_795" x1="22" y1="30" x2="58" y2="30" gradientUnits="userSpaceOnUse">
<stop stop-color="#9B248E"/>
<stop offset="0.739" stop-color="#4A4792"/>
<stop offset="1" stop-color="#2D5393"/>
</linearGradient>
<clipPath id="clip0_672_795">
<rect width="36" height="36" fill="white" transform="translate(22 12)"/>
</clipPath>
</defs>
</svg>
