<svg width="32" height="32" viewBox="0 0 32 32" fill="none" xmlns="http://www.w3.org/2000/svg">
<path d="M11.8399 6.13321C10.7732 1.51988 3.82654 1.50655 2.75987 6.13321C2.1332 8.83988 3.8532 11.1332 5.34654 12.5599C6.43987 13.5865 8.15987 13.5865 9.2532 12.5599C10.7465 11.1332 12.4532 8.83988 11.8399 6.13321ZM7.34654 8.26655C6.6132 8.26655 6.0132 7.66655 6.0132 6.93321C6.0132 6.19988 6.59987 5.59988 7.3332 5.59988H7.34654C8.0932 5.59988 8.67987 6.19988 8.67987 6.93321C8.67987 7.66655 8.0932 8.26655 7.34654 8.26655Z" fill="url(#paint0_linear_590_661)"/>
<path d="M29.2133 22.1332C28.1467 17.5199 21.1733 17.5065 20.0933 22.1332C19.4667 24.8399 21.1867 27.1332 22.6933 28.5599C23.7867 29.5865 25.52 29.5865 26.6133 28.5599C28.12 27.1332 29.84 24.8399 29.2133 22.1332ZM24.7067 24.2665C23.9733 24.2665 23.3733 23.6665 23.3733 22.9332C23.3733 22.1999 23.96 21.5999 24.6933 21.5999H24.7067C25.44 21.5999 26.04 22.1999 26.04 22.9332C26.04 23.6665 25.44 24.2665 24.7067 24.2665Z" fill="url(#paint1_linear_590_661)"/>
<path d="M15.9998 26.3334H12.4264C10.8798 26.3334 9.53309 25.4001 8.99976 23.9601C8.45309 22.5201 8.85309 20.9334 10.0131 19.9067L20.6664 10.5867C21.3064 10.0267 21.3198 9.26675 21.1331 8.74675C20.9331 8.22675 20.4264 7.66675 19.5731 7.66675H15.9998C15.4531 7.66675 14.9998 7.21341 14.9998 6.66675C14.9998 6.12008 15.4531 5.66675 15.9998 5.66675H19.5731C21.1198 5.66675 22.4664 6.60008 22.9998 8.04008C23.5464 9.48008 23.1464 11.0667 21.9864 12.0934L11.3331 21.4134C10.6931 21.9734 10.6798 22.7334 10.8664 23.2534C11.0664 23.7734 11.5731 24.3334 12.4264 24.3334H15.9998C16.5464 24.3334 16.9998 24.7867 16.9998 25.3334C16.9998 25.8801 16.5464 26.3334 15.9998 26.3334Z" fill="url(#paint2_linear_590_661)"/>
<defs>
<linearGradient id="paint0_linear_590_661" x1="2.62744" y1="7.99905" x2="11.9681" y2="7.99905" gradientUnits="userSpaceOnUse">
<stop stop-color="#9B248E"/>
<stop offset="0.739" stop-color="#4A4792"/>
<stop offset="1" stop-color="#2D5393"/>
</linearGradient>
<linearGradient id="paint1_linear_590_661" x1="19.9609" y1="23.999" x2="29.3457" y2="23.999" gradientUnits="userSpaceOnUse">
<stop stop-color="#9B248E"/>
<stop offset="0.739" stop-color="#4A4792"/>
<stop offset="1" stop-color="#2D5393"/>
</linearGradient>
<linearGradient id="paint2_linear_590_661" x1="8.7583" y1="16.0001" x2="23.2412" y2="16.0001" gradientUnits="userSpaceOnUse">
<stop stop-color="#9B248E"/>
<stop offset="0.739" stop-color="#4A4792"/>
<stop offset="1" stop-color="#2D5393"/>
</linearGradient>
</defs>
</svg>
