<svg width="32" height="32" viewBox="0 0 32 32" fill="none" xmlns="http://www.w3.org/2000/svg">
<path d="M11.8394 6.13297C10.7727 1.51964 3.82605 1.5063 2.75938 6.13297C2.13272 8.83964 3.85272 11.133 5.34605 12.5596C6.43938 13.5863 8.15938 13.5863 9.25272 12.5596C10.746 11.133 12.4527 8.83964 11.8394 6.13297ZM7.34605 8.2663C6.61272 8.2663 6.01272 7.6663 6.01272 6.93297C6.01272 6.19964 6.59938 5.59964 7.33272 5.59964H7.34605C8.09272 5.59964 8.67938 6.19964 8.67938 6.93297C8.67938 7.6663 8.09272 8.2663 7.34605 8.2663Z" fill="url(#paint0_linear_172_2561)"/>
<path d="M29.2133 22.133C28.1467 17.5196 21.1733 17.5063 20.0933 22.133C19.4667 24.8396 21.1867 27.133 22.6933 28.5596C23.7867 29.5863 25.52 29.5863 26.6133 28.5596C28.12 27.133 29.84 24.8396 29.2133 22.133ZM24.7067 24.2663C23.9733 24.2663 23.3733 23.6663 23.3733 22.933C23.3733 22.1996 23.96 21.5996 24.6933 21.5996H24.7067C25.44 21.5996 26.04 22.1996 26.04 22.933C26.04 23.6663 25.44 24.2663 24.7067 24.2663Z" fill="url(#paint1_linear_172_2561)"/>
<path d="M15.9993 26.3337H12.4259C10.8793 26.3337 9.5326 25.4003 8.99927 23.9603C8.4526 22.5203 8.8526 20.9337 10.0126 19.907L20.6659 10.587C21.3059 10.027 21.3193 9.26699 21.1326 8.74699C20.9326 8.22699 20.4259 7.66699 19.5726 7.66699H15.9993C15.4526 7.66699 14.9993 7.21366 14.9993 6.66699C14.9993 6.12033 15.4526 5.66699 15.9993 5.66699H19.5726C21.1193 5.66699 22.4659 6.60033 22.9993 8.04033C23.5459 9.48033 23.1459 11.067 21.9859 12.0937L11.3326 21.4137C10.6926 21.9737 10.6793 22.7337 10.8659 23.2537C11.0659 23.7737 11.5726 24.3337 12.4259 24.3337H15.9993C16.5459 24.3337 16.9993 24.787 16.9993 25.3337C16.9993 25.8803 16.5459 26.3337 15.9993 26.3337Z" fill="url(#paint2_linear_172_2561)"/>
<defs>
<linearGradient id="paint0_linear_172_2561" x1="2.62695" y1="7.9988" x2="11.9676" y2="7.9988" gradientUnits="userSpaceOnUse">
<stop stop-color="#9B248E"/>
<stop offset="0.739" stop-color="#4A4792"/>
<stop offset="1" stop-color="#2D5393"/>
</linearGradient>
<linearGradient id="paint1_linear_172_2561" x1="19.9609" y1="23.9988" x2="29.3457" y2="23.9988" gradientUnits="userSpaceOnUse">
<stop stop-color="#9B248E"/>
<stop offset="0.739" stop-color="#4A4792"/>
<stop offset="1" stop-color="#2D5393"/>
</linearGradient>
<linearGradient id="paint2_linear_172_2561" x1="8.75781" y1="16.0003" x2="23.2407" y2="16.0003" gradientUnits="userSpaceOnUse">
<stop stop-color="#9B248E"/>
<stop offset="0.739" stop-color="#4A4792"/>
<stop offset="1" stop-color="#2D5393"/>
</linearGradient>
</defs>
</svg>
