<svg width="56" height="60" viewBox="0 0 56 60" fill="none" xmlns="http://www.w3.org/2000/svg">
<g clip-path="url(#clip0_268_1880)">
<path d="M56.001 11.6947C55.0406 32.1117 46.1858 47.9628 28.7073 58.8317C28.1698 59.1595 27.747 59.1693 27.1963 58.8317C15.308 51.6502 7.11365 41.486 2.71493 28.2964C0.52869 21.7409 -0.284187 14.9806 0.0927517 8.07772C0.120612 7.54181 0.374636 7.28124 0.881045 7.14521C9.57686 4.81912 18.2694 2.48373 26.9587 0.139066C27.6003 -0.0482268 28.2815 -0.0522119 28.9253 0.127583C37.5359 2.45477 46.1498 4.76777 54.7669 7.06655C55.6879 7.31402 55.7814 7.40907 55.8027 8.37764C55.8256 9.46257 55.8027 10.5475 55.8027 11.6324L56.001 11.6947ZM54.3539 11.8209C54.3539 11.085 54.3736 10.3459 54.3539 9.61005C54.3195 8.49071 54.3064 8.49235 53.2067 8.19735L28.4943 1.54849C28.1865 1.44574 27.8562 1.43098 27.5405 1.50587C19.0675 3.79373 10.593 6.07067 2.11675 8.33667C1.68245 8.45139 1.53823 8.61527 1.51857 9.06596C1.28042 14.0434 1.7735 19.0289 2.98207 23.8633C6.62854 38.3295 14.8491 49.4541 27.4995 57.3092C27.8273 57.5124 28.0469 57.5026 28.3697 57.3092C33.7286 54.0833 38.4782 49.9399 42.4017 45.0685C50.1896 35.3648 54.131 24.2566 54.3539 11.8209Z" fill="black"/>
<path d="M52.1969 12.8013C52.008 18.5602 50.8569 24.2469 48.7914 29.6259C44.7352 40.1146 37.9749 48.4057 28.5924 54.5711C28.1007 54.8988 27.7287 54.8497 27.2567 54.5416C17.6978 48.2756 10.9068 39.7841 6.88398 29.0671C4.7174 23.2802 3.70622 17.2672 3.68164 11.0985C3.68164 10.461 3.91928 10.1398 4.54368 9.97264C12.2136 7.92953 19.8796 5.8711 27.5419 3.79739C27.8594 3.72296 28.1913 3.73828 28.5006 3.84165L50.1975 9.6711C50.5925 9.77599 50.9826 9.90053 51.3808 9.98575C51.9462 10.1087 52.2215 10.4266 52.2002 11.0199C52.1789 11.6131 52.1969 12.2015 52.1969 12.8013ZM50.722 13.2159C50.722 12.7653 50.6957 12.3129 50.7302 11.8655C50.7597 11.4706 50.6384 11.305 50.2385 11.1969C42.9619 9.25973 35.6887 7.31112 28.4187 5.35103C28.1257 5.26422 27.8146 5.25912 27.5189 5.33629C20.2467 7.29419 12.974 9.24607 5.70072 11.1919C5.25987 11.3099 5.1304 11.482 5.14187 11.9344C5.23201 15.1334 5.527 18.3095 6.21205 21.4398C9.1325 34.7769 16.231 45.2809 27.5075 52.9519C27.8352 53.1731 28.0499 53.1633 28.3695 52.9519C36.7015 47.3426 42.8423 39.9158 46.792 30.6715C49.1361 25.1347 50.4699 19.2229 50.7302 13.2159H50.722Z" fill="black"/>
<path d="M27.9307 35.9074C24.4759 35.9074 21.0212 35.9255 17.5665 35.9074C16.8842 35.9115 16.2082 35.7773 15.5792 35.5131C14.9502 35.2489 14.3812 34.86 13.9065 34.37C13.4318 33.88 13.0612 33.2989 12.8171 32.6618C12.5729 32.0248 12.4603 31.3448 12.486 30.6631C12.5169 29.8614 12.7473 29.0801 13.1563 28.39C16.6274 22.3655 20.0789 16.3296 23.5828 10.3231C25.5707 6.91264 30.2759 6.911 32.2687 10.3231C35.7737 16.3323 39.2465 22.3562 42.687 28.3949C44.6258 31.8021 42.2298 35.8763 38.2965 35.9107C34.8401 35.932 31.3854 35.9074 27.9307 35.9074ZM27.9307 34.4325C31.3034 34.4325 34.6768 34.4325 38.0506 34.4325C41.1645 34.4325 42.8411 31.5726 41.294 28.8816C37.9212 23.0112 34.5391 17.1463 31.1478 11.2868C29.5581 8.53676 26.3016 8.54168 24.7103 11.2868C21.332 17.131 17.9598 22.9762 14.5936 28.8226C13.0186 31.5612 14.6641 34.4177 17.8107 34.4226C21.1878 34.4368 24.5633 34.4423 27.9372 34.439L27.9307 34.4325Z" fill="black"/>
<path d="M25.4836 16.8689C25.4836 16.3773 25.4721 15.8856 25.4836 15.394C25.5131 14.4598 26.1392 13.8338 27.075 13.801C27.5846 13.783 28.0943 13.801 28.604 13.801C29.7709 13.8108 30.3396 14.4155 30.3953 15.5726C30.51 18.0178 30.1331 20.422 29.8414 22.8344C29.7824 23.3261 29.7299 23.8095 29.6513 24.293C29.5169 25.1026 28.9138 25.6041 28.0665 25.6205C27.0733 25.6467 26.3489 25.2075 26.2457 24.3586C25.9507 21.8708 25.4623 19.3928 25.4836 16.8689ZM28.899 17.4311C28.899 17.1869 28.899 16.9394 28.899 16.6969C28.9318 15.2727 28.9318 15.2923 27.5174 15.2776C27.0602 15.2776 26.9504 15.4071 26.9291 15.861C26.8045 18.4734 27.3552 21.0235 27.6191 23.5998C27.6387 23.7997 27.5469 24.152 27.9468 24.1439C28.3467 24.1357 28.2336 23.7882 28.2582 23.5866C28.5008 21.543 28.7974 19.496 28.899 17.4311Z" fill="black"/>
<path d="M30.266 29.6028C30.266 29.8896 30.2873 30.178 30.266 30.4615C30.2317 30.8327 30.0628 31.1784 29.7911 31.4336C29.5193 31.6887 29.1636 31.8355 28.791 31.8464C28.2409 31.8791 27.6892 31.8791 27.139 31.8464C26.7453 31.8377 26.3698 31.6785 26.0899 31.4013C25.81 31.1242 25.6471 30.7503 25.6346 30.3566C25.601 29.847 25.601 29.3356 25.6346 28.8259C25.6448 28.422 25.8125 28.0381 26.1019 27.7562C26.3912 27.4742 26.7793 27.3164 27.1833 27.3165C27.611 27.2969 28.0388 27.3067 28.4682 27.3165C29.6842 27.3264 30.2709 27.9098 30.2709 29.1193C30.2709 29.2832 30.2709 29.4471 30.2709 29.6109L30.266 29.6028ZM27.9306 30.3779C28.9041 30.3648 28.7648 30.4877 28.8123 29.6142C28.8435 29.0439 28.7976 28.7112 28.065 28.7669C26.9719 28.8521 27.1046 28.6555 27.0948 29.5716C27.0882 30.3763 27.0932 30.3779 27.9306 30.3779Z" fill="black"/>
</g>
<circle cx="41" cy="43" r="13" fill="#93278F" fill-opacity="0.3"/>
<defs>
<clipPath id="clip0_268_1880">
<rect width="56" height="59.0843" fill="white"/>
</clipPath>
</defs>
</svg>
