<svg width="84" height="84" viewBox="0 0 84 84" fill="none" xmlns="http://www.w3.org/2000/svg">
<g clip-path="url(#clip0_152_978)">
<path d="M83.5328 41.8516C83.5328 57.6753 74.6833 71.4312 61.6645 78.4365C55.6177 81.6801 48.8625 83.3775 42.0008 83.3775C35.139 83.3775 28.3838 81.6801 22.337 78.4365C9.31824 71.4312 0.46875 57.6753 0.46875 41.8516C0.46875 18.9142 19.0634 0.31958 42.0008 0.31958C64.9382 0.31958 83.5328 18.9142 83.5328 41.8516Z" fill="url(#paint0_linear_152_978)"/>
<g style="mix-blend-mode:plus-lighter">
<path d="M61.6653 66.5125V78.4364C55.6186 81.68 48.8634 83.3774 42.0016 83.3774C35.1398 83.3774 28.3846 81.68 22.3379 78.4364V66.5125C22.3379 66.0453 22.5235 65.5973 22.8538 65.2669C23.1842 64.9366 23.6322 64.751 24.0994 64.751H59.9025C60.1339 64.7508 60.3631 64.7962 60.577 64.8847C60.7909 64.9731 60.9852 65.1028 61.1489 65.2664C61.3126 65.43 61.4425 65.6243 61.5311 65.8381C61.6197 66.0519 61.6653 66.281 61.6653 66.5125Z" fill="url(#paint1_linear_152_978)"/>
</g>
<path d="M60.4594 51.5281C60.4347 51.5966 60.4051 51.6632 60.3864 51.7327C60.0339 53.0465 59.004 53.8414 57.6385 53.8473C55.9264 53.8531 54.2153 53.8473 52.5041 53.8473H25.5369C24.0153 53.8473 22.9085 52.9662 22.6557 51.5359C22.5303 50.8282 22.7396 50.1918 23.0971 49.578C25.5017 45.4612 27.9016 41.342 30.297 37.2206C33.2315 32.1815 36.1657 27.1428 39.0995 22.1044C39.8538 20.8151 41.2362 20.3041 42.5642 20.8269C43.2099 21.0814 43.6582 21.5444 44.0018 22.1357C46.2919 26.0797 48.5856 30.0203 50.8829 33.9577C53.8904 39.1227 56.8999 44.2874 59.9114 49.4517C60.1449 49.8526 60.3289 50.2799 60.4594 50.7244V51.5281ZM43.4361 34.8192C43.4361 33.3905 43.4361 31.9622 43.4361 30.5343C43.4381 30.3378 43.4255 30.1415 43.3985 29.9469C43.3316 29.515 43.1135 29.1202 42.7824 28.8319C42.4512 28.5435 42.0283 28.3799 41.5877 28.3698C40.5075 28.3473 39.6544 29.1637 39.6495 30.2895C39.6347 33.3292 39.6435 36.3689 39.6495 39.4076C39.6516 39.5544 39.6681 39.7006 39.6988 39.8442C39.8002 40.2952 40.066 40.6932 40.4452 40.9617C40.8245 41.2302 41.2904 41.3503 41.7536 41.2989C42.7804 41.1589 43.4321 40.4042 43.438 39.3195C43.442 37.8217 43.4351 36.3199 43.4361 34.8192ZM41.5324 44.7429C41.157 44.7443 40.7904 44.8563 40.4793 45.0647C40.1682 45.2731 39.9266 45.5684 39.7852 45.9132C39.6438 46.2581 39.6089 46.6368 39.685 47.0013C39.7612 47.3658 39.9448 47.6996 40.2127 47.9604C40.4806 48.2212 40.8207 48.3971 41.1896 48.4659C41.5586 48.5347 41.9398 48.4931 42.285 48.3466C42.6301 48.2001 42.9235 47.9552 43.1279 47.643C43.3324 47.3308 43.4386 46.9654 43.4331 46.5932C43.424 46.0993 43.2198 45.6287 42.8643 45.2827C42.5088 44.9367 42.0306 44.7428 41.5324 44.7429Z" fill="white"/>
</g>
<defs>
<linearGradient id="paint0_linear_152_978" x1="3.5452" y1="15.5751" x2="84.2741" y2="21.0919" gradientUnits="userSpaceOnUse">
<stop stop-color="#E9038A"/>
<stop offset="1" stop-color="#0A6195"/>
</linearGradient>
<linearGradient id="paint1_linear_152_978" x1="42.0016" y1="65.0857" x2="42.0016" y2="82.5827" gradientUnits="userSpaceOnUse">
<stop stop-color="#A9A9A9"/>
<stop offset="1" stop-color="#3F4345"/>
</linearGradient>
<clipPath id="clip0_152_978">
<rect width="83.064" height="83.064" fill="white" transform="translate(0.46875 0.31958)"/>
</clipPath>
</defs>
</svg>
