<svg width="13" height="11" viewBox="0 0 13 11" fill="none" xmlns="http://www.w3.org/2000/svg">
<path d="M11.8111 6.20653C11.9983 6.01903 12.1035 5.76486 12.1035 5.49986C12.1035 5.23486 11.9983 4.98069 11.8111 4.79319L8.0404 1.02053C7.8528 0.83293 7.59836 0.727539 7.33306 0.727539C7.06776 0.727539 6.81332 0.83293 6.62573 1.02053C6.43813 1.20812 6.33274 1.46256 6.33274 1.72786C6.33274 1.99316 6.43813 2.2476 6.62573 2.43519L8.68973 4.49986L0.999729 4.49986C0.734512 4.49986 0.480159 4.60522 0.292623 4.79275C0.105086 4.98029 -0.000271204 5.23464 -0.000271204 5.49986C-0.000271204 5.76508 0.105086 6.01943 0.292623 6.20697C0.480159 6.3945 0.734512 6.49986 0.999729 6.49986L8.68973 6.49986L6.62573 8.56386C6.53284 8.65675 6.45916 8.76702 6.40889 8.88839C6.35862 9.00975 6.33274 9.13983 6.33274 9.27119C6.33274 9.40256 6.35862 9.53263 6.40889 9.654C6.45916 9.77536 6.53284 9.88564 6.62573 9.97853C6.71862 10.0714 6.82889 10.1451 6.95026 10.1954C7.07162 10.2456 7.2017 10.2715 7.33306 10.2715C7.46443 10.2715 7.5945 10.2456 7.71587 10.1954C7.83723 10.1451 7.94751 10.0714 8.0404 9.97853L11.8111 6.20653Z" fill="black"/>
</svg>
