<svg width="56" height="60" viewBox="0 0 56 60" fill="none" xmlns="http://www.w3.org/2000/svg">
<circle cx="41" cy="43.2046" r="12.5" fill="#404A93" fill-opacity="0.3"/>
<g clip-path="url(#clip0_268_1881)">
<path d="M27.2052 59.4153C26.2413 59.1544 25.3112 58.8336 24.5591 58.1307C23.3174 56.9703 22.7311 55.5506 22.9214 53.8577C22.9659 53.4525 22.7879 53.3251 22.507 53.1624C18.102 50.6227 13.696 48.0795 9.28891 45.5326C7.66658 44.5949 6.04884 43.6463 4.4127 42.7331C4.24221 42.6584 4.09984 42.5315 4.00606 42.3707C3.91228 42.2099 3.87195 42.0235 3.89085 41.8383C3.90774 34.8501 3.89085 27.8619 3.91387 20.8722C3.91387 20.4241 3.78341 20.2169 3.37207 20.025C2.74374 19.7284 2.18395 19.3044 1.72826 18.7798C1.27257 18.2553 0.930925 17.6418 0.725043 16.9781C0.51916 16.3145 0.453534 15.6153 0.532325 14.925C0.611116 14.2347 0.832602 13.5682 1.18272 12.9681C1.53285 12.3679 2.00395 11.8471 2.56611 11.4388C3.12828 11.0304 3.76922 10.7434 4.44823 10.596C5.12724 10.4486 5.82948 10.4441 6.51035 10.5826C7.19123 10.7211 7.83586 10.9997 8.4033 11.4007C8.75018 11.6478 8.97274 11.6263 9.31194 11.4299C15.4022 7.90176 21.495 4.37775 27.5904 0.85783C27.9573 0.644486 28.2044 0.659825 28.5651 0.867029C34.6021 4.37058 40.6443 7.86695 46.6916 11.3562C47.0508 11.5649 47.3056 11.6263 47.6969 11.3562C48.264 10.9705 48.9041 10.7054 49.5777 10.5772C50.2514 10.4491 50.9441 10.4605 51.6132 10.6109C52.2822 10.7613 52.9132 11.0475 53.4671 11.4517C54.0211 11.8558 54.4862 12.3694 54.8335 12.9606C55.181 13.5519 55.4033 14.2081 55.4868 14.8887C55.5703 15.5693 55.5131 16.2598 55.3189 16.9175C55.1247 17.5751 54.7976 18.1859 54.3578 18.712C53.9179 19.238 53.3748 19.6682 52.762 19.9759C52.3107 20.2 52.2217 20.4502 52.2232 20.8968C52.234 27.8665 52.2232 34.8363 52.2416 41.806C52.2416 42.2972 52.0882 42.5443 51.663 42.7837C45.5594 46.2873 39.461 49.8005 33.3676 53.3235C33.0376 53.5139 32.8887 53.6888 32.9072 54.1155C33.0606 56.6419 31.3385 58.8214 28.8383 59.334C28.748 59.3604 28.6598 59.3932 28.5743 59.4322L27.2052 59.4153ZM48.7806 30.3576C48.7806 27.1605 48.7806 23.9634 48.7806 20.7663C48.7806 20.3949 48.6808 20.203 48.3339 20.0265C46.3724 19.0243 45.4024 17.4004 45.4806 15.1948C45.496 14.7666 45.3701 14.5609 45.0079 14.3522C39.5039 11.1904 34.0061 8.0184 28.5144 4.83614C28.1629 4.63047 27.9204 4.65963 27.5935 4.85302C22.0681 8.05472 16.5365 11.2467 10.9987 14.4289C10.6319 14.6408 10.5229 14.8648 10.5383 15.2808C10.592 17.3897 9.66188 18.9644 7.81546 19.9652C7.44863 20.1647 7.35501 20.3734 7.35501 20.7587C7.36422 27.1344 7.36422 33.5097 7.35501 39.8844C7.35501 40.2635 7.44402 40.4983 7.79857 40.7009C13.324 43.873 18.8393 47.0557 24.3442 50.2492C24.619 50.4027 24.8047 50.4396 25.1009 50.24C25.9466 49.6499 26.9566 49.3409 27.9878 49.3568C29.0189 49.3728 30.0188 49.713 30.8459 50.329C31.1528 50.5485 31.3493 50.5194 31.647 50.3459C37.1889 47.134 42.7373 43.9323 48.2925 40.7409C48.6885 40.5137 48.799 40.2712 48.7974 39.8414C48.7713 36.675 48.7806 33.5163 48.7806 30.3576ZM27.9066 55.9696C28.3212 55.963 28.717 55.7961 29.0112 55.5039C29.3054 55.2118 29.475 54.817 29.4844 54.4025C29.4844 53.9833 29.3179 53.5812 29.0214 53.2847C28.7249 52.9882 28.3228 52.8216 27.9036 52.8216C27.4843 52.8216 27.0822 52.9882 26.7857 53.2847C26.4892 53.5812 26.3227 53.9833 26.3227 54.4025C26.3314 54.8183 26.5016 55.2144 26.7973 55.5069C27.0929 55.7994 27.4908 55.9653 27.9066 55.9696ZM7.09715 15.5264C7.0986 15.1132 6.93921 14.7158 6.65273 14.4181C6.36625 14.1205 5.97517 13.946 5.56231 13.9317C5.25098 13.9244 4.9445 14.0098 4.68178 14.177C4.41906 14.3442 4.21193 14.5857 4.08668 14.8708C3.96143 15.1559 3.92371 15.4718 3.97829 15.7784C4.03286 16.085 4.17729 16.3684 4.39324 16.5928C4.60919 16.8172 4.88693 16.9723 5.19121 17.0386C5.49549 17.1049 5.8126 17.0792 6.10229 16.965C6.39199 16.8507 6.64121 16.653 6.81834 16.3969C6.99546 16.1407 7.09251 15.8377 7.09715 15.5264ZM50.4981 17.0735C50.9065 17.0638 51.2951 16.8955 51.5815 16.6042C51.868 16.3129 52.0297 15.9215 52.0325 15.513C52.0353 15.1045 51.8789 14.7109 51.5965 14.4157C51.3141 14.1205 50.9278 13.9469 50.5195 13.9317C50.3099 13.9304 50.1021 13.9707 49.9081 14.0502C49.7141 14.1297 49.5377 14.2468 49.3892 14.3948C49.2407 14.5427 49.1229 14.7186 49.0427 14.9123C48.9624 15.106 48.9214 15.3136 48.9218 15.5233C48.9274 15.9365 49.0964 16.3307 49.3917 16.6197C49.6871 16.9087 50.0848 17.0691 50.4981 17.0658V17.0735Z" fill="black"/>
<path d="M41.6612 28.4756C41.6612 30.932 41.652 33.3761 41.6705 35.8263C41.6866 35.9843 41.6528 36.1434 41.5738 36.2811C41.4948 36.4188 41.3745 36.5283 41.2301 36.594C36.9693 39.0391 32.7146 41.4955 28.4661 43.9631C28.3541 44.0429 28.22 44.0858 28.0825 44.0858C27.945 44.0858 27.8109 44.0429 27.6989 43.9631C23.4329 41.4883 19.1614 39.0232 14.8843 36.5679C14.5681 36.3867 14.4837 36.1795 14.4837 35.8386C14.493 30.9371 14.493 26.0356 14.4837 21.1341C14.4695 20.9859 14.5018 20.8369 14.576 20.7079C14.6503 20.5789 14.7628 20.4762 14.8981 20.4141C19.1425 17.9761 23.3803 15.5279 27.6114 13.0694C27.949 12.8745 28.1945 12.8561 28.5321 13.0572C32.7632 15.5136 37.001 17.9618 41.2454 20.4018C41.583 20.5952 41.6689 20.8194 41.6658 21.1817C41.6536 23.612 41.6612 26.0484 41.6612 28.4756ZM19.678 21.6484C22.4401 23.2466 25.127 24.788 27.7971 26.3478C28.0763 26.5105 28.2574 26.3984 28.4738 26.2725L33.3842 23.4354C34.3862 22.8566 35.379 22.2748 36.4071 21.6822C36.3615 21.6258 36.31 21.5743 36.2537 21.5286C33.6092 19.9934 30.9653 18.4617 28.3219 16.9337C28.0917 16.8001 27.9413 16.8753 27.7541 16.9843C26.9454 17.4572 26.1337 17.9224 25.3234 18.3906L19.678 21.6484ZM29.8057 34.2773C29.8057 35.7143 29.8134 37.1497 29.8057 38.5867C29.8057 39.0197 29.8395 39.2008 30.3198 38.9137C32.8108 37.4532 35.311 36.0096 37.8204 34.5828C37.9552 34.5186 38.0669 34.4141 38.14 34.2838C38.2131 34.1535 38.244 34.0037 38.2286 33.8551C38.2148 30.9827 38.2286 28.1102 38.2194 25.2378C38.2194 24.6452 38.2194 24.6421 37.6762 24.9507C35.1918 26.3831 32.7105 27.8231 30.22 29.2494C30.0837 29.3115 29.9703 29.4148 29.8957 29.5448C29.8211 29.6748 29.7891 29.8249 29.8042 29.974C29.8103 31.4049 29.8011 32.8418 29.8011 34.2773H29.8057ZM17.941 29.5441C17.941 30.9612 17.9548 32.3782 17.9318 33.7952C17.9129 33.9619 17.9473 34.1303 18.03 34.2762C18.1127 34.4221 18.2395 34.538 18.3921 34.6074C20.8673 36.0167 23.3317 37.4491 25.7991 38.8723C26.3393 39.1793 26.347 39.1793 26.3485 38.5852C26.3485 35.7112 26.3485 32.8388 26.3485 29.9663C26.3632 29.8175 26.3313 29.6677 26.257 29.5378C26.1828 29.4079 26.0699 29.3045 25.9342 29.2417C23.4268 27.8088 20.9266 26.3641 18.4336 24.9077C17.9471 24.6221 17.9226 24.8033 17.9272 25.2362C17.9456 26.6717 17.9364 28.1087 17.9364 29.5441H17.941Z" fill="black"/>
</g>
<defs>
<clipPath id="clip0_268_1881">
<rect width="55.024" height="58.7276" fill="white" transform="translate(0.5 0.70459)"/>
</clipPath>
</defs>
</svg>
