<svg width="32" height="32" viewBox="0 0 32 32" fill="none" xmlns="http://www.w3.org/2000/svg">
<path d="M29.2966 24.4403C29.2966 24.9203 29.1899 25.4137 28.9633 25.8937C28.7366 26.3737 28.4433 26.827 28.0566 27.2537C27.4033 27.9737 26.6833 28.4937 25.8699 28.827C25.0699 29.1603 24.2033 29.3337 23.2699 29.3337C21.9099 29.3337 20.4566 29.0137 18.9233 28.3603C17.3899 27.707 15.8566 26.827 14.3366 25.7203C12.8033 24.6003 11.3499 23.3603 9.96326 21.987C8.58992 20.6003 7.34992 19.147 6.24326 17.627C5.14992 16.107 4.26992 14.587 3.62992 13.0803C2.98992 11.5603 2.66992 10.107 2.66992 8.72033C2.66992 7.81366 2.82992 6.94699 3.14992 6.14699C3.46992 5.33366 3.97659 4.58699 4.68326 3.92033C5.53659 3.08033 6.46992 2.66699 7.45659 2.66699C7.82992 2.66699 8.20326 2.74699 8.53659 2.90699C8.88326 3.06699 9.18992 3.30699 9.42992 3.65366L12.5233 8.01366C12.7633 8.34699 12.9366 8.65366 13.0566 8.94699C13.1766 9.22699 13.2433 9.50699 13.2433 9.76033C13.2433 10.0803 13.1499 10.4003 12.9633 10.707C12.7899 11.0137 12.5366 11.3337 12.2166 11.6537L11.2033 12.707C11.0566 12.8537 10.9899 13.027 10.9899 13.2403C10.9899 13.347 11.0033 13.4403 11.0299 13.547C11.0699 13.6537 11.1099 13.7337 11.1366 13.8137C11.3766 14.2537 11.7899 14.827 12.3766 15.5203C12.9766 16.2137 13.6166 16.9203 14.3099 17.627C15.0299 18.3337 15.7233 18.987 16.4299 19.587C17.1233 20.1737 17.6966 20.5737 18.1499 20.8137C18.2166 20.8403 18.2966 20.8803 18.3899 20.9203C18.4966 20.9603 18.6033 20.9737 18.7233 20.9737C18.9499 20.9737 19.1233 20.8937 19.2699 20.747L20.2833 19.747C20.6166 19.4137 20.9366 19.1603 21.2433 19.0003C21.5499 18.8137 21.8566 18.7203 22.1899 18.7203C22.4433 18.7203 22.7099 18.7737 23.0033 18.8937C23.2966 19.0137 23.6033 19.187 23.9366 19.4137L28.3499 22.547C28.6966 22.787 28.9366 23.067 29.0833 23.4003C29.2166 23.7337 29.2966 24.067 29.2966 24.4403Z" stroke="url(#paint0_linear_172_2548)" stroke-width="2.4" stroke-miterlimit="10"/>
<path d="M24.6686 12.0007C24.6686 11.2007 24.042 9.97398 23.1086 8.97398C22.2553 8.05398 21.122 7.33398 20.002 7.33398" stroke="url(#paint1_linear_172_2548)" stroke-width="2.4" stroke-linecap="round" stroke-linejoin="round"/>
<path d="M29.3353 12.0003C29.3353 6.84033 25.162 2.66699 20.002 2.66699" stroke="url(#paint2_linear_172_2548)" stroke-width="2.4" stroke-linecap="round" stroke-linejoin="round"/>
<defs>
<linearGradient id="paint0_linear_172_2548" x1="2.66992" y1="16.0003" x2="29.2966" y2="16.0003" gradientUnits="userSpaceOnUse">
<stop stop-color="#9B248E"/>
<stop offset="0.739" stop-color="#4A4792"/>
<stop offset="1" stop-color="#2D5393"/>
</linearGradient>
<linearGradient id="paint1_linear_172_2548" x1="20.002" y1="9.66732" x2="24.6686" y2="9.66732" gradientUnits="userSpaceOnUse">
<stop stop-color="#9B248E"/>
<stop offset="0.739" stop-color="#4A4792"/>
<stop offset="1" stop-color="#2D5393"/>
</linearGradient>
<linearGradient id="paint2_linear_172_2548" x1="20.002" y1="7.33366" x2="29.3353" y2="7.33366" gradientUnits="userSpaceOnUse">
<stop stop-color="#9B248E"/>
<stop offset="0.739" stop-color="#4A4792"/>
<stop offset="1" stop-color="#2D5393"/>
</linearGradient>
</defs>
</svg>
