<svg width="1077" height="725" viewBox="0 0 1077 725" fill="none" xmlns="http://www.w3.org/2000/svg">
<path opacity="0.5" d="M910.825 399.048C832.358 399.048 768.748 335.438 768.748 256.971C768.748 178.504 832.358 114.894 910.825 114.894C989.292 114.894 1052.9 178.504 1052.9 256.971C1052.9 335.438 989.292 399.048 910.825 399.048Z" fill="url(#paint0_linear_591_643)"/>
<path opacity="0.5" d="M546.423 596.972C490.938 541.487 490.938 451.529 546.423 396.044C601.907 340.56 691.866 340.56 747.35 396.045C802.835 451.529 802.835 541.487 747.35 596.972C691.866 652.457 601.907 652.457 546.423 596.972Z" fill="url(#paint1_linear_591_643)"/>
<path opacity="0.5" d="M626.407 219.207C565.879 219.207 516.812 170.14 516.812 109.612C516.812 49.0844 565.879 0.0170898 626.407 0.0170898C686.934 0.0170898 736.001 49.0844 736.001 109.612C736.001 170.14 686.934 219.207 626.407 219.207Z" fill="url(#paint2_linear_591_643)"/>
<g style="mix-blend-mode:multiply" opacity="0.3">
<path d="M-6.10352e-05 696.407C-6.10352e-05 706.442 15.845 715.949 44.102 724.4H798.59C826.847 715.949 842.692 706.442 842.692 696.407C842.692 670.791 738.907 648.608 590.228 638.837C594.717 634.611 597.358 629.858 597.358 625.104C597.358 616.125 588.643 607.939 573.591 600.544H198.327C183.01 607.939 174.56 616.389 174.56 625.104C174.56 633.819 179.577 638.044 188.292 644.118C74.9999 655.474 0.264038 674.488 0.264038 696.407H-6.10352e-05Z" fill="#C0AEFD"/>
</g>
<path d="M1076.41 724.4H974.998L1011.97 331.971C1013.55 332.235 1043.66 328.01 1076.41 336.988V724.4Z" fill="#553873"/>
<path d="M1076.41 355.738C1054.75 342.27 1030.46 337.517 1011.44 336.196L1011.97 331.971C1013.55 332.235 1043.66 328.01 1076.41 336.988V355.738Z" fill="#8054AE"/>
<path d="M342.516 577.569C338.026 584.963 337.498 593.678 337.234 602.393C337.234 604.77 337.234 606.882 337.762 608.995C338.819 612.692 341.459 615.861 344.628 617.974C352.815 623.784 363.378 625.104 373.149 624.312C383.185 623.52 392.692 620.615 402.463 619.03C424.646 614.805 447.357 615.861 470.068 616.653C470.332 601.072 471.653 585.492 473.237 569.911C461.089 564.893 450.526 556.706 439.435 549.84C428.343 542.974 415.139 537.956 402.199 540.069C395.068 541.389 388.202 544.559 381.864 548.256C374.47 552.481 367.075 557.234 359.681 561.988C353.079 566.213 346.477 570.703 342.252 577.305L342.516 577.569Z" fill="#FCB6BD"/>
<path d="M730.72 323.52C730.72 323.52 702.463 331.178 678.167 410.14C653.872 488.837 647.006 500.72 647.006 500.72C647.006 500.72 528.432 554.33 495.157 556.178C462.147 558.027 457.657 556.178 457.657 556.178V621.671C457.657 621.671 553.256 622.199 605.808 611.636C658.625 601.072 700.351 574.664 721.213 553.273C742.076 531.882 762.938 503.625 762.938 503.625L730.456 323.52H730.72Z" fill="#B04FA5"/>
<path d="M450.791 708.819L440.755 717.269L249.03 603.713V589.453L262.234 592.622L447.093 701.952L450.791 708.819Z" fill="#A493DB"/>
<path d="M592.868 699.576L609.77 704.593V717.269H440.756V704.593L443.132 697.463L592.868 699.576Z" fill="#A18FDA"/>
<path d="M396.125 584.963C397.974 585.492 609.77 704.593 609.77 704.593H440.228L248.767 589.453L396.125 584.963Z" fill="#C0AEFD"/>
<path d="M904.224 268.591C904.224 268.591 1008.01 271.231 1036.27 351.777C1064.52 432.323 1053.7 565.949 1053.7 590.245C1053.7 614.541 1055.81 724.4 1055.81 724.4H749.207C749.207 724.4 758.186 630.65 756.073 607.939C754.225 585.227 735.739 531.618 721.478 488.044C707.218 444.206 694.542 425.721 699.559 368.414C704.577 311.108 777.2 300.281 777.2 300.281L904.488 268.591H904.224Z" fill="#85367C"/>
<path d="M825.527 368.414L799.383 346.496L775.087 375.545L789.347 289.981L808.89 287.605L825.527 368.414Z" fill="#B04FA5"/>
<path d="M854.311 250.369C854.311 250.369 869.892 245.879 882.832 250.369C895.772 254.858 905.279 262.252 904.223 273.608C903.167 284.964 878.871 308.731 878.871 308.731L854.311 319.03V250.369Z" fill="#85367C"/>
<path d="M792.78 298.168L795.949 325.368V328.802C801.494 337.252 825.526 368.414 825.526 368.414L872.797 304.77C873.325 289.717 874.117 272.552 874.91 256.178C875.702 239.277 876.758 222.904 877.287 210.492C878.079 196.495 878.607 187.517 878.607 187.517L855.896 192.006L837.41 222.904L792.515 298.168H792.78Z" fill="#FCB6BD"/>
<g style="mix-blend-mode:multiply">
<path d="M792.779 298.168L795.948 325.368C844.276 308.467 865.666 280.474 874.909 255.914C875.702 239.013 876.758 222.64 877.286 210.228L837.409 222.64L792.515 297.904L792.779 298.168Z" fill="#FCB6BD"/>
</g>
<path d="M510.739 672.375C511.532 674.224 512.852 675.808 514.701 676.865C524.736 684.259 538.996 684.259 549.824 678.449C552.201 677.129 554.313 675.544 556.426 673.432C555.898 673.96 555.634 674.752 555.37 675.28C553.785 678.977 553.785 683.203 554.841 687.164C556.426 692.974 560.651 697.991 565.141 702.217C571.215 708.027 578.081 712.78 585.739 716.477C590.229 718.59 594.982 720.439 600 720.174C604.489 720.174 608.979 717.798 611.091 713.836C611.355 713.308 611.619 712.78 611.884 712.252C612.148 712.252 612.676 712.252 612.94 712.516C655.193 726.248 704.049 725.192 742.341 702.481C743.133 689.013 742.869 661.812 741.813 648.608C723.591 649.664 705.633 649.136 689.788 639.893C661.267 623.256 629.577 607.411 596.831 611.9C582.834 614.013 569.63 619.558 558.803 628.273C555.105 631.178 551.408 634.611 547.975 638.044C545.334 640.685 542.694 643.326 539.789 645.967C534.771 650.72 529.489 654.946 523.415 657.851C520.51 659.435 517.077 660.491 514.701 662.604C512.06 664.717 510.475 668.414 511.532 671.583L510.739 672.375Z" fill="#FCB6BD"/>
<g style="mix-blend-mode:multiply">
<path d="M539.261 646.759L541.109 646.231C541.109 645.967 552.465 635.139 571.215 628.009C589.965 620.879 620.334 630.122 620.599 630.386C621.127 630.386 621.655 630.386 621.919 629.858C621.919 629.33 621.919 628.801 621.391 628.537C620.07 628.273 589.965 619.03 570.687 626.425C560.651 630.122 552.729 635.139 547.447 638.837C544.806 641.477 542.166 644.118 539.261 646.759Z" fill="#FCB6BD"/>
<path d="M556.162 673.696C555.634 674.224 555.37 675.016 555.106 675.544C556.69 673.96 558.275 672.375 559.595 671.319C567.254 664.453 572.271 660.755 586.532 652.833C600 645.439 624.296 652.833 624.56 652.833C625.088 652.833 625.616 652.833 625.88 652.305C625.88 651.777 625.88 651.248 625.088 650.984C624.032 650.72 599.472 643.062 585.475 650.984C572.007 658.643 566.461 662.34 558.275 669.734C556.162 671.847 552.993 675.016 549.824 678.449C552.201 677.129 554.314 675.544 556.426 673.432L556.162 673.696Z" fill="#FCB6BD"/>
<path d="M597.624 692.445C611.621 701.952 610.564 712.252 610.564 712.516V714.364C610.829 713.836 611.093 713.308 611.357 712.78C611.621 712.78 612.149 712.78 612.413 713.044C612.413 711.195 612.941 700.632 598.681 690.861C598.152 690.597 597.624 690.861 597.36 690.861C597.096 691.389 597.36 691.917 597.36 692.181L597.624 692.445Z" fill="#FCB6BD"/>
</g>
<path d="M270.158 664.981L278.344 666.829L277.552 672.111L234.242 687.164L216.548 679.241L224.735 669.206L270.158 664.981Z" fill="#C0AEFD"/>
<path d="M175.615 671.847L270.686 660.491L278.344 666.829L206.777 685.579L175.615 671.847Z" fill="#A493DB"/>
<path d="M372.887 257.499L383.978 248.52H396.918L408.274 630.914H392.165L384.242 621.671L372.887 257.499Z" fill="#AC97F2"/>
<path d="M383.979 248.52L392.166 630.914L192.783 588.396L180.635 300.281L383.979 248.52Z" fill="#7768A7"/>
<path d="M358.627 696.935L363.908 693.238L343.31 686.108H306.602L188.82 672.111L180.634 686.108L205.458 694.558L358.627 696.935Z" fill="#C0AEFD"/>
<path d="M249.031 575.984L266.725 572.551L269.63 585.227L212.588 678.449L192.781 686.107L184.331 680.034L249.031 575.984Z" fill="#C0AEFD"/>
<path d="M254.049 386.636L266.725 372.111L289.436 386.636V579.153L269.63 585.227L258.274 572.023L254.049 386.636Z" fill="#C0AEFD"/>
<path d="M363.908 702.745H195.687L156.338 686.107L239.26 569.646L266.725 572.551L192.782 686.107L337.236 693.238H363.908V702.745Z" fill="#A493DB"/>
<path d="M266.725 372.111L269.63 585.227L228.433 576.777V378.449L266.725 372.111Z" fill="#A493DB"/>
<path d="M719.63 201.249C716.46 257.499 740.492 304.77 777.728 310.58C818.925 317.182 860.386 270.439 870.686 206.531C878.872 155.298 864.348 108.82 837.147 88.7492C830.281 83.7316 822.622 80.2985 814.436 78.9781C805.985 77.6577 797.534 78.4499 789.612 81.3548C765.58 82.1471 719.894 90.5978 713.291 140.246C711.179 155.562 712.763 174.577 719.894 198.344C719.894 198.344 719.894 198.608 719.894 198.872C719.894 199.665 719.894 200.457 719.894 201.249H719.63Z" fill="#FCB6BD"/>
<g style="mix-blend-mode:multiply">
<path d="M713.026 140.246C775.35 147.376 835.297 90.3337 836.882 88.7492C830.016 83.7316 822.357 80.2985 814.171 78.9781C805.72 77.6577 797.269 78.4499 789.347 81.3548C765.315 82.1471 719.629 90.5978 713.026 140.246Z" fill="#FCB6BD"/>
</g>
<g style="mix-blend-mode:multiply">
<path d="M758.448 235.052C758.448 235.052 750.79 251.953 735.209 240.862C735.209 240.862 743.396 253.274 760.561 244.559C760.561 244.559 767.955 236.372 758.713 234.788L758.448 235.052Z" fill="#FCB6BD"/>
</g>
<path d="M792.779 241.39C792.779 241.39 778.255 255.915 744.716 256.443C744.716 256.443 747.093 273.872 765.05 272.552C783.008 270.967 790.403 251.161 792.779 241.39Z" fill="white"/>
<path d="M841.901 64.1893C841.901 64.1893 892.605 59.4358 894.718 125.721C894.718 125.721 917.429 188.573 870.686 206.795C870.686 206.795 851.144 223.696 838.732 210.756C826.32 197.816 838.732 153.714 838.732 153.714C838.732 153.714 814.172 121.231 823.943 93.5026L842.165 64.1893H841.901Z" fill="#752500"/>
<path d="M706.953 118.591C709.594 120.703 712.234 122.288 715.139 123.344C715.139 123.344 715.403 123.344 715.668 123.344C742.604 133.379 781.689 103.274 810.738 102.218C824.206 101.689 833.977 96.9359 840.843 91.3901C843.748 89.0133 846.125 86.3725 848.238 84.2598C852.463 78.9782 854.312 74.4887 854.312 74.4887C857.481 55.7388 832.129 40.686 780.632 44.6472C729.136 48.6085 680.544 96.4077 706.953 118.591Z" fill="#752500"/>
<path d="M755.281 70.5275C772.974 62.0768 794.893 60.4923 819.453 67.6226C831.337 71.0556 840.844 76.8655 848.502 83.7317C882.569 115.158 879.928 172.992 879.928 172.992L868.045 171.936C868.045 143.943 859.858 48.6085 755.545 70.5275H755.281Z" fill="#3A7187"/>
<path d="M757.393 178.274C757.921 178.274 758.713 178.274 759.241 177.482C771.389 162.165 790.139 173.52 790.932 174.048C791.724 174.577 793.044 174.313 793.572 173.52C794.101 172.728 793.836 171.408 793.044 170.879C793.044 170.879 770.597 157.147 756.337 175.369C755.544 176.161 755.808 177.482 756.601 178.01C756.865 178.01 757.129 178.274 757.657 178.538L757.393 178.274Z" fill="#752500"/>
<path d="M712.235 189.365C712.763 189.365 713.555 189.101 713.819 188.573C719.629 179.594 729.136 185.404 729.4 185.668C730.193 186.196 731.513 185.932 732.041 185.14C732.569 184.348 732.305 183.027 731.513 182.499C727.024 179.594 716.724 176.689 710.386 186.46C709.858 187.253 710.122 188.573 710.914 189.101C711.178 189.101 711.707 189.365 711.971 189.365H712.235Z" fill="#752500"/>
<path d="M869.1 306.091C869.1 306.091 892.339 290.774 895.508 270.703C897.621 257.763 884.416 254.33 874.909 253.538C874.909 251.425 874.909 249.577 875.174 247.464C884.416 247.728 899.469 250.105 908.448 260.668C922.18 276.777 901.318 338.573 854.311 390.333L845.596 350.721L825.526 368.15L837.938 335.668L869.1 305.826V306.091Z" fill="#B04FA5"/>
<path d="M784.595 291.566L799.383 287.34C804.665 285.756 807.57 280.474 806.249 275.193C804.665 269.911 799.383 267.006 794.102 268.326L779.313 272.552C774.031 274.136 771.126 279.418 772.447 284.7C774.031 289.981 779.313 292.886 784.595 291.566Z" fill="#231F20"/>
<path d="M802.023 278.89C802.815 278.89 819.189 275.457 846.653 250.369C874.382 225.017 874.118 183.555 873.854 181.971C873.854 180.915 873.062 180.122 872.005 180.122C870.949 180.122 870.157 180.915 870.157 181.971C870.157 182.499 870.421 223.432 844.012 247.728C817.34 272.024 801.231 275.457 800.967 275.457C799.91 275.457 799.382 276.513 799.646 277.569C799.646 278.626 800.703 279.154 801.759 279.154L802.023 278.89Z" fill="#3A7187"/>
<path d="M876.76 223.432C861.737 223.432 849.559 206.643 849.559 185.932C849.559 165.222 861.737 148.432 876.76 148.432C891.782 148.432 903.96 165.222 903.96 185.932C903.96 206.643 891.782 223.432 876.76 223.432Z" fill="#67BCE0"/>
<path d="M876.76 187.253C876.76 200.457 883.89 211.284 892.605 211.284C901.32 211.284 908.45 200.457 908.45 187.253C908.45 174.048 901.32 163.221 892.605 163.221C883.89 163.221 876.76 174.048 876.76 187.253Z" fill="#B3E3F8"/>
<path d="M1046.83 456.882C1046.3 459.787 1008.01 660.755 967.076 678.977C926.143 697.199 734.946 715.421 734.946 715.421L726.496 641.741C726.496 641.741 862.763 605.826 886.531 591.037C910.298 576.513 928.784 440.245 928.784 440.245C928.784 440.245 917.164 363.661 974.471 335.668C1031.78 307.939 1063.73 376.601 1046.57 456.618L1046.83 456.882Z" fill="#B04FA5"/>
<g style="mix-blend-mode:multiply">
<path d="M764.258 193.327C764.786 193.327 765.314 193.327 765.578 192.798C775.085 180.915 786.969 189.629 787.497 190.158C788.026 190.686 789.082 190.422 789.346 190.158C789.874 189.629 789.61 188.573 789.346 188.309C789.346 188.309 774.821 177.481 763.73 191.478C763.202 192.006 763.466 193.062 763.73 193.327C763.73 193.327 764.258 193.327 764.522 193.591L764.258 193.327Z" fill="#FCB6BD"/>
</g>
<g style="mix-blend-mode:multiply">
<path d="M719.63 198.872C719.63 199.665 719.63 200.457 719.63 201.249C725.44 195.439 733.098 199.929 733.362 200.193C733.89 200.457 734.419 200.193 734.683 199.929C734.947 199.401 734.683 198.872 734.419 198.608C734.419 198.608 726.232 193.855 719.63 198.608C719.63 198.608 719.63 198.872 719.63 199.136V198.872Z" fill="#FCB6BD"/>
</g>
<defs>
<linearGradient id="paint0_linear_591_643" x1="910.825" y1="114.894" x2="910.825" y2="419.647" gradientUnits="userSpaceOnUse">
<stop stop-color="#A952A5"/>
<stop offset="0.9" stop-color="white" stop-opacity="0"/>
</linearGradient>
<linearGradient id="paint1_linear_591_643" x1="646.998" y1="354.338" x2="646.998" y2="658.827" gradientUnits="userSpaceOnUse">
<stop stop-color="#A952A5"/>
<stop offset="0.9" stop-color="white" stop-opacity="0"/>
</linearGradient>
<linearGradient id="paint2_linear_591_643" x1="626.407" y1="0.281174" x2="626.407" y2="234.788" gradientUnits="userSpaceOnUse">
<stop stop-color="#A952A5"/>
<stop offset="0.9" stop-color="white" stop-opacity="0"/>
</linearGradient>
</defs>
</svg>
