<svg width="24" height="22" viewBox="0 0 24 22" fill="none" xmlns="http://www.w3.org/2000/svg">
<path fill-rule="evenodd" clip-rule="evenodd" d="M21.4283 8.99801C21.0629 5.50001 18.8472 0 11.9999 0C5.15242 0 2.93672 5.50001 2.57138 8.99801C1.2897 9.45202 0.444289 10.6005 0.44998 11.88V13.42C0.44998 15.1211 1.92745 16.5 3.74992 16.5C5.57245 16.5 7.04992 15.121 7.04992 13.42V11.88C7.04395 10.6281 6.22964 9.50322 4.98741 9.03101C5.22314 7.00698 6.37814 2.20002 11.9999 2.20002C17.6216 2.20002 18.7648 7.00698 19.0005 9.03101C17.7608 9.50425 16.9506 10.6299 16.9498 11.88V13.42C16.9523 13.9996 17.1294 14.5668 17.4607 15.0569C17.792 15.547 18.2643 15.9404 18.8237 16.192C18.3287 17.061 17.0676 18.238 13.968 18.59C13.3484 17.7119 12.1497 17.3657 11.107 17.7638C10.0644 18.1618 9.4692 19.1929 9.68664 20.2246C9.90409 21.2563 10.8733 22 11.9999 22C12.4364 21.9977 12.8636 21.8824 13.234 21.6668C13.6044 21.4512 13.9034 21.1439 14.0977 20.779C19.1537 20.24 20.7683 17.809 21.2751 16.379C22.6461 15.9645 23.5682 14.765 23.5497 13.42V11.88C23.5554 10.6005 22.71 9.45202 21.4283 8.99801ZM4.69278 13.42C4.69278 13.906 4.27066 14.3 3.74992 14.3C3.22918 14.3 2.80711 13.906 2.80711 13.42V11.88C2.80616 11.7639 2.82984 11.6487 2.8768 11.5412C2.92375 11.4336 2.99305 11.3358 3.0807 11.2534C3.16834 11.1709 3.2726 11.1055 3.38746 11.0609C3.50233 11.0162 3.62552 10.9932 3.74995 10.9932C3.87437 10.9932 3.99757 11.0162 4.11243 11.0609C4.2273 11.1055 4.33156 11.1709 4.4192 11.2534C4.50685 11.3358 4.57614 11.4336 4.6231 11.5412C4.67005 11.6487 4.69374 11.7639 4.69278 11.88V13.42ZM19.3069 11.88C19.3069 11.394 19.729 11 20.2497 11C20.7705 11 21.1926 11.394 21.1926 11.88V13.42C21.1926 13.906 20.7705 14.3 20.2497 14.3C19.729 14.3 19.3069 13.906 19.3069 13.42V11.88Z" fill="url(#paint0_linear_629_888)"/>
<defs>
<linearGradient id="paint0_linear_629_888" x1="0.449951" y1="11" x2="23.55" y2="11" gradientUnits="userSpaceOnUse">
<stop stop-color="#9B248E"/>
<stop offset="0.739" stop-color="#4A4792"/>
<stop offset="1" stop-color="#2D5393"/>
</linearGradient>
</defs>
</svg>
