<svg width="1440" height="1024" viewBox="0 0 1440 1024" fill="none" xmlns="http://www.w3.org/2000/svg">
<path d="M-0.84314 70H1440V1024.4H-0.84314V70Z" fill="white"/>
<path opacity="0.5" d="M-1 0H1440V1024H-1V0Z" fill="url(#paint0_linear_197_2226)"/>
<path opacity="0.5" d="M211.481 1024.4H1440V70H943.786C908.399 214.982 715.089 906.354 211.745 1024.4H211.481Z" fill="url(#paint1_linear_197_2226)"/>
<path opacity="0.5" d="M1274.42 699.048C1195.95 699.048 1132.34 635.438 1132.34 556.971C1132.34 478.504 1195.95 414.894 1274.42 414.894C1352.89 414.894 1416.5 478.504 1416.5 556.971C1416.5 635.438 1352.89 699.048 1274.42 699.048Z" fill="url(#paint2_linear_197_2226)"/>
<path opacity="0.5" d="M910.016 896.972C854.531 841.488 854.531 751.529 910.016 696.045C965.5 640.56 1055.46 640.56 1110.94 696.045C1166.43 751.529 1166.43 841.488 1110.94 896.972C1055.46 952.457 965.5 952.457 910.016 896.972Z" fill="url(#paint3_linear_197_2226)"/>
<path opacity="0.5" d="M990 519.207C929.472 519.207 880.405 470.14 880.405 409.612C880.405 349.085 929.472 300.017 990 300.017C1050.53 300.017 1099.59 349.085 1099.59 409.612C1099.59 470.14 1050.53 519.207 990 519.207Z" fill="url(#paint4_linear_197_2226)"/>
<path d="M-0.84314 856.178H1440V1024.4H-0.84314V856.178Z" fill="white"/>
<g style="mix-blend-mode:multiply" opacity="0.3">
<path d="M363.593 996.407C363.593 1006.44 379.438 1015.95 407.695 1024.4H1162.18C1190.44 1015.95 1206.29 1006.44 1206.29 996.407C1206.29 970.791 1102.5 948.608 953.821 938.837C958.311 934.611 960.951 929.858 960.951 925.104C960.951 916.125 952.237 907.939 937.184 900.545H561.92C546.604 907.939 538.153 916.39 538.153 925.104C538.153 933.819 543.17 938.045 551.885 944.118C438.593 955.474 363.857 974.488 363.857 996.407H363.593Z" fill="#C0AEFD"/>
</g>
<path d="M1440 1024.4H1338.59L1375.56 631.971C1377.15 632.235 1407.25 628.01 1440 636.989V1024.4Z" fill="#553873"/>
<path d="M1440 655.739C1418.35 642.27 1394.05 637.517 1375.04 636.196L1375.56 631.971C1377.15 632.235 1407.25 628.01 1440 636.989V655.739Z" fill="#8054AE"/>
<path d="M706.109 877.569C701.62 884.963 701.092 893.678 700.827 902.393C700.827 904.77 700.828 906.883 701.356 908.995C702.412 912.692 705.053 915.861 708.222 917.974C716.408 923.784 726.972 925.104 736.743 924.312C746.778 923.52 756.285 920.615 766.056 919.03C788.239 914.805 810.951 915.861 833.662 916.654C833.926 901.073 835.246 885.492 836.831 869.911C824.683 864.893 814.12 856.706 803.028 849.84C791.937 842.974 778.732 837.957 765.792 840.069C758.662 841.39 751.796 844.559 745.458 848.256C738.063 852.481 730.669 857.235 723.275 861.988C716.673 866.214 710.07 870.703 705.845 877.305L706.109 877.569Z" fill="#FCB6BD"/>
<path d="M1094.31 623.52C1094.31 623.52 1066.06 631.179 1041.76 710.14C1017.47 788.837 1010.6 800.721 1010.6 800.721C1010.6 800.721 892.025 854.33 858.75 856.178C825.74 858.027 821.251 856.178 821.251 856.178V921.671C821.251 921.671 916.849 922.199 969.402 911.636C1022.22 901.073 1063.94 874.664 1084.81 853.273C1105.67 831.883 1126.53 803.626 1126.53 803.626L1094.05 623.52H1094.31Z" fill="#B04FA5"/>
<path d="M814.384 1008.82L804.349 1017.27L612.624 903.714V889.453L625.828 892.622L810.687 1001.95L814.384 1008.82Z" fill="#A493DB"/>
<path d="M956.461 999.576L973.363 1004.59V1017.27H804.349V1004.59L806.726 997.463L956.461 999.576Z" fill="#A18FDA"/>
<path d="M759.719 884.964C761.567 885.492 973.363 1004.59 973.363 1004.59H803.821L612.36 889.453L759.719 884.964Z" fill="#C0AEFD"/>
<path d="M1267.82 568.591C1267.82 568.591 1371.6 571.232 1399.86 651.777C1428.12 732.323 1417.29 865.95 1417.29 890.245C1417.29 914.541 1419.4 1024.4 1419.4 1024.4H1112.8C1112.8 1024.4 1121.78 930.65 1119.67 907.939C1117.82 885.228 1099.33 831.619 1085.07 788.045C1070.81 744.207 1058.13 725.721 1063.15 668.415C1068.17 611.108 1140.79 600.281 1140.79 600.281L1268.08 568.591H1267.82Z" fill="#85367C"/>
<path d="M1189.12 668.415L1162.98 646.496L1138.68 675.545L1152.94 589.982L1172.48 587.605L1189.12 668.415Z" fill="#B04FA5"/>
<path d="M1217.9 550.369C1217.9 550.369 1233.49 545.879 1246.43 550.369C1259.37 554.858 1268.87 562.253 1267.82 573.608C1266.76 584.964 1242.46 608.732 1242.46 608.732L1217.9 619.031V550.369Z" fill="#85367C"/>
<path d="M1156.37 598.168L1159.54 625.369V628.802C1165.09 637.253 1189.12 668.415 1189.12 668.415L1236.39 604.77C1236.92 589.717 1237.71 572.552 1238.5 556.179C1239.3 539.277 1240.35 522.904 1240.88 510.492C1241.67 496.496 1242.2 487.517 1242.2 487.517L1219.49 492.006L1201 522.904L1156.11 598.168H1156.37Z" fill="#FCB6BD"/>
<g style="mix-blend-mode:multiply">
<path d="M1156.37 598.168L1159.54 625.369C1207.87 608.467 1229.26 580.474 1238.5 555.915C1239.29 539.013 1240.35 522.64 1240.88 510.228L1201 522.64L1156.11 597.904L1156.37 598.168Z" fill="#FCB6BD"/>
</g>
<path d="M874.333 972.375C875.125 974.224 876.445 975.808 878.294 976.865C888.329 984.259 902.59 984.259 913.417 978.449C915.794 977.129 917.906 975.544 920.019 973.432C919.491 973.96 919.227 974.752 918.963 975.28C917.378 978.977 917.378 983.203 918.435 987.164C920.019 992.974 924.245 997.992 928.734 1002.22C934.808 1008.03 941.674 1012.78 949.333 1016.48C953.822 1018.59 958.575 1020.44 963.593 1020.17C968.082 1020.17 972.572 1017.8 974.685 1013.84C974.949 1013.31 975.213 1012.78 975.477 1012.25C975.741 1012.25 976.269 1012.25 976.533 1012.52C1018.79 1026.25 1067.64 1025.19 1105.93 1002.48C1106.73 989.013 1106.46 961.812 1105.41 948.608C1087.18 949.664 1069.23 949.136 1053.38 939.893C1024.86 923.256 993.17 907.411 960.424 911.9C946.428 914.013 933.223 919.559 922.396 928.273C918.699 931.178 915.002 934.611 911.568 938.044C908.928 940.685 906.287 943.326 903.382 945.967C898.364 950.72 893.083 954.946 887.009 957.851C884.104 959.435 880.671 960.492 878.294 962.604C875.653 964.717 874.069 968.414 875.125 971.583L874.333 972.375Z" fill="#FCB6BD"/>
<g style="mix-blend-mode:multiply">
<path d="M902.854 946.759L904.702 946.231C904.702 945.967 916.058 935.139 934.808 928.009C953.558 920.879 983.928 930.122 984.192 930.386C984.72 930.386 985.248 930.386 985.512 929.858C985.512 929.33 985.512 928.801 984.984 928.537C983.664 928.273 953.558 919.03 934.28 926.425C924.245 930.122 916.322 935.139 911.04 938.837C908.4 941.477 905.759 944.118 902.854 946.759Z" fill="#FCB6BD"/>
<path d="M919.755 973.696C919.227 974.224 918.963 975.016 918.699 975.544C920.284 973.96 921.868 972.375 923.188 971.319C930.847 964.453 935.865 960.756 950.125 952.833C963.593 945.439 987.889 952.833 988.153 952.833C988.681 952.833 989.21 952.833 989.474 952.305C989.474 951.777 989.474 951.249 988.681 950.985C987.625 950.72 963.065 943.062 949.069 950.985C935.6 958.643 930.055 962.34 921.868 969.735C919.755 971.847 916.586 975.016 913.417 978.449C915.794 977.129 917.907 975.544 920.02 973.432L919.755 973.696Z" fill="#FCB6BD"/>
<path d="M961.218 992.446C975.214 1001.95 974.158 1012.25 974.158 1012.52V1014.36C974.422 1013.84 974.686 1013.31 974.95 1012.78C975.214 1012.78 975.742 1012.78 976.006 1013.04C976.006 1011.2 976.534 1000.63 962.274 990.861C961.746 990.597 961.218 990.861 960.953 990.861C960.689 991.389 960.953 991.918 960.953 992.182L961.218 992.446Z" fill="#FCB6BD"/>
</g>
<path d="M633.751 964.981L641.937 966.83L641.145 972.111L597.835 987.164L580.142 979.242L588.328 969.206L633.751 964.981Z" fill="#C0AEFD"/>
<path d="M539.208 971.847L634.279 960.492L641.937 966.83L570.37 985.58L539.208 971.847Z" fill="#A493DB"/>
<path d="M736.48 557.499L747.571 548.52H760.512L771.867 930.914H755.758L747.836 921.671L736.48 557.499Z" fill="#AC97F2"/>
<path d="M747.572 548.52L755.759 930.914L556.376 888.397L544.228 600.281L747.572 548.52Z" fill="#7768A7"/>
<path d="M722.22 996.935L727.501 993.238L706.903 986.108H670.195L552.414 972.111L544.227 986.108L569.051 994.558L722.22 996.935Z" fill="#C0AEFD"/>
<path d="M612.624 875.985L630.318 872.552L633.223 885.228L576.181 978.449L556.374 986.108L547.924 980.034L612.624 875.985Z" fill="#C0AEFD"/>
<path d="M617.642 686.636L630.318 672.112L653.029 686.636V879.154L633.223 885.228L621.867 872.023L617.642 686.636Z" fill="#C0AEFD"/>
<path d="M727.501 1002.75H559.28L519.931 986.108L602.854 869.647L630.318 872.551L556.375 986.108L700.829 993.238H727.501V1002.75Z" fill="#A493DB"/>
<path d="M630.318 672.112L633.223 885.228L592.026 876.777V678.45L630.318 672.112Z" fill="#A493DB"/>
<path d="M1083.22 501.249C1080.05 557.499 1104.09 604.77 1141.32 610.58C1182.52 617.182 1223.98 570.439 1234.28 506.531C1242.47 455.299 1227.94 408.82 1200.74 388.75C1193.87 383.732 1186.22 380.299 1178.03 378.978C1169.58 377.658 1161.13 378.45 1153.21 381.355C1129.17 382.147 1083.49 390.598 1076.88 440.246C1074.77 455.563 1076.36 474.577 1083.49 498.344C1083.49 498.344 1083.49 498.609 1083.49 498.873C1083.49 499.665 1083.49 500.457 1083.49 501.249H1083.22Z" fill="#FCB6BD"/>
<g style="mix-blend-mode:multiply">
<path d="M1076.62 440.246C1138.94 447.376 1198.89 390.334 1200.48 388.75C1193.61 383.732 1185.95 380.299 1177.76 378.978C1169.31 377.658 1160.86 378.45 1152.94 381.355C1128.91 382.147 1083.22 390.598 1076.62 440.246Z" fill="#FCB6BD"/>
</g>
<g style="mix-blend-mode:multiply">
<path d="M1122.04 535.052C1122.04 535.052 1114.38 551.954 1098.8 540.862C1098.8 540.862 1106.99 553.274 1124.15 544.559C1124.15 544.559 1131.55 536.373 1122.31 534.788L1122.04 535.052Z" fill="#FCB6BD"/>
</g>
<path d="M1156.37 541.39C1156.37 541.39 1141.85 555.915 1108.31 556.443C1108.31 556.443 1110.69 573.872 1128.64 572.552C1146.6 570.968 1154 551.161 1156.37 541.39Z" fill="white"/>
<path d="M1205.49 364.19C1205.49 364.19 1256.2 359.436 1258.31 425.721C1258.31 425.721 1281.02 488.573 1234.28 506.795C1234.28 506.795 1214.74 523.696 1202.33 510.756C1189.91 497.816 1202.33 453.714 1202.33 453.714C1202.33 453.714 1177.77 421.232 1187.54 393.503L1205.76 364.19H1205.49Z" fill="#752500"/>
<path d="M1070.55 418.591C1073.19 420.704 1075.83 422.288 1078.73 423.345C1078.73 423.345 1079 423.345 1079.26 423.345C1106.2 433.38 1145.28 403.274 1174.33 402.218C1187.8 401.69 1197.57 396.936 1204.44 391.39C1207.34 389.014 1209.72 386.373 1211.83 384.26C1216.06 378.978 1217.9 374.489 1217.9 374.489C1221.07 355.739 1195.72 340.686 1144.23 344.647C1092.73 348.609 1044.14 396.408 1070.55 418.591Z" fill="#752500"/>
<path d="M1118.87 370.528C1136.57 362.077 1158.49 360.492 1183.05 367.623C1194.93 371.056 1204.44 376.866 1212.1 383.732C1246.16 415.158 1243.52 472.992 1243.52 472.992L1231.64 471.936C1231.64 443.943 1223.45 348.609 1119.14 370.528H1118.87Z" fill="#3A7187"/>
<path d="M1120.99 478.274C1121.51 478.274 1122.31 478.274 1122.83 477.482C1134.98 462.165 1153.73 473.521 1154.52 474.049C1155.32 474.577 1156.64 474.313 1157.17 473.521C1157.69 472.728 1157.43 471.408 1156.64 470.88C1156.64 470.88 1134.19 457.147 1119.93 475.369C1119.14 476.161 1119.4 477.482 1120.19 478.01C1120.46 478.01 1120.72 478.274 1121.25 478.538L1120.99 478.274Z" fill="#752500"/>
<path d="M1075.83 489.365C1076.36 489.365 1077.15 489.101 1077.41 488.573C1083.22 479.594 1092.73 485.404 1092.99 485.668C1093.79 486.196 1095.11 485.932 1095.63 485.14C1096.16 484.348 1095.9 483.027 1095.11 482.499C1090.62 479.594 1080.32 476.689 1073.98 486.461C1073.45 487.253 1073.72 488.573 1074.51 489.101C1074.77 489.101 1075.3 489.365 1075.56 489.365H1075.83Z" fill="#752500"/>
<path d="M1232.69 606.091C1232.69 606.091 1255.93 590.774 1259.1 570.703C1261.21 557.763 1248.01 554.33 1238.5 553.538C1238.5 551.425 1238.5 549.577 1238.77 547.464C1248.01 547.728 1263.06 550.105 1272.04 560.668C1285.77 576.777 1264.91 638.573 1217.9 690.334L1209.19 650.721L1189.12 668.15L1201.53 635.668L1232.69 605.827V606.091Z" fill="#B04FA5"/>
<path d="M1148.19 591.566L1162.98 587.341C1168.26 585.756 1171.16 580.475 1169.84 575.193C1168.26 569.911 1162.98 567.006 1157.69 568.327L1142.91 572.552C1137.62 574.136 1134.72 579.418 1136.04 584.7C1137.62 589.982 1142.91 592.886 1148.19 591.566Z" fill="#231F20"/>
<path d="M1165.62 578.89C1166.41 578.89 1182.78 575.457 1210.25 550.369C1237.98 525.017 1237.71 483.556 1237.45 481.971C1237.45 480.915 1236.65 480.123 1235.6 480.123C1234.54 480.123 1233.75 480.915 1233.75 481.971C1233.75 482.499 1234.01 523.432 1207.61 547.728C1180.93 572.024 1164.82 575.457 1164.56 575.457C1163.5 575.457 1162.98 576.513 1163.24 577.57C1163.24 578.626 1164.3 579.154 1165.35 579.154L1165.62 578.89Z" fill="#3A7187"/>
<path d="M1240.35 523.432C1225.33 523.432 1213.15 506.643 1213.15 485.932C1213.15 465.222 1225.33 448.433 1240.35 448.433C1255.38 448.433 1267.55 465.222 1267.55 485.932C1267.55 506.643 1255.38 523.432 1240.35 523.432Z" fill="#67BCE0"/>
<path d="M1240.35 487.253C1240.35 500.457 1247.48 511.285 1256.2 511.285C1264.91 511.285 1272.04 500.457 1272.04 487.253C1272.04 474.049 1264.91 463.221 1256.2 463.221C1247.48 463.221 1240.35 474.049 1240.35 487.253Z" fill="#B3E3F8"/>
<path d="M1410.42 756.883C1409.89 759.788 1371.6 960.756 1330.67 978.977C1289.74 997.199 1098.54 1015.42 1098.54 1015.42L1090.09 941.742C1090.09 941.742 1226.36 905.826 1250.12 891.037C1273.89 876.513 1292.38 740.245 1292.38 740.245C1292.38 740.245 1280.76 663.661 1338.06 635.668C1395.37 607.939 1427.32 676.601 1410.16 756.619L1410.42 756.883Z" fill="#B04FA5"/>
<g style="mix-blend-mode:multiply">
<path d="M1127.85 493.327C1128.38 493.327 1128.91 493.327 1129.17 492.799C1138.68 480.915 1150.56 489.63 1151.09 490.158C1151.62 490.686 1152.68 490.422 1152.94 490.158C1153.47 489.63 1153.2 488.573 1152.94 488.309C1152.94 488.309 1138.41 477.482 1127.32 491.478C1126.79 492.006 1127.06 493.063 1127.32 493.327C1127.32 493.327 1127.85 493.327 1128.12 493.591L1127.85 493.327Z" fill="#FCB6BD"/>
</g>
<g style="mix-blend-mode:multiply">
<path d="M1083.22 498.873C1083.22 499.665 1083.22 500.457 1083.22 501.249C1089.03 495.44 1096.69 499.929 1096.96 500.193C1097.48 500.457 1098.01 500.193 1098.28 499.929C1098.54 499.401 1098.28 498.873 1098.01 498.609C1098.01 498.609 1089.83 493.855 1083.22 498.609C1083.22 498.609 1083.22 498.873 1083.22 499.137V498.873Z" fill="#FCB6BD"/>
</g>
<defs>
<linearGradient id="paint0_linear_197_2226" x1="719.5" y1="1043.27" x2="719.5" y2="23.8008" gradientUnits="userSpaceOnUse">
<stop stop-color="#85367C"/>
<stop offset="0.2" stop-color="#85367C" stop-opacity="0.7"/>
<stop offset="0.3" stop-color="#85367C" stop-opacity="0.5"/>
<stop offset="0.5" stop-color="#D5ECF6" stop-opacity="0.3"/>
<stop offset="0.7" stop-color="#EBF6FB" stop-opacity="0.1"/>
<stop offset="0.8" stop-color="#F9FCFD" stop-opacity="0"/>
<stop offset="0.9" stop-color="white" stop-opacity="0"/>
</linearGradient>
<linearGradient id="paint1_linear_197_2226" x1="825.74" y1="1042.36" x2="825.74" y2="82.4119" gradientUnits="userSpaceOnUse">
<stop stop-color="#BF57B3"/>
<stop offset="0.9" stop-color="white" stop-opacity="0"/>
</linearGradient>
<linearGradient id="paint2_linear_197_2226" x1="1274.42" y1="414.894" x2="1274.42" y2="719.647" gradientUnits="userSpaceOnUse">
<stop stop-color="#A952A5"/>
<stop offset="0.9" stop-color="white" stop-opacity="0"/>
</linearGradient>
<linearGradient id="paint3_linear_197_2226" x1="1010.59" y1="654.338" x2="1010.59" y2="958.827" gradientUnits="userSpaceOnUse">
<stop stop-color="#A952A5"/>
<stop offset="0.9" stop-color="white" stop-opacity="0"/>
</linearGradient>
<linearGradient id="paint4_linear_197_2226" x1="990" y1="300.281" x2="990" y2="534.788" gradientUnits="userSpaceOnUse">
<stop stop-color="#A952A5"/>
<stop offset="0.9" stop-color="white" stop-opacity="0"/>
</linearGradient>
</defs>
</svg>
