<svg width="56" height="59" viewBox="0 0 56 59" fill="none" xmlns="http://www.w3.org/2000/svg">
<circle cx="41.5" cy="42.7046" r="14" fill="#E9038A" fill-opacity="0.3"/>
<g clip-path="url(#clip0_152_1428)">
<path d="M0.501989 32.7398C0.552639 23.2237 8.08107 15.9025 17.3301 16.1251C18.2105 16.143 19.0874 16.2412 19.95 16.4182C20.8479 16.6039 21.0459 16.8787 20.8541 17.7689C20.0406 21.561 19.222 25.3526 18.3983 29.1436C18.1926 30.0968 17.987 31.0499 17.7721 32C17.7039 32.3167 17.716 32.6454 17.8074 32.9562C19.069 37.6426 20.3246 42.33 21.5739 47.0185C21.8011 47.8672 21.6154 48.1665 20.7574 48.3753C11.4055 50.6453 2.10898 44.4307 0.670823 34.9331C0.556779 34.2076 0.500325 33.4742 0.501989 32.7398ZM16.8144 47.238C17.6562 47.2373 18.4968 47.1711 19.3284 47.04C19.7889 46.9786 19.8825 46.8512 19.7567 46.3877C18.5625 41.9995 17.4037 37.6022 16.2112 33.2125C16.0814 32.7357 16.0724 32.234 16.1851 31.7529C17.1505 27.3018 18.096 22.8584 19.0798 18.4166C19.1872 17.9285 19.0061 17.8686 18.627 17.8272C17.2752 17.6774 15.9094 17.7084 14.5658 17.9193C7.90917 18.9538 2.7091 24.5023 2.15349 31.1804C1.97482 33.2164 2.22075 35.2674 2.87572 37.2034C3.5307 39.1395 4.58045 40.9185 5.95855 42.4279C7.33664 43.9373 9.01305 45.1441 10.8817 45.9721C12.7503 46.8001 14.7705 47.2311 16.8144 47.238Z" fill="black"/>
<path d="M38.7996 31.7484C38.7996 34.9485 38.2808 37.2416 37.2725 39.4226C36.9133 40.1992 36.5541 40.3205 35.7668 39.9352L22.4366 33.4091C21.4113 32.9057 21.3622 32.3239 22.2755 31.6317C26.2139 28.6644 30.1533 25.697 34.0938 22.7296C34.8612 22.154 35.1851 22.2032 35.7391 22.9844C37.7728 25.8423 38.7781 29.0348 38.7996 31.7484ZM24.0129 32.3393C24.0755 32.3953 24.1422 32.4466 24.2124 32.4928C28.0403 34.3622 31.8667 36.2388 35.6916 38.1226C36.0522 38.3006 36.1029 38.1042 36.1935 37.8555C37.8818 33.2694 37.4474 28.8828 34.9656 24.6865C34.7737 24.3627 34.6294 24.3243 34.3194 24.5638C33.0915 25.5138 31.8483 26.4347 30.6097 27.3679L24.0129 32.3393Z" fill="black"/>
<path d="M37.9498 51.1059C38.685 51.2686 39.3849 51.4359 40.0218 51.7797C42.3241 53.0276 43.5888 54.9507 43.7285 57.5784C43.7669 58.3059 43.4706 58.6037 42.7539 58.6052C38.926 58.6052 35.0975 58.6052 31.2686 58.6052C30.5395 58.6052 30.2679 58.3166 30.2755 57.5937C30.3078 54.6591 32.4612 51.9792 35.3636 51.2655C35.5846 51.2103 35.8071 51.1627 36.045 51.1121C33.996 49.9978 33.2439 48.6379 33.709 46.905C33.9045 46.1638 34.344 45.51 34.9566 45.0492C35.5692 44.5884 36.3192 44.3474 37.0856 44.3652C37.852 44.3829 38.59 44.6583 39.1807 45.147C39.7713 45.6356 40.1801 46.309 40.3411 47.0585C40.7202 48.7146 39.9083 50.1113 37.9498 51.1059ZM36.9675 56.9982C38.5177 56.9982 40.0679 56.9859 41.6181 57.0074C41.9956 57.0074 42.0785 56.9138 41.9941 56.5562C41.5152 54.3844 39.3649 52.6853 37.0396 52.6623C34.7143 52.6392 32.5088 54.3506 32.0161 56.5424C31.9224 56.9568 32.0698 57.0028 32.432 57.0028C33.9438 56.989 35.4557 56.9982 36.9675 56.9982ZM36.9675 49.5573C37.2013 49.5648 37.4343 49.5262 37.6531 49.4435C37.872 49.3608 38.0723 49.2358 38.2427 49.0755C38.4131 48.9152 38.5502 48.7229 38.6461 48.5095C38.742 48.2961 38.7949 48.0659 38.8016 47.8321C38.8105 47.5966 38.7729 47.3616 38.691 47.1406C38.609 46.9196 38.4844 46.7169 38.3241 46.5441C38.1638 46.3713 37.9711 46.2318 37.7569 46.1335C37.5427 46.0351 37.3112 45.98 37.0757 45.9711C36.8402 45.9622 36.6052 45.9998 36.3842 46.0818C36.1632 46.1637 35.9606 46.2884 35.7877 46.4486C35.6149 46.6089 35.4754 46.8016 35.3771 47.0158C35.2787 47.23 35.2236 47.4615 35.2147 47.697C35.2031 47.9351 35.2396 48.1731 35.3221 48.3967C35.4045 48.6204 35.5312 48.8251 35.6945 48.9987C35.8578 49.1724 36.0544 49.3113 36.2726 49.4073C36.4908 49.5032 36.7261 49.5542 36.9644 49.5573H36.9675Z" fill="black"/>
<path d="M35.6698 7.45328C33.6744 6.53237 32.8656 5.08194 33.2739 3.30919C33.4555 2.55887 33.8861 1.89225 34.4953 1.41818C35.1046 0.9441 35.8566 0.69056 36.6286 0.698931C37.4005 0.707303 38.1468 0.977098 38.7457 1.46428C39.3446 1.95145 39.7606 2.62724 39.9259 3.38133C40.282 5.12798 39.4332 6.58456 37.5177 7.43333C37.9413 7.5423 38.322 7.61905 38.6888 7.7403C40.0068 8.17571 41.1585 9.00665 41.9874 10.12C42.8162 11.2334 43.2819 12.5751 43.321 13.9626C43.3379 14.6486 43.0585 14.9495 42.3632 14.9495C38.5148 14.9495 34.668 14.9495 30.8227 14.9495C30.1136 14.9495 29.8281 14.6333 29.8465 13.915C29.9248 10.9389 32.1012 8.28671 35.0313 7.59602L35.6698 7.45328ZM41.6188 13.3486C41.341 11.0387 39.3595 9.24598 36.9007 9.03878C34.5708 8.84231 32.3222 10.4447 31.6484 12.7439C31.5118 13.2044 31.5441 13.3655 32.092 13.3578C35.0957 13.3333 38.1025 13.3456 41.1062 13.3456L41.6188 13.3486ZM36.6137 5.91383C36.8501 5.9108 37.0836 5.86124 37.3009 5.76797C37.5182 5.6747 37.715 5.53955 37.88 5.37023C38.045 5.20091 38.1751 5.00074 38.2628 4.78116C38.3505 4.56157 38.3941 4.32686 38.391 4.09043C38.388 3.854 38.3384 3.62048 38.2452 3.4032C38.1519 3.18593 38.0168 2.98915 37.8474 2.82411C37.6781 2.65907 37.478 2.52899 37.2584 2.44131C37.0388 2.35362 36.8041 2.31005 36.5676 2.31307C36.3312 2.31609 36.0977 2.36566 35.8804 2.45893C35.6631 2.5522 35.4664 2.68736 35.3013 2.85667C35.1363 3.02599 35.0062 3.22615 34.9185 3.44574C34.8308 3.66533 34.7873 3.90004 34.7903 4.13647C34.7933 4.3729 34.8429 4.60642 34.9361 4.8237C35.0294 5.04097 35.1646 5.23774 35.3339 5.40279C35.5032 5.56783 35.7034 5.6979 35.923 5.78559C36.1425 5.87327 36.3773 5.91685 36.6137 5.91383Z" fill="black"/>
<path d="M46.1759 30.0787C44.1561 29.0043 43.3963 27.6491 43.8291 25.9162C44.0126 25.1776 44.438 24.5215 45.0376 24.0527C45.6372 23.5838 46.3764 23.3291 47.1375 23.3291C47.8986 23.3291 48.6379 23.5838 49.2374 24.0527C49.837 24.5215 50.2624 25.1776 50.4459 25.9162C50.8818 27.6046 50.1082 28.9859 48.0868 30.0787C50.0821 30.4379 51.6722 31.4125 52.7819 33.0993C53.4779 34.1398 53.8516 35.3624 53.8563 36.6141C53.8563 37.2649 53.5785 37.5703 52.9247 37.5719C49.0589 37.578 45.1926 37.578 41.3258 37.5719C40.6796 37.5719 40.3957 37.2649 40.3926 36.608C40.3819 33.6918 42.5813 30.9429 45.4975 30.2292C45.717 30.1846 45.9334 30.1355 46.1759 30.0787ZM47.1766 35.9741C48.6885 35.9741 50.2018 35.9557 51.7121 35.9848C52.1726 35.994 52.2002 35.8314 52.1066 35.4645C51.5586 33.285 49.4559 31.6489 47.1598 31.6274C46.0216 31.6327 44.9166 32.0107 44.0138 32.7037C43.1109 33.3967 42.4601 34.3664 42.1608 35.4645C42.0472 35.9004 42.1715 35.9818 42.5813 35.9756C44.1131 35.9618 45.6449 35.9741 47.1766 35.9741ZM47.1321 28.5316C47.6084 28.5316 48.0652 28.3424 48.4019 28.0056C48.7387 27.6689 48.9279 27.2121 48.9279 26.7358C48.9279 26.2596 48.7387 25.8028 48.4019 25.466C48.0652 25.1293 47.6084 24.9401 47.1321 24.9401C46.6559 24.9401 46.1991 25.1293 45.8623 25.466C45.5256 25.8028 45.3364 26.2596 45.3364 26.7358C45.3364 27.2121 45.5256 27.6689 45.8623 28.0056C46.1991 28.3424 46.6559 28.5316 47.1321 28.5316Z" fill="black"/>
<path d="M20.4085 34.0154C20.6007 34.0218 20.7875 34.0807 20.9487 34.1857C25.4428 36.3867 29.9368 38.5866 34.4308 40.7856C35.2167 41.1708 35.3318 41.5254 34.925 42.2928C32.7353 46.4164 29.4052 49.1571 24.9347 50.515C24.1059 50.7667 23.7774 50.581 23.5534 49.7383C22.2579 44.9046 20.9651 40.0714 19.6748 35.2386C19.4768 34.5065 19.7853 34.0031 20.4085 34.0154ZM21.733 36.3713C21.6241 36.5586 21.733 36.6967 21.7668 36.8318C22.7875 40.6536 23.8204 44.4707 24.8196 48.2987C24.9455 48.7775 25.1066 48.7975 25.5164 48.6409C28.6277 47.4795 31.2603 45.3094 32.9942 42.477C33.2198 42.1178 33.2076 41.9613 32.7993 41.7663C30.9697 40.8961 29.1571 39.989 27.3383 39.0988C25.4699 38.186 23.6015 37.2769 21.733 36.3713Z" fill="black"/>
<path d="M24.0783 14.3663C25.2184 14.6006 26.3277 14.9653 27.3844 15.453C29.8032 16.5461 31.9178 18.2144 33.5437 20.3123C34.018 20.9263 33.9766 21.3038 33.3657 21.7643C29.3495 24.7971 25.3313 27.8285 21.311 30.8583C20.9687 31.1177 20.6188 31.2896 20.2105 31.0286C19.7777 30.7539 19.8069 30.3564 19.9036 29.9113C20.9595 25.0356 22.0099 20.1578 23.0546 15.278C23.2065 14.5766 23.4567 14.3326 24.0783 14.3663ZM21.8943 28.3027C21.9863 28.2905 22.0094 28.3027 22.0232 28.2843C25.231 25.8736 28.4404 23.4634 31.6513 21.0537C31.9107 20.8603 31.8339 20.7467 31.6743 20.5686C29.8581 18.5304 27.5174 17.0295 24.9072 16.2296C24.5756 16.1253 24.4759 16.2465 24.4206 16.5581C24.3101 17.172 24.1628 17.786 24.0308 18.4076C23.3217 21.6906 22.6141 24.9721 21.8943 28.3027Z" fill="black"/>
<path d="M13.8574 30.2718C13.8574 30.9318 13.5827 31.2725 13.1145 31.3017C12.6464 31.3308 12.3471 31.0484 12.2535 30.5005C12.1123 29.641 11.5137 29.1882 10.7831 29.4031C10.5435 29.4693 10.3317 29.6111 10.1792 29.8073C10.0267 30.0036 9.9416 30.2438 9.9366 30.4923C9.9316 30.7408 10.007 30.9843 10.1514 31.1866C10.2959 31.3888 10.5019 31.539 10.7386 31.6148C10.9227 31.6668 11.1123 31.6972 11.3034 31.7053C11.9091 31.7492 12.4834 31.9915 12.9376 32.3946C13.3918 32.7977 13.7005 33.3393 13.8159 33.9355C13.932 34.5221 13.8531 35.1305 13.5913 35.6681C13.3294 36.2057 12.899 36.6429 12.3655 36.9131C12.0417 37.0773 11.8667 37.22 11.882 37.6268C11.9035 38.1977 11.5536 38.5293 11.064 38.5155C10.5744 38.5016 10.2781 38.1916 10.2965 37.6375C10.315 37.2385 10.1431 37.0896 9.82074 36.9192C8.87067 36.4189 8.34268 35.6192 8.31966 34.5233C8.31045 34.0552 8.53761 33.7436 9.0042 33.6838C9.50303 33.6193 9.79158 33.8986 9.90362 34.3698C9.92972 34.4819 9.92357 34.6001 9.94813 34.7121C10.008 34.9906 10.1683 35.2374 10.3985 35.4054C10.6286 35.5733 10.9125 35.6507 11.1961 35.6229C11.4796 35.595 11.743 35.4638 11.936 35.2542C12.129 35.0446 12.2382 34.7714 12.2427 34.4865C12.2516 34.2066 12.1569 33.9333 11.9768 33.7189C11.7966 33.5045 11.5438 33.3641 11.2666 33.3246C11.0594 33.2908 10.8476 33.2816 10.6403 33.2463C10.0692 33.1567 9.54037 32.8909 9.12762 32.4862C8.71487 32.0814 8.43884 31.5578 8.33808 30.9886C8.23207 30.3995 8.32263 29.792 8.59581 29.2595C8.86899 28.727 9.30964 28.2991 9.8499 28.0416C10.1707 27.8882 10.2965 27.7193 10.2873 27.3586C10.2735 26.7969 10.6219 26.4377 11.0916 26.4485C11.5382 26.4592 11.8836 26.803 11.8728 27.331C11.8636 27.7101 11.9879 27.8866 12.3333 28.0585C12.7619 28.2576 13.1294 28.5679 13.3974 28.9571C13.6655 29.3464 13.8243 29.8003 13.8574 30.2718Z" fill="black"/>
</g>
<defs>
<clipPath id="clip0_152_1428">
<rect width="53.3605" height="57.9037" fill="white" transform="translate(0.5 0.70459)"/>
</clipPath>
</defs>
</svg>
