<svg width="118" height="118" viewBox="0 0 118 118" fill="none" xmlns="http://www.w3.org/2000/svg">
<path d="M112.846 102.202H98.7034V14.0994C98.7034 8.6679 94.2958 4.43378 89.0205 4.43378H13.1014C12.9426 4.43127 12.7844 4.45411 12.6328 4.50146C10.1653 4.62037 7.83793 5.68344 6.13242 7.47067C4.42692 9.25789 3.47386 11.6324 3.47049 14.1028V23.6608C3.47049 24.5892 4.21319 25.3475 5.15719 25.3475H19.2946V54.4623C16.5355 56.0414 11.4338 58.6617 6.4014 59.5467C4.71816 59.8591 3.46875 61.3167 3.46875 63.0173V70.2535C3.46875 81.4461 9.6464 91.7191 19.2946 96.7688V103.883C19.2974 106.451 20.3184 108.912 22.1337 110.727C23.9491 112.543 26.4103 113.564 28.9776 113.566L104.905 113.514C107.458 113.512 109.905 112.497 111.709 110.692C113.514 108.887 114.528 106.439 114.529 103.887C114.527 103.44 114.349 103.013 114.033 102.697C113.717 102.381 113.289 102.203 112.843 102.202H112.846ZM18.8799 79.0688C18.9146 78.8952 19.8031 74.7809 19.7475 75.0429C18.2587 74.2117 17.1793 72.5354 17.1793 70.6873C17.1793 67.6887 19.784 65.3357 22.767 65.6723C24.6931 65.8285 26.5968 67.3226 27.0878 69.5073C27.6084 71.7458 26.6193 73.9497 24.6758 75.0429L25.5434 79.0688C25.6008 79.3257 25.5995 79.5922 25.5397 79.8485C25.48 80.1049 25.3632 80.3444 25.1982 80.5495C25.0332 80.7545 24.8241 80.9198 24.5864 81.0329C24.3488 81.1461 24.0887 81.2043 23.8255 81.2032H20.5978C20.3352 81.2027 20.0759 81.1434 19.8391 81.0297C19.6023 80.9161 19.3939 80.7509 19.2292 80.5462C19.0645 80.3416 18.9476 80.1027 18.8872 79.8471C18.8267 79.5914 18.8243 79.3255 18.8799 79.0688ZM22.767 103.883V97.7753C23.0793 97.7405 23.3917 97.6364 23.6867 97.4976C29.552 94.8079 34.272 90.2614 37.274 84.7258L83.6324 84.7241C84.0926 84.7241 84.534 84.5413 84.8594 84.2158C85.1849 83.8904 85.3677 83.449 85.3677 82.9888C85.3677 82.5286 85.1849 82.0872 84.8594 81.7618C84.534 81.4363 84.0926 81.2535 83.6324 81.2535H38.8878C39.5976 79.4002 40.1511 77.4758 40.4982 75.4854H62.2327C62.693 75.4854 63.1344 75.3026 63.4598 74.9771C63.7852 74.6517 63.968 74.2103 63.968 73.7501C63.968 73.2899 63.7852 72.8485 63.4598 72.5231C63.1344 72.1976 62.693 72.0148 62.2327 72.0148H40.9008V72.0061C40.9355 71.4335 40.9528 70.8435 40.9528 70.2535V63.0173C40.9528 61.3167 39.7208 59.8591 38.0202 59.5467C32.2243 58.5229 26.3243 55.2085 24.0337 53.8203C23.6346 53.5773 23.2008 53.4211 22.767 53.3517V14.0994C22.767 11.866 21.5991 9.12602 20.5111 7.90437H89.0205C89.8357 7.9014 90.6434 8.05948 91.3973 8.36954C92.1513 8.6796 92.8365 9.13554 93.4138 9.71116C93.991 10.2868 94.4489 10.9708 94.761 11.7238C95.0732 12.4769 95.2335 13.2842 95.2328 14.0994V102.2H36.9183C36.4714 102.202 36.0431 102.38 35.7271 102.696C35.4111 103.012 35.2329 103.44 35.2316 103.887C35.2316 109.856 29.1511 110.014 28.9776 110.096C25.507 110.096 22.767 107.26 22.767 103.883Z" fill="black"/>
<path d="M76.943 35.5124C76.943 24.9618 68.3533 16.3721 57.7853 16.3721C47.2347 16.3721 38.645 24.9618 38.645 35.5124C38.645 46.1844 47.3423 54.6527 57.7853 54.6527C68.4678 54.6527 76.943 45.945 76.943 35.5124ZM57.7853 19.8427C66.4444 19.8427 73.4724 26.8706 73.4724 35.5124C73.4724 38.3756 72.7088 41.1347 71.2338 43.5641C69.3078 41.7259 67.021 40.3077 64.5183 39.3994C64.5703 39.3647 64.5877 39.3127 64.6397 39.278C65.9933 37.6815 66.7221 35.6685 66.7221 33.5688C66.7221 31.201 65.7814 28.9301 64.1071 27.2557C62.4328 25.5814 60.1619 24.6407 57.794 24.6407C55.4261 24.6407 53.1552 25.5814 51.4809 27.2557C49.8065 28.9301 48.8659 31.201 48.8659 33.5688C48.8659 35.6685 49.5947 37.6815 50.9309 39.278C50.9656 39.3127 51.0177 39.3647 51.035 39.3994C48.5535 40.2844 46.2803 41.7074 44.3715 43.5468C42.8791 41.1521 42.1156 38.393 42.1156 35.5124C42.1156 26.8706 49.1435 19.8427 57.7853 19.8427ZM85.3678 64.5091C85.3678 64.0489 85.185 63.6075 84.8596 63.2821C84.5341 62.9567 84.0927 62.7738 83.6325 62.7738H47.4482C46.9879 62.7738 46.5466 62.9567 46.2211 63.2821C45.8957 63.6075 45.7129 64.0489 45.7129 64.5091C45.7129 64.9694 45.8957 65.4107 46.2211 65.7362C46.5466 66.0616 46.9879 66.2444 47.4482 66.2444H83.6325C84.0927 66.2444 84.5341 66.0616 84.8596 65.7362C85.185 65.4107 85.3678 64.9694 85.3678 64.5091ZM83.6325 72.0143H74.0797C73.6195 72.0143 73.1781 72.1971 72.8527 72.5225C72.5273 72.848 72.3444 73.2893 72.3444 73.7496C72.3444 74.2098 72.5273 74.6512 72.8527 74.9766C73.1781 75.302 73.6195 75.4849 74.0797 75.4849H83.6343C84.0945 75.4849 84.5359 75.302 84.8613 74.9766C85.1867 74.6512 85.3695 74.2098 85.3695 73.7496C85.3695 73.2893 85.1867 72.848 84.8613 72.5225C84.5359 72.1971 84.0927 72.0143 83.6325 72.0143ZM40.3803 93.9623H64.1365C64.5967 93.9623 65.0381 93.7794 65.3635 93.454C65.689 93.1286 65.8718 92.6872 65.8718 92.227C65.8718 91.7667 65.689 91.3254 65.3635 90.9999C65.0381 90.6745 64.5967 90.4917 64.1365 90.4917H40.3803C39.9201 90.4917 39.4787 90.6745 39.1533 90.9999C38.8278 91.3254 38.645 91.7667 38.645 92.227C38.645 92.6872 38.8278 93.1286 39.1533 93.454C39.4787 93.7794 39.9201 93.9623 40.3803 93.9623Z" fill="black"/>
</svg>
