<svg width="58" height="58" viewBox="0 0 58 58" fill="none" xmlns="http://www.w3.org/2000/svg">
<path opacity="0.3" d="M29 56.812C44.464 56.812 57 44.276 57 28.812C57 13.348 44.464 0.812012 29 0.812012C13.536 0.812012 1 13.348 1 28.812C1 44.276 13.536 56.812 29 56.812Z" fill="white" fill-opacity="0.8" stroke="white" stroke-width="0.403345" stroke-miterlimit="10"/>
<path d="M36.6667 17.4866C36.6667 17.3098 36.5964 17.1402 36.4714 17.0152C36.3464 16.8901 36.1768 16.8199 36 16.8199H32.6667C30.9882 16.7363 29.3448 17.3204 28.0956 18.4447C26.8465 19.5689 26.093 21.1419 26 22.8199V26.4199H22.6667C22.4899 26.4199 22.3203 26.4901 22.1953 26.6152C22.0702 26.7402 22 26.9098 22 27.0866V30.5532C22 30.73 22.0702 30.8996 22.1953 31.0246C22.3203 31.1497 22.4899 31.2199 22.6667 31.2199H26V40.1532C26 40.33 26.0702 40.4996 26.1953 40.6246C26.3203 40.7497 26.4899 40.8199 26.6667 40.8199H30.6667C30.8435 40.8199 31.013 40.7497 31.1381 40.6246C31.2631 40.4996 31.3333 40.33 31.3333 40.1532V31.2199H34.8267C34.9749 31.222 35.1197 31.1747 35.238 31.0853C35.3563 30.996 35.4415 30.8697 35.48 30.7266L36.44 27.2599C36.4665 27.1614 36.4701 27.0581 36.4504 26.958C36.4308 26.8579 36.3884 26.7637 36.3266 26.6825C36.2647 26.6014 36.1851 26.5355 36.0938 26.49C36.0025 26.4444 35.902 26.4205 35.8 26.4199H31.3333V22.8199C31.3665 22.4899 31.5215 22.184 31.768 21.9622C32.0146 21.7403 32.335 21.6182 32.6667 21.6199H36C36.1768 21.6199 36.3464 21.5497 36.4714 21.4246C36.5964 21.2996 36.6667 21.13 36.6667 20.9532V17.4866Z" fill="white"/>
</svg>
