<svg width="56" height="56" viewBox="0 0 56 56" fill="none" xmlns="http://www.w3.org/2000/svg">
<path d="M30.6667 24.4V28.2667H34.1333C34.4 28.2667 34.5333 28.5333 34.5333 28.8L34 31.3333C34 31.4667 33.7333 31.6 33.6 31.6H30.6667V41.3333H26.6667V31.7333H24.4C24.1333 31.7333 24 31.6 24 31.3333V28.8C24 28.5333 24.1333 28.4 24.4 28.4H26.6667V24C26.6667 21.7333 28.4 20 30.6667 20H34.2667C34.5333 20 34.6667 20.1333 34.6667 20.4V23.6C34.6667 23.8667 34.5333 24 34.2667 24H31.0667C30.8 24 30.6667 24.1333 30.6667 24.4Z" stroke="url(#paint0_linear_172_2514)" stroke-width="2" stroke-miterlimit="10" stroke-linecap="round"/>
<path d="M31.9993 41.3337H23.9993C17.3327 41.3337 14.666 38.667 14.666 32.0003V24.0003C14.666 17.3337 17.3327 14.667 23.9993 14.667H31.9993C38.666 14.667 41.3327 17.3337 41.3327 24.0003V32.0003C41.3327 38.667 38.666 41.3337 31.9993 41.3337Z" stroke="url(#paint1_linear_172_2514)" stroke-width="2" stroke-linecap="round" stroke-linejoin="round"/>
<defs>
<linearGradient id="paint0_linear_172_2514" x1="24" y1="30.6667" x2="34.6667" y2="30.6667" gradientUnits="userSpaceOnUse">
<stop stop-color="#9B248E"/>
<stop offset="0.739" stop-color="#4A4792"/>
<stop offset="1" stop-color="#2D5393"/>
</linearGradient>
<linearGradient id="paint1_linear_172_2514" x1="14.666" y1="28.0003" x2="41.3327" y2="28.0003" gradientUnits="userSpaceOnUse">
<stop stop-color="#9B248E"/>
<stop offset="0.739" stop-color="#4A4792"/>
<stop offset="1" stop-color="#2D5393"/>
</linearGradient>
</defs>
</svg>
