<svg width="32" height="32" viewBox="0 0 32 32" fill="none" xmlns="http://www.w3.org/2000/svg">
<path d="M18.6667 12.4V16.2667H22.1333C22.4 16.2667 22.5333 16.5333 22.5333 16.8L22 19.3333C22 19.4667 21.7333 19.6 21.6 19.6H18.6667V29.3333H14.6667V19.7333H12.4C12.1333 19.7333 12 19.6 12 19.3333V16.8C12 16.5333 12.1333 16.4 12.4 16.4H14.6667V12C14.6667 9.73333 16.4 8 18.6667 8H22.2667C22.5333 8 22.6667 8.13333 22.6667 8.4V11.6C22.6667 11.8667 22.5333 12 22.2667 12H19.0667C18.8 12 18.6667 12.1333 18.6667 12.4Z" stroke="url(#paint0_linear_590_669)" stroke-width="2" stroke-miterlimit="10" stroke-linecap="round"/>
<path d="M19.9998 29.3334H11.9998C5.33317 29.3334 2.6665 26.6667 2.6665 20.0001V12.0001C2.6665 5.33341 5.33317 2.66675 11.9998 2.66675H19.9998C26.6665 2.66675 29.3332 5.33341 29.3332 12.0001V20.0001C29.3332 26.6667 26.6665 29.3334 19.9998 29.3334Z" stroke="url(#paint1_linear_590_669)" stroke-width="2" stroke-linecap="round" stroke-linejoin="round"/>
<defs>
<linearGradient id="paint0_linear_590_669" x1="12" y1="18.6667" x2="22.6667" y2="18.6667" gradientUnits="userSpaceOnUse">
<stop stop-color="#9B248E"/>
<stop offset="0.739" stop-color="#4A4792"/>
<stop offset="1" stop-color="#2D5393"/>
</linearGradient>
<linearGradient id="paint1_linear_590_669" x1="2.6665" y1="16.0001" x2="29.3332" y2="16.0001" gradientUnits="userSpaceOnUse">
<stop stop-color="#9B248E"/>
<stop offset="0.739" stop-color="#4A4792"/>
<stop offset="1" stop-color="#2D5393"/>
</linearGradient>
</defs>
</svg>
