<svg width="80" height="60" viewBox="0 0 80 60" fill="none" xmlns="http://www.w3.org/2000/svg">
<rect width="80" height="60" rx="12" fill="white"/>
<path d="M55.2308 29.4994H24.7692C24.4326 29.4994 24.1098 29.3665 23.8717 29.13C23.6337 28.8934 23.5 28.5726 23.5 28.238C23.5 27.9035 23.6337 27.5826 23.8717 27.3461C24.1098 27.1095 24.4326 26.9766 24.7692 26.9766H55.2308C55.5674 26.9766 55.8902 27.1095 56.1283 27.3461C56.3663 27.5826 56.5 27.9035 56.5 28.238C56.5 28.5726 56.3663 28.8934 56.1283 29.13C55.8902 29.3665 55.5674 29.4994 55.2308 29.4994Z" fill="url(#paint0_linear_663_824)"/>
<path d="M40 48C39.6634 48 39.3405 47.8671 39.1025 47.6305C38.8645 47.394 38.7308 47.0731 38.7308 46.7386V31.1813C38.7308 30.7352 38.5525 30.3075 38.2351 29.992C37.9177 29.6766 37.4873 29.4994 37.0385 29.4994C36.5896 29.4994 36.1592 29.6766 35.8418 29.992C35.5245 30.3075 35.3462 30.7352 35.3462 31.1813V46.7386C35.3462 47.0731 35.2124 47.394 34.9744 47.6305C34.7364 47.8671 34.4135 48 34.0769 48C33.7403 48 33.4175 47.8671 33.1794 47.6305C32.9414 47.394 32.8077 47.0731 32.8077 46.7386V31.1813C32.8077 30.0662 33.2534 28.9967 34.0469 28.2082C34.8403 27.4196 35.9164 26.9766 37.0385 26.9766C38.1605 26.9766 39.2366 27.4196 40.0301 28.2082C40.8235 28.9967 41.2692 30.0662 41.2692 31.1813V46.7386C41.2692 47.0731 41.1355 47.394 40.8975 47.6305C40.6595 47.8671 40.3366 48 40 48Z" fill="url(#paint1_linear_663_824)"/>
<path d="M34.0769 48C33.7403 48 33.4175 47.8671 33.1794 47.6305C32.9414 47.394 32.8077 47.0731 32.8077 46.7386V31.1813C32.8077 30.7352 32.6294 30.3075 32.312 29.992C31.9947 29.6766 31.5642 29.4994 31.1154 29.4994C30.6666 29.4994 30.2361 29.6766 29.9187 29.992C29.6014 30.3075 29.4231 30.7352 29.4231 31.1813V46.7386C29.4231 47.0731 29.2894 47.394 29.0513 47.6305C28.8133 47.8671 28.4905 48 28.1538 48C27.8172 48 27.4944 47.8671 27.2564 47.6305C27.0183 47.394 26.8846 47.0731 26.8846 46.7386V31.1813C26.8846 30.0662 27.3304 28.9967 28.1238 28.2082C28.9172 27.4196 29.9933 26.9766 31.1154 26.9766C32.2375 26.9766 33.3136 27.4196 34.107 28.2082C34.9004 28.9967 35.3462 30.0662 35.3462 31.1813V46.7386C35.3462 47.0731 35.2124 47.394 34.9744 47.6305C34.7364 47.8671 34.4135 48 34.0769 48ZM51.8462 48C51.5095 48 51.1867 47.8671 50.9487 47.6305C50.7106 47.394 50.5769 47.0731 50.5769 46.7386V31.1813C50.5769 30.7352 50.3986 30.3075 50.0813 29.992C49.7639 29.6766 49.3334 29.4994 48.8846 29.4994C48.4358 29.4994 48.0053 29.6766 47.688 29.992C47.3706 30.3075 47.1923 30.7352 47.1923 31.1813V46.7386C47.1923 47.0731 47.0586 47.394 46.8206 47.6305C46.5825 47.8671 46.2597 48 45.9231 48C45.5865 48 45.2636 47.8671 45.0256 47.6305C44.7876 47.394 44.6538 47.0731 44.6538 46.7386V31.1813C44.6538 30.0662 45.0996 28.9967 45.893 28.2082C46.6864 27.4196 47.7625 26.9766 48.8846 26.9766C50.0067 26.9766 51.0828 27.4196 51.8762 28.2082C52.6696 28.9967 53.1154 30.0662 53.1154 31.1813V46.7386C53.1154 47.0731 52.9817 47.394 52.7436 47.6305C52.5056 47.8671 52.1828 48 51.8462 48Z" fill="url(#paint2_linear_663_824)"/>
<path d="M45.9231 48C45.5865 48 45.2636 47.8671 45.0256 47.6305C44.7876 47.394 44.6538 47.0731 44.6538 46.7386V31.1813C44.6538 30.7352 44.4756 30.3075 44.1582 29.992C43.8408 29.6766 43.4104 29.4994 42.9615 29.4994C42.5127 29.4994 42.0823 29.6766 41.7649 29.992C41.4475 30.3075 41.2692 30.7352 41.2692 31.1813V46.7386C41.2692 47.0731 41.1355 47.394 40.8975 47.6305C40.6595 47.8671 40.3366 48 40 48C39.6634 48 39.3405 47.8671 39.1025 47.6305C38.8645 47.394 38.7308 47.0731 38.7308 46.7386V31.1813C38.7308 30.0662 39.1765 28.9967 39.9699 28.2082C40.7634 27.4196 41.8395 26.9766 42.9615 26.9766C44.0836 26.9766 45.1597 27.4196 45.9531 28.2082C46.7466 28.9967 47.1923 30.0662 47.1923 31.1813V46.7386C47.1923 47.0731 47.0586 47.394 46.8206 47.6305C46.5825 47.8671 46.2597 48 45.9231 48Z" fill="url(#paint3_linear_663_824)"/>
<path d="M55.2308 48H24.7692C24.4326 48 24.1098 47.8671 23.8717 47.6305C23.6337 47.394 23.5 47.0731 23.5 46.7386C23.5 46.4041 23.6337 46.0832 23.8717 45.8467C24.1098 45.6101 24.4326 45.4772 24.7692 45.4772H55.2308C55.5674 45.4772 55.8902 45.6101 56.1283 45.8467C56.3663 46.0832 56.5 46.4041 56.5 46.7386C56.5 47.0731 56.3663 47.394 56.1283 47.6305C55.8902 47.8671 55.5674 48 55.2308 48ZM54.7417 18.2309L41.2032 12.2536C40.8244 12.0864 40.4145 12 40 12C39.5855 12 39.1756 12.0864 38.7968 12.2536L25.2583 18.2326C24.7353 18.4644 24.291 18.8417 23.979 19.3189C23.667 19.7961 23.5007 20.3528 23.5 20.9219V23.1924C23.5009 23.9728 23.8132 24.7209 24.3684 25.2727C24.9236 25.8244 25.6764 26.1348 26.4615 26.1357H53.5385C54.3236 26.1348 55.0764 25.8244 55.6316 25.2727C56.1868 24.7209 56.4991 23.9728 56.5 23.1924V20.9219C56.4997 20.3525 56.3335 19.7954 56.0214 19.3179C55.7094 18.8403 55.2649 18.4628 54.7417 18.2309ZM40 21.5106C39.6653 21.5106 39.3381 21.4119 39.0598 21.2271C38.7815 21.0423 38.5646 20.7796 38.4365 20.4723C38.3084 20.165 38.2749 19.8268 38.3402 19.5006C38.4055 19.1743 38.5667 18.8746 38.8034 18.6394C39.04 18.4042 39.3416 18.244 39.6698 18.1791C39.9981 18.1142 40.3384 18.1475 40.6476 18.2748C40.9568 18.4021 41.2211 18.6177 41.4071 18.8943C41.5931 19.1709 41.6923 19.496 41.6923 19.8287C41.6923 20.2747 41.514 20.7025 41.1966 21.018C40.8793 21.3334 40.4488 21.5106 40 21.5106Z" fill="url(#paint4_linear_663_824)"/>
<defs>
<linearGradient id="paint0_linear_663_824" x1="23.5" y1="30" x2="56.5" y2="30" gradientUnits="userSpaceOnUse">
<stop stop-color="#9B248E"/>
<stop offset="0.739" stop-color="#4A4792"/>
<stop offset="1" stop-color="#2D5393"/>
</linearGradient>
<linearGradient id="paint1_linear_663_824" x1="23.5" y1="30" x2="56.5" y2="30" gradientUnits="userSpaceOnUse">
<stop stop-color="#9B248E"/>
<stop offset="0.739" stop-color="#4A4792"/>
<stop offset="1" stop-color="#2D5393"/>
</linearGradient>
<linearGradient id="paint2_linear_663_824" x1="23.5" y1="30" x2="56.5" y2="30" gradientUnits="userSpaceOnUse">
<stop stop-color="#9B248E"/>
<stop offset="0.739" stop-color="#4A4792"/>
<stop offset="1" stop-color="#2D5393"/>
</linearGradient>
<linearGradient id="paint3_linear_663_824" x1="23.5" y1="30" x2="56.5" y2="30" gradientUnits="userSpaceOnUse">
<stop stop-color="#9B248E"/>
<stop offset="0.739" stop-color="#4A4792"/>
<stop offset="1" stop-color="#2D5393"/>
</linearGradient>
<linearGradient id="paint4_linear_663_824" x1="23.5" y1="30" x2="56.5" y2="30" gradientUnits="userSpaceOnUse">
<stop stop-color="#9B248E"/>
<stop offset="0.739" stop-color="#4A4792"/>
<stop offset="1" stop-color="#2D5393"/>
</linearGradient>
</defs>
</svg>
