<svg width="58" height="58" viewBox="0 0 58 58" fill="none" xmlns="http://www.w3.org/2000/svg">
<path opacity="0.3" d="M29 57.1074C44.464 57.1074 57 44.5714 57 29.1074C57 13.6434 44.464 1.10742 29 1.10742C13.536 1.10742 1 13.6434 1 29.1074C1 44.5714 13.536 57.1074 29 57.1074Z" fill="white" fill-opacity="0.8" stroke="white" stroke-width="0.403345" stroke-miterlimit="10"/>
<path d="M17.252 24.5625C17.252 20.625 19.502 18.9375 22.877 18.9375H34.127C37.502 18.9375 39.752 20.625 39.752 24.5625V32.4375C39.752 36.375 37.502 38.0625 34.127 38.0625H22.877" stroke="white" stroke-width="2.4" stroke-miterlimit="10" stroke-linecap="round" stroke-linejoin="round"/>
<path d="M34.123 25.125L30.6018 27.9375C29.443 28.86 27.5418 28.86 26.383 27.9375L22.873 25.125" stroke="white" stroke-width="2.4" stroke-miterlimit="10" stroke-linecap="round" stroke-linejoin="round"/>
<path d="M17.252 33.5625H24.002" stroke="white" stroke-width="2.4" stroke-miterlimit="10" stroke-linecap="round" stroke-linejoin="round"/>
<path d="M17.252 29.0625H20.627" stroke="white" stroke-width="2.4" stroke-miterlimit="10" stroke-linecap="round" stroke-linejoin="round"/>
</svg>
