<svg width="58" height="58" viewBox="0 0 58 58" fill="none" xmlns="http://www.w3.org/2000/svg">
<path opacity="0.3" d="M29 57C44.464 57 57 44.4639 57 29C57 13.536 44.464 1 29 1C13.536 1 1 13.536 1 29C1 44.4639 13.536 57 29 57Z" fill="white" fill-opacity="0.8" stroke="white" stroke-width="0.403345" stroke-miterlimit="10"/>
<g clip-path="url(#clip0_903_2250)">
<mask id="mask0_903_2250" style="mask-type:luminance" maskUnits="userSpaceOnUse" x="16" y="15" width="27" height="27">
<path d="M43 15H16V42H43V15Z" fill="white"/>
</mask>
<g mask="url(#mask0_903_2250)">
<path d="M35.9789 30.5144C35.9263 30.4891 33.958 29.5199 33.6081 29.394C33.4654 29.3427 33.3124 29.2926 33.1497 29.2926C32.8839 29.2926 32.6606 29.4251 32.4867 29.6852C32.29 29.9775 31.6949 30.6733 31.5109 30.8812C31.4869 30.9086 31.4541 30.9413 31.4345 30.9413C31.4168 30.9413 31.1122 30.816 31.02 30.7759C28.9085 29.8586 27.3058 27.653 27.086 27.2811C27.0546 27.2276 27.0533 27.2033 27.0531 27.2033C27.0607 27.1749 27.1318 27.1038 27.1684 27.0671C27.2756 26.9609 27.3917 26.8211 27.5041 26.6859C27.5574 26.6218 27.6107 26.5576 27.663 26.4971C27.826 26.3075 27.8987 26.1601 27.9828 25.9896L28.0269 25.9009C28.2324 25.4927 28.0569 25.1482 28.0002 25.0369C27.9536 24.9439 27.1225 22.938 27.0341 22.7272C26.8216 22.2187 26.5408 21.9819 26.1507 21.9819C26.1145 21.9819 26.1507 21.9819 25.9988 21.9883C25.8139 21.9961 24.8072 22.1287 24.362 22.4093C23.8899 22.7069 23.0913 23.6556 23.0913 25.324C23.0913 26.8255 24.0442 28.2433 24.4533 28.7825C24.4635 28.7961 24.4821 28.8237 24.5092 28.8633C26.0761 31.1515 28.0293 32.8472 30.0093 33.6382C31.9155 34.3996 32.8181 34.4877 33.3313 34.4877C33.547 34.4877 33.7197 34.4707 33.8719 34.4557L33.9685 34.4465C34.6271 34.3881 36.0742 33.6383 36.4033 32.7236C36.6627 32.003 36.731 31.2158 36.5585 30.9301C36.4404 30.7359 36.2367 30.6382 35.9789 30.5144Z" fill="white"/>
<path d="M29.7396 15C22.4272 15 16.4781 20.9044 16.4781 28.1619C16.4781 30.5092 17.1063 32.8069 18.2963 34.8179L16.0186 41.5368C15.9761 41.6621 16.0077 41.8005 16.1004 41.8949C16.1672 41.9632 16.258 42 16.3506 42C16.3861 42 16.4219 41.9947 16.4568 41.9835L23.4628 39.7572C25.38 40.7815 27.5468 41.3223 29.7397 41.3223C37.0515 41.3224 43 35.4186 43 28.1619C43 20.9044 37.0515 15 29.7396 15ZM29.7396 38.5806C27.6762 38.5806 25.6776 37.9848 23.9595 36.8574C23.9018 36.8195 23.8347 36.8001 23.7672 36.8001C23.7315 36.8001 23.6958 36.8055 23.661 36.8165L20.1514 37.9321L21.2844 34.5897C21.321 34.4814 21.3027 34.3621 21.2352 34.2699C19.9269 32.4823 19.2353 30.3703 19.2353 28.1619C19.2353 22.4162 23.9475 17.7417 29.7395 17.7417C35.5309 17.7417 40.2425 22.4162 40.2425 28.1619C40.2426 33.9068 35.531 38.5806 29.7396 38.5806Z" fill="white"/>
</g>
</g>
<defs>
<clipPath id="clip0_903_2250">
<rect width="27" height="27" fill="white" transform="translate(16 15)"/>
</clipPath>
</defs>
</svg>
