<svg width="84" height="84" viewBox="0 0 84 84" fill="none" xmlns="http://www.w3.org/2000/svg">
<circle cx="42.0008" cy="41.6554" r="41.532" fill="url(#paint0_linear_152_926)"/>
<g clip-path="url(#clip0_152_926)">
<path d="M29.3365 60.1151C28.7864 59.9522 28.2126 59.8712 27.6912 59.6106C25.6094 58.569 24.4589 56.9192 24.4649 54.5635C24.4728 51.2975 25.1137 48.1845 26.8162 45.3451C27.7228 43.8345 28.8694 42.5204 30.1009 41.2715C31.2761 40.0798 32.5273 38.9592 33.581 37.65C34.5143 36.4909 35.1937 35.2134 35.4376 33.7255C35.4742 33.4974 35.4505 33.4115 35.2016 33.4293C34.9552 33.4422 34.7083 33.4422 34.4619 33.4293C33.8042 33.4135 33.3262 32.9416 33.3292 32.3156C33.3322 31.6897 33.8131 31.2168 34.4748 31.2158C37.2096 31.2112 39.9445 31.2112 42.6794 31.2158C42.9006 31.2158 43.1228 31.2079 43.344 31.2158C43.6291 31.2265 43.8991 31.3469 44.0974 31.5519C44.2958 31.7569 44.4073 32.0306 44.4085 32.3158C44.4098 32.6011 44.3008 32.8758 44.1043 33.0825C43.9077 33.2893 43.6389 33.4121 43.3539 33.4254C43.0832 33.4422 42.8118 33.4422 42.5411 33.4254C42.2883 33.4056 42.2705 33.4974 42.3061 33.7216C42.5757 35.3822 43.3924 36.7644 44.4698 38.0153C45.4841 39.1932 46.6326 40.2417 47.7219 41.3465C49.2032 42.8531 50.5453 44.4693 51.5022 46.3728C51.5625 46.4913 51.6138 46.6147 51.6701 46.7381C51.5585 46.8546 51.4292 46.8023 51.3166 46.8033C50.1592 46.8082 49.0008 46.8033 47.8424 46.8033C45.8564 46.8112 44.4214 48.2457 44.4175 50.2342C44.4122 53.1302 44.4122 56.0247 44.4175 58.9175C44.4063 59.3236 44.4817 59.7275 44.6387 60.1022L29.3365 60.1151ZM37.7633 53.9365C37.7633 54.2031 37.7633 54.3759 37.7633 54.5477C37.7811 55.2003 38.264 55.686 38.8832 55.6791C39.4876 55.6722 39.9597 55.1944 39.9774 54.5605C39.9873 54.216 39.9893 53.8694 39.9774 53.5268C39.9655 53.4504 39.9809 53.3722 40.021 53.3061C40.0611 53.24 40.1234 53.1902 40.1967 53.1655C41.7126 52.4309 42.4374 51.0191 42.1234 49.4453C41.8271 47.9446 40.5334 46.8941 38.8921 46.8122C38.2295 46.7796 37.7554 46.3057 37.7643 45.6876C37.7728 45.4087 37.8849 45.1429 38.0788 44.9421C38.2728 44.7413 38.5345 44.6199 38.8131 44.6016C39.4284 44.568 39.9251 45.0291 39.9804 45.6876C40.0387 46.3857 40.5117 46.8467 41.1388 46.8181C41.7827 46.7875 42.2399 46.2613 42.1906 45.5524C42.0987 44.2373 41.442 43.2816 40.2579 42.7119C40.0476 42.6132 39.9616 42.5145 39.9755 42.2785C39.9972 41.9596 39.9863 41.6387 39.9755 41.3179C39.9626 40.6593 39.4925 40.1736 38.8743 40.1696C38.2561 40.1657 37.7752 40.6524 37.7604 41.307C37.7544 41.614 37.7446 41.9231 37.7604 42.2301C37.7752 42.4799 37.7001 42.6092 37.4562 42.7238C35.725 43.5353 35.0278 45.5781 35.9225 47.2476C36.5368 48.3928 37.5273 48.9763 38.825 49.0356C39.5923 49.0711 40.1187 49.7139 39.9399 50.3981C39.8769 50.6582 39.7227 50.8871 39.5052 51.0433C39.2878 51.1994 39.0215 51.2725 38.7548 51.2491C38.1959 51.1909 37.8028 50.7555 37.7535 50.1502C37.6972 49.4591 37.2063 48.9991 36.5773 49.0395C35.9482 49.08 35.5107 49.5835 35.5413 50.248C35.5966 51.4426 36.1279 52.3944 37.1738 52.967C37.6685 53.2237 37.8986 53.4942 37.7633 53.9365Z" fill="white"/>
<path d="M62.3065 52.65C62.0102 53.2908 61.5046 53.4764 60.8182 53.4734C56.5579 53.4527 52.2976 53.4635 48.0372 53.4626C47.1247 53.4626 46.71 53.0469 46.709 52.1317C46.709 51.4919 46.709 50.8482 46.709 50.2114C46.7159 49.4936 47.1712 49.0266 47.8881 49.0266C52.2992 49.0266 56.7077 49.0266 61.1135 49.0266C61.713 49.0266 62.0556 49.3564 62.3055 49.8431L62.3065 52.65Z" fill="white"/>
<path d="M47.5222 60.1151C46.8822 59.8189 46.6571 59.3154 46.7005 58.6272C46.738 58.0349 46.7005 57.4425 46.7104 56.856C46.7173 56.1412 47.1755 55.6821 47.8955 55.6821C52.302 55.6821 56.7081 55.6821 61.1139 55.6821C61.7144 55.6821 62.0561 56.0119 62.3059 56.4986V59.3065C62.137 59.6633 61.8498 59.9507 61.4932 60.12L47.5222 60.1151Z" fill="white"/>
<path d="M38.8591 29.0013C37.5752 29.0013 36.2963 29.0013 35.0155 29.0013C34.818 29.0013 34.7083 28.9579 34.6205 28.7673C33.8215 27.0702 32.7253 25.5754 31.4721 24.1912C31.1887 23.8772 31.0356 23.5386 31.1531 23.1141C31.2973 22.5918 31.7131 22.2768 32.273 22.2739C33.4626 22.2567 34.6316 22.5845 35.6386 23.2177C35.8621 23.3476 36.0787 23.489 36.2875 23.6413C37.7589 24.7787 39.974 24.7757 41.4869 23.6304C42.6226 22.7695 43.9084 22.2857 45.3552 22.2699C45.8875 22.264 46.2993 22.4407 46.5294 22.9324C46.7595 23.4241 46.6084 23.8289 46.2598 24.2159C45.0056 25.5981 43.9114 27.0968 43.1174 28.796C43.0186 29.0053 42.8804 29.0033 42.7046 29.0023C41.4208 29.0003 40.1389 29 38.8591 29.0013Z" fill="white"/>
</g>
<defs>
<linearGradient id="paint0_linear_152_926" x1="3.5452" y1="15.3801" x2="84.2742" y2="20.8964" gradientUnits="userSpaceOnUse">
<stop stop-color="#E9038A"/>
<stop offset="1" stop-color="#0A6195"/>
</linearGradient>
<clipPath id="clip0_152_926">
<rect width="37.8403" height="37.8403" fill="white" transform="translate(24.4648 22.2738)"/>
</clipPath>
</defs>
</svg>
