<svg width="84" height="84" viewBox="0 0 84 84" fill="none" xmlns="http://www.w3.org/2000/svg">
<circle cx="42.0008" cy="41.6554" r="41.532" fill="url(#paint0_linear_152_937)"/>
<g clip-path="url(#clip0_152_937)">
<path d="M50.2375 61.038C48.7971 60.4391 48.1778 59.5204 48.1758 57.9432C48.1758 52.5542 48.1758 47.1649 48.1758 41.7752C48.1758 41.0104 48.35 40.2982 48.8094 39.675C49.281 39.0346 49.9125 38.6896 50.7274 38.6956C51.6798 38.7027 52.6333 38.6956 53.5867 38.6956C55.0922 38.6956 56.066 39.505 56.337 40.978C56.3895 41.2763 56.4148 41.5787 56.4124 41.8815C56.4124 47.2098 56.4124 52.536 56.4124 57.8602C56.4124 58.5816 56.2759 59.2614 55.8939 59.8836C55.5333 60.4735 54.9995 60.8275 54.3517 61.0349L50.2375 61.038Z" fill="white"/>
<path d="M39.4875 61.0382C38.0471 60.4392 37.4278 59.5206 37.4258 57.9454C37.4258 54.5522 37.4258 51.1589 37.4258 47.7657C37.4258 46.9867 37.604 46.2643 38.0777 45.6341C38.5514 45.0038 39.1697 44.674 39.9683 44.679C40.9339 44.679 41.9036 44.679 42.8642 44.679C44.3402 44.679 45.2967 45.46 45.588 46.9047C45.6448 47.1893 45.6728 47.4787 45.6715 47.7687C45.6715 51.1627 45.6715 54.5562 45.6715 57.9495C45.6858 58.621 45.5138 59.2836 45.1744 59.8646C44.8128 60.4716 44.2709 60.8338 43.6078 61.0412L39.4875 61.0382Z" fill="white"/>
<path d="M28.9655 61.038C27.46 60.52 26.9282 59.3677 26.915 57.9017C26.8997 56.1879 26.915 54.4731 26.915 52.7582C26.915 51.9964 27.0861 51.2812 27.5455 50.6569C28.0049 50.0327 28.6365 49.6624 29.4554 49.6716C30.4333 49.6817 31.4102 49.6716 32.3881 49.6716C33.8141 49.6716 34.7421 50.4131 35.065 51.8052C35.134 52.1257 35.1662 52.4529 35.1607 52.7805C35.1607 54.5004 35.1607 56.2102 35.1607 57.925C35.1772 58.5581 35.0306 59.1849 34.735 59.746C34.3713 60.4138 33.808 60.8286 33.0838 61.043L28.9655 61.038Z" fill="white"/>
<path d="M33.9547 42.8631C31.6038 42.8348 29.2626 42.5598 26.97 42.0426C26.4005 41.9161 26.1469 41.4042 26.4219 40.9692C26.5992 40.6879 26.8691 40.6333 27.1829 40.6464C29.8786 40.7568 32.5744 40.4291 35.1638 39.6762C41.3448 37.8916 45.8919 34.1675 48.6921 28.3806C48.8357 28.0852 48.8102 27.9598 48.4975 27.8262C47.869 27.5571 47.2619 27.2394 46.6436 26.946C46.338 26.8003 46.1119 26.597 46.1211 26.2297C46.1302 25.8625 46.3625 25.6733 46.6783 25.5408C49.1671 24.4933 51.6542 23.4449 54.1397 22.3954C54.816 22.1111 55.2092 22.3276 55.3325 23.052C55.8041 25.8241 56.2696 28.5961 56.7474 31.3672C56.8054 31.701 56.7474 31.9742 56.4672 32.1684C56.1871 32.3627 55.8948 32.3202 55.6106 32.1492C54.9923 31.7759 54.3628 31.4198 53.7536 31.0363C53.4969 30.8724 53.3706 30.8815 53.2015 31.1608C51.9792 33.1629 50.6071 35.0507 48.9702 36.7423C45.8461 39.9727 42.071 41.9627 37.6003 42.6172C36.3934 42.7937 35.1745 42.8759 33.9547 42.8631Z" fill="white"/>
</g>
<defs>
<linearGradient id="paint0_linear_152_937" x1="3.5452" y1="15.3801" x2="84.2742" y2="20.8964" gradientUnits="userSpaceOnUse">
<stop stop-color="#E9038A"/>
<stop offset="1" stop-color="#0A6195"/>
</linearGradient>
<clipPath id="clip0_152_937">
<rect width="30.4568" height="38.7632" fill="white" transform="translate(26.3105 22.2738)"/>
</clipPath>
</defs>
</svg>
