<svg width="56" height="56" viewBox="0 0 56 56" fill="none" xmlns="http://www.w3.org/2000/svg">
<g clip-path="url(#clip0_172_2520)">
<path d="M39.5256 12H16.4743C15.2886 12.0033 14.1525 12.4758 13.3141 13.3141C12.4758 14.1525 12.0033 15.2886 12 16.4743V39.5256C12.0033 40.7112 12.4758 41.8473 13.3141 42.6857C14.1525 43.5241 15.2886 43.9965 16.4743 43.9998H39.5256C40.7122 43.9998 41.8503 43.5285 42.6894 42.6894C43.5285 41.8503 43.9998 40.7122 43.9998 39.5256V16.4743C43.9998 15.2876 43.5285 14.1496 42.6894 13.3105C41.8503 12.4714 40.7122 12 39.5256 12ZM42.2101 39.5256C42.2055 40.2361 41.9211 40.9162 41.4187 41.4187C40.9162 41.9211 40.2361 42.2055 39.5256 42.2101H16.4743C15.7637 42.2055 15.0836 41.9211 14.5812 41.4187C14.0787 40.9162 13.7944 40.2361 13.7897 39.5256V16.4743C13.7944 15.7637 14.0787 15.0836 14.5812 14.5812C15.0836 14.0787 15.7637 13.7944 16.4743 13.7897H39.5256C40.2361 13.7944 40.9162 14.0787 41.4187 14.5812C41.9211 15.0836 42.2055 15.7637 42.2101 16.4743V39.5256Z" fill="url(#paint0_linear_172_2520)"/>
<path d="M20.502 26.3304C20.502 25.9768 20.6424 25.6376 20.8925 25.3876C21.1425 25.1375 21.4817 24.9971 21.8353 24.9971C22.1889 24.9971 22.528 25.1375 22.7781 25.3876C23.0281 25.6376 23.1686 25.9768 23.1686 26.3304V34.9971C23.1686 35.3507 23.0281 35.6898 22.7781 35.9399C22.528 36.1899 22.1889 36.3304 21.8353 36.3304C21.4817 36.3304 21.1425 36.1899 20.8925 35.9399C20.6424 35.6898 20.502 35.3507 20.502 34.9971V26.3304Z" fill="url(#paint1_linear_172_2520)"/>
<path d="M21.8353 22.3249C22.5717 22.3249 23.1686 21.7279 23.1686 20.9915C23.1686 20.2552 22.5717 19.6582 21.8353 19.6582C21.0989 19.6582 20.502 20.2552 20.502 20.9915C20.502 21.7279 21.0989 22.3249 21.8353 22.3249Z" fill="url(#paint2_linear_172_2520)"/>
<path d="M35.4935 29.8271V35.0005C35.4935 35.3541 35.353 35.6932 35.103 35.9433C34.8529 36.1933 34.5138 36.3338 34.1602 36.3338C33.8066 36.3338 33.4674 36.1933 33.2174 35.9433C32.9673 35.6932 32.8268 35.3541 32.8268 35.0005V29.8271C32.8268 29.256 32.6 28.7083 32.1962 28.3045C31.7923 27.9007 31.2446 27.6738 30.6735 27.6738C30.1024 27.6738 29.5547 27.9007 29.1509 28.3045C28.7471 28.7083 28.5202 29.256 28.5202 29.8271V35.0005C28.5202 35.3541 28.3797 35.6932 28.1297 35.9433C27.8796 36.1933 27.5405 36.3338 27.1868 36.3338C26.8332 36.3338 26.4941 36.1933 26.244 35.9433C25.994 35.6932 25.8535 35.3541 25.8535 35.0005V26.3338C25.859 25.9819 26.0013 25.6459 26.2501 25.3971C26.499 25.1482 26.8349 25.006 27.1868 25.0005C27.4127 24.9943 27.636 25.0493 27.8331 25.1596C28.0303 25.2699 28.194 25.4314 28.3068 25.6271C29.04 25.2116 29.8694 24.9959 30.7121 25.0014C31.5548 25.007 32.3813 25.2338 33.1089 25.659C33.8364 26.0842 34.4396 26.693 34.8581 27.4244C35.2766 28.1559 35.4957 28.9844 35.4935 29.8271Z" fill="url(#paint3_linear_172_2520)"/>
</g>
<defs>
<linearGradient id="paint0_linear_172_2520" x1="12" y1="27.9999" x2="43.9998" y2="27.9999" gradientUnits="userSpaceOnUse">
<stop stop-color="#9B248E"/>
<stop offset="0.739" stop-color="#4A4792"/>
<stop offset="1" stop-color="#2D5393"/>
</linearGradient>
<linearGradient id="paint1_linear_172_2520" x1="20.502" y1="30.6637" x2="23.1686" y2="30.6637" gradientUnits="userSpaceOnUse">
<stop stop-color="#9B248E"/>
<stop offset="0.739" stop-color="#4A4792"/>
<stop offset="1" stop-color="#2D5393"/>
</linearGradient>
<linearGradient id="paint2_linear_172_2520" x1="20.502" y1="20.9915" x2="23.1686" y2="20.9915" gradientUnits="userSpaceOnUse">
<stop stop-color="#9B248E"/>
<stop offset="0.739" stop-color="#4A4792"/>
<stop offset="1" stop-color="#2D5393"/>
</linearGradient>
<linearGradient id="paint3_linear_172_2520" x1="25.8535" y1="30.6669" x2="35.4935" y2="30.6669" gradientUnits="userSpaceOnUse">
<stop stop-color="#9B248E"/>
<stop offset="0.739" stop-color="#4A4792"/>
<stop offset="1" stop-color="#2D5393"/>
</linearGradient>
<clipPath id="clip0_172_2520">
<rect width="32" height="32" fill="white" transform="translate(12 12)"/>
</clipPath>
</defs>
</svg>
