<svg width="32" height="32" viewBox="0 0 32 32" fill="none" xmlns="http://www.w3.org/2000/svg">
<g clip-path="url(#clip0_590_639)">
<path d="M27.5256 0.000244141H4.47425C3.28862 0.00355003 2.1525 0.476005 1.31413 1.31437C0.475761 2.15274 0.00330589 3.28887 0 4.47449V27.5258C0.00330589 28.7115 0.475761 29.8476 1.31413 30.686C2.1525 31.5243 3.28862 31.9968 4.47425 32.0001H27.5256C28.7122 32.0001 29.8503 31.5287 30.6894 30.6896C31.5284 29.8505 31.9998 28.7125 31.9998 27.5258V4.47449C31.9998 3.28785 31.5284 2.14981 30.6894 1.31072C29.8503 0.471637 28.7122 0.000244141 27.5256 0.000244141ZM30.2101 27.5258C30.2055 28.2364 29.9211 28.9165 29.4187 29.4189C28.9162 29.9214 28.2361 30.2057 27.5256 30.2104H4.47425C3.76371 30.2057 3.08361 29.9214 2.58117 29.4189C2.07873 28.9165 1.79439 28.2364 1.7897 27.5258V4.47449C1.79439 3.76396 2.07873 3.08385 2.58117 2.58141C3.08361 2.07898 3.76371 1.79463 4.47425 1.78994H27.5256C28.2361 1.79463 28.9162 2.07898 29.4187 2.58141C29.9211 3.08385 30.2055 3.76396 30.2101 4.47449V27.5258Z" fill="url(#paint0_linear_590_639)"/>
<path d="M8.50244 14.3306C8.50244 13.977 8.64292 13.6379 8.89297 13.3878C9.14301 13.1378 9.48215 12.9973 9.83577 12.9973C10.1894 12.9973 10.5285 13.1378 10.7786 13.3878C11.0286 13.6379 11.1691 13.977 11.1691 14.3306V22.9973C11.1691 23.3509 11.0286 23.6901 10.7786 23.9401C10.5285 24.1902 10.1894 24.3306 9.83577 24.3306C9.48215 24.3306 9.14301 24.1902 8.89297 23.9401C8.64292 23.6901 8.50244 23.3509 8.50244 22.9973V14.3306Z" fill="url(#paint1_linear_590_639)"/>
<path d="M9.83577 10.3254C10.5722 10.3254 11.1691 9.7284 11.1691 8.99202C11.1691 8.25565 10.5722 7.65869 9.83577 7.65869C9.09939 7.65869 8.50244 8.25565 8.50244 8.99202C8.50244 9.7284 9.09939 10.3254 9.83577 10.3254Z" fill="url(#paint2_linear_590_639)"/>
<path d="M23.494 17.8266V23C23.494 23.3536 23.3535 23.6927 23.1035 23.9428C22.8534 24.1928 22.5143 24.3333 22.1607 24.3333C21.807 24.3333 21.4679 24.1928 21.2179 23.9428C20.9678 23.6927 20.8273 23.3536 20.8273 23V17.8266C20.8273 17.2555 20.6005 16.7078 20.1966 16.304C19.7928 15.9002 19.2451 15.6733 18.674 15.6733C18.1029 15.6733 17.5552 15.9002 17.1514 16.304C16.7475 16.7078 16.5207 17.2555 16.5207 17.8266V23C16.5207 23.3536 16.3802 23.6927 16.1301 23.9428C15.8801 24.1928 15.541 24.3333 15.1873 24.3333C14.8337 24.3333 14.4946 24.1928 14.2445 23.9428C13.9945 23.6927 13.854 23.3536 13.854 23V14.3333C13.8595 13.9814 14.0017 13.6455 14.2506 13.3966C14.4995 13.1477 14.8354 13.0055 15.1873 13C15.4132 12.9938 15.6365 13.0488 15.8336 13.1591C16.0308 13.2694 16.1945 13.4309 16.3073 13.6266C17.0405 13.2111 17.8699 12.9954 18.7126 13.0009C19.5553 13.0065 20.3818 13.2333 21.1093 13.6585C21.8369 14.0837 22.4401 14.6925 22.8586 15.4239C23.2771 16.1554 23.4962 16.9839 23.494 17.8266Z" fill="url(#paint3_linear_590_639)"/>
</g>
<defs>
<linearGradient id="paint0_linear_590_639" x1="0" y1="16.0002" x2="31.9998" y2="16.0002" gradientUnits="userSpaceOnUse">
<stop stop-color="#9B248E"/>
<stop offset="0.739" stop-color="#4A4792"/>
<stop offset="1" stop-color="#2D5393"/>
</linearGradient>
<linearGradient id="paint1_linear_590_639" x1="8.50244" y1="18.664" x2="11.1691" y2="18.664" gradientUnits="userSpaceOnUse">
<stop stop-color="#9B248E"/>
<stop offset="0.739" stop-color="#4A4792"/>
<stop offset="1" stop-color="#2D5393"/>
</linearGradient>
<linearGradient id="paint2_linear_590_639" x1="8.50244" y1="8.99202" x2="11.1691" y2="8.99202" gradientUnits="userSpaceOnUse">
<stop stop-color="#9B248E"/>
<stop offset="0.739" stop-color="#4A4792"/>
<stop offset="1" stop-color="#2D5393"/>
</linearGradient>
<linearGradient id="paint3_linear_590_639" x1="13.854" y1="18.6664" x2="23.494" y2="18.6664" gradientUnits="userSpaceOnUse">
<stop stop-color="#9B248E"/>
<stop offset="0.739" stop-color="#4A4792"/>
<stop offset="1" stop-color="#2D5393"/>
</linearGradient>
<clipPath id="clip0_590_639">
<rect width="32" height="32" fill="white"/>
</clipPath>
</defs>
</svg>
