<svg width="221" height="221" viewBox="0 0 221 221" fill="none" xmlns="http://www.w3.org/2000/svg">
<path d="M193.891 188.543C188.173 194.461 183.057 197.94 179.14 200.567C140.937 226.183 97.2663 218.8 83.7645 216.276C61.981 212.205 43.5927 209.333 27.7939 194.999C-8.10573 162.429 -6.35971 94.4851 21.0721 52.3969C24.3247 47.4065 51.7149 6.63525 95.4798 0.890213C96.5503 0.749722 97.349 0.669647 98.0485 0.595325C104.819 -0.124472 146.773 -3.92365 180.983 24.8576C185.88 28.9774 193.76 36.4087 201.068 47.7424C227.789 89.1839 227.874 153.368 193.891 188.543Z" fill="url(#paint0_linear_153_2888)"/>
<path d="M96.3941 213.468C96.3941 213.468 77.1394 191.078 61.9869 143.478C47.8334 99.0158 69.8375 32.9838 21.5185 7.03594C19.8911 6.16199 18.0048 7.65992 18.4778 9.45122C21.2744 20.0421 27.5132 47.5414 25.5114 75.7183C22.9562 111.686 34.7713 199.401 96.3941 213.468Z" fill="#0F5F95"/>
<path opacity="0.47" d="M30.4745 24.7849L30.6549 24.946L30.7982 25.0838C30.894 25.175 30.984 25.2651 31.07 25.3543C31.2481 25.5331 31.4163 25.7138 31.5839 25.8948C31.9177 26.2578 32.2421 26.6242 32.5548 26.9984C32.8742 27.3684 33.1719 27.7517 33.4777 28.1307C33.7682 28.5192 34.0715 28.8998 34.3512 29.2954C35.4918 30.8638 36.5373 32.4942 37.5019 34.1691C39.4365 37.5171 41.0085 41.0623 42.2817 44.7029C43.5427 48.3488 44.5082 52.0927 45.1835 55.8846C45.86 59.6773 46.2167 63.5196 46.332 67.3602C46.444 71.2021 46.2994 75.0443 45.9502 78.8622L45.6511 81.7217L45.2568 84.5678C45.128 85.5251 44.9847 86.4366 44.8492 87.3733C44.7086 88.3038 44.5724 89.2349 44.4654 90.1702C43.507 97.639 43.0765 105.182 43.1111 112.723L43.1414 115.551L43.231 118.378C43.2534 119.321 43.3066 120.263 43.3594 121.204C43.4167 122.146 43.4477 123.089 43.5266 124.029C43.7782 127.794 44.1816 131.547 44.666 135.289C45.1658 139.03 45.7953 142.752 46.5284 146.455C47.2876 150.153 48.1763 153.824 49.1864 157.462C50.2203 161.093 51.3975 164.683 52.7141 168.222C54.0427 171.757 55.5386 175.228 57.1915 178.625C58.8378 182.025 60.6987 185.322 62.7529 188.494C64.8065 191.666 67.06 194.714 69.5393 197.574C66.9893 194.778 64.6553 191.783 62.5158 188.653C60.3757 185.523 58.4235 182.259 56.6833 178.884C54.9391 175.512 53.3343 172.062 51.9365 168.526C50.5419 164.99 49.2859 161.399 48.1734 157.761C47.0846 154.117 46.1172 150.436 45.2794 146.724C44.469 143.006 43.7569 139.265 43.1852 135.501C42.6411 131.734 42.1787 127.952 41.869 124.156C41.7755 123.208 41.7301 122.257 41.6583 121.308C41.5911 120.358 41.5235 119.408 41.4868 118.456L41.3546 115.602L41.2821 112.746C41.1353 105.127 41.458 97.493 42.3182 89.9095C42.4129 88.96 42.537 88.014 42.6657 87.0686L43.039 84.2425L43.4032 81.4542L43.6736 78.6567C43.9854 74.9238 44.0966 71.1768 43.9585 67.4414C43.6771 59.9752 42.4109 52.5458 39.985 45.509C39.3638 43.7567 38.6998 42.0183 37.9276 40.3291C37.1685 38.6349 36.353 36.9649 35.4371 35.3532C34.5278 33.7381 33.5419 32.1676 32.471 30.664C31.9352 29.9129 31.3789 29.1775 30.7999 28.4678C30.5122 28.1108 30.2152 27.7638 29.9147 27.4252C29.7638 27.2566 29.6127 27.0883 29.4597 26.9295C29.3831 26.847 29.3074 26.7686 29.2331 26.6957L29.1229 26.5855L29.0411 26.5079L28.9665 26.4372C28.5183 26.0122 28.4981 25.3027 28.9213 24.8526C29.3363 24.4114 30.0254 24.3846 30.4745 24.7849Z" fill="white"/>
<path d="M0.60981 142.627C-0.0147439 142.072 0.450727 141.036 1.2798 141.126C9.69894 142.041 31.9939 146.989 47.3118 173.545C66.5302 206.864 84.5532 205.359 94.2046 214.028C94.2046 214.028 80.9848 219.03 65.6902 212.888C28.1386 197.809 11.7141 152.495 0.60981 142.627Z" fill="#64A5D0"/>
<path opacity="0.47" d="M11.7661 148.948C13.3829 149.779 14.8703 150.775 16.3186 151.838L16.8642 152.233L17.396 152.645L18.4603 153.469C19.1537 154.038 19.8443 154.611 20.5305 155.19C23.2428 157.543 25.7672 160.104 28.1785 162.762C30.6185 165.4 32.8194 168.242 35.0059 171.09L36.5796 173.275L37.3666 174.368L37.7601 174.914L38.1347 175.473L41.1253 179.938C45.0093 185.859 49.5043 191.374 54.4656 196.427C56.9324 198.966 59.5122 201.398 62.2026 203.698C62.8691 204.281 63.5546 204.84 64.2297 205.412C64.9131 205.973 65.6049 206.525 66.2967 207.075C66.9974 207.613 67.6939 208.158 68.4064 208.678C69.1089 209.207 69.8359 209.724 70.5433 210.206L70.5636 210.22C70.944 210.479 71.043 210.999 70.7848 211.381C70.5302 211.757 70.0226 211.859 69.6438 211.613C68.1044 210.612 66.6646 209.56 65.2287 208.467C64.5187 207.916 63.8089 207.363 63.1079 206.801C62.4156 206.228 61.7125 205.667 61.0288 205.083C58.2862 202.758 55.6687 200.287 53.1578 197.713C51.8849 196.442 50.6848 195.101 49.4776 193.768C48.8809 193.094 48.3111 192.397 47.7268 191.713L46.8555 190.683C46.5638 190.34 46.2961 189.978 46.0154 189.626L44.3497 187.501C43.8013 186.788 43.2899 186.046 42.7584 185.319L41.9685 184.224C41.8385 184.04 41.7017 183.861 41.5771 183.674L41.2058 183.109L39.7211 180.852C39.2198 180.097 38.7478 179.352 38.2669 178.604L36.828 176.361L36.4682 175.801L36.0898 175.253L35.3329 174.157L33.8187 171.965L32.2325 169.826C31.7004 169.115 31.1846 168.392 30.6205 167.707L28.9599 165.625C28.688 165.274 28.3993 164.938 28.1122 164.6L27.252 163.584C24.95 160.884 22.5315 158.276 19.9244 155.87C19.2708 155.271 18.6122 154.677 17.95 154.087L16.933 153.231L16.4243 152.802L15.9022 152.391C15.5524 152.119 15.2087 151.838 14.8534 151.574L13.7816 150.789C13.0566 150.288 12.3232 149.772 11.5659 149.348L11.556 149.343C11.4483 149.283 11.4097 149.146 11.4696 149.038C11.5281 148.933 11.6597 148.893 11.7661 148.948Z" fill="white"/>
<path d="M82.2637 213.259C82.2637 213.259 116.521 201.626 130.709 159.557C144.501 118.667 151.677 59.7076 205.072 51.77C206.76 51.519 208.002 53.2942 207.093 54.7445C201.714 63.319 188.652 85.8661 182.679 111.294C175.053 143.753 140.527 217.912 82.2637 213.259Z" fill="#0F5F95"/>
<path opacity="0.47" d="M193.081 66.8754L192.988 66.9212L192.86 66.988C192.775 67.0318 192.686 67.0801 192.596 67.1316C192.417 67.2293 192.238 67.3361 192.058 67.4432C191.7 67.6587 191.342 67.8828 190.99 68.1183C190.284 68.5844 189.591 69.0794 188.912 69.5941C187.553 70.6247 186.252 71.738 185.005 72.9118C183.754 74.0808 182.575 75.329 181.44 76.6143C180.294 77.8916 179.23 79.2422 178.201 80.617C174.126 86.1569 170.967 92.3644 168.668 98.8775C167.52 102.137 166.588 105.475 165.838 108.857L165.308 111.401L164.864 113.964L164.417 116.562C164.271 117.432 164.12 118.301 163.943 119.166C162.619 126.099 160.807 132.927 158.584 139.612L157.736 142.113L156.835 144.596C156.541 145.426 156.22 146.246 155.9 147.066C155.576 147.884 155.274 148.711 154.932 149.522C153.615 152.787 152.168 155.997 150.653 159.172C149.114 162.337 147.458 165.442 145.721 168.499C143.962 171.544 142.096 174.526 140.134 177.441C138.153 180.344 136.057 183.166 133.855 185.901C131.65 188.635 129.285 191.236 126.819 193.73C124.356 196.227 121.736 198.568 118.987 200.738C116.238 202.908 113.355 204.905 110.336 206.667C113.31 204.829 116.137 202.763 118.821 200.532C121.506 198.301 124.054 195.906 126.442 193.36C128.834 190.82 131.108 188.17 133.252 185.418C135.387 182.658 137.412 179.815 139.322 176.896C141.213 173.964 143.006 170.97 144.692 167.916C146.357 164.85 147.935 161.738 149.404 158.575C150.86 155.405 152.247 152.204 153.503 148.95C153.831 148.143 154.117 147.318 154.427 146.503C154.732 145.687 155.038 144.87 155.316 144.044L156.172 141.573L156.976 139.085C159.078 132.437 160.77 125.66 161.976 118.801C162.138 117.946 162.274 117.086 162.405 116.226C162.543 115.361 162.667 114.517 162.816 113.636L163.25 111.014L163.772 108.407C164.512 104.94 165.44 101.508 166.594 98.1478C167.751 94.7895 169.122 91.4966 170.761 88.336C172.399 85.1755 174.279 82.1381 176.394 79.2688C178.518 76.4078 180.88 73.7137 183.507 71.2942C184.819 70.0828 186.19 68.9333 187.628 67.8647C187.983 67.5929 188.356 67.3409 188.719 67.0785C189.093 66.8287 189.461 66.5728 189.845 66.3347C190.223 66.091 190.61 65.8574 191.005 65.6294C191.203 65.5162 191.401 65.4032 191.607 65.2947C191.707 65.2398 191.812 65.1852 191.921 65.1313L192.086 65.0494L192.289 64.9571C192.809 64.7215 193.42 64.9536 193.655 65.4754C193.885 65.9873 193.667 66.5879 193.168 66.8329L193.081 66.8754Z" fill="white"/>
<path d="M203.897 135.806C204.69 135.19 204.213 133.911 203.212 133.954C193.045 134.382 165.923 138.544 145.465 169.171C119.797 207.596 101.679 214.032 86.0498 213.988C86.0498 213.988 101.507 221.036 120.33 214.886C166.544 199.787 189.806 146.756 203.897 135.806Z" fill="#64A5D0"/>
<path opacity="0.47" d="M190.23 142.996C189.288 143.444 188.368 144.004 187.46 144.547L186.113 145.404C185.666 145.692 185.232 146.002 184.791 146.3L184.132 146.751L183.489 147.225L182.202 148.171C181.361 148.827 180.525 149.487 179.694 150.152C176.379 152.831 173.273 155.766 170.301 158.82L169.189 159.97C168.818 160.352 168.446 160.733 168.092 161.132L165.937 163.496C165.207 164.272 164.531 165.1 163.837 165.909L161.767 168.348L159.779 170.856L158.785 172.11L158.288 172.737L157.812 173.381L155.91 175.956C155.275 176.815 154.65 177.67 153.989 178.535L152.031 181.124L151.542 181.772C151.378 181.987 151.2 182.19 151.029 182.4L149.996 183.651C149.301 184.479 148.63 185.329 147.916 186.141L145.751 188.557C145.387 188.956 145.037 189.369 144.661 189.757L143.535 190.923C142.781 191.697 142.042 192.488 141.274 193.247C139.721 194.75 138.177 196.264 136.55 197.686C133.337 200.574 130.004 203.328 126.532 205.898C125.667 206.544 124.779 207.16 123.904 207.793C123.019 208.412 122.125 209.018 121.23 209.623C119.422 210.819 117.613 211.966 115.688 213.044C115.206 213.314 114.597 213.14 114.328 212.656C114.062 212.178 114.227 211.577 114.694 211.301L114.72 211.285C115.607 210.763 116.519 210.201 117.403 209.623C118.298 209.056 119.176 208.458 120.059 207.868C120.932 207.263 121.805 206.657 122.668 206.038C123.523 205.406 124.389 204.79 125.234 204.145C128.641 201.6 131.926 198.889 135.084 196.04C141.43 190.375 147.254 184.12 152.378 177.328L156.315 172.212L156.808 171.572L157.323 170.947L158.353 169.7L160.412 167.205C163.258 163.964 166.121 160.731 169.254 157.762C172.355 154.765 175.583 151.895 179.021 149.289C179.889 148.649 180.762 148.017 181.638 147.39L182.98 146.486L183.65 146.034L184.335 145.605C186.155 144.445 188.017 143.369 190.021 142.5C190.157 142.441 190.315 142.504 190.374 142.641C190.431 142.774 190.372 142.929 190.243 142.99L190.23 142.996Z" fill="white"/>
<path d="M108.4 208.121C108.319 213.691 101.2 219.626 92.9742 219.626C84.7486 219.626 78.5295 215.273 78.0805 209.721C77.0097 196.477 84.7486 196.616 92.9742 196.616C101.2 196.615 108.599 194.355 108.4 208.121Z" fill="url(#paint1_linear_153_2888)"/>
<path d="M114.445 199.992C114.687 203.005 105.577 206.201 94.0974 207.13C82.6179 208.06 73.1158 206.37 72.8738 203.357C72.6319 200.344 81.7418 197.148 93.2213 196.219C104.701 195.289 114.203 196.978 114.445 199.992Z" fill="url(#paint2_linear_153_2888)"/>
<path d="M114.445 194.694C114.687 197.707 105.577 200.903 94.0974 201.832C82.6179 202.762 73.1158 201.073 72.8738 198.06C72.6319 195.046 81.7418 191.85 93.2213 190.921C104.701 189.992 114.203 191.681 114.445 194.694Z" fill="url(#paint3_linear_153_2888)"/>
<path d="M114.445 189.397C114.687 192.41 105.577 195.606 94.0974 196.535C82.6179 197.465 73.1158 195.776 72.8738 192.762C72.6319 189.749 81.7418 186.553 93.2213 185.624C104.701 184.694 114.203 186.383 114.445 189.397Z" fill="url(#paint4_linear_153_2888)"/>
<path d="M114.445 184.099C114.687 187.112 105.577 190.308 94.0974 191.238C82.6179 192.167 73.1158 190.478 72.8738 187.465C72.6319 184.452 81.7418 181.256 93.2213 180.327C104.701 179.397 114.203 181.086 114.445 184.099Z" fill="url(#paint5_linear_153_2888)"/>
<path d="M87.9093 207.664C84.5 207.664 81.3804 207.412 78.8029 206.916C78.6534 206.888 78.5554 206.743 78.5841 206.593C78.6127 206.442 78.7564 206.344 78.9066 206.373C82.9397 207.148 88.3266 207.319 94.0749 206.854C98.7786 206.473 103.177 205.711 106.796 204.65C106.942 204.607 107.095 204.692 107.138 204.839C107.18 204.985 107.097 205.139 106.95 205.182C103.296 206.253 98.8595 207.022 94.1192 207.405C91.9841 207.578 89.8974 207.664 87.9093 207.664Z" fill="#91B3FA"/>
<path d="M87.9669 202.362C83.5374 202.362 79.5788 201.944 76.7867 201.146C76.6402 201.104 76.5554 200.95 76.597 200.803C76.6389 200.656 76.7907 200.571 76.9377 200.613C80.9164 201.751 87.3229 202.103 94.0754 201.557C100.755 201.016 106.984 199.655 110.739 197.916C110.877 197.852 111.041 197.912 111.105 198.051C111.168 198.19 111.108 198.355 110.97 198.419C107.159 200.183 100.86 201.563 94.1198 202.109C92.0163 202.279 89.9445 202.362 87.9669 202.362Z" fill="#91B3FA"/>
<path d="M87.9095 197.068C83.1268 197.068 78.9415 196.577 76.1246 195.644C75.9798 195.596 75.9013 195.44 75.949 195.294C75.9967 195.149 76.152 195.07 76.2972 195.118C80.2173 196.416 86.8632 196.842 94.0747 196.259C100.754 195.718 106.983 194.357 110.738 192.618C110.877 192.554 111.04 192.614 111.104 192.753C111.168 192.892 111.107 193.056 110.969 193.12C107.158 194.885 100.859 196.265 94.1192 196.81C91.9831 196.984 89.8947 197.068 87.9095 197.068Z" fill="#91B3FA"/>
<path d="M87.9462 191.768C84.1523 191.768 80.7018 191.46 78.0192 190.861C77.8706 190.828 77.7768 190.68 77.8099 190.531C77.8428 190.382 77.9907 190.288 78.1387 190.321C82.1726 191.221 87.9811 191.454 94.0744 190.961C100.694 190.425 106.891 189.079 110.653 187.359C110.791 187.295 110.955 187.357 111.018 187.496C111.081 187.636 111.02 187.8 110.881 187.863C107.065 189.608 100.799 190.972 94.1189 191.513C92.0083 191.684 89.9301 191.768 87.9462 191.768Z" fill="#91B3FA"/>
<path d="M65.1697 162.656C63.7755 157.697 61.4073 153.063 58.2179 149.026C51.3839 140.377 40.2352 122.787 38.863 98.7807C36.867 63.862 67.7064 46.3797 95.8478 48.7531C123.989 51.1264 151.758 72.1678 148.718 104.653C146.847 124.641 135.707 139.802 127.412 148.509C122.144 154.038 118.387 160.81 116.353 168.184C113.864 177.21 107.94 188.457 93.8588 189.143C75.6386 190.03 68.0712 172.975 65.1697 162.656Z" fill="url(#paint6_linear_153_2888)"/>
<path opacity="0.78" d="M98.5122 182.536L108.359 133.035C108.562 132.013 109.213 131.326 109.813 131.501C110.413 131.677 110.734 132.648 110.531 133.671C110.526 133.698 110.518 133.732 110.512 133.759L99.296 182.799C99.2117 183.168 98.9694 183.401 98.7548 183.319C98.5467 183.24 98.4415 182.893 98.5122 182.536Z" fill="white"/>
<path opacity="0.78" d="M88.2913 182.93L78.4446 133.429C78.2412 132.407 77.59 131.72 76.9902 131.895C76.3904 132.071 76.069 133.042 76.2725 134.065C76.2779 134.092 76.2852 134.126 76.2912 134.152L87.5073 183.193C87.5917 183.562 87.834 183.795 88.0486 183.713C88.2567 183.634 88.362 183.287 88.2913 182.93Z" fill="white"/>
<path opacity="0.78" d="M108.289 128.786C108.039 128.475 107.46 128.359 106.996 128.527L101.513 130.507L99.6101 126.315C99.5094 126.097 99.2761 125.903 98.9433 125.797C98.3126 125.596 97.5584 125.775 97.2585 126.198L97.2489 126.212L92.7398 132.566L88.5557 123.52L88.5487 123.505C88.4463 123.285 88.2303 123.086 87.9154 122.953C87.2137 122.657 86.2869 122.799 85.845 123.269L79.5413 129.976C79.2849 130.251 79.3732 130.619 79.7635 130.822C80.1801 131.039 80.7803 130.989 81.104 130.71L86.6543 125.924L91.6514 134.53L91.6553 134.536C91.7354 134.674 91.8861 134.794 92.0954 134.87C92.5643 135.04 93.1498 134.922 93.4032 134.608L98.2257 128.627L100.041 131.652L100.057 131.679C100.07 131.701 100.085 131.722 100.102 131.743C100.352 132.054 100.93 132.17 101.393 132.003L107.901 129.652C108.365 129.484 108.539 129.097 108.289 128.786Z" fill="white"/>
<path d="M73.4054 57.6247C73.0509 58.5279 73.2708 59.4041 74.1835 60.2474C74.3707 60.4204 74.6346 60.4856 74.8817 60.425C87.6225 57.298 100.49 57.5736 113.014 61.7294C113.319 61.8308 113.654 61.7284 113.856 61.4767C114.864 60.2205 114.705 58.9058 113.632 57.5455C113.537 57.425 113.404 57.3378 113.257 57.2929C100.681 53.4314 88.1048 53.1631 75.5297 55.8719C74.5823 56.076 73.7607 56.7194 73.4054 57.6247Z" fill="white"/>
<path d="M74.1057 57.789C73.7628 58.6027 73.9755 59.3918 74.8583 60.1514C75.0394 60.3073 75.2946 60.366 75.5337 60.3114C87.8573 57.4949 100.304 57.7432 112.417 61.4864C112.713 61.5778 113.036 61.4855 113.232 61.2587C114.207 60.1272 114.053 58.943 113.016 57.7178C112.924 57.6092 112.795 57.5308 112.653 57.4902C100.488 54.0122 88.324 53.7704 76.1605 56.2103C75.244 56.394 74.4494 56.9736 74.1057 57.789Z" fill="url(#paint7_linear_153_2888)" fill-opacity="0.5"/>
<path d="M126.184 219.456C126.604 219.456 126.945 219.114 126.945 218.692V127.354C126.945 126.932 126.604 126.59 126.184 126.59C125.763 126.59 125.423 126.932 125.423 127.354V218.692C125.423 219.114 125.763 219.456 126.184 219.456Z" fill="url(#paint8_linear_153_2888)"/>
<path d="M146.805 219.456C147.226 219.456 147.566 219.114 147.566 218.692V127.354C147.566 126.932 147.226 126.59 146.805 126.59C146.385 126.59 146.044 126.932 146.044 127.354V218.692C146.044 219.114 146.385 219.456 146.805 219.456Z" fill="url(#paint9_linear_153_2888)"/>
<path d="M197.469 220.035C197.568 220.035 197.669 220.015 197.766 219.974C198.153 219.809 198.333 219.36 198.169 218.972L159.256 127.055C159.092 126.667 158.644 126.486 158.258 126.651C157.872 126.816 157.691 127.265 157.856 127.653L196.768 219.57C196.891 219.861 197.173 220.035 197.469 220.035Z" fill="url(#paint10_linear_153_2888)"/>
<path d="M173.433 220.035C173.533 220.035 173.633 220.015 173.731 219.974C174.117 219.809 174.298 219.36 174.133 218.972L135.221 127.055C135.056 126.667 134.609 126.486 134.223 126.651C133.836 126.816 133.656 127.265 133.82 127.653L172.733 219.57C172.856 219.861 173.137 220.035 173.433 220.035Z" fill="url(#paint11_linear_153_2888)"/>
<path d="M125.002 128.194H160.647C161.239 128.194 161.72 127.712 161.72 127.117C161.72 126.522 161.239 126.04 160.647 126.04H125.002C124.41 126.04 123.93 126.522 123.93 127.117C123.93 127.712 124.41 128.194 125.002 128.194Z" fill="url(#paint12_linear_153_2888)"/>
<path d="M140.399 142.173H164.506C164.926 142.173 165.267 141.831 165.267 141.409C165.267 140.987 164.926 140.645 164.506 140.645H140.399C139.978 140.645 139.638 140.987 139.638 141.409C139.638 141.831 139.978 142.173 140.399 142.173Z" fill="url(#paint13_linear_153_2888)"/>
<path d="M171.903 158.029H147.795V159.557H171.903V158.029Z" fill="url(#paint14_linear_153_2888)"/>
<path d="M179.063 175.413H154.956V176.941H179.063V175.413Z" fill="url(#paint15_linear_153_2888)"/>
<path d="M162.466 194.324H186.573C186.993 194.324 187.334 193.982 187.334 193.56C187.334 193.138 186.993 192.796 186.573 192.796H162.466C162.046 192.796 161.705 193.138 161.705 193.56C161.705 193.982 162.046 194.324 162.466 194.324Z" fill="url(#paint16_linear_153_2888)"/>
<path d="M169.726 211.709H193.833C194.254 211.709 194.594 211.367 194.594 210.945C194.594 210.523 194.254 210.181 193.833 210.181H169.726C169.306 210.181 168.965 210.523 168.965 210.945C168.965 211.367 169.306 211.709 169.726 211.709Z" fill="url(#paint17_linear_153_2888)"/>
<path d="M152.842 121.309C152.842 121.309 153.629 122.554 153.827 126.04C153.845 126.365 153.589 126.642 153.265 126.642H147.114C146.866 126.642 146.689 126.398 146.769 126.162C147.129 125.091 148.219 122.479 150.651 120.986L152.842 121.309Z" fill="url(#paint18_linear_153_2888)"/>
<path d="M153.112 118.947L152.764 121.877C152.734 122.13 152.537 122.332 152.285 122.361C151.949 122.4 151.459 122.427 150.984 122.349C150.552 122.277 150.241 121.891 150.241 121.451V118.622L153.112 118.947Z" fill="url(#paint19_linear_153_2888)"/>
<path d="M137.624 120.986C137.624 120.986 138.801 122.824 138.776 125.347C138.77 125.941 138.274 126.414 137.683 126.414H128.129C127.681 126.414 127.499 125.837 127.866 125.579C129.674 124.304 133.227 121.922 135.797 120.986H137.624Z" fill="url(#paint20_linear_153_2888)"/>
<path d="M138.608 117.823L137.866 121.441C137.783 121.846 137.388 122.118 136.987 122.028C136.743 121.973 136.455 121.868 136.147 121.675C135.854 121.492 135.706 121.142 135.766 120.801L136.534 116.417L138.608 117.823Z" fill="url(#paint21_linear_153_2888)"/>
<path d="M151.748 67.5159C151.748 67.5159 154.329 69.8004 154.814 72.549C155.3 75.2976 153.438 119.971 153.438 119.971C153.438 119.971 150.858 120.402 149.528 119.593C149.528 119.593 147.95 90.6001 146.751 83.9005C146.751 83.9005 140.462 113.933 138.72 119.36C138.72 119.36 136.234 119.664 135.432 119.189C135.432 119.189 137.079 80.2577 139.149 73.3363L151.748 67.5159Z" fill="#263238"/>
<path d="M146.825 82.9321C146.804 82.9321 146.782 82.9294 146.761 82.9237C146.625 82.8881 146.544 82.7486 146.579 82.6121L147.675 78.39C147.691 78.3277 147.73 78.274 147.784 78.2393L150.152 76.7137C150.27 76.6374 150.428 76.6718 150.504 76.7909C150.58 76.9096 150.545 77.0677 150.427 77.1439L148.143 78.6155L147.071 82.7409C147.042 82.8559 146.938 82.9321 146.825 82.9321Z" fill="url(#paint22_linear_153_2888)"/>
<path d="M126.284 41.7021C137.146 40.7965 139.986 43.0539 139.986 43.0539L134.765 51.3298C134.765 51.3298 124.092 51.1181 116.443 45.1985C117.875 43.6504 118.869 41.9397 119.506 40.6077C121.479 41.4307 123.75 41.9132 126.284 41.7021Z" fill="url(#paint23_linear_153_2888)"/>
<path d="M109.271 25.6906C109.286 25.341 109.758 25.2459 109.906 25.5627L111.292 28.5329C111.56 29.1069 111.646 29.7495 111.538 30.3739L111.052 32.1028C110.906 32.9459 111.125 33.8097 111.658 34.4778C112.931 36.0768 115.644 38.997 119.505 40.6083C118.868 41.9403 117.874 43.6511 116.442 45.1991C113.636 43.0272 111.236 40.0877 109.922 36.1069C109.292 35.9126 108.871 35.3171 108.896 34.6559L109.271 25.6906Z" fill="url(#paint24_linear_153_2888)"/>
<path d="M122.707 46.5005C126.531 42.3626 133.815 40.493 138.033 39.7251C139.88 39.3887 141.701 40.4211 142.356 42.1883C144.254 47.3115 149.415 60.6401 150.416 62.9309C151.237 64.8102 152.094 66.6456 152.638 67.7932C152.964 68.4787 152.679 69.2992 151.998 69.6288C148.45 71.3462 142.065 73.2893 139.477 74.0473C138.908 74.2141 138.341 73.7848 138.341 73.1893C138.341 72.6842 138.204 72.1885 137.945 71.7555L128.142 55.3513C122.032 62.1544 116.682 62.7765 112.571 61.2875C113.262 59.1425 113.715 56.9935 113.932 54.8405C120.004 53.7958 122.707 46.5005 122.707 46.5005Z" fill="#455A64"/>
<path d="M132.233 32.1257L135.49 40.1081C135.49 40.1081 131.747 42.7096 128.736 42.4621L127.11 35.2845L132.233 32.1257Z" fill="url(#paint25_linear_153_2888)"/>
<path d="M126.729 26.6842C126.655 26.7904 124.373 35.0689 124.373 35.0689L129.107 36.2769L132.431 28.7533C132.431 28.7533 127.978 24.9073 126.729 26.6842Z" fill="url(#paint26_linear_153_2888)"/>
<path d="M130.648 29.8964L129.207 33.9946C129.189 34.0472 129.164 34.0958 129.132 34.1413C128.936 34.4203 128.194 35.3306 127.313 34.5106C126.513 33.7666 125.773 33.0997 125.089 32.9785C124.781 32.9241 124.484 33.1124 124.401 33.4141C124.194 34.1664 123.758 35.8701 123.605 37.4082C123.573 37.7204 123.788 38.0025 124.095 38.061C125.02 38.2373 126.98 38.5545 128.617 38.4386C128.839 38.4228 129.034 38.2892 129.127 38.0862C129.578 37.0963 130.96 34.0929 131.474 33.3158C131.957 32.5864 133.14 32.6069 133.636 32.6511C133.798 32.6655 133.958 32.613 134.081 32.5048C134.515 32.1228 135.341 31.1476 134.179 29.9801C133.936 29.7357 133.942 29.3415 134.193 29.1049C134.692 28.6338 135.226 27.7983 134.394 26.762C133.549 25.7088 132.434 25.8764 131.751 26.1269C131.474 26.2281 131.173 26.1108 131.023 25.8568C130.937 25.7123 130.788 25.6029 130.529 25.6252C130.181 25.6553 129.888 25.3633 129.894 25.0121C129.906 24.3373 129.666 23.4848 128.5 23.1205C126.432 22.4739 125.142 24.4806 125.014 25.9779C124.886 27.4753 127.169 28.0481 128.511 27.9471C129.531 27.8703 130.288 28.8859 130.593 29.3771C130.689 29.5328 130.709 29.7235 130.648 29.8964Z" fill="url(#paint27_linear_153_2888)"/>
<path d="M130.934 34.8026C130.934 34.8026 131.268 32.2032 132.345 32.0758C133.422 31.9484 134.47 32.8372 133.399 34.2962C132.068 36.1111 130.934 34.8026 130.934 34.8026Z" fill="url(#paint28_linear_153_2888)"/>
<path d="M99.041 52.7026C111.898 52.7026 122.321 42.2359 122.321 29.3246C122.321 16.4132 111.898 5.94653 99.041 5.94653C86.1837 5.94653 75.7607 16.4132 75.7607 29.3246C75.7607 42.2359 86.1837 52.7026 99.041 52.7026Z" fill="url(#paint29_linear_153_2888)"/>
<path d="M99.0419 51.925C111.472 51.925 121.548 41.8064 121.548 29.3243C121.548 16.8423 111.472 6.72363 99.0419 6.72363C86.612 6.72363 76.5356 16.8423 76.5356 29.3243C76.5356 41.8064 86.612 51.925 99.0419 51.925Z" fill="url(#paint30_linear_153_2888)"/>
<path d="M80.5832 20.1534C80.5196 20.1527 80.4551 20.1376 80.3947 20.106C80.1887 19.9987 80.1084 19.7439 80.2153 19.5374C83.9238 12.3569 91.2273 7.95185 99.2759 8.04088C100.56 8.0551 101.845 8.18553 103.095 8.42887C103.323 8.47298 103.472 8.69426 103.428 8.9233C103.384 9.15194 103.165 9.30282 102.936 9.25703C101.735 9.02376 100.5 8.89837 99.2666 8.88478C91.5371 8.79927 84.5229 13.03 80.9611 19.9257C80.8858 20.0719 80.7369 20.1552 80.5832 20.1534Z" fill="white" fill-opacity="0.6"/>
<path opacity="0.78" d="M112.995 43.3482C120.434 35.878 120.434 23.7665 112.995 16.2964C105.556 8.82621 93.4952 8.82621 86.0563 16.2964C78.6173 23.7665 78.6173 35.878 86.0563 43.3482C93.4952 50.8183 105.556 50.8183 112.995 43.3482Z" fill="white"/>
<path d="M97.5018 44.0217L97.5247 41.9407C95.3653 41.8299 93.2342 41.2943 91.7239 40.6104C91.1846 40.3662 90.915 39.7523 91.077 39.1809L91.6247 37.2484C91.8255 36.5395 92.5997 36.1802 93.2734 36.4726C94.772 37.123 96.6252 37.645 98.6296 37.6671C100.71 37.6901 102.27 36.9989 102.286 35.5468C102.3 34.2366 101.11 33.4442 98.2263 32.6332C94.1126 31.4543 91.1699 29.6154 91.2099 25.9676C91.246 22.6739 93.6719 20.186 97.8406 19.5592L97.8634 17.478C97.8708 16.8084 98.4173 16.2715 99.0842 16.2789L100.302 16.2924C100.969 16.2997 101.503 16.8486 101.496 17.5182L101.475 19.3868C103.474 19.4892 104.925 19.8486 106.075 20.2689C106.664 20.4842 106.981 21.1277 106.81 21.7337L106.306 23.5211C106.112 24.2103 105.372 24.5808 104.708 24.3201C103.649 23.9046 102.15 23.4676 100.196 23.446C97.7277 23.4187 97.0112 24.4378 97.0012 25.3587C96.9888 26.492 98.4614 27.2874 101.66 28.3146C106.229 29.7465 108.113 31.6799 108.075 35.1152C108.04 38.267 105.682 41.0745 101.16 41.733L101.134 44.0619C101.127 44.7315 100.58 45.2684 99.9135 45.2611L98.6959 45.2476C98.0291 45.2401 97.4945 44.6913 97.5018 44.0217Z" fill="url(#paint31_linear_153_2888)"/>
<path d="M103.896 53.699L104.991 52.2317C108.539 54.6785 111.505 55.2585 113.932 54.8408C113.716 56.9938 113.263 59.1428 112.572 61.2877C107.157 59.3261 103.896 53.699 103.896 53.699Z" fill="url(#paint32_linear_153_2888)"/>
<path d="M104.667 53.7252L98.4935 53.967L92.8091 50.7788C93.625 50.2652 98.2392 51.3151 98.2392 51.3151C98.2392 51.3151 103.063 50.5825 104.368 50.5808C105.453 50.5794 105.298 52.1452 105.214 52.6758C105.197 52.784 105.183 52.8492 105.183 52.8492L104.667 53.7252Z" fill="url(#paint33_linear_153_2888)"/>
<defs>
<linearGradient id="paint0_linear_153_2888" x1="250.501" y1="241.513" x2="79.9874" y2="89.1911" gradientUnits="userSpaceOnUse">
<stop stop-color="#DAE3FE"/>
<stop offset="1" stop-color="#E9EFFD"/>
</linearGradient>
<linearGradient id="paint1_linear_153_2888" x1="80.1324" y1="185.444" x2="105.96" y2="227.288" gradientUnits="userSpaceOnUse">
<stop stop-color="#4F52FF"/>
<stop offset="1" stop-color="#4042E2"/>
</linearGradient>
<linearGradient id="paint2_linear_153_2888" x1="83.8815" y1="185.7" x2="107.921" y2="224.647" gradientUnits="userSpaceOnUse">
<stop stop-color="#4F52FF"/>
<stop offset="1" stop-color="#4042E2"/>
</linearGradient>
<linearGradient id="paint3_linear_153_2888" x1="86.2349" y1="184.247" x2="110.275" y2="223.194" gradientUnits="userSpaceOnUse">
<stop stop-color="#4F52FF"/>
<stop offset="1" stop-color="#4042E2"/>
</linearGradient>
<linearGradient id="paint4_linear_153_2888" x1="88.5882" y1="182.795" x2="112.628" y2="221.742" gradientUnits="userSpaceOnUse">
<stop stop-color="#4F52FF"/>
<stop offset="1" stop-color="#4042E2"/>
</linearGradient>
<linearGradient id="paint5_linear_153_2888" x1="90.9416" y1="181.342" x2="114.982" y2="220.29" gradientUnits="userSpaceOnUse">
<stop stop-color="#4F52FF"/>
<stop offset="1" stop-color="#4042E2"/>
</linearGradient>
<linearGradient id="paint6_linear_153_2888" x1="42.8516" y1="74.371" x2="150.123" y2="80.1134" gradientUnits="userSpaceOnUse">
<stop stop-color="#E9038A"/>
<stop offset="1" stop-color="#0A6195"/>
</linearGradient>
<linearGradient id="paint7_linear_153_2888" x1="75.4293" y1="55.8666" x2="109.184" y2="69.164" gradientUnits="userSpaceOnUse">
<stop stop-color="#E9038A"/>
<stop offset="1" stop-color="#0A6195"/>
</linearGradient>
<linearGradient id="paint8_linear_153_2888" x1="184.647" y1="105.817" x2="245.295" y2="36.6812" gradientUnits="userSpaceOnUse">
<stop stop-color="#4F52FF"/>
<stop offset="1" stop-color="#4042E2"/>
</linearGradient>
<linearGradient id="paint9_linear_153_2888" x1="196.343" y1="116.077" x2="256.992" y2="46.941" gradientUnits="userSpaceOnUse">
<stop stop-color="#4F52FF"/>
<stop offset="1" stop-color="#4042E2"/>
</linearGradient>
<linearGradient id="paint10_linear_153_2888" x1="214.186" y1="131.73" x2="274.834" y2="62.5939" gradientUnits="userSpaceOnUse">
<stop stop-color="#4F52FF"/>
<stop offset="1" stop-color="#4042E2"/>
</linearGradient>
<linearGradient id="paint11_linear_153_2888" x1="200.554" y1="119.771" x2="261.202" y2="50.6349" gradientUnits="userSpaceOnUse">
<stop stop-color="#4F52FF"/>
<stop offset="1" stop-color="#4042E2"/>
</linearGradient>
<linearGradient id="paint12_linear_153_2888" x1="171.436" y1="94.2276" x2="232.084" y2="25.0919" gradientUnits="userSpaceOnUse">
<stop stop-color="#4F52FF"/>
<stop offset="1" stop-color="#4042E2"/>
</linearGradient>
<linearGradient id="paint13_linear_153_2888" x1="183.948" y1="105.203" x2="244.596" y2="36.0672" gradientUnits="userSpaceOnUse">
<stop stop-color="#4F52FF"/>
<stop offset="1" stop-color="#4042E2"/>
</linearGradient>
<linearGradient id="paint14_linear_153_2888" x1="196.72" y1="116.408" x2="257.369" y2="47.2719" gradientUnits="userSpaceOnUse">
<stop stop-color="#4F52FF"/>
<stop offset="1" stop-color="#4042E2"/>
</linearGradient>
<linearGradient id="paint15_linear_153_2888" x1="209.358" y1="127.495" x2="270.006" y2="58.3597" gradientUnits="userSpaceOnUse">
<stop stop-color="#4F52FF"/>
<stop offset="1" stop-color="#4042E2"/>
</linearGradient>
<linearGradient id="paint16_linear_153_2888" x1="222.195" y1="138.755" x2="282.843" y2="69.6193" gradientUnits="userSpaceOnUse">
<stop stop-color="#4F52FF"/>
<stop offset="1" stop-color="#4042E2"/>
</linearGradient>
<linearGradient id="paint17_linear_153_2888" x1="234.89" y1="149.892" x2="295.539" y2="80.756" gradientUnits="userSpaceOnUse">
<stop stop-color="#4F52FF"/>
<stop offset="1" stop-color="#4042E2"/>
</linearGradient>
<linearGradient id="paint18_linear_153_2888" x1="153.828" y1="123.814" x2="146.749" y2="123.814" gradientUnits="userSpaceOnUse">
<stop stop-color="#09005D"/>
<stop offset="1" stop-color="#1A0F91"/>
</linearGradient>
<linearGradient id="paint19_linear_153_2888" x1="153.112" y1="120.511" x2="150.241" y2="120.511" gradientUnits="userSpaceOnUse">
<stop stop-color="#FEBBBA"/>
<stop offset="1" stop-color="#FF928E"/>
</linearGradient>
<linearGradient id="paint20_linear_153_2888" x1="138.776" y1="123.7" x2="127.67" y2="123.7" gradientUnits="userSpaceOnUse">
<stop stop-color="#09005D"/>
<stop offset="1" stop-color="#1A0F91"/>
</linearGradient>
<linearGradient id="paint21_linear_153_2888" x1="138.608" y1="119.231" x2="135.753" y2="119.231" gradientUnits="userSpaceOnUse">
<stop stop-color="#FEBBBA"/>
<stop offset="1" stop-color="#FF928E"/>
</linearGradient>
<linearGradient id="paint22_linear_153_2888" x1="153.456" y1="60.0066" x2="137.045" y2="125.773" gradientUnits="userSpaceOnUse">
<stop stop-color="#4F52FF"/>
<stop offset="1" stop-color="#4042E2"/>
</linearGradient>
<linearGradient id="paint23_linear_153_2888" x1="111.754" y1="5.16422" x2="120.428" y2="25.523" gradientUnits="userSpaceOnUse">
<stop stop-color="#4F52FF"/>
<stop offset="1" stop-color="#4042E2"/>
</linearGradient>
<linearGradient id="paint24_linear_153_2888" x1="119.505" y1="35.2845" x2="108.895" y2="35.2845" gradientUnits="userSpaceOnUse">
<stop stop-color="#FEBBBA"/>
<stop offset="1" stop-color="#FF928E"/>
</linearGradient>
<linearGradient id="paint25_linear_153_2888" x1="121.273" y1="20.2977" x2="143.621" y2="61.1878" gradientUnits="userSpaceOnUse">
<stop stop-color="#FEBBBA"/>
<stop offset="1" stop-color="#FF928E"/>
</linearGradient>
<linearGradient id="paint26_linear_153_2888" x1="128.27" y1="27.846" x2="128.805" y2="44.1792" gradientUnits="userSpaceOnUse">
<stop stop-color="#FEBBBA"/>
<stop offset="1" stop-color="#FF928E"/>
</linearGradient>
<linearGradient id="paint27_linear_153_2888" x1="132.586" y1="34.7553" x2="122.983" y2="28.0049" gradientUnits="userSpaceOnUse">
<stop stop-color="#09005D"/>
<stop offset="1" stop-color="#1A0F91"/>
</linearGradient>
<linearGradient id="paint28_linear_153_2888" x1="134.082" y1="44.6034" x2="132.294" y2="33.4225" gradientUnits="userSpaceOnUse">
<stop stop-color="#FEBBBA"/>
<stop offset="1" stop-color="#FF928E"/>
</linearGradient>
<linearGradient id="paint29_linear_153_2888" x1="77.4852" y1="14.5344" x2="122.739" y2="17.6137" gradientUnits="userSpaceOnUse">
<stop stop-color="#E9038A"/>
<stop offset="1" stop-color="#0A6195"/>
</linearGradient>
<linearGradient id="paint30_linear_153_2888" x1="78.2028" y1="15.0259" x2="121.952" y2="18.0029" gradientUnits="userSpaceOnUse">
<stop stop-color="#E9038A"/>
<stop offset="1" stop-color="#0A6195"/>
</linearGradient>
<linearGradient id="paint31_linear_153_2888" x1="91.6616" y1="21.6021" x2="108.278" y2="22.2699" gradientUnits="userSpaceOnUse">
<stop stop-color="#E9038A"/>
<stop offset="1" stop-color="#0A6195"/>
</linearGradient>
<linearGradient id="paint32_linear_153_2888" x1="108.914" y1="54.1677" x2="108.914" y2="102.42" gradientUnits="userSpaceOnUse">
<stop stop-color="#FEBBBA"/>
<stop offset="1" stop-color="#FF928E"/>
</linearGradient>
<linearGradient id="paint33_linear_153_2888" x1="99.0412" y1="54.1674" x2="99.0412" y2="102.42" gradientUnits="userSpaceOnUse">
<stop stop-color="#FEBBBA"/>
<stop offset="1" stop-color="#FF928E"/>
</linearGradient>
</defs>
</svg>
