<svg width="58" height="58" viewBox="0 0 58 58" fill="none" xmlns="http://www.w3.org/2000/svg">
<path opacity="0.3" d="M29 56.812C44.464 56.812 57 44.276 57 28.812C57 13.348 44.464 0.812012 29 0.812012C13.536 0.812012 1 13.348 1 28.812C1 44.276 13.536 56.812 29 56.812Z" fill="white" fill-opacity="0.8" stroke="white" stroke-width="0.403345" stroke-miterlimit="10"/>
<path d="M30.3708 15.4785C31.8708 15.4825 32.6321 15.4905 33.2894 15.5092L33.5481 15.5185C33.8468 15.5292 34.1414 15.5425 34.4974 15.5585C35.9161 15.6252 36.8841 15.8492 37.7334 16.1785C38.6134 16.5172 39.3548 16.9758 40.0961 17.7158C40.7744 18.3822 41.299 19.1885 41.6334 20.0785C41.9628 20.9278 42.1868 21.8958 42.2534 23.3158C42.2694 23.6705 42.2828 23.9652 42.2934 24.2652L42.3014 24.5238C42.3214 25.1798 42.3294 25.9412 42.3321 27.4412L42.3334 28.4358V30.1825C42.3367 31.1551 42.3265 32.1276 42.3028 33.0998L42.2948 33.3585C42.2841 33.6585 42.2708 33.9532 42.2548 34.3078C42.1881 35.7278 41.9614 36.6945 41.6334 37.5452C41.299 38.4352 40.7744 39.2415 40.0961 39.9079C39.4298 40.5861 38.6235 41.1108 37.7334 41.4452C36.8841 41.7745 35.9161 41.9985 34.4974 42.0652L33.5481 42.1052L33.2894 42.1132C32.6321 42.1318 31.8708 42.1412 30.3708 42.1439L29.3761 42.1452H27.6308C26.6578 42.1486 25.6848 42.1384 24.7121 42.1145L24.4534 42.1065C24.1369 42.0945 23.8205 42.0808 23.5041 42.0652C22.0854 41.9985 21.1174 41.7745 20.2668 41.4452C19.3772 41.1106 18.5714 40.5859 17.9054 39.9079C17.2267 39.2417 16.7016 38.4353 16.3668 37.5452C16.0374 36.6958 15.8134 35.7278 15.7468 34.3078L15.7068 33.3585L15.7001 33.0998C15.6755 32.1276 15.6644 31.1551 15.6668 30.1825V27.4412C15.6631 26.4686 15.6729 25.4961 15.6961 24.5238L15.7054 24.2652C15.7161 23.9652 15.7294 23.6705 15.7454 23.3158C15.8121 21.8958 16.0361 20.9292 16.3654 20.0785C16.701 19.1881 17.2271 18.3818 17.9068 17.7158C18.5723 17.0379 19.3777 16.5133 20.2668 16.1785C21.1174 15.8492 22.0841 15.6252 23.5041 15.5585C23.8588 15.5425 24.1548 15.5292 24.4534 15.5185L24.7121 15.5105C25.6844 15.4868 26.6569 15.4766 27.6294 15.4798L30.3708 15.4785ZM29.0001 22.1452C27.232 22.1452 25.5363 22.8476 24.2861 24.0978C23.0358 25.348 22.3334 27.0437 22.3334 28.8118C22.3334 30.58 23.0358 32.2757 24.2861 33.5259C25.5363 34.7761 27.232 35.4785 29.0001 35.4785C30.7682 35.4785 32.4639 34.7761 33.7142 33.5259C34.9644 32.2757 35.6668 30.58 35.6668 28.8118C35.6668 27.0437 34.9644 25.348 33.7142 24.0978C32.4639 22.8476 30.7682 22.1452 29.0001 22.1452ZM29.0001 24.8118C29.5254 24.8118 30.0456 24.9151 30.5309 25.1161C31.0162 25.317 31.4572 25.6116 31.8287 25.983C32.2002 26.3543 32.4949 26.7952 32.696 27.2805C32.8971 27.7658 33.0007 28.2859 33.0008 28.8112C33.0009 29.3365 32.8975 29.8566 32.6965 30.342C32.4956 30.8273 32.201 31.2683 31.8297 31.6398C31.4583 32.0113 31.0174 32.306 30.5321 32.5071C30.0469 32.7082 29.5267 32.8118 29.0014 32.8118C27.9406 32.8118 26.9232 32.3904 26.173 31.6403C25.4229 30.8901 25.0014 29.8727 25.0014 28.8118C25.0014 27.751 25.4229 26.7336 26.173 25.9834C26.9232 25.2333 27.9406 24.8118 29.0014 24.8118M36.0014 20.1452C35.5594 20.1452 35.1355 20.3208 34.8229 20.6333C34.5104 20.9459 34.3348 21.3698 34.3348 21.8118C34.3348 22.2539 34.5104 22.6778 34.8229 22.9904C35.1355 23.3029 35.5594 23.4785 36.0014 23.4785C36.4435 23.4785 36.8674 23.3029 37.18 22.9904C37.4925 22.6778 37.6681 22.2539 37.6681 21.8118C37.6681 21.3698 37.4925 20.9459 37.18 20.6333C36.8674 20.3208 36.4435 20.1452 36.0014 20.1452Z" fill="white"/>
</svg>
