<svg width="48" height="48" viewBox="0 0 48 48" fill="none" xmlns="http://www.w3.org/2000/svg">
<path d="M24.0008 22.85C26.6652 22.8466 29.2194 21.7866 31.1034 19.9026C32.9874 18.0186 34.0473 15.4644 34.0508 12.8C33.4968 -0.532009 14.5028 -0.528009 13.9508 12.8C13.9542 15.4644 15.0142 18.0186 16.8982 19.9026C18.7822 21.7866 21.3364 22.8466 24.0008 22.85ZM21.1308 14.52C21.2595 14.4959 21.3918 14.4975 21.5199 14.5247C21.648 14.5519 21.7695 14.6042 21.8773 14.6786C21.9851 14.7529 22.0771 14.8479 22.1481 14.958C22.2191 15.0681 22.2676 15.1911 22.2908 15.32C22.4858 16.31 23.3908 16.568 24.2808 16.48C24.4719 16.4866 24.6603 16.4328 24.8191 16.3263C24.9779 16.2198 25.0992 16.0659 25.1656 15.8866C25.232 15.7072 25.2403 15.5115 25.1891 15.3273C25.138 15.143 25.0301 14.9795 24.8808 14.86L21.8308 12.33C21.4182 11.9813 21.1099 11.5256 20.9396 11.013C20.7693 10.5004 20.7438 9.9507 20.8658 9.4245C20.9878 8.8983 21.2526 8.41595 21.631 8.03053C22.0095 7.64511 22.4869 7.37156 23.0108 7.23999C22.7408 5.31899 25.2768 5.31099 25.0108 7.22999C25.7702 7.39641 26.4499 7.81732 26.9373 8.42295C27.4247 9.02858 27.6906 9.78258 27.6908 10.56C27.6908 10.8252 27.5854 11.0796 27.3979 11.2671C27.2104 11.4546 26.956 11.56 26.6908 11.56C26.4256 11.56 26.1712 11.4546 25.9837 11.2671C25.7961 11.0796 25.6908 10.8252 25.6908 10.56C25.691 10.3748 25.6548 10.1913 25.584 10.0201C25.5132 9.84891 25.4094 9.69337 25.2784 9.56238C25.1474 9.4314 24.9919 9.32755 24.8207 9.25678C24.6495 9.18602 24.466 9.14973 24.2808 9.14999H23.6808C23.4902 9.15055 23.3044 9.21031 23.1492 9.32101C22.994 9.43172 22.8771 9.58789 22.8145 9.76795C22.7519 9.94801 22.7468 10.1431 22.7999 10.3262C22.853 10.5092 22.9616 10.6713 23.1108 10.79L26.1608 13.32C26.5683 13.6674 26.873 14.1196 27.0419 14.6278C27.2108 15.1359 27.2374 15.6806 27.119 16.2028C27.0005 16.725 26.7415 17.2048 26.3699 17.5903C25.9983 17.9759 25.5283 18.2524 25.0108 18.39C25.2878 20.301 22.7558 20.324 23.0108 18.41C22.3418 18.2761 21.7286 17.9442 21.2507 17.4574C20.7728 16.9706 20.4523 16.3513 20.3308 15.68C20.2835 15.4201 20.3411 15.1521 20.4911 14.9347C20.641 14.7172 20.8711 14.5681 21.1308 14.52ZM28.4808 29.28C28.4808 30.4721 28.0072 31.6155 27.1642 32.4584C26.3213 33.3014 25.1779 33.775 23.9858 33.775C22.7936 33.775 21.6503 33.3014 20.8073 32.4584C19.9644 31.6155 19.4908 30.4721 19.4908 29.28C19.6768 23.353 28.2908 23.341 28.4808 29.28ZM11.9908 26.79C17.9268 26.979 17.9188 35.586 11.9908 35.78C10.7986 35.78 9.65531 35.3064 8.81234 34.4634C7.96936 33.6205 7.49578 32.4771 7.49578 31.285C7.49578 30.0928 7.96936 28.9495 8.81234 28.1065C9.65531 27.2636 10.7986 26.79 11.9908 26.79ZM17.7308 43.65C15.6437 44.8974 13.2074 45.4316 10.7899 45.1718C8.37237 44.912 6.10513 43.8724 4.33078 42.21C4.21562 42.1042 4.12606 41.9736 4.06888 41.8281C4.01171 41.6825 3.98842 41.5259 4.00078 41.37C4.00184 40.1636 4.48156 39.0069 5.33462 38.1538C6.18768 37.3008 7.34437 36.821 8.55078 36.82H14.5308C13.0178 40.33 14.7668 42.02 17.7308 43.65ZM40.4808 31.28C40.4808 32.4721 40.0072 33.6155 39.1642 34.4584C38.3213 35.3014 37.1779 35.775 35.9858 35.775C34.7936 35.775 33.6503 35.3014 32.8073 34.4584C31.9644 33.6155 31.4908 32.4721 31.4908 31.28C31.6768 25.353 40.2908 25.341 40.4808 31.28ZM16.3308 40.21C16.1762 40.0314 16.0672 39.8181 16.0133 39.5882C15.9593 39.3582 15.9618 39.1187 16.0208 38.89C16.1452 37.774 16.6754 36.7427 17.5107 35.9923C18.3459 35.2418 19.4279 34.8246 20.5508 34.82H27.4508C28.6561 34.8247 29.8106 35.3056 30.6629 36.1579C31.5151 37.0102 31.996 38.1647 32.0008 39.37C32.0143 39.5275 31.9915 39.6859 31.9343 39.8332C31.8771 39.9806 31.787 40.1129 31.6708 40.22C29.5817 42.1487 26.8422 43.2189 23.9988 43.2171C21.1555 43.2152 18.4174 42.1415 16.3308 40.21ZM44.0008 41.37C44.0143 41.5275 43.9915 41.6859 43.9343 41.8332C43.8771 41.9806 43.787 42.1129 43.6708 42.22C41.8947 43.8798 39.627 44.9169 37.2098 45.1748C34.7926 45.4328 32.3571 44.8976 30.2708 43.65C33.2768 41.927 34.9738 40.49 33.4708 36.82H39.4508C40.6572 36.821 41.8139 37.3008 42.6669 38.1538C43.52 39.0069 43.9997 40.1636 44.0008 41.37Z" fill="white"/>
</svg>
