<svg width="84" height="84" viewBox="0 0 84 84" fill="none" xmlns="http://www.w3.org/2000/svg">
<circle cx="42.0008" cy="41.6554" r="41.532" fill="url(#paint0_linear_152_948)"/>
<g clip-path="url(#clip0_152_948)">
<path d="M64.5344 38.6433C64.5462 38.8143 64.3879 38.8737 64.2868 38.9621C63.4881 39.649 62.6895 40.3389 61.8762 41.0113C61.6461 41.2012 61.5596 41.378 61.7018 41.6577C61.7797 41.8019 61.8252 41.9611 61.8351 42.1243C61.8644 43.0229 62.4022 43.3011 63.2258 43.3823C64.0215 43.4605 64.8026 43.6721 65.5954 43.8026C65.8811 43.8489 66.0028 43.9475 65.9969 44.2475C65.9793 45.0967 65.9823 45.9474 65.9969 46.7967C65.9969 47.0605 65.9192 47.1706 65.6423 47.2199C64.6004 47.401 63.5628 47.6126 62.5239 47.8112C62.4345 47.8286 62.307 47.8112 62.2586 47.8575C61.819 48.3314 61.9172 48.9995 61.649 49.5386C61.5274 49.7865 61.7443 49.8966 61.8908 50.0212C62.6777 50.6951 63.4588 51.3763 64.2633 52.0313C64.5256 52.2458 64.5564 52.4052 64.3747 52.6936C63.9351 53.3994 63.5233 54.124 63.1144 54.8501C62.984 55.0805 62.8565 55.14 62.5913 55.0385C61.6153 54.6805 60.6247 54.366 59.6502 54.0081C59.3351 53.8921 59.1608 53.9762 58.8853 54.1617C57.836 54.8762 57.7774 55.7167 58.3255 56.7703C58.6186 57.35 58.7651 57.9949 58.9981 58.6007C59.0963 58.8514 59.0611 58.9848 58.8179 59.1181C58.0514 59.5369 57.2894 59.9659 56.5421 60.4224C56.2812 60.5804 56.1625 60.4862 56.0028 60.2992C55.3184 59.4993 54.6136 58.7167 53.9366 57.9094C53.746 57.6834 53.5775 57.6805 53.2918 57.7065C52.0374 57.8167 51.4747 58.4616 51.4366 59.6963C51.416 60.3195 51.1904 60.9355 51.1054 61.5601C51.06 61.892 50.9178 61.9702 50.6086 61.9644C49.7865 61.947 48.9629 61.9398 48.1423 61.9644C47.7877 61.976 47.6807 61.8427 47.625 61.5209C47.4521 60.5239 47.2338 59.5355 47.0608 58.5399C47.0081 58.2312 46.9143 58.0341 46.5684 58.0225C46.4213 58.0195 46.2767 57.9844 46.145 57.9196C45.3463 57.508 44.8012 57.7341 44.3044 58.4659C43.8648 59.121 43.2552 59.6674 42.7525 60.2876C42.5356 60.5558 42.373 60.5181 42.118 60.3659C41.4161 59.9442 40.7053 59.5355 39.9829 59.1485C39.7059 59.0036 39.6414 58.8587 39.7557 58.5543C40.1265 57.5747 40.4474 56.5761 40.8109 55.5936C40.9076 55.3327 40.8973 55.1501 40.6643 54.9878C40.5551 54.9209 40.4604 54.8332 40.3859 54.7298C39.8481 53.8878 39.1637 53.8791 38.3182 54.2704C37.6441 54.582 36.907 54.7573 36.2094 55.0226C35.9164 55.1327 35.7596 55.1124 35.5998 54.8197C35.2027 54.0951 34.7763 53.3704 34.341 52.6618C34.1945 52.4168 34.2033 52.2676 34.4348 52.0821C35.2496 51.4111 36.038 50.7096 36.8528 50.0401C37.0828 49.8502 37.0858 49.685 37.055 49.401C36.926 48.1764 36.3047 47.5938 35.0371 47.572C34.3894 47.5619 33.7505 47.3199 33.1013 47.2257C32.8082 47.1836 32.7511 47.0546 32.754 46.8025C32.7628 45.9532 32.7672 45.104 32.754 44.2547C32.754 43.9533 32.8624 43.862 33.1526 43.82C34.1784 43.6489 35.2042 43.4359 36.2212 43.2562C36.5289 43.2026 36.7282 43.0982 36.737 42.7562C36.7399 42.6286 36.772 42.5032 36.8308 42.3896C37.31 41.52 36.948 40.9606 36.2021 40.4476C35.5749 40.0128 35.04 39.4563 34.4436 38.978C34.2135 38.794 34.1857 38.652 34.3322 38.3984C34.7719 37.6462 35.3331 36.9709 35.6511 36.1549C35.7493 35.9057 35.909 35.926 36.1332 36.01C37.1283 36.3636 38.1365 36.6839 39.1286 37.0477C39.4304 37.1593 39.6429 37.1679 39.8305 36.8853C39.897 36.7765 39.9865 36.6831 40.0928 36.6114C40.909 36.1071 40.9413 35.4738 40.5485 34.6593C40.213 33.9622 40.0312 33.1956 39.7484 32.4724C39.6371 32.1826 39.7133 32.0536 39.9638 31.9174C40.7141 31.5058 41.46 31.0855 42.1913 30.642C42.4418 30.4884 42.5679 30.5551 42.732 30.7478C43.4295 31.5609 44.1432 32.3608 44.8363 33.1768C45.0151 33.3883 45.1822 33.4666 45.4401 33.3362C45.5346 33.2804 45.641 33.2472 45.7508 33.2391C46.8659 33.2246 47.1722 32.542 47.2572 31.5811C47.3202 30.8652 47.5283 30.1638 47.647 29.4508C47.6895 29.1957 47.7716 29.0812 48.0573 29.087C48.9366 29.1044 49.8158 29.1029 50.6951 29.087C50.9881 29.087 51.06 29.2029 51.1054 29.4595C51.2827 30.4739 51.4922 31.4884 51.674 32.4942C51.7296 32.8115 51.8982 32.913 52.1986 33.0536C53.3519 33.5956 54.1036 33.2362 54.7499 32.2333C55.0986 31.6884 55.6057 31.2464 56.0218 30.7435C56.1904 30.5391 56.3149 30.4913 56.5611 30.642C57.2762 31.0768 58.0031 31.4942 58.7416 31.8884C59.0347 32.0478 59.1124 32.1956 58.9893 32.5202C58.6215 33.4825 58.3006 34.4608 57.9415 35.426C57.8404 35.6999 57.8448 35.897 58.0983 36.081C58.2804 36.2037 58.4395 36.3567 58.5687 36.5332C58.9702 37.123 59.4377 37.1882 60.0913 36.9042C60.9075 36.5491 61.7765 36.3158 62.6147 36.01C62.8419 35.9274 62.9708 35.9332 63.0998 36.1549C63.5394 36.9274 63.9922 37.6882 64.4406 38.4549C64.4656 38.5056 64.4963 38.5708 64.5344 38.6433ZM39.4568 45.4677C39.4568 50.8893 43.8824 55.3226 49.3044 55.3226C50.6137 55.3289 51.9113 55.079 53.1225 54.5874C54.3338 54.0959 55.4348 53.3722 56.3622 52.4582C57.2895 51.5441 58.025 50.4578 58.5262 49.2615C59.0273 48.0653 59.2843 46.7829 59.2824 45.488C59.2897 40.1259 54.8202 35.726 49.3469 35.7129C43.9483 35.6941 39.4583 40.1258 39.4568 45.4677Z" fill="white"/>
<path d="M38.4177 34.6823C37.6102 34.4171 36.9244 34.1852 36.2327 33.9678C35.9968 33.8939 36.0759 33.7113 36.0672 33.5664C35.8356 30.0186 32.9282 27.4535 29.3497 27.6419C27.8588 27.7354 26.4492 28.347 25.3701 29.3688C24.2911 30.3906 23.612 31.7568 23.4529 33.2258C23.1598 36.3025 25.1322 39.143 28.107 39.9184C29.3487 40.2615 30.6688 40.2031 31.8746 39.7517C32.2073 39.6271 32.3655 39.6372 32.6308 39.9372C33.129 40.5024 33.7415 40.9705 34.3482 41.5169C33.8309 41.7357 33.3078 41.7763 32.8022 41.8633C31.3265 42.1198 30.7638 42.7632 30.7609 44.2545C30.7609 44.8342 30.7492 45.4139 30.7609 45.9936C30.7609 46.2834 30.6788 46.3994 30.3608 46.4139C28.4866 46.5037 28.4866 46.511 28.1627 44.7009C28.1539 44.6472 28.151 44.5922 28.1407 44.54C27.9312 43.4125 27.8213 43.3226 26.6753 43.14C26.4262 43.0995 26.3485 43.2444 26.2357 43.3719C25.7433 43.9299 25.248 44.4878 24.7703 45.0574C24.5944 45.2675 24.4596 45.3472 24.1841 45.1719C23.68 44.8472 23.151 44.5574 22.6205 44.2762C22.3817 44.1487 22.3274 44.0212 22.4329 43.7661C22.7011 43.0748 22.9283 42.369 23.1876 41.6763C23.2873 41.414 23.2448 41.2546 23.0587 41.014C22.5194 40.3169 21.9464 40.2169 21.1536 40.6039C20.61 40.8691 19.9212 41.3169 19.4333 41.1024C18.9848 40.9053 18.8163 40.1285 18.469 39.6445C18.1686 39.2257 18.1906 38.9561 18.6273 38.6445C19.1446 38.275 19.5944 37.8155 20.0927 37.4228C20.3623 37.2098 20.3521 37.0054 20.3184 36.6822C20.226 35.8127 19.7322 35.5142 18.9248 35.4663C18.4192 35.4359 17.9224 35.2692 17.4183 35.1953C17.1399 35.1547 17.0622 35.033 17.0695 34.7606C17.0871 34.1809 17.0959 33.6012 17.0695 33.0215C17.0534 32.6881 17.2029 32.5867 17.5004 32.5403C18.2199 32.42 18.9321 32.2505 19.6531 32.1461C19.9549 32.0997 20.0311 31.9374 20.1528 31.6867C20.5558 30.852 20.248 30.3215 19.5388 29.8578C19.1299 29.5911 18.7929 29.2187 18.4045 28.9187C18.1862 28.7477 18.1759 28.6071 18.3181 28.381C18.6356 27.8747 18.9379 27.3593 19.2252 26.8347C19.3526 26.5984 19.4816 26.5448 19.7454 26.6419C20.4107 26.8926 21.095 27.0912 21.7559 27.3477C22.1091 27.4926 22.3084 27.397 22.6132 27.1723C23.2873 26.6767 23.3107 26.1579 22.9766 25.4709C22.7568 25.0188 22.6396 24.5188 22.4505 24.0492C22.3377 23.7724 22.3494 23.6014 22.6542 23.4493C23.1604 23.2004 23.6499 22.9197 24.1196 22.6087C24.4288 22.4029 24.5871 22.4942 24.7908 22.7406C25.2407 23.2869 25.7243 23.8058 26.1756 24.3521C26.3764 24.5956 26.5698 24.5941 26.879 24.5623C27.7773 24.4724 28.0924 23.9826 28.1393 23.1565C28.1657 22.6913 28.3049 22.2333 28.3796 21.7696C28.4265 21.4884 28.5173 21.3247 28.8661 21.3464C29.4519 21.3763 30.0388 21.3763 30.6246 21.3464C30.9353 21.3319 31.0349 21.4696 31.0818 21.7363C31.2064 22.4478 31.3588 23.1551 31.4716 23.8681C31.5214 24.1826 31.6944 24.2811 31.9757 24.3941C32.7436 24.7043 33.2726 24.5463 33.7503 23.8478C34.1006 23.3362 34.483 22.5783 35.0311 22.5275C35.5381 22.4797 36.0891 23.0855 36.6431 23.3464C37.0827 23.5521 37.1472 23.7884 36.9611 24.2159C36.7031 24.813 36.5375 25.4463 36.2943 26.0492C36.1653 26.3709 36.2943 26.5347 36.4789 26.7912C36.9977 27.4926 37.5677 27.5289 38.299 27.1578C38.7386 26.9376 39.2295 26.8419 39.6867 26.6622C39.9505 26.5579 40.1073 26.5637 40.2538 26.8434C40.5308 27.3709 40.84 27.8868 41.1595 28.3897C41.306 28.6303 41.2606 28.7665 41.054 28.9245C40.3857 29.436 39.6222 29.794 38.9013 30.2114C37.6645 30.936 37.3596 31.7331 37.833 33.0751C38.0235 33.5794 38.2008 34.0707 38.4177 34.6823Z" fill="white"/>
<path d="M29.723 38.6199C29.0835 38.6286 28.4488 38.5113 27.8556 38.2748C27.2625 38.0383 26.723 37.6874 26.2685 37.2426C25.8139 36.7977 25.4535 36.2678 25.2082 35.6837C24.9629 35.0997 24.8377 34.4731 24.8399 33.8407C24.842 33.2083 24.9715 32.5826 25.2207 32.0002C25.4699 31.4178 25.8339 30.8902 26.2914 30.4484C26.749 30.0066 27.2909 29.6592 27.8856 29.4267C28.4803 29.1942 29.1159 29.0811 29.7552 29.094C32.3636 29.1056 34.5295 31.2287 34.5369 33.7765C34.5385 34.114 34.4306 34.4432 34.2291 34.7156C33.6791 35.5249 33.1775 36.3655 32.7271 37.2329C32.5915 37.4969 32.4025 37.7305 32.1719 37.9192C31.9412 38.1079 31.6738 38.2477 31.3862 38.33C30.852 38.5177 30.2899 38.6157 29.723 38.6199Z" fill="white"/>
<path d="M49.3304 53.8064C44.7671 53.8064 40.9878 50.063 40.9922 45.5458C40.9922 40.9662 44.7436 37.2242 49.3275 37.2228C51.5563 37.2193 53.6955 38.0905 55.2755 39.6452C56.8555 41.1999 57.7473 43.3111 57.7551 45.5153C57.7624 50.0848 53.9831 53.8064 49.3304 53.8064ZM50.8632 41.0531C50.9995 41.1285 51.0479 41.1488 51.0904 41.1792C51.6604 41.5893 51.9183 42.1589 52.0062 42.8371C52.0649 43.2907 52.2993 43.6139 52.8269 43.6125C53.2665 43.6125 53.6255 43.2893 53.7061 42.7966C53.732 42.5991 53.7285 42.3989 53.6959 42.2024C53.4892 40.8299 52.7126 39.8836 51.4113 39.4039C51.02 39.259 50.8251 39.1271 50.8486 38.672C50.8481 38.5498 50.8227 38.4289 50.7739 38.3165C50.7251 38.2042 50.6539 38.1027 50.5646 38.0182C50.4753 37.9336 50.3697 37.8677 50.2541 37.8245C50.1384 37.7812 50.0152 37.7614 49.8916 37.7663C49.4125 37.7663 48.9772 38.1112 48.9963 38.6039C49.0153 39.0967 48.7589 39.1952 48.3676 39.2677C47.7916 39.3775 47.2475 39.6126 46.7747 39.956C46.0252 40.4762 45.5135 41.2679 45.3508 42.159C45.1881 43.0501 45.3875 43.9688 45.9057 44.7153C46.5197 45.6255 47.4122 46.1139 48.4673 46.3298C48.8234 46.4023 48.9875 46.5182 48.9714 46.9225C48.9347 47.8602 48.9391 48.8065 48.9714 49.7399C48.9845 50.1935 48.8541 50.3195 48.4086 50.1877C47.5074 49.9239 46.8568 49.4254 46.5769 48.5007C46.5479 48.3765 46.4926 48.2597 46.4145 48.1581C46.3365 48.0565 46.2376 47.9725 46.1243 47.9115C46.011 47.8505 45.8859 47.8141 45.7573 47.8045C45.6287 47.7949 45.4994 47.8124 45.3782 47.8558C44.9635 47.9863 44.8052 48.366 44.9268 48.9268C45.0271 49.415 45.2343 49.8756 45.5338 50.2762C45.8333 50.6768 46.2178 51.0077 46.6604 51.2456C47.2465 51.5836 47.8936 51.8056 48.5654 51.8992C48.8351 51.9369 48.9611 52.0297 48.9787 52.334C49.0139 52.947 49.3568 53.2644 49.8916 53.2673C50.4265 53.2702 50.8427 52.9079 50.8588 52.3137C50.8691 51.9905 50.9892 51.9036 51.2867 51.8282C53.1918 51.3442 54.2175 49.6297 53.7779 47.7051C53.4731 46.353 52.5748 45.5646 51.3014 45.124C51.0904 45.0516 50.8486 45.0574 50.8617 44.7038C50.8779 43.5154 50.8632 42.3256 50.8632 41.0604V41.0531Z" fill="white"/>
<path d="M48.9555 42.804C48.9555 43.3271 48.9555 43.8488 48.9555 44.3706C48.9555 44.6039 48.9056 44.6865 48.6375 44.6155C47.7729 44.3822 47.153 43.7199 47.1017 42.9271C47.0475 42.0677 47.5413 41.333 48.3839 40.9881C48.7767 40.8257 48.9979 40.8228 48.9701 41.346C48.9291 41.8243 48.9555 42.3185 48.9555 42.804Z" fill="white"/>
<path d="M50.8652 50.1906C50.8652 49.1255 50.8652 48.0719 50.8652 47.0168C50.8652 46.6951 51.0631 46.8444 51.192 46.9023C51.8441 47.1922 52.231 47.9922 52.1489 48.866C52.0903 49.5385 51.6639 49.9863 50.8652 50.1906Z" fill="white"/>
</g>
<defs>
<linearGradient id="paint0_linear_152_948" x1="3.5452" y1="15.3801" x2="84.2742" y2="20.8964" gradientUnits="userSpaceOnUse">
<stop stop-color="#E9038A"/>
<stop offset="1" stop-color="#0A6195"/>
</linearGradient>
<clipPath id="clip0_152_948">
<rect width="48.9155" height="40.6091" fill="white" transform="translate(17.082 21.3508)"/>
</clipPath>
</defs>
</svg>
