<svg width="191" height="64" viewBox="0 0 191 64" fill="none" xmlns="http://www.w3.org/2000/svg">
<path d="M16.646 0.5H174.771L190.583 17.75H0.833496L16.646 0.5Z" fill="#9295BB"/>
<path d="M17.8335 0.5H175.333L147.942 63.5H45.2248L17.8335 0.5Z" fill="url(#paint0_linear_800_613)"/>
<path d="M97.0008 30.85C99.6652 30.8466 102.219 29.7866 104.103 27.9026C105.987 26.0186 107.047 23.4644 107.051 20.8C106.497 7.46799 87.5028 7.47199 86.9508 20.8C86.9542 23.4644 88.0142 26.0186 89.8982 27.9026C91.7822 29.7866 94.3364 30.8466 97.0008 30.85ZM94.1308 22.52C94.2595 22.4959 94.3918 22.4975 94.5199 22.5247C94.648 22.5519 94.7695 22.6042 94.8773 22.6786C94.9851 22.7529 95.0771 22.8479 95.1481 22.958C95.2191 23.0681 95.2676 23.1911 95.2908 23.32C95.4858 24.31 96.3908 24.568 97.2808 24.48C97.4719 24.4866 97.6603 24.4328 97.8191 24.3263C97.9779 24.2198 98.0992 24.0659 98.1656 23.8866C98.232 23.7072 98.2403 23.5115 98.1891 23.3273C98.138 23.143 98.0301 22.9795 97.8808 22.86L94.8308 20.33C94.4182 19.9813 94.1099 19.5256 93.9396 19.013C93.7693 18.5004 93.7438 17.9507 93.8658 17.4245C93.9878 16.8983 94.2526 16.4159 94.631 16.0305C95.0095 15.6451 95.4869 15.3716 96.0108 15.24C95.7408 13.319 98.2768 13.311 98.0108 15.23C98.7702 15.3964 99.4499 15.8173 99.9373 16.423C100.425 17.0286 100.691 17.7826 100.691 18.56C100.691 18.8252 100.585 19.0796 100.398 19.2671C100.21 19.4546 99.956 19.56 99.6908 19.56C99.4256 19.56 99.1712 19.4546 98.9837 19.2671C98.7961 19.0796 98.6908 18.8252 98.6908 18.56C98.691 18.3748 98.6548 18.1913 98.584 18.0201C98.5132 17.8489 98.4094 17.6934 98.2784 17.5624C98.1474 17.4314 97.9919 17.3275 97.8207 17.2568C97.6495 17.186 97.466 17.1497 97.2808 17.15H96.6808C96.4902 17.1506 96.3044 17.2103 96.1492 17.321C95.994 17.4317 95.8771 17.5879 95.8145 17.768C95.7519 17.948 95.7468 18.1431 95.7999 18.3262C95.853 18.5092 95.9616 18.6713 96.1108 18.79L99.1608 21.32C99.5683 21.6674 99.873 22.1196 100.042 22.6278C100.211 23.1359 100.237 23.6806 100.119 24.2028C100.001 24.725 99.7415 25.2048 99.3699 25.5903C98.9983 25.9759 98.5283 26.2524 98.0108 26.39C98.2878 28.301 95.7558 28.324 96.0108 26.41C95.3418 26.2761 94.7286 25.9442 94.2507 25.4574C93.7728 24.9706 93.4523 24.3513 93.3308 23.68C93.2835 23.4201 93.3411 23.1521 93.4911 22.9347C93.641 22.7172 93.8711 22.5681 94.1308 22.52ZM101.481 37.28C101.481 38.4721 101.007 39.6155 100.164 40.4584C99.3213 41.3014 98.1779 41.775 96.9858 41.775C95.7936 41.775 94.6503 41.3014 93.8073 40.4584C92.9644 39.6155 92.4908 38.4721 92.4908 37.28C92.6768 31.353 101.291 31.341 101.481 37.28ZM84.9908 34.79C90.9268 34.979 90.9188 43.586 84.9908 43.78C83.7986 43.78 82.6553 43.3064 81.8123 42.4634C80.9694 41.6205 80.4958 40.4771 80.4958 39.285C80.4958 38.0928 80.9694 36.9495 81.8123 36.1065C82.6553 35.2636 83.7986 34.79 84.9908 34.79ZM90.7308 51.65C88.6437 52.8974 86.2074 53.4316 83.7899 53.1718C81.3724 52.912 79.1051 51.8724 77.3308 50.21C77.2156 50.1042 77.1261 49.9736 77.0689 49.8281C77.0117 49.6825 76.9884 49.5259 77.0008 49.37C77.0018 48.1636 77.4816 47.0069 78.3346 46.1538C79.1877 45.3008 80.3444 44.821 81.5508 44.82H87.5308C86.0178 48.33 87.7668 50.02 90.7308 51.65ZM113.481 39.28C113.481 40.4721 113.007 41.6155 112.164 42.4584C111.321 43.3014 110.178 43.775 108.986 43.775C107.794 43.775 106.65 43.3014 105.807 42.4584C104.964 41.6155 104.491 40.4721 104.491 39.28C104.677 33.353 113.291 33.341 113.481 39.28ZM89.3308 48.21C89.1762 48.0314 89.0672 47.8181 89.0133 47.5882C88.9593 47.3582 88.9618 47.1187 89.0208 46.89C89.1452 45.774 89.6754 44.7427 90.5107 43.9923C91.3459 43.2418 92.4279 42.8246 93.5508 42.82H100.451C101.656 42.8247 102.811 43.3056 103.663 44.1579C104.515 45.0102 104.996 46.1647 105.001 47.37C105.014 47.5275 104.992 47.6859 104.934 47.8332C104.877 47.9806 104.787 48.1129 104.671 48.22C102.582 50.1487 99.8422 51.2189 96.9988 51.2171C94.1555 51.2152 91.4174 50.1415 89.3308 48.21ZM117.001 49.37C117.014 49.5275 116.992 49.6859 116.934 49.8332C116.877 49.9806 116.787 50.1129 116.671 50.22C114.895 51.8798 112.627 52.9169 110.21 53.1748C107.793 53.4328 105.357 52.8976 103.271 51.65C106.277 49.927 107.974 48.49 106.471 44.82H112.451C113.657 44.821 114.814 45.3008 115.667 46.1538C116.52 47.0069 117 48.1636 117.001 49.37Z" fill="white"/>
<defs>
<linearGradient id="paint0_linear_800_613" x1="23.6668" y1="12.0714" x2="173.093" y2="37.5979" gradientUnits="userSpaceOnUse">
<stop stop-color="#E9038A"/>
<stop offset="1" stop-color="#0A6195"/>
</linearGradient>
</defs>
</svg>
