<svg width="32" height="33" viewBox="0 0 32 33" fill="none" xmlns="http://www.w3.org/2000/svg">
<path d="M22.8 4.23341C20.2667 2.23341 17.0667 1.43341 13.8667 1.96675C8.13333 3.16675 4.39999 8.90008 5.59999 14.6334C5.99999 16.3667 6.79999 17.9667 7.86666 19.3001C8.79999 20.3667 9.33333 21.7001 9.33333 23.1667V27.1667C9.33333 29.4334 11.0667 31.1667 13.3333 31.1667H18.6667C20.9333 31.1667 22.6667 29.4334 22.6667 27.1667V23.4334C22.6667 21.8334 23.3333 20.3667 24.2667 19.1667C28 14.6334 27.3333 7.96675 22.8 4.23341ZM14.6667 19.1667C14.6667 18.3667 15.2 17.8334 16 17.8334C16.8 17.8334 17.3333 18.3667 17.3333 19.1667V23.1667H14.6667V19.1667ZM20 27.1667C20 27.9667 19.4667 28.5001 18.6667 28.5001H13.3333C12.5333 28.5001 12 27.9667 12 27.1667V25.8334H20V27.1667Z" fill="url(#paint0_linear_670_726)"/>
<defs>
<linearGradient id="paint0_linear_670_726" x1="6.16472" y1="7.19852" x2="26.9206" y2="8.22787" gradientUnits="userSpaceOnUse">
<stop stop-color="#E9038A"/>
<stop offset="1" stop-color="#0A6195"/>
</linearGradient>
</defs>
</svg>
