<svg width="32" height="32" viewBox="0 0 32 32" fill="none" xmlns="http://www.w3.org/2000/svg">
<path d="M11.186 24.6532V11.1066C11.186 10.5732 11.346 10.0532 11.6394 9.61322L15.2794 4.19989C15.8527 3.33322 17.2794 2.71989 18.4927 3.17322C19.7994 3.61322 20.666 5.07989 20.386 6.38655L19.6927 10.7466C19.6394 11.1466 19.746 11.5066 19.9727 11.7866C20.1994 12.0399 20.5327 12.1999 20.8927 12.1999H26.3727C27.426 12.1999 28.3327 12.6266 28.866 13.3732C29.3727 14.0932 29.466 15.0266 29.1327 15.9732L25.8527 25.9599C25.4394 27.6132 23.6394 28.9599 21.8527 28.9599H16.6527C15.7594 28.9599 14.506 28.6532 13.9327 28.0799L12.226 26.7599C11.5727 26.2666 11.186 25.4799 11.186 24.6532Z" fill="url(#paint0_linear_670_742)"/>
<path d="M6.9465 8.50659H5.57317C3.5065 8.50659 2.6665 9.30659 2.6665 11.2799V24.6933C2.6665 26.6666 3.5065 27.4666 5.57317 27.4666H6.9465C9.01317 27.4666 9.85317 26.6666 9.85317 24.6933V11.2799C9.85317 9.30659 9.01317 8.50659 6.9465 8.50659Z" fill="url(#paint1_linear_670_742)"/>
<defs>
<linearGradient id="paint0_linear_670_742" x1="11.858" y1="7.78429" x2="29.5327" y2="8.629" gradientUnits="userSpaceOnUse">
<stop stop-color="#E9038A"/>
<stop offset="1" stop-color="#0A6195"/>
</linearGradient>
<linearGradient id="paint1_linear_670_742" x1="2.93268" y1="11.989" x2="9.94522" y2="12.1707" gradientUnits="userSpaceOnUse">
<stop stop-color="#E9038A"/>
<stop offset="1" stop-color="#0A6195"/>
</linearGradient>
</defs>
</svg>
