<svg width="58" height="58" viewBox="0 0 58 58" fill="none" xmlns="http://www.w3.org/2000/svg">
<path opacity="0.3" d="M29 56.812C44.464 56.812 57 44.276 57 28.812C57 13.348 44.464 0.812012 29 0.812012C13.536 0.812012 1 13.348 1 28.812C1 44.276 13.536 56.812 29 56.812Z" fill="white" fill-opacity="0.8" stroke="white" stroke-width="0.403345" stroke-miterlimit="10"/>
<path fill-rule="evenodd" clip-rule="evenodd" d="M22.213 19.7111C22.213 21.2503 21.0545 22.4818 19.1943 22.4818H19.1602C17.3691 22.4818 16.2112 21.2503 16.2112 19.7111C16.2112 18.1395 17.4043 16.9424 19.2294 16.9424C21.0545 16.9424 22.1784 18.1395 22.213 19.7111ZM21.8609 24.6696V40.699H16.5259V24.6696H21.8609ZM41.1017 40.6994L41.1019 31.5086C41.1019 26.5851 38.47 24.2936 34.9593 24.2936C32.1268 24.2936 30.8586 25.8494 30.1505 26.9408V24.6704H24.8149C24.8852 26.1745 24.8149 40.6998 24.8149 40.6998H30.1505V31.7477C30.1505 31.2686 30.1851 30.7907 30.3262 30.4477C30.7118 29.4907 31.5897 28.4998 33.0636 28.4998C34.9949 28.4998 35.7669 29.9696 35.7669 32.1237V40.6994H41.1017Z" fill="white"/>
</svg>
