<svg width="64" height="64" viewBox="0 0 64 64" fill="none" xmlns="http://www.w3.org/2000/svg">
<path d="M29.416 53.9998C28.6329 53.8434 27.8314 53.8135 27.0437 53.672C23.5266 53.062 20.234 51.5289 17.5013 49.2291C13.7452 46.0766 11.2786 42.1087 10.4013 37.2735C9.07963 30.0012 11.0214 23.664 16.2473 18.4183C19.4304 15.2221 23.3197 13.3324 27.782 12.7125C32.6933 12.0305 37.2922 12.9747 41.5421 15.5579C41.7178 15.6637 41.8154 15.7673 41.8016 15.9915C41.709 17.4522 41.6255 18.9129 41.5513 20.3735C41.5435 20.4512 41.5203 20.5265 41.483 20.595C41.4457 20.6636 41.3952 20.7239 41.3343 20.7726C40.9392 21.1671 40.5305 21.5489 40.155 21.9641C39.9253 22.2183 39.7772 22.231 39.4935 22.0228C37.5954 20.6265 35.5422 19.5213 33.2204 19.0405C27.8739 17.9329 23.2634 19.4316 19.6428 23.4455C12.3638 31.516 15.9775 44.2824 26.3627 47.4981C34.7235 50.0882 43.6182 44.7689 45.2959 36.1475C46.1652 31.685 45.0559 27.7378 42.0531 24.3323C41.8234 24.0769 41.766 23.9171 42.0646 23.6951C42.2407 23.5689 42.3957 23.4156 42.5239 23.2408C43.0441 22.4978 43.7675 22.3034 44.6345 22.3034C45.707 22.3034 46.7807 22.208 47.8497 22.1344C47.96 22.1167 48.0731 22.1354 48.1719 22.1877C48.2707 22.24 48.3498 22.323 48.3975 22.4242C50.6688 26.2127 51.7103 30.3095 51.352 34.7179C50.7779 41.7797 47.4157 47.1842 41.4709 50.9669C38.7058 52.7266 35.6444 53.6686 32.3741 53.917C32.2478 53.9274 32.1134 53.9067 32.002 53.9941L29.416 53.9998Z" fill="#C1C1C1"/>
<path d="M54 14.9083C52.5704 16.3356 51.1384 17.7583 49.7157 19.1925C49.6295 19.2847 49.5255 19.3585 49.41 19.4093C49.2946 19.4601 49.17 19.4869 49.0439 19.4881C47.5572 19.5586 46.0713 19.6426 44.5862 19.74C44.2624 19.7618 44.1671 19.6825 44.19 19.3489C44.2922 17.8043 44.3726 16.2585 44.4519 14.7116C44.4557 14.6342 44.475 14.5583 44.5085 14.4883C44.542 14.4184 44.5891 14.3559 44.6471 14.3045C46.0354 12.9163 47.426 11.5315 48.8039 10.1341C49.0003 9.93514 49.0967 9.97194 49.2736 10.1502C50.7235 11.617 52.1803 13.0773 53.644 14.531C53.752 14.6392 53.8289 14.7898 54 14.822V14.9083Z" fill="#C1C1C1"/>
<path d="M30.1704 21.265C32.8287 21.265 35.1701 22.2242 37.3507 23.6607C38.0133 24.0978 38.011 24.1012 37.4403 24.6728C36.4677 25.647 35.4882 26.6154 34.5271 27.5987C34.3364 27.7943 34.2078 27.8288 33.9529 27.6816C33.0162 27.1316 31.9559 26.8275 30.8706 26.7976C29.7852 26.7676 28.7098 27.0127 27.7443 27.5101C26.7787 28.0075 25.9543 28.7412 25.3474 29.643C24.7405 30.5447 24.3708 31.5854 24.2727 32.6685C23.9604 35.9648 26.3397 39.0862 29.5744 39.6095C33.0079 40.1662 36.2277 38.0362 36.9821 34.71C37.3621 33.1291 37.1151 31.4622 36.2931 30.06C36.1301 29.7736 36.1289 29.6184 36.3724 29.3803C37.4717 28.3107 38.5557 27.2253 39.6244 26.1243C39.8827 25.8574 39.9999 25.8805 40.2318 26.1484C43.5929 30.0324 43.7502 34.9136 41.5053 39.1023C39.0801 43.6292 34.2641 46.0641 29.1036 45.4591C24.2383 44.884 20.0849 41.2117 18.7965 36.3351C16.981 29.4654 21.5053 22.491 28.495 21.3834C29.0487 21.293 29.6095 21.2533 30.1704 21.265Z" fill="#C1C1C1"/>
<path d="M32.3553 29.7679C31.5687 30.5558 30.8178 31.3217 30.0472 32.0682C29.8279 32.2798 29.836 32.4029 30.0472 32.6053C30.4985 33.0239 30.936 33.4587 31.3517 33.9118C31.5665 34.1419 31.6905 34.1016 31.888 33.8969C32.6321 33.1251 33.3934 32.3707 34.1559 31.5966C34.9964 33.0469 34.5153 35.1448 33.1224 36.2673C32.398 36.8473 31.4897 37.1474 30.5629 37.1128C29.6361 37.0783 28.7526 36.7114 28.0732 36.0791C27.3939 35.4467 26.9639 34.591 26.8617 33.6677C26.7595 32.7445 26.9918 31.8152 27.5164 31.0492C28.6004 29.4884 30.6639 28.9272 32.3553 29.7679Z" fill="#C1C1C1"/>
</svg>
