<svg width="18" height="14" viewBox="0 0 18 14" fill="none" xmlns="http://www.w3.org/2000/svg">
<path d="M17.5892 8.0371C17.8523 7.76205 18 7.38922 18 7.00049C18 6.61176 17.8523 6.23893 17.5892 5.96388L12.2933 0.429781C12.0298 0.154597 11.6724 -4.10056e-09 11.2998 0C10.9272 4.10056e-09 10.5698 0.154597 10.3063 0.429781C10.0429 0.704965 9.89484 1.0782 9.89484 1.46736C9.89484 1.85653 10.0429 2.22976 10.3063 2.50495L13.2053 5.5336L2.40452 5.5336C2.03202 5.5336 1.67477 5.68814 1.41138 5.96324C1.14798 6.23833 1 6.61144 1 7.00049C1 7.38953 1.14798 7.76264 1.41138 8.03774C1.67477 8.31284 2.03202 8.46738 2.40452 8.46738L13.2053 8.46738L10.3063 11.4951C10.1759 11.6313 10.0724 11.7931 10.0018 11.9711C9.93118 12.1491 9.89484 12.3399 9.89484 12.5326C9.89484 12.7253 9.93118 12.9161 10.0018 13.0942C10.0724 13.2722 10.1759 13.434 10.3063 13.5702C10.4368 13.7065 10.5917 13.8146 10.7621 13.8883C10.9326 13.962 11.1153 14 11.2998 14C11.4843 14 11.667 13.962 11.8375 13.8883C12.0079 13.8146 12.1628 13.7065 12.2933 13.5702L17.5892 8.0371Z" fill="url(#paint0_linear_629_622)"/>
<defs>
<linearGradient id="paint0_linear_629_622" x1="9.5" y1="0" x2="9.5" y2="14" gradientUnits="userSpaceOnUse">
<stop stop-color="#9B248E"/>
<stop offset="0.739" stop-color="#4A4792"/>
<stop offset="1" stop-color="#2D5393"/>
</linearGradient>
</defs>
</svg>
