<svg width="24" height="18" viewBox="0 0 24 18" fill="none" xmlns="http://www.w3.org/2000/svg">
<g clip-path="url(#clip0_556_1759)">
<rect width="24" height="18" rx="2" fill="white"/>
<path fill-rule="evenodd" clip-rule="evenodd" d="M0 0V18H24V0H0Z" fill="#F50101"/>
<mask id="mask0_556_1759" style="mask-type:luminance" maskUnits="userSpaceOnUse" x="0" y="0" width="24" height="18">
<path fill-rule="evenodd" clip-rule="evenodd" d="M0 0V18H24V0H0Z" fill="white"/>
</mask>
<g mask="url(#mask0_556_1759)">
<path fill-rule="evenodd" clip-rule="evenodd" d="M0 0V6H24V0H0Z" fill="#F7FCFF"/>
<path fill-rule="evenodd" clip-rule="evenodd" d="M0 12V18H24V12H0Z" fill="#5EAA22"/>
<rect width="9" height="18" fill="#F50101"/>
<path fill-rule="evenodd" clip-rule="evenodd" d="M8.08234 1.4775C8.08783 1.42045 8.01489 1.39906 7.98598 1.44855C7.73117 1.88478 7.04206 3.00739 5.88506 4.48928V3.80102C5.77795 3.68461 5.43646 3.37142 5.43646 3.37142V2.68418L6.05423 2.12514L5.20578 1.49968L4.31152 2.12514L4.98745 2.68418V3.37142C4.98745 3.70097 4.57766 3.80102 4.57766 3.80102L4.50263 4.40724C3.42373 3.00625 2.76437 1.92398 2.50489 1.47559C2.4754 1.42464 2.40037 1.44894 2.40872 1.50721C2.48407 2.03294 2.7266 3.29578 3.43621 4.64701H3.25173V4.61175C3.25173 4.58174 3.2274 4.55741 3.19739 4.55741H1.59413C1.56411 4.55741 1.53978 4.58174 1.53978 4.61175V5.62806C1.53978 5.65807 1.56411 5.68241 1.59413 5.68241H3.19739C3.2274 5.68241 3.25173 5.65807 3.25173 5.62806V5.09504H3.45091C3.51847 5.25081 3.67361 5.3606 3.85504 5.36379C3.98178 5.55933 4.11923 5.75435 4.26828 5.94692C3.92543 5.91301 1.65939 5.72008 1.65939 6.54447C1.65939 7.03655 2.21056 7.29702 2.90178 7.43165C2.18082 8.08453 1.50176 8.69743 1.21545 8.95572C1.17458 8.99259 1.20811 9.05498 1.26161 9.04202C1.7698 8.91893 3.22132 8.50885 4.60148 7.5673L4.64343 7.56736C5.02275 7.56736 5.28658 7.4028 5.46994 7.18007C6.879 8.33022 8.4784 8.84372 9.11791 9.0148C9.17618 9.03039 9.20982 8.95579 9.16011 8.92161C8.64175 8.56521 7.3716 7.63704 6.07194 6.26935L6.105 6.23064C6.36205 5.9273 6.58603 5.61528 6.78118 5.30242C6.86285 5.25466 6.92788 5.18202 6.9656 5.09504H7.16478V5.62806C7.16478 5.65807 7.18911 5.68241 7.21913 5.68241H8.82239C8.8524 5.68241 8.87673 5.65807 8.87673 5.62806V4.61175C8.87673 4.58174 8.8524 4.55741 8.82239 4.55741H7.21913C7.20874 4.55741 7.19904 4.56032 7.19078 4.56537C7.85405 3.21906 8.03455 1.97404 8.08234 1.4775ZM7.16478 4.64701V4.61771L7.15003 4.64701H7.16478ZM4.23 4.92031C4.23 5.12074 4.06575 5.28321 3.86315 5.28321C3.66054 5.28321 3.4963 5.12074 3.4963 4.92031C3.4963 4.71988 3.66054 4.55741 3.86315 4.55741C4.06575 4.55741 4.23 4.71988 4.23 4.92031ZM6.18652 4.92031C6.18652 5.12074 6.35076 5.28321 6.55336 5.28321C6.75597 5.28321 6.92021 5.12074 6.92021 4.92031C6.92021 4.71988 6.75597 4.55741 6.55336 4.55741C6.35076 4.55741 6.18652 4.71988 6.18652 4.92031Z" fill="#F7FCFF"/>
</g>
</g>
<defs>
<clipPath id="clip0_556_1759">
<rect width="24" height="18" rx="2" fill="white"/>
</clipPath>
</defs>
</svg>
