<svg width="118" height="118" viewBox="0 0 118 118" fill="none" xmlns="http://www.w3.org/2000/svg">
<path d="M75.7109 28.7367V19.8867C75.7109 18.3944 74.4962 17.1797 73.0038 17.1797H23.6694C22.1597 17.1797 20.9623 18.3944 20.9623 19.8867V28.7367C20.9623 30.2291 22.1597 31.4612 23.6694 31.4612H73.0038C74.4962 31.4612 75.7109 30.2291 75.7109 28.7367ZM29.5 41.3697H20.997C19.1056 41.3697 17.5612 42.9141 17.5612 44.8229V53.3259C17.5612 55.2173 19.1056 56.7617 20.997 56.7617H29.5C31.4088 56.7617 32.9359 55.2173 32.9359 53.3259V44.8229C32.9359 42.9141 31.4088 41.3697 29.5 41.3697ZM29.5 64.0847H20.997C19.1056 64.0847 17.5612 65.6291 17.5612 67.5379V76.0409C17.5612 77.9323 19.1056 79.4767 20.997 79.4767H29.5C31.4088 79.4767 32.9359 77.9323 32.9359 76.0409V67.5379C32.9359 65.6291 31.4088 64.0847 29.5 64.0847ZM29.5 86.7997H20.997C19.1056 86.7997 17.5612 88.3615 17.5612 90.2529V98.7559C17.5612 100.647 19.1056 102.209 20.997 102.209H29.5C31.4088 102.209 32.9359 100.647 32.9359 98.7559V90.2529C32.9359 88.3615 31.4088 86.7997 29.5 86.7997ZM78.2617 43.5562H44.4929C44.0465 43.5562 43.6184 43.7335 43.3027 44.0492C42.987 44.3648 42.8097 44.793 42.8097 45.2394C42.8097 45.6858 42.987 46.114 43.3027 46.4296C43.6184 46.7453 44.0465 46.9226 44.4929 46.9226H78.2617C78.7082 46.9226 79.1363 46.7453 79.452 46.4296C79.7676 46.114 79.945 45.6858 79.945 45.2394C79.945 44.793 79.7676 44.3648 79.452 44.0492C79.1363 43.7335 78.7082 43.5562 78.2617 43.5562ZM44.4929 54.5926H62.9912C63.4244 54.573 63.8333 54.387 64.1329 54.0735C64.4325 53.76 64.5997 53.343 64.5997 52.9094C64.5997 52.4757 64.4325 52.0588 64.1329 51.7453C63.8333 51.4318 63.4244 51.2458 62.9912 51.2262H44.4929C44.0465 51.2262 43.6184 51.4035 43.3027 51.7192C42.987 52.0348 42.8097 52.463 42.8097 52.9094C42.8097 53.3558 42.987 53.784 43.3027 54.0996C43.6184 54.4153 44.0465 54.5926 44.4929 54.5926ZM69.8976 66.2712H44.4929C44.0465 66.2712 43.6184 66.4485 43.3027 66.7642C42.987 67.0798 42.8097 67.508 42.8097 67.9544C42.8097 68.4008 42.987 68.829 43.3027 69.1446C43.6184 69.4603 44.0465 69.6376 44.4929 69.6376H69.8976C70.344 69.6376 70.7722 69.4603 71.0879 69.1446C71.4035 68.829 71.5809 68.4008 71.5809 67.9544C71.5809 67.508 71.4035 67.0798 71.0879 66.7642C70.7722 66.4485 70.344 66.2712 69.8976 66.2712ZM62.9912 73.9412H44.4929C44.0597 73.9608 43.6508 74.1468 43.3512 74.4603C43.0516 74.7738 42.8844 75.1907 42.8844 75.6244C42.8844 76.058 43.0516 76.475 43.3512 76.7885C43.6508 77.102 44.0597 77.288 44.4929 77.3076H62.9912C63.4244 77.288 63.8333 77.102 64.1329 76.7885C64.4325 76.475 64.5997 76.058 64.5997 75.6244C64.5997 75.1907 64.4325 74.7738 64.1329 74.4603C63.8333 74.1468 63.4244 73.9608 62.9912 73.9412ZM44.4929 100.023H62.9912C63.4244 100.003 63.8333 99.817 64.1329 99.5035C64.4325 99.19 64.5997 98.773 64.5997 98.3394C64.5997 97.9057 64.4325 97.4888 64.1329 97.1753C63.8333 96.8618 63.4244 96.6758 62.9912 96.6562H44.4929C44.0465 96.6562 43.6184 96.8335 43.3027 97.1492C42.987 97.4648 42.8097 97.893 42.8097 98.3394C42.8097 98.7858 42.987 99.214 43.3027 99.5296C43.6184 99.8453 44.0465 100.023 44.4929 100.023Z" fill="black"/>
<path d="M110.313 69.3598L94.2093 63.5813C93.5672 63.3557 92.8904 63.2689 92.2137 63.321V16.8845C92.2137 9.49217 86.1922 3.4707 78.7999 3.4707H17.8563C10.464 3.4707 4.4425 9.49217 4.4425 16.8845V101.116C4.4425 108.525 10.464 114.53 17.8563 114.53H78.7999C81.7672 114.53 84.509 113.575 86.7301 111.927C87.8407 112.638 89.0554 113.332 90.3396 113.992C91.0163 114.373 91.7799 114.53 92.5607 114.53C93.3069 114.53 94.0704 114.373 94.7819 113.992C113.228 104.534 113.558 89.2636 113.558 88.6042V73.9757C113.558 71.9107 112.239 70.0539 110.313 69.3598ZM74.774 69.3598C72.8304 70.0539 71.5116 71.9107 71.5116 73.9757V88.6042C71.5116 88.6563 71.5116 88.7778 71.529 88.986H44.4931C44.0599 89.0057 43.651 89.1916 43.3514 89.5051C43.0518 89.8186 42.8846 90.2356 42.8846 90.6692C42.8846 91.1029 43.0518 91.5198 43.3514 91.8333C43.651 92.1469 44.0599 92.3328 44.4931 92.3525H72.0322C73.004 96.6213 75.7804 103.736 83.7628 109.844C82.3051 110.677 80.6046 111.163 78.7999 111.163H17.8563C12.3207 111.163 7.80898 106.669 7.80898 101.116V16.8845C7.81356 14.2212 8.87359 11.6683 10.7568 9.78504C12.6401 7.90179 15.193 6.84176 17.8563 6.83717H78.7999C84.3528 6.83717 88.8472 11.3489 88.8472 16.8845V64.3101L74.774 69.3598ZM97.0378 94.0183C97.3154 95.0526 96.5103 96.1528 95.3372 96.1528H89.7496C88.573 96.1528 87.7748 95.0439 88.049 94.0183L89.3678 88.3266C87.0529 86.9383 85.8313 83.9883 86.7301 81.1598C88.8472 74.6178 98.6516 76.1674 98.6516 83.1033C98.6516 85.2551 97.5063 87.216 95.719 88.3092L97.0378 94.0183Z" fill="black"/>
</svg>
