<svg width="32" height="32" viewBox="0 0 32 32" fill="none" xmlns="http://www.w3.org/2000/svg">
<path d="M11.9998 2.66675C8.5065 2.66675 5.6665 5.50675 5.6665 9.00008C5.6665 12.4267 8.3465 15.2001 11.8398 15.3201C11.9465 15.3067 12.0532 15.3067 12.1332 15.3201C12.1598 15.3201 12.1732 15.3201 12.1998 15.3201C12.2132 15.3201 12.2132 15.3201 12.2265 15.3201C15.6398 15.2001 18.3198 12.4267 18.3332 9.00008C18.3332 5.50675 15.4932 2.66675 11.9998 2.66675Z" fill="url(#paint0_linear_739_520)"/>
<path d="M18.7733 18.8666C15.0533 16.3866 8.98661 16.3866 5.23995 18.8666C3.54661 19.9999 2.61328 21.5333 2.61328 23.1733C2.61328 24.8133 3.54661 26.3333 5.22661 27.4533C7.09328 28.7066 9.54661 29.3333 11.9999 29.3333C14.4533 29.3333 16.9066 28.7066 18.7733 27.4533C20.4533 26.3199 21.3866 24.7999 21.3866 23.1466C21.3733 21.5066 20.4533 19.9866 18.7733 18.8666Z" fill="url(#paint1_linear_739_520)"/>
<path d="M26.653 9.78688C26.8663 12.3735 25.0263 14.6402 22.4797 14.9469C22.4663 14.9469 22.4663 14.9469 22.453 14.9469H22.413C22.333 14.9469 22.253 14.9469 22.1863 14.9735C20.893 15.0402 19.7063 14.6269 18.813 13.8669C20.1863 12.6402 20.973 10.8002 20.813 8.80021C20.7197 7.72021 20.3463 6.73355 19.7863 5.89355C20.293 5.64021 20.8797 5.48021 21.4797 5.42688C24.093 5.20021 26.4263 7.14688 26.653 9.78688Z" fill="url(#paint2_linear_739_520)"/>
<path d="M29.3205 22.1199C29.2138 23.4132 28.3871 24.5332 27.0005 25.2932C25.6671 26.0265 23.9871 26.3732 22.3205 26.3332C23.2805 25.4665 23.8405 24.3865 23.9471 23.2399C24.0805 21.5865 23.2938 19.9999 21.7205 18.7332C20.8271 18.0265 19.7871 17.4665 18.6538 17.0532C21.6005 16.1999 25.3071 16.7732 27.5871 18.6132C28.8138 19.5999 29.4405 20.8399 29.3205 22.1199Z" fill="url(#paint3_linear_739_520)"/>
<defs>
<linearGradient id="paint0_linear_739_520" x1="6.13564" y1="4.99083" x2="18.4461" y2="5.83291" gradientUnits="userSpaceOnUse">
<stop stop-color="#E9038A"/>
<stop offset="1" stop-color="#0A6195"/>
</linearGradient>
<linearGradient id="paint1_linear_739_520" x1="3.30859" y1="19.2707" x2="21.443" y2="21.1579" gradientUnits="userSpaceOnUse">
<stop stop-color="#E9038A"/>
<stop offset="1" stop-color="#0A6195"/>
</linearGradient>
<linearGradient id="paint2_linear_739_520" x1="19.104" y1="7.16699" x2="26.7515" y2="7.59594" gradientUnits="userSpaceOnUse">
<stop stop-color="#E9038A"/>
<stop offset="1" stop-color="#0A6195"/>
</linearGradient>
<linearGradient id="paint3_linear_739_520" x1="19.0494" y1="18.4422" x2="29.4197" y2="19.2249" gradientUnits="userSpaceOnUse">
<stop stop-color="#E9038A"/>
<stop offset="1" stop-color="#0A6195"/>
</linearGradient>
</defs>
</svg>
