<svg width="419" height="223" viewBox="0 0 419 223" fill="none" xmlns="http://www.w3.org/2000/svg">
<path opacity="0.2" d="M184.711 139.052C184.711 130.323 186.843 122.203 191.106 114.692C195.572 107.181 200.342 101.294 205.417 97.0314C210.695 92.7684 215.465 88.2009 219.728 83.329C224.194 78.4571 226.427 73.8896 226.427 69.6267C226.427 66.3787 225.311 63.7397 223.078 61.7098C220.845 59.6798 217.8 58.6648 213.943 58.6648C203.996 58.6648 195.673 66.0742 188.974 80.893L137.514 51.6613C144.822 34.4065 155.479 21.5162 169.486 12.9903C183.493 4.46437 199.124 0.201416 216.379 0.201416C236.882 0.201416 253.832 5.68237 267.23 16.6442C280.628 27.4031 287.327 41.9174 287.327 60.1872C287.327 68.7132 285.703 76.6301 282.455 83.938C279.207 91.2459 275.248 97.3359 270.579 102.208C265.91 106.877 261.14 111.241 256.268 115.301C251.599 119.361 247.64 123.421 244.392 127.481C241.145 131.338 239.521 135.195 239.521 139.052H184.711ZM236.78 212.74C230.081 219.439 221.86 222.788 212.116 222.788C202.372 222.788 194.049 219.439 187.147 212.74C180.448 205.838 177.099 197.515 177.099 187.771C177.099 178.027 180.448 169.806 187.147 163.107C194.049 156.205 202.372 152.754 212.116 152.754C221.86 152.754 230.081 156.205 236.78 163.107C243.682 169.806 247.133 178.027 247.133 187.771C247.133 197.515 243.682 205.838 236.78 212.74Z" fill="url(#paint0_linear_341_412)"/>
<path opacity="0.2" d="M327.388 150.811C329.901 146.457 333.303 143.02 337.592 140.502C341.983 138.041 346.058 136.479 349.817 135.814C353.677 135.207 357.372 134.303 360.901 133.101C364.532 131.957 366.961 130.321 368.188 128.195C369.124 126.575 369.327 124.937 368.798 123.282C368.268 121.626 367.042 120.243 365.118 119.132C360.157 116.268 353.871 117.567 346.262 123.029L329.013 93.6289C337.627 87.1268 346.655 83.7663 356.097 83.5473C365.538 83.3283 374.563 85.7033 383.169 90.6723C393.396 96.5767 400.272 104.192 403.798 113.518C407.383 122.743 406.544 131.912 401.283 141.024C398.828 145.277 395.738 148.758 392.013 151.468C388.289 154.178 384.56 156.076 380.828 157.161C377.155 158.145 373.519 158.949 369.919 159.571C366.421 160.251 363.278 161.136 360.489 162.226C357.758 163.215 355.837 164.671 354.726 166.595L327.388 150.811ZM332.139 202.561C326.868 203.973 321.803 203.276 316.942 200.47C312.082 197.664 308.895 193.596 307.382 188.267C306.028 182.896 306.754 177.78 309.56 172.919C312.366 168.059 316.405 164.923 321.675 163.511C327.105 162.056 332.251 162.731 337.111 165.537C341.971 168.343 345.078 172.432 346.432 177.804C347.945 183.133 347.299 188.228 344.493 193.088C341.687 197.948 337.569 201.106 332.139 202.561Z" fill="url(#paint1_linear_341_412)"/>
<path opacity="0.2" d="M79.2338 167.533C75.5039 163.803 72.9023 159.466 71.4291 154.52C70.0385 149.492 69.4658 145.033 69.7111 141.145C70.039 137.174 70.0302 133.279 69.6846 129.461C69.4216 125.561 68.3793 122.7 66.5578 120.878C65.1699 119.49 63.5876 118.817 61.8107 118.859C60.0339 118.901 58.3601 119.708 56.7893 121.279C52.7383 125.33 52.5147 131.885 56.1186 140.946L22.67 149.413C18.2733 139.063 17.1056 129.215 19.167 119.867C21.2283 110.52 25.7726 102.332 32.7999 95.3051C41.15 86.955 50.3952 82.3938 60.5357 81.6213C70.5895 80.7621 79.5197 84.2359 87.3264 92.0426C90.9696 95.6857 93.6911 99.73 95.491 104.176C97.2909 108.621 98.281 112.835 98.4613 116.819C98.5548 120.715 98.4769 124.523 98.2276 128.242C98.0609 131.878 98.1836 135.225 98.5956 138.283C98.9209 141.254 99.9076 143.563 101.556 145.211L79.2338 167.533ZM131.927 177.814C132.061 183.405 130.144 188.185 126.176 192.153C122.207 196.121 117.386 198.08 111.713 198.028C106.036 197.807 101.115 195.615 96.9514 191.451C92.7879 187.288 90.639 182.411 90.5047 176.82C90.3664 171.06 92.2815 166.196 96.2498 162.227C100.218 158.259 105.041 156.385 110.718 156.606C116.392 156.658 121.31 158.765 125.474 162.929C129.637 167.092 131.788 172.054 131.927 177.814Z" fill="url(#paint2_linear_341_412)"/>
<defs>
<linearGradient id="paint0_linear_341_412" x1="255.497" y1="-87.2831" x2="255.497" y2="251.524" gradientUnits="userSpaceOnUse">
<stop/>
<stop offset="1" stop-color="white"/>
</linearGradient>
<linearGradient id="paint1_linear_341_412" x1="427.737" y1="58.5404" x2="330.167" y2="227.536" gradientUnits="userSpaceOnUse">
<stop/>
<stop offset="1" stop-color="white"/>
</linearGradient>
<linearGradient id="paint2_linear_341_412" x1="11.5545" y1="42.1965" x2="156.327" y2="186.969" gradientUnits="userSpaceOnUse">
<stop/>
<stop offset="1" stop-color="white"/>
</linearGradient>
</defs>
</svg>
