<svg width="190" height="64" viewBox="0 0 190 64" fill="none" xmlns="http://www.w3.org/2000/svg">
<path d="M15.979 0.5H174.104L189.917 17.75H0.166504L15.979 0.5Z" fill="#9295BB"/>
<path d="M17.1665 0.5H174.667L147.275 63.5H44.5578L17.1665 0.5Z" fill="url(#paint0_linear_800_614)"/>
<path d="M110.984 28.5191C110.934 30.0031 111.092 31.8363 110.907 33.6592C110.457 38.0889 108.482 41.7041 104.92 44.3926C102.52 46.2053 100.033 47.8971 97.5777 49.6332C97.273 49.8708 96.8968 50 96.5094 50C96.122 50 95.7458 49.8708 95.4411 49.6332C92.9633 47.8818 90.4356 46.19 88.035 44.3381C84.1081 41.3072 82.1276 37.2421 82.0333 32.3048C81.9801 29.4221 81.9972 26.5377 82.0333 23.6551C82.0624 21.2426 83.2045 19.5031 85.4457 18.5439C88.8289 17.0839 92.2259 15.6579 95.6109 14.2012C95.8995 14.0686 96.2137 14 96.5317 14C96.8497 14 97.1639 14.0686 97.4525 14.2012C100.788 15.6306 104.14 17.0328 107.463 18.4775C109.795 19.4997 110.998 21.2784 110.987 23.8357C110.979 25.2787 110.984 26.7285 110.984 28.5191ZM89.297 31.9811C89.2952 32.2356 89.3473 32.4876 89.4502 32.7207C89.553 32.9538 89.7042 33.1627 89.8938 33.3338C91.0461 34.4753 92.1916 35.6253 93.3491 36.7634C94.2065 37.605 95.2679 37.5965 96.127 36.7481C97.3491 35.5361 98.5706 34.3225 99.7915 33.1072C100.882 32.0237 101.978 30.9452 103.063 29.8549C104.005 28.9093 103.986 27.6588 103.034 26.9586C102.266 26.3895 101.319 26.4832 100.58 27.2209C98.7249 29.0575 96.8746 30.8987 95.0295 32.7443C94.7912 32.9846 94.6609 33.0254 94.4071 32.758C93.7372 32.0526 93.0467 31.366 92.3356 30.6982C92.0868 30.4423 91.7626 30.2714 91.4098 30.2102C91.0569 30.149 90.6937 30.2005 90.3722 30.3574C89.6726 30.659 89.3228 31.2229 89.297 31.9811Z" fill="white"/>
<defs>
<linearGradient id="paint0_linear_800_614" x1="22.9998" y1="12.0714" x2="172.426" y2="37.5979" gradientUnits="userSpaceOnUse">
<stop stop-color="#E9038A"/>
<stop offset="1" stop-color="#0A6195"/>
</linearGradient>
</defs>
</svg>
