<svg width="48" height="48" viewBox="0 0 48 48" fill="none" xmlns="http://www.w3.org/2000/svg">
<path d="M38.9838 20.5191C38.9341 22.0031 39.0919 23.8363 38.9067 25.6592C38.4574 30.0889 36.482 33.7041 32.9204 36.3926C30.5197 38.2053 28.0333 39.8971 25.5777 41.6332C25.273 41.8708 24.8968 42 24.5094 42C24.122 42 23.7458 41.8708 23.4411 41.6332C20.9633 39.8818 18.4356 38.19 16.035 36.3381C12.1081 33.3072 10.1276 29.2421 10.0333 24.3048C9.9801 21.4221 9.99724 18.5377 10.0333 15.6551C10.0624 13.2426 11.2045 11.5031 13.4457 10.5439C16.8289 9.08386 20.2259 7.65786 23.6109 6.20119C23.8995 6.06865 24.2137 6 24.5317 6C24.8497 6 25.1639 6.06865 25.4525 6.20119C28.7878 7.6306 32.1402 9.03275 35.4634 10.4775C37.7955 11.4997 38.9975 13.2784 38.9873 15.8357C38.9787 17.2787 38.9838 18.7285 38.9838 20.5191ZM17.297 23.9811C17.2952 24.2356 17.3473 24.4876 17.4502 24.7207C17.553 24.9538 17.7042 25.1627 17.8938 25.3338C19.0461 26.4753 20.1916 27.6253 21.3491 28.7634C22.2065 29.605 23.2679 29.5965 24.127 28.7481C25.3491 27.5361 26.5706 26.3225 27.7915 25.1072C28.8821 24.0237 29.9778 22.9452 31.0633 21.8549C32.0047 20.9093 31.9858 19.6588 31.0341 18.9586C30.2659 18.3895 29.3193 18.4832 28.5803 19.2209C26.7249 21.0575 24.8746 22.8987 23.0295 24.7443C22.7912 24.9846 22.6609 25.0254 22.4071 24.758C21.7372 24.0526 21.0467 23.366 20.3356 22.6982C20.0868 22.4423 19.7626 22.2714 19.4098 22.2102C19.0569 22.149 18.6937 22.2005 18.3722 22.3574C17.6726 22.659 17.3228 23.2229 17.297 23.9811Z" fill="white"/>
</svg>
