<svg width="84" height="84" viewBox="0 0 84 84" fill="none" xmlns="http://www.w3.org/2000/svg">
<circle cx="42.0008" cy="41.7676" r="41.532" fill="url(#paint0_linear_152_962)"/>
<g style="mix-blend-mode:plus-lighter">
<path d="M61.9466 66.6026V78.5265C55.8998 81.7701 49.1446 83.4675 42.2829 83.4675C35.4211 83.4675 28.6659 81.7701 22.6191 78.5265V66.6026C22.6191 66.1354 22.8047 65.6873 23.1351 65.357C23.4654 65.0267 23.9135 64.8411 24.3806 64.8411H60.1837C60.4152 64.8409 60.6444 64.8863 60.8582 64.9748C61.0721 65.0632 61.2665 65.1929 61.4302 65.3565C61.5939 65.5201 61.7238 65.7144 61.8124 65.9282C61.901 66.142 61.9466 66.3711 61.9466 66.6026Z" fill="url(#paint1_linear_152_962)"/>
</g>
<g clip-path="url(#clip0_152_962)">
<path d="M41.9244 58.3805C41.6424 57.2471 41.3604 56.114 41.0784 54.9814C39.4571 48.4563 37.8328 41.9316 36.2056 35.4073C36.1032 34.9996 36.2056 34.9593 36.5636 34.9593C40.1797 34.9705 43.7946 34.9593 47.4096 34.9671C47.62 34.9671 47.8788 34.8697 47.7709 35.3031C45.8617 42.9519 43.9576 50.6018 42.0587 58.2528C42.0462 58.2937 42.0304 58.3334 42.0114 58.3716L41.9244 58.3805Z" fill="white"/>
<path d="M60.3962 34.9861L43.0594 58.2247C42.9768 58.0769 43.0385 57.9772 43.0594 57.8775C44.926 50.3647 46.7911 42.8518 48.6548 35.3389C48.7198 35.0746 48.8057 34.9603 49.0954 34.9614C52.7551 34.9719 56.4145 34.9741 60.0735 34.9681C60.1517 34.9693 60.2222 34.976 60.3962 34.9861Z" fill="white"/>
<path d="M23.543 34.9683H24.0276C27.6147 34.9683 31.2021 34.9683 34.7899 34.9683C35.0631 34.9683 35.2139 35.0041 35.2944 35.3267C37.1661 42.8963 39.0452 50.4644 40.9316 58.0311C40.943 58.121 40.9485 58.2115 40.9481 58.3021L23.543 34.9683Z" fill="white"/>
<path d="M34.6853 34.0736H34.1963C30.795 34.0736 27.3937 34.0736 23.9924 34.0736C23.8548 34.0736 23.662 34.1464 23.5904 34.0232C23.5045 33.8686 23.6917 33.7466 23.7733 33.6222C25.4717 31.0216 27.1716 28.4221 28.873 25.8238C29.0162 25.5998 29.0933 25.4878 29.2948 25.7946C31.0447 28.4826 32.8022 31.1657 34.5675 33.844C34.5994 33.8922 34.6214 33.9437 34.6853 34.0736Z" fill="white"/>
<path d="M49.2559 34.04C51.1349 31.1762 52.9843 28.3594 54.8623 25.4956L60.4609 34.04H49.2559Z" fill="white"/>
<path d="M29.9531 25.1562H41.0701C41.0855 25.3209 40.9765 25.4094 40.9082 25.5124C39.202 28.1231 37.4871 30.7293 35.7875 33.3445C35.587 33.6525 35.4967 33.6637 35.2908 33.3445C33.5978 30.7416 31.8895 28.1489 30.1877 25.5527C30.1117 25.4385 30.0467 25.3153 29.9531 25.1562Z" fill="white"/>
<path d="M48.4145 33.7096L42.8125 25.1562H54.0231L48.4145 33.7096Z" fill="white"/>
<path d="M36.3848 34.0342C36.5819 33.7306 36.7449 33.4742 36.9113 33.2233C38.5179 30.7705 40.1231 28.3166 41.7268 25.8616C41.9306 25.5458 42.0209 25.5491 42.2247 25.8616C43.9242 28.4779 45.6392 31.0841 47.3475 33.6948C47.4103 33.79 47.4665 33.8908 47.5535 34.0308L36.3848 34.0342Z" fill="white"/>
</g>
<defs>
<linearGradient id="paint0_linear_152_962" x1="3.5452" y1="15.4923" x2="84.2742" y2="21.0086" gradientUnits="userSpaceOnUse">
<stop stop-color="#E9038A"/>
<stop offset="1" stop-color="#0A6195"/>
</linearGradient>
<linearGradient id="paint1_linear_152_962" x1="42.2829" y1="65.1757" x2="42.2829" y2="82.6728" gradientUnits="userSpaceOnUse">
<stop stop-color="#A9A9A9"/>
<stop offset="1" stop-color="#3F4345"/>
</linearGradient>
<clipPath id="clip0_152_962">
<rect width="36.9174" height="33.2256" fill="white" transform="translate(23.543 25.155)"/>
</clipPath>
</defs>
</svg>
