<svg width="32" height="32" viewBox="0 0 32 32" fill="none" xmlns="http://www.w3.org/2000/svg">
<path d="M5.27686 27.3077C5.27685 27.6857 5.35139 28.0599 5.49619 28.409C5.641 28.7581 5.85323 29.0752 6.12074 29.3421C6.38825 29.6091 6.70578 29.8207 7.05517 29.9648C7.40455 30.1089 7.77892 30.1827 8.15686 30.1819H27.0252C27.1125 30.1819 27.1939 30.1761 27.2754 30.1703L27.1939 30.1644C26.3279 30.0751 25.5141 29.7077 24.8743 29.1172C24.2345 28.5267 23.8032 27.7449 23.6449 26.8888H5.31758C5.28849 27.0226 5.27686 27.1681 5.27686 27.3077ZM12.7206 12.9194C12.8093 12.8954 12.8876 12.8431 12.9436 12.7704C12.9996 12.6976 13.0302 12.6085 13.0307 12.5167V11.402H14.0012C14.2124 11.402 14.3573 11.4485 14.4492 11.5404C14.568 11.6481 14.6414 11.7968 14.6546 11.9564C14.6808 12.0751 14.6872 12.2066 14.6872 12.3457V12.5173C14.6872 12.636 14.7267 12.7413 14.8059 12.814C14.8469 12.8538 14.8955 12.8847 14.9488 12.9051C15.0021 12.9255 15.059 12.9349 15.116 12.9327C15.1516 12.9318 15.1871 12.9275 15.2219 12.9199C15.2949 12.9049 15.3617 12.8679 15.4133 12.814C15.4527 12.7753 15.484 12.7291 15.5054 12.6782C15.5269 12.6272 15.5381 12.5726 15.5384 12.5173V12.2602C15.5384 11.989 15.486 11.7121 15.3801 11.4351C15.3154 11.2624 15.2063 11.1099 15.0636 10.993C15.1753 10.9138 15.2748 10.8149 15.3539 10.702C15.4994 10.4914 15.5715 10.254 15.5715 9.9963C15.5715 9.79849 15.532 9.62045 15.4529 9.45521C15.3761 9.29874 15.2656 9.16124 15.1294 9.05259C14.8524 8.82219 14.437 8.7035 13.8959 8.7035H12.6019C12.5467 8.70381 12.492 8.71502 12.4411 8.73649C12.3902 8.75795 12.344 8.78925 12.3052 8.82859C12.2272 8.91025 12.1846 9.01939 12.1865 9.1323V12.5173C12.1856 12.5722 12.1956 12.6267 12.216 12.6776C12.2364 12.7286 12.2667 12.775 12.3052 12.814C12.4105 12.9199 12.5758 12.9519 12.7206 12.9194ZM13.0307 9.52154H13.8296C14.2648 9.52154 14.4632 9.60067 14.5487 9.66699C14.6674 9.75252 14.7203 9.87063 14.7203 10.0359C14.7203 10.0556 14.7203 10.076 14.7139 10.0888C14.7126 10.1572 14.6936 10.2241 14.659 10.2831C14.6244 10.342 14.5752 10.3912 14.5161 10.4257C14.3637 10.531 14.1397 10.5839 13.8622 10.5839H13.0307V9.52154ZM17.2047 12.9356C17.3164 12.9367 17.424 12.8934 17.5038 12.8152C17.5448 12.7765 17.5773 12.7298 17.5993 12.6779C17.6214 12.6261 17.6324 12.5702 17.6318 12.5138V9.10321C17.6322 9.04698 17.6214 8.99122 17.5999 8.93925C17.5784 8.88728 17.5467 8.84016 17.5067 8.80067C17.4259 8.72192 17.3174 8.67803 17.2045 8.67847C17.0917 8.67891 16.9835 8.72362 16.9033 8.803C16.8252 8.8833 16.7819 8.99118 16.7829 9.10321V12.5138C16.7821 12.5694 16.7925 12.6246 16.8134 12.6762C16.8343 12.7277 16.8654 12.7745 16.9047 12.8138C16.944 12.8532 16.9908 12.8842 17.0424 12.9051C17.0939 12.9261 17.1491 12.9364 17.2047 12.9356Z" fill="url(#paint0_linear_670_733)"/>
<path d="M29.859 26.6385C29.894 26.4814 29.9056 26.3127 29.9056 26.1439V1.81812H8.15723V4.79121C9.55941 3.63339 11.3456 2.93521 13.2889 2.93521C16.9369 2.93521 20.0263 5.36721 21.027 8.69521C21.219 8.73012 21.3994 8.77666 21.574 8.84066C21.7427 8.90466 21.8416 9.0443 21.8416 9.22466C21.8416 9.32357 21.8067 9.41666 21.7369 9.49812C21.638 9.6203 21.4983 9.67848 21.2947 9.59703C21.2714 9.58539 21.254 9.58539 21.2307 9.57957C21.3005 9.9403 21.3354 10.3127 21.3529 10.6908C21.51 10.7665 21.6496 10.8654 21.766 11.005C21.923 11.1796 21.9987 11.4181 21.9987 11.7148C21.9987 11.9534 21.9289 12.1745 21.7892 12.3665C21.6554 12.5585 21.4634 12.7098 21.219 12.8087C21.2016 12.8203 21.1841 12.8203 21.1667 12.8261C20.4045 16.0959 17.4372 19.1039 13.2889 19.1039C11.9332 19.1039 10.6241 18.7665 9.44304 18.1265L9.42559 18.1439C9.39068 18.685 9.22195 19.2087 8.91941 19.6508C8.77977 19.8428 8.54704 20.093 8.15723 20.4828V25.725H24.7681C24.7507 25.8588 24.739 25.9985 24.739 26.1439C24.739 27.6334 25.8678 28.8552 27.3165 29.0065C28.614 28.8727 29.6438 27.901 29.859 26.6385ZM26.3216 12.8145C26.2401 12.8959 26.1412 12.9367 26.0249 12.9367C25.8852 12.9367 25.763 12.8785 25.6874 12.7621L24.3841 11.1039L23.942 11.5519V12.5119C23.942 12.6283 23.8954 12.733 23.814 12.8145C23.651 12.9716 23.3718 12.9716 23.2147 12.8145C23.175 12.7748 23.1438 12.7276 23.1228 12.6756C23.1018 12.6237 23.0915 12.568 23.0925 12.5119V9.10248C23.0925 8.98612 23.1332 8.88721 23.2147 8.79993C23.2747 8.74133 23.3507 8.70166 23.4331 8.68585C23.5155 8.67005 23.6007 8.67881 23.6782 8.71104C23.7557 8.74327 23.822 8.79755 23.8689 8.86714C23.9158 8.93674 23.9412 9.01857 23.942 9.10248V10.4407L25.5361 8.81739C25.6758 8.64866 25.955 8.63121 26.1296 8.78248C26.211 8.85812 26.2518 8.95703 26.2518 9.06757C26.2518 9.21884 26.1936 9.31193 26.1412 9.3643L24.9718 10.5279L26.339 12.2501C26.4089 12.3316 26.438 12.4247 26.438 12.5178C26.4438 12.6283 26.403 12.733 26.3216 12.8145Z" fill="url(#paint1_linear_670_733)"/>
<path d="M2.64499 21.7222C2.81669 21.8947 3.02078 22.0316 3.24553 22.125C3.47028 22.2184 3.71127 22.2665 3.95466 22.2665C4.19805 22.2665 4.43904 22.2184 4.66379 22.125C4.88855 22.0316 5.09263 21.8947 5.26433 21.7222L6.58448 20.4026L6.92077 20.0727C7.1215 19.8679 7.80164 19.2076 7.95641 18.9906C8.21823 18.6112 8.31015 18.1353 8.24324 17.678L9.27132 16.6493C10.4426 17.4891 11.8476 17.9408 13.2888 17.941C17.2568 17.941 20.1973 14.5373 20.1973 11.2035C20.2043 11.1645 20.2043 11.1249 20.2043 11.0854V11.0196C20.2043 7.20757 17.1212 4.09717 13.2888 4.09717C9.61982 4.09717 6.60252 6.94808 6.37968 10.5967C6.37328 10.7357 6.3663 10.8742 6.3663 11.0191C6.3663 12.5574 6.86957 13.9642 7.70797 15.1058L6.70142 16.1123C6.38407 16.0636 6.05951 16.0981 5.75946 16.2124C5.62402 16.2649 5.49547 16.3336 5.37663 16.4172C5.17066 16.5405 5.18986 16.5638 3.96455 17.7763L2.67757 19.0697L2.64499 19.0959C2.45997 19.2809 2.3279 19.4857 2.23597 19.7161C1.92877 20.4119 2.15103 21.2463 2.64499 21.7222ZM13.2888 5.63491C13.996 5.63453 14.6963 5.77353 15.3497 6.04397C16.0032 6.3144 16.5969 6.71097 17.097 7.21101C17.5971 7.71104 17.9937 8.30473 18.2642 8.95814C18.5347 9.61155 18.6738 10.3119 18.6735 11.0191C18.6739 11.7263 18.5349 12.4267 18.2644 13.0802C17.9939 13.7336 17.5973 14.3274 17.0972 14.8275C16.5971 15.3276 16.0033 15.7242 15.3499 15.9947C14.6964 16.2652 13.996 16.4042 13.2888 16.4038C10.3203 16.4038 7.89764 14.0015 7.89764 11.0191C7.89764 8.04015 10.3168 5.63491 13.2888 5.63491ZM3.27161 20.2642C3.31468 20.1487 3.39232 20.0493 3.49394 19.9795C3.59555 19.9097 3.71621 19.873 3.83946 19.8743C4.00138 19.8754 4.15626 19.9407 4.27004 20.0559C4.38383 20.1711 4.44723 20.3268 4.4463 20.4887C4.4463 20.7965 4.18506 21.0956 3.83946 21.0956C3.38972 21.0956 3.10521 20.6307 3.27161 20.2642Z" fill="url(#paint2_linear_670_733)"/>
<defs>
<linearGradient id="paint0_linear_670_733" x1="6.09162" y1="12.6281" x2="27.4671" y2="14.1223" gradientUnits="userSpaceOnUse">
<stop stop-color="#E9038A"/>
<stop offset="1" stop-color="#0A6195"/>
</linearGradient>
<linearGradient id="paint1_linear_670_733" x1="8.96272" y1="6.8119" x2="30.1351" y2="7.96917" gradientUnits="userSpaceOnUse">
<stop stop-color="#E9038A"/>
<stop offset="1" stop-color="#0A6195"/>
</linearGradient>
<linearGradient id="paint2_linear_670_733" x1="2.76592" y1="7.43439" x2="20.3664" y2="8.63307" gradientUnits="userSpaceOnUse">
<stop stop-color="#E9038A"/>
<stop offset="1" stop-color="#0A6195"/>
</linearGradient>
</defs>
</svg>
