<svg width="48" height="48" viewBox="0 0 48 48" fill="none" xmlns="http://www.w3.org/2000/svg">
<g clip-path="url(#clip0_671_2139)">
<path d="M32.6994 43.3826C31.2591 42.7837 30.6397 41.865 30.6377 40.2878C30.6377 34.8988 30.6377 29.5095 30.6377 24.1198C30.6377 23.355 30.8119 22.6428 31.2713 22.0196C31.7429 21.3792 32.3745 21.0342 33.1893 21.0402C34.1418 21.0473 35.0952 21.0402 36.0486 21.0402C37.5541 21.0402 38.5279 21.8496 38.7989 23.3226C38.8515 23.6209 38.8767 23.9233 38.8743 24.2261C38.8743 29.5544 38.8743 34.8806 38.8743 40.2048C38.8743 40.9262 38.7378 41.606 38.3558 42.2282C37.9952 42.8181 37.4614 43.1722 36.8136 43.3796L32.6994 43.3826Z" fill="white"/>
<path d="M21.9484 43.3827C20.5081 42.7837 19.8888 41.8651 19.8867 40.2899C19.8867 36.8967 19.8867 33.5034 19.8867 30.1102C19.8867 29.3312 20.065 28.6088 20.5386 27.9785C21.0123 27.3483 21.6306 27.0184 22.4292 27.0235C23.3949 27.0235 24.3646 27.0235 25.3251 27.0235C26.8011 27.0235 27.7576 27.8045 28.0489 29.2492C28.1057 29.5337 28.1337 29.8232 28.1325 30.1132C28.1325 33.5071 28.1325 36.9007 28.1325 40.2939C28.1467 40.9655 27.9747 41.628 27.6354 42.2091C27.2738 42.8161 26.7319 43.1783 26.0687 43.3857L21.9484 43.3827Z" fill="white"/>
<path d="M11.4254 43.3826C9.91992 42.8646 9.3882 41.7123 9.37495 40.2463C9.35968 38.5325 9.37495 36.8177 9.37495 35.1028C9.37495 34.341 9.54608 33.6258 10.0055 33.0015C10.4649 32.3773 11.0964 32.0071 11.9154 32.0162C12.8933 32.0263 13.8701 32.0162 14.848 32.0162C16.2741 32.0162 17.2021 32.7577 17.525 34.1498C17.594 34.4703 17.6261 34.7975 17.6207 35.1251C17.6207 36.845 17.6207 38.5548 17.6207 40.2696C17.6371 40.9027 17.4906 41.5295 17.1949 42.0906C16.8313 42.7584 16.268 43.1732 15.5437 43.3876L11.4254 43.3826Z" fill="white"/>
<path d="M16.4156 25.2077C14.0648 25.1794 11.7235 24.9044 9.43089 24.3872C8.86148 24.2607 8.60784 23.7488 8.88287 23.3138C9.06011 23.0325 9.33005 22.9779 9.64379 22.9911C12.3395 23.1014 15.0353 22.7737 17.6247 22.0208C23.8057 20.2362 28.3528 16.5121 31.153 10.7252C31.2966 10.4298 31.2712 10.3044 30.9585 10.1708C30.33 9.9017 29.7229 9.58403 29.1046 9.29064C28.799 9.14495 28.5728 8.9416 28.582 8.57435C28.5912 8.20711 28.8234 8.01792 29.1392 7.88539C31.628 6.83794 34.1152 5.78949 36.6006 4.74002C37.277 4.45573 37.6702 4.67223 37.7934 5.39661C38.265 8.16866 38.7306 10.9407 39.2083 13.7118C39.2663 14.0456 39.2083 14.3188 38.9282 14.513C38.648 14.7073 38.3557 14.6648 38.0715 14.4938C37.4532 14.1205 36.8237 13.7644 36.2146 13.3809C35.9579 13.217 35.8315 13.2261 35.6625 13.5054C34.4401 15.5075 33.068 17.3953 31.4311 19.0869C28.307 22.3173 24.532 24.3073 20.0612 24.9618C18.8544 25.1383 17.6354 25.2205 16.4156 25.2077Z" fill="white"/>
</g>
<defs>
<clipPath id="clip0_671_2139">
<rect width="30.4568" height="38.7632" fill="white" transform="translate(8.77148 4.61841)"/>
</clipPath>
</defs>
</svg>
