<svg width="191" height="64" viewBox="0 0 191 64" fill="none" xmlns="http://www.w3.org/2000/svg">
<path d="M16.3125 0.5H174.438L190.25 17.75H0.5L16.3125 0.5Z" fill="#9295BB"/>
<path d="M17.5 0.5H175L147.609 63.5H44.8913L17.5 0.5Z" fill="url(#paint0_linear_793_612)"/>
<g clip-path="url(#clip0_793_612)">
<path d="M102.699 51.3826C101.259 50.7837 100.64 49.865 100.638 48.2878C100.638 42.8988 100.638 37.5095 100.638 32.1198C100.638 31.355 100.812 30.6428 101.271 30.0196C101.743 29.3792 102.374 29.0342 103.189 29.0402C104.142 29.0473 105.095 29.0402 106.049 29.0402C107.554 29.0402 108.528 29.8496 108.799 31.3226C108.851 31.6209 108.877 31.9233 108.874 32.2261C108.874 37.5544 108.874 42.8806 108.874 48.2048C108.874 48.9262 108.738 49.606 108.356 50.2282C107.995 50.8181 107.461 51.1722 106.814 51.3796L102.699 51.3826Z" fill="white"/>
<path d="M91.9484 51.3827C90.5081 50.7837 89.8888 49.8651 89.8867 48.2899C89.8867 44.8967 89.8867 41.5034 89.8867 38.1102C89.8867 37.3312 90.065 36.6088 90.5386 35.9785C91.0123 35.3483 91.6306 35.0184 92.4292 35.0235C93.3949 35.0235 94.3646 35.0235 95.3251 35.0235C96.8011 35.0235 97.7576 35.8045 98.0489 37.2492C98.1057 37.5337 98.1337 37.8232 98.1325 38.1132C98.1325 41.5071 98.1325 44.9007 98.1325 48.2939C98.1467 48.9655 97.9747 49.628 97.6354 50.2091C97.2738 50.8161 96.7319 51.1783 96.0687 51.3857L91.9484 51.3827Z" fill="white"/>
<path d="M81.4254 51.3826C79.9199 50.8646 79.3882 49.7123 79.375 48.2463C79.3597 46.5325 79.375 44.8177 79.375 43.1028C79.375 42.341 79.5461 41.6258 80.0055 41.0015C80.4649 40.3773 81.0964 40.0071 81.9154 40.0162C82.8933 40.0263 83.8701 40.0162 84.848 40.0162C86.2741 40.0162 87.2021 40.7577 87.525 42.1498C87.594 42.4703 87.6261 42.7975 87.6207 43.1251C87.6207 44.845 87.6207 46.5548 87.6207 48.2696C87.6371 48.9027 87.4906 49.5295 87.1949 50.0906C86.8313 50.7584 86.268 51.1732 85.5437 51.3876L81.4254 51.3826Z" fill="white"/>
<path d="M86.4156 33.2077C84.0648 33.1794 81.7235 32.9044 79.4309 32.3872C78.8615 32.2607 78.6078 31.7488 78.8829 31.3138C79.0601 31.0325 79.3301 30.9779 79.6438 30.9911C82.3395 31.1014 85.0353 30.7737 87.6247 30.0208C93.8057 28.2362 98.3528 24.5121 101.153 18.7252C101.297 18.4298 101.271 18.3044 100.958 18.1708C100.33 17.9017 99.7229 17.584 99.1046 17.2906C98.799 17.145 98.5728 16.9416 98.582 16.5744C98.5912 16.2071 98.8234 16.0179 99.1392 15.8854C101.628 14.8379 104.115 13.7895 106.601 12.74C107.277 12.4557 107.67 12.6722 107.793 13.3966C108.265 16.1687 108.731 18.9407 109.208 21.7118C109.266 22.0456 109.208 22.3188 108.928 22.513C108.648 22.7073 108.356 22.6648 108.072 22.4938C107.453 22.1205 106.824 21.7644 106.215 21.3809C105.958 21.217 105.832 21.2261 105.662 21.5054C104.44 23.5075 103.068 25.3953 101.431 27.0869C98.307 30.3173 94.532 32.3073 90.0612 32.9618C88.8544 33.1383 87.6354 33.2205 86.4156 33.2077Z" fill="white"/>
</g>
<defs>
<linearGradient id="paint0_linear_793_612" x1="23.3333" y1="12.0714" x2="172.76" y2="37.5979" gradientUnits="userSpaceOnUse">
<stop stop-color="#E9038A"/>
<stop offset="1" stop-color="#0A6195"/>
</linearGradient>
<clipPath id="clip0_793_612">
<rect width="30.4568" height="38.7632" fill="white" transform="translate(78.7715 12.6184)"/>
</clipPath>
</defs>
</svg>
