<svg width="257" height="269" viewBox="0 0 257 269" fill="none" xmlns="http://www.w3.org/2000/svg">
<g clip-path="url(#clip0_153_3100)">
<path d="M79.6586 115.103C106.156 105.857 120.048 76.4789 110.688 49.4852C101.328 22.4914 72.2599 8.10408 45.7627 17.3501C19.2655 26.5962 5.37313 55.9743 14.7332 82.968C24.0933 109.962 53.1614 124.349 79.6586 115.103Z" fill="#EBEBEB"/>
<path d="M75.9303 104.357C96.5977 97.1451 107.433 74.23 100.132 53.1745C92.8313 32.119 70.1584 20.8965 49.4911 28.1082C28.8237 35.32 17.9881 58.2351 25.2891 79.2906C32.5901 100.346 55.2629 111.569 75.9303 104.357Z" fill="white"/>
<path d="M34.1247 65.7551C34.0239 81.8225 46.7484 95.0157 62.5517 95.2775C78.355 95.5393 91.2515 82.739 91.3583 66.7132C91.465 50.6874 78.7346 37.4467 62.9313 37.1908C47.128 36.9349 34.2019 49.7115 34.1247 65.7551Z" fill="#EBEBEB"/>
<path d="M68.5188 82.9532C77.5915 79.7874 82.3488 69.7296 79.1444 60.4885C75.9401 51.2474 65.9875 46.3225 56.9148 49.4884C47.8421 52.6543 43.0848 62.7121 46.2892 71.9531C49.4935 81.1942 59.446 86.1191 68.5188 82.9532Z" fill="white"/>
<path d="M54.9585 66.0946C54.9361 68.1781 55.7329 70.1865 57.1764 71.6847C58.6199 73.1829 60.5938 74.0501 62.6703 74.0985C63.691 74.1111 64.704 73.9203 65.6506 73.5372C66.5972 73.1541 67.4586 72.5862 68.1848 71.8666C68.911 71.147 69.4876 70.2899 69.881 69.345C70.2745 68.4002 70.4771 67.3863 70.477 66.3624C70.4978 64.2799 69.7003 62.273 68.2569 60.7761C66.8136 59.2792 64.8406 58.4128 62.7652 58.3644C61.745 58.3518 60.7325 58.5424 59.7862 58.9251C58.84 59.3079 57.9789 59.8752 57.2528 60.5942C56.5267 61.3132 55.95 62.1696 55.5562 63.1137C55.1623 64.0579 54.9592 65.0711 54.9585 66.0946Z" fill="#EBEBEB"/>
<path d="M138.277 26.4911L63.6836 65.6106L64.0904 66.3911L138.683 27.2717L138.277 26.4911Z" fill="#C7C7C7"/>
<path d="M141.829 28.6396L141.639 28.5623L138.223 27.503L144.956 23.9741L148.604 25.0869L141.829 28.6396Z" fill="#C7C7C7"/>
<path d="M145.768 19.6482L144.552 23.2187L137.819 26.7357C138.349 25.5948 138.747 24.3969 139.005 23.1652L145.768 19.6482Z" fill="#C7C7C7"/>
<path d="M62.0529 65.357L63.4588 67.8862L67.202 67.5648L64.7461 65.5475L64.4969 62.3816L62.0529 65.357Z" fill="#C7C7C7"/>
<path d="M52.5853 49.3366L19.988 21.2126L19.4008 21.8613L51.998 49.9852L52.5853 49.3366Z" fill="#C7C7C7"/>
<path d="M20.1839 17.7738L20.178 17.9821L20.3619 21.5646L14.7382 16.4408L14.5247 12.6204L20.1839 17.7738Z" fill="#C7C7C7"/>
<path d="M10.3959 17.1661L14.145 17.0828L19.7687 22.2065C18.5251 22.0976 17.2732 22.1316 16.0374 22.3077L10.3959 17.1661Z" fill="#C7C7C7"/>
<path d="M52.3191 51.6105L54.2056 49.4146L52.6157 45.9988L51.5717 49.0099L48.6946 50.337L52.3191 51.6105Z" fill="#C7C7C7"/>
<path d="M74.6475 188.82C74.6508 190.987 74.1035 193.12 73.0572 195.016C72.011 196.912 70.5003 198.509 68.6679 199.657H55.1069C53.2262 198.473 51.6858 196.818 50.638 194.855C49.5902 192.891 49.0711 190.687 49.1321 188.461C49.1932 186.235 49.8322 184.063 50.986 182.16C52.1398 180.258 53.7686 178.69 55.7113 177.612C57.654 176.534 59.8435 175.983 62.0634 176.014C64.2832 176.045 66.4567 176.656 68.3691 177.787C70.2814 178.918 71.8664 180.531 72.9675 182.465C74.0686 184.398 74.6477 186.587 74.6475 188.814V188.82Z" fill="#EBEBEB"/>
<path d="M75.4302 199.656H48.3677V203.572H75.4302V199.656Z" fill="#EBEBEB"/>
<path d="M89.2943 253.542H34.4811V257.458H89.2943V253.542Z" fill="#DBDBDB"/>
<path d="M89.2943 264.516H34.4811V268.432H89.2943V264.516Z" fill="#DBDBDB"/>
<path d="M87.2532 257.458H36.5214V264.516H87.2532V257.458Z" fill="#EBEBEB"/>
<path d="M72.9384 203.572H50.8589V207.488H72.9384V203.572Z" fill="#DBDBDB"/>
<path d="M84.3049 253.542H39.4636C39.4636 253.542 49.6907 243.288 51.8322 231C53.6118 220.639 54.4839 207.494 54.4839 207.494H69.3143C69.3143 207.494 70.1863 220.639 71.9838 231C74.0778 243.264 84.3049 253.542 84.3049 253.542Z" fill="#EBEBEB"/>
<path d="M235.13 188.82C235.133 190.988 234.585 193.12 233.537 195.016C232.49 196.913 230.978 198.51 229.145 199.657H215.584C213.704 198.472 212.165 196.817 211.118 194.853C210.071 192.89 209.553 190.686 209.615 188.461C209.677 186.235 210.316 184.064 211.47 182.162C212.624 180.26 214.253 178.692 216.195 177.615C218.138 176.537 220.327 175.987 222.546 176.018C224.766 176.048 226.939 176.659 228.851 177.79C230.763 178.921 232.348 180.533 233.449 182.466C234.55 184.399 235.13 186.587 235.13 188.814V188.82Z" fill="#EBEBEB"/>
<path d="M235.907 199.656H208.845V203.572H235.907V199.656Z" fill="#EBEBEB"/>
<path d="M249.777 253.542H194.964V257.458H249.777V253.542Z" fill="#DBDBDB"/>
<path d="M249.777 264.516H194.964V268.432H249.777V264.516Z" fill="#DBDBDB"/>
<path d="M247.736 257.458H197.004V264.516H247.736V257.458Z" fill="#EBEBEB"/>
<path d="M233.416 203.572H211.336V207.488H233.416V203.572Z" fill="#DBDBDB"/>
<path d="M244.788 253.542H199.947C199.947 253.542 210.168 243.288 212.309 231C214.089 220.639 214.967 207.494 214.967 207.494H229.768C229.768 207.494 230.64 220.639 232.437 231C234.561 243.264 244.788 253.542 244.788 253.542Z" fill="#EBEBEB"/>
<path d="M12.259 161.678C12.4904 161.533 12.7575 161.457 13.0301 161.457C13.3027 161.457 13.5699 161.533 13.8013 161.678L14.1988 161.904L14.6081 162.112C14.8556 162.225 15.0671 162.404 15.219 162.63C15.3709 162.856 15.4572 163.119 15.4683 163.392L15.5276 165.296L21.7208 165.106L21.6614 163.201C21.6548 162.927 21.7238 162.656 21.861 162.419C21.9981 162.182 22.198 161.987 22.4386 161.856C22.7103 161.711 22.9737 161.55 23.2275 161.374C23.449 161.216 23.7101 161.123 23.9814 161.105C24.2528 161.087 24.5237 161.145 24.764 161.273L26.4131 162.184L29.3377 156.709L27.6945 155.787C27.4546 155.657 27.2554 155.464 27.1192 155.227C26.9829 154.991 26.9151 154.721 26.9233 154.448C26.9233 154.138 26.9233 153.852 26.9233 153.525C26.9003 153.256 26.9512 152.986 27.0704 152.743C27.1896 152.501 27.3726 152.296 27.5995 152.151L29.2131 151.145L25.9504 145.866L24.3013 146.86C24.071 147.005 23.8047 147.082 23.533 147.082C23.2613 147.082 22.9951 147.005 22.7648 146.86C22.6343 146.783 22.5038 146.705 22.3674 146.634L21.958 146.432C21.7056 146.322 21.489 146.143 21.3328 145.916C21.1765 145.689 21.0869 145.422 21.0742 145.146L21.0148 143.236L14.8217 143.427L14.881 145.331C14.8885 145.604 14.8203 145.873 14.6842 146.11C14.5481 146.346 14.3492 146.54 14.1098 146.67C13.8369 146.819 13.5759 146.985 13.3208 147.158C13.0981 147.316 12.8361 147.409 12.5639 147.427C12.2916 147.445 12.0198 147.387 11.7785 147.259L10.1115 146.36L7.18103 151.841L8.8539 152.74C9.09221 152.87 9.28985 153.064 9.42491 153.301C9.55998 153.537 9.6272 153.806 9.61915 154.079C9.61915 154.388 9.61915 154.674 9.64881 155.007C9.67358 155.274 9.6254 155.544 9.50941 155.786C9.39343 156.028 9.214 156.234 8.99034 156.382L7.37679 157.381L10.6454 162.666L12.259 161.678ZM13.8073 151.865C14.2819 150.977 15.0083 150.25 15.8946 149.777C16.7809 149.303 17.7873 149.103 18.7866 149.203C19.786 149.304 20.7333 149.699 21.5088 150.339C22.2843 150.979 22.8531 151.835 23.1435 152.8C23.4338 153.764 23.4325 154.793 23.1398 155.757C22.8471 156.721 22.2761 157.576 21.4991 158.214C20.722 158.852 19.7737 159.245 18.7742 159.342C17.7746 159.44 16.7687 159.238 15.8835 158.762C15.2957 158.446 14.7757 158.017 14.3532 157.499C13.9307 156.981 13.614 156.385 13.4212 155.745C13.2284 155.104 13.1633 154.432 13.2295 153.766C13.2958 153.101 13.4921 152.454 13.8073 151.865Z" fill="#DBDBDB"/>
<path d="M211.046 138.232C211.21 138.33 211.344 138.473 211.433 138.643C211.521 138.813 211.562 139.004 211.55 139.196C211.55 139.303 211.55 139.41 211.55 139.517C211.55 139.624 211.55 139.731 211.55 139.838C211.562 140.029 211.522 140.22 211.433 140.389C211.344 140.558 211.21 140.699 211.046 140.796L209.895 141.463L212.06 145.236L213.217 144.569C213.382 144.474 213.571 144.427 213.762 144.433C213.953 144.439 214.138 144.499 214.297 144.605C214.475 144.724 214.664 144.831 214.854 144.932C215.028 145.014 215.176 145.144 215.281 145.306C215.386 145.467 215.444 145.656 215.447 145.849V147.182H219.784V145.849C219.788 145.656 219.846 145.468 219.951 145.306C220.056 145.144 220.203 145.015 220.377 144.932C220.573 144.831 220.757 144.724 220.97 144.605C221.129 144.499 221.314 144.439 221.505 144.433C221.696 144.427 221.884 144.474 222.05 144.569L223.207 145.236L225.372 141.463L224.215 140.79C224.052 140.694 223.918 140.554 223.829 140.386C223.74 140.218 223.699 140.028 223.711 139.838C223.711 139.731 223.711 139.624 223.711 139.517C223.711 139.41 223.711 139.303 223.711 139.196C223.698 139.005 223.738 138.814 223.827 138.645C223.916 138.475 224.051 138.334 224.215 138.237L225.372 137.565L223.207 133.798L222.056 134.465C221.889 134.56 221.7 134.607 221.508 134.601C221.316 134.594 221.13 134.535 220.97 134.429C220.791 134.308 220.605 134.199 220.413 134.102C220.238 134.019 220.089 133.889 219.984 133.726C219.879 133.563 219.822 133.373 219.819 133.179V131.846H215.483V133.173C215.48 133.367 215.423 133.557 215.318 133.72C215.213 133.883 215.065 134.013 214.89 134.096C214.697 134.193 214.511 134.302 214.332 134.423C214.172 134.529 213.986 134.588 213.794 134.595C213.603 134.601 213.413 134.554 213.247 134.459L212.09 133.798L209.925 137.565L211.046 138.232ZM217.571 135.946C218.275 135.946 218.963 136.156 219.549 136.548C220.134 136.94 220.59 137.498 220.859 138.151C221.129 138.803 221.199 139.521 221.062 140.213C220.925 140.906 220.586 141.542 220.088 142.042C219.59 142.541 218.956 142.881 218.266 143.019C217.575 143.157 216.859 143.086 216.209 142.816C215.559 142.545 215.003 142.088 214.612 141.501C214.221 140.913 214.012 140.223 214.012 139.517C214.012 139.046 214.105 138.58 214.285 138.145C214.465 137.71 214.73 137.316 215.063 136.984C215.396 136.652 215.791 136.389 216.225 136.211C216.66 136.033 217.125 135.943 217.595 135.946H217.571Z" fill="#DBDBDB"/>
<path d="M212.819 95.427C212.819 99.2854 213.959 103.057 216.096 106.265C218.233 109.473 221.271 111.973 224.824 113.45C228.378 114.926 232.288 115.312 236.06 114.559C239.833 113.806 243.297 111.947 246.017 109.218C248.736 106.49 250.588 103.013 251.337 99.229C252.087 95.4446 251.701 91.5222 250.228 87.9578C248.755 84.3935 246.262 81.3473 243.064 79.2046C239.865 77.0618 236.105 75.9187 232.259 75.9199C227.102 75.9215 222.158 77.9774 218.512 81.6355C214.867 85.2936 212.819 90.2544 212.819 95.427ZM223.182 95.427C223.181 93.6245 223.713 91.8622 224.71 90.363C225.708 88.8638 227.126 87.6952 228.786 87.0049C230.446 86.3145 232.273 86.1336 234.035 86.485C235.797 86.8363 237.416 87.7042 238.687 88.9787C239.957 90.2532 240.822 91.8772 241.172 93.645C241.523 95.4129 241.342 97.2453 240.654 98.9103C239.966 100.575 238.801 101.998 237.307 102.999C235.812 104 234.055 104.533 232.259 104.532C229.851 104.532 227.543 103.573 225.841 101.865C224.139 100.158 223.182 97.8417 223.182 95.427Z" fill="#EBEBEB"/>
<path d="M228.528 76.723H236.002L235.593 71.4148H228.937L228.528 76.723Z" fill="#EBEBEB"/>
<path d="M242.759 79.2518L248.045 84.56L251.497 80.5074L246.793 75.7883L242.759 79.2518Z" fill="#EBEBEB"/>
<path d="M251.04 91.1362V98.6403L256.338 98.2237V91.5528L251.04 91.1362Z" fill="#EBEBEB"/>
<path d="M248.525 105.418L243.234 110.72L247.274 114.184L251.972 109.465L248.525 105.418Z" fill="#EBEBEB"/>
<path d="M236.678 113.726H229.198L229.613 119.034H236.263L236.678 113.726Z" fill="#EBEBEB"/>
<path d="M222.441 111.197L217.156 105.895L213.703 109.941L218.407 114.66L222.441 111.197Z" fill="#EBEBEB"/>
<path d="M214.16 99.3126V91.8145L208.869 92.2251V98.902L214.16 99.3126Z" fill="#EBEBEB"/>
<path d="M216.681 85.0364L221.966 79.7282L217.933 76.2708L213.228 80.9839L216.681 85.0364Z" fill="#EBEBEB"/>
<path d="M2.31067 268.431C82.739 268.068 172.967 268.062 253.395 268.431C172.967 268.794 82.739 268.794 2.31067 268.431Z" fill="#263238"/>
<path d="M170.624 233.625H63.8153V237.481H170.624V233.625Z" fill="url(#paint0_linear_153_3100)"/>
<path opacity="0.1" d="M170.624 233.625H63.8153V237.481H170.624V233.625Z" fill="black"/>
<path d="M170.624 258.369H63.8153V262.225H170.624V258.369Z" fill="url(#paint1_linear_153_3100)"/>
<path opacity="0.1" d="M170.624 258.369H63.8153V262.225H170.624V258.369Z" fill="black"/>
<path opacity="0.1" d="M170.624 260.88H63.8153V262.225H170.624V260.88Z" fill="black"/>
<path d="M174.166 262.225H60.274V268.425H174.166V262.225Z" fill="url(#paint2_linear_153_3100)"/>
<path opacity="0.1" d="M174.166 262.225H60.274V268.425H174.166V262.225Z" fill="black"/>
<path d="M165.343 237.481H69.0881V258.363H165.343V237.481Z" fill="url(#paint3_linear_153_3100)"/>
<path opacity="0.1" d="M165.343 237.481H69.0881V258.363H165.343V237.481Z" fill="black"/>
<path opacity="0.1" d="M165.343 237.481H69.0881V242.48H165.343V237.481Z" fill="black"/>
<path opacity="0.1" d="M165.343 253.37H69.0881V258.368H165.343V253.37Z" fill="black"/>
<path d="M95.362 131.799C95.362 131.799 88.8367 123.408 89.0858 122.539C89.335 121.67 105.904 114.095 116.071 116.392C126.239 118.689 155.105 133.054 160.788 156.061C166.471 179.067 149.926 211.999 149.517 219.652C149.304 224.426 150.113 229.19 151.89 233.625H143.478C143.478 233.625 138.981 225.014 141.781 212.16C144.581 199.306 151.866 174.961 148.657 161.684C145.447 148.408 123.54 130.698 117.003 128.312C110.465 125.925 95.362 131.799 95.362 131.799Z" fill="url(#paint4_linear_153_3100)"/>
<path opacity="0.3" d="M95.362 131.799C95.362 131.799 88.8367 123.408 89.0858 122.539C89.335 121.67 105.904 114.095 116.071 116.392C126.239 118.689 155.105 133.054 160.788 156.061C166.471 179.067 149.926 211.999 149.517 219.652C149.304 224.426 150.113 229.19 151.89 233.625H143.478C143.478 233.625 138.981 225.014 141.781 212.16C144.581 199.306 151.866 174.961 148.657 161.684C145.447 148.408 123.54 130.698 117.003 128.312C110.465 125.925 95.362 131.799 95.362 131.799Z" fill="black"/>
<path d="M148.064 233.625H79.506C79.506 233.625 79.506 215.802 86.2924 204.567C93.0788 193.331 109.368 181.757 112.649 176.419C114.609 173.228 115.491 169.488 115.164 165.755C115.164 165.755 111.35 171.813 102.576 174.086C97.7695 175.266 92.7312 175.089 88.0186 173.574C88.0186 173.574 76.5577 177.317 75.7628 178.115C74.9679 178.912 72.3696 181.162 70.3289 181.275C68.2883 181.388 61.8875 174.443 61.8875 168.314C61.8875 165.279 83.6822 144.159 83.6822 144.159C83.6822 144.159 86.6483 137.125 87.4195 135.536C88.1907 133.947 108.348 124.301 113.669 124.64C118.99 124.979 142.334 137.952 150.099 154.829C157.567 171.063 149.506 196.902 146.706 208.119C142.63 224.49 148.064 233.625 148.064 233.625Z" fill="url(#paint5_linear_153_3100)"/>
<path opacity="0.1" d="M148.064 233.625H79.506C79.506 233.625 79.506 215.802 86.2924 204.567C93.0788 193.331 109.368 181.757 112.649 176.419C114.609 173.228 115.491 169.488 115.164 165.755C115.164 165.755 111.35 171.813 102.576 174.086C97.7695 175.266 92.7312 175.089 88.0186 173.574C88.0186 173.574 76.5577 177.317 75.7628 178.115C74.9679 178.912 72.3696 181.162 70.3289 181.275C68.2883 181.388 61.8875 174.443 61.8875 168.314C61.8875 165.279 83.6822 144.159 83.6822 144.159C83.6822 144.159 86.6483 137.125 87.4195 135.536C88.1907 133.947 108.348 124.301 113.669 124.64C118.99 124.979 142.334 137.952 150.099 154.829C157.567 171.063 149.506 196.902 146.706 208.119C142.63 224.49 148.064 233.625 148.064 233.625Z" fill="black"/>
<path opacity="0.1" d="M87.0159 154.275L98.5717 147.926C98.5717 147.926 94.3302 146.932 91.7438 148.092C89.1574 149.253 87.0159 154.275 87.0159 154.275Z" fill="black"/>
<path d="M104.955 133.061C104.955 133.061 95.4989 117.588 95.3624 115.869C95.2794 114.762 108.52 117.654 112.079 120.123C115.639 122.593 122.514 130.198 122.514 130.198L104.955 133.061Z" fill="url(#paint6_linear_153_3100)"/>
<path opacity="0.1" d="M104.955 133.061C104.955 133.061 95.4989 117.588 95.3624 115.869C95.2794 114.762 108.52 117.654 112.079 120.123C115.639 122.593 122.514 130.198 122.514 130.198L104.955 133.061Z" fill="black"/>
<path opacity="0.1" d="M99.574 119.064C99.574 119.064 106.159 121.022 107.452 122.539C108.745 124.057 111.349 128.597 111.349 128.597" fill="black"/>
<path opacity="0.1" d="M115.164 165.755C115.164 165.755 111.344 171.813 102.576 174.086C97.7695 175.266 92.7312 175.089 88.0187 173.574C88.0187 173.574 76.5518 177.318 75.7628 178.115C74.9738 178.912 72.3696 181.162 70.329 181.275C68.8281 181.358 64.9366 177.585 63.0087 173.14C65.251 176.984 69.1247 179.025 70.4298 178.692C71.7349 178.359 73.5145 175.925 74.0366 175.461C74.5586 174.997 86.4407 168.838 87.0161 168.51C87.5916 168.183 94.3602 170.891 103.3 167.743C112.24 164.595 114.874 158.894 114.874 158.894C114.874 158.894 115.241 164.136 115.241 167.124C115.242 166.666 115.216 166.209 115.164 165.755Z" fill="black"/>
<path opacity="0.1" d="M148.064 233.624H79.5056C79.5056 233.624 79.5056 232.434 79.6243 230.447C79.6243 230.447 127.983 230.042 133.085 224.615C137.831 219.574 137.012 214.248 143.828 199.437C150.644 184.625 154.773 159.417 143.187 144.51C145.97 147.609 148.298 151.092 150.098 154.852C157.567 171.086 149.505 196.925 146.705 208.143C142.63 224.49 148.064 233.624 148.064 233.624Z" fill="black"/>
<g opacity="0.5">
<path d="M102.267 129.008C98.1146 131.71 93.7663 134.066 89.6138 136.697L89.5011 136.941C89.4121 137.119 88.9079 138.363 88.8249 138.577C88.5579 139.208 86.4994 144.367 86.2384 144.831C85.224 146.248 83.8656 147.331 82.6791 148.569C78.5266 152.609 74.2199 156.477 69.8716 160.334C74.3385 154.531 79.6478 149.414 84.6249 144.088C84.8206 143.683 86.9977 138.476 87.2706 137.922C87.3833 137.684 87.941 136.453 88.0537 136.244C88.1011 136.137 88.2138 135.941 88.2672 135.84C88.4107 135.664 88.5785 135.51 88.7655 135.381C93.1247 132.968 97.6346 130.839 102.267 129.008Z" fill="white"/>
<path d="M81.8491 224.395C83.5398 210.28 86.8915 202.674 97.4329 192.956C99.4143 191.171 101.686 189.309 103.828 187.755C101.069 190.832 98.1922 193.706 95.5584 196.842C94.4253 198.14 93.1855 199.675 92.1474 201.038C91.4474 202.008 90.4745 203.323 89.8575 204.352C85.7584 210.381 84.133 217.522 81.8491 224.395Z" fill="white"/>
</g>
<g opacity="0.5">
<path d="M238.339 23.7603C237.248 37.2689 226.018 41.3274 226.018 41.3274C225.193 43.3804 224.108 48.6053 224.108 48.6053H209.129C209.129 48.6053 208.061 43.3804 207.237 41.3214C207.237 41.3214 196.019 37.2391 194.963 23.7187C194.228 14.3103 200.907 0.468506 216.598 0.468506H216.764C232.454 0.468506 239.098 14.3698 238.339 23.7603Z" fill="url(#paint7_linear_153_3100)"/>
</g>
<g opacity="0.7">
<path d="M236.489 23.8261C236.285 27.2908 235.123 30.6298 233.131 33.4682C231.14 36.3065 228.4 38.5316 225.218 39.8935C224.458 41.774 223.468 48.6056 223.468 48.6056H209.764C209.764 48.6056 208.785 41.774 208.038 39.8935C204.86 38.5212 202.125 36.2875 200.142 33.4431C198.158 30.5987 197.004 27.2561 196.808 23.7904C196.132 15.2033 202.248 2.51594 216.598 2.52784H216.746C231.102 2.53379 237.183 15.239 236.489 23.8261Z" fill="url(#paint8_linear_153_3100)"/>
</g>
<path d="M208.373 26.4959L207.146 26.7219L211.466 50.3119L212.692 50.0859L208.373 26.4959Z" fill="white"/>
<path d="M224.086 26.1059L219.66 49.7642L220.89 49.9958L225.317 26.3375L224.086 26.1059Z" fill="white"/>
<path d="M216.639 34.0964C215.305 34.0964 214.077 32.8646 213.205 31.2817C213.051 31.4761 212.859 31.6362 212.64 31.752C212.422 31.8678 212.182 31.9366 211.935 31.9541C209.699 31.9541 208.809 27.3422 208.773 27.1458L209.183 27.0684C209.183 27.1101 210.043 31.5316 211.935 31.5316C212.148 31.5048 212.353 31.4319 212.536 31.3178C212.718 31.2038 212.873 31.0513 212.991 30.8711C212.325 29.5616 211.954 28.1211 211.905 26.6519C211.905 25.3546 212.398 24.6107 213.252 24.6107C214.243 24.6107 214.806 25.4022 214.806 26.7828C214.765 28.2566 214.309 29.6886 213.489 30.9127C214.29 32.4481 215.423 33.662 216.639 33.662C217.743 33.662 218.716 32.6563 219.416 31.2817C219.213 31.0578 219.036 30.8123 218.888 30.5497C217.968 28.9489 217.784 26.5686 218.484 25.3546C218.595 25.1254 218.768 24.932 218.983 24.7963C219.198 24.6606 219.446 24.588 219.7 24.5869C220.519 24.5869 220.988 25.4022 220.982 26.8185C220.929 28.3364 220.565 29.8273 219.914 31.1984C220.307 31.579 220.832 31.7922 221.379 31.7935C222.726 31.7935 223.918 28.5562 224.268 27.3065L224.672 27.4195C224.535 27.9075 223.283 32.216 221.379 32.216C220.767 32.2142 220.176 31.9877 219.718 31.5792C218.977 33.0253 217.927 34.0964 216.639 34.0964ZM219.7 25.0511C219.52 25.0552 219.345 25.1097 219.194 25.2086C219.043 25.3074 218.922 25.4466 218.846 25.6105C218.217 26.6935 218.413 28.9251 219.255 30.3712C219.36 30.5571 219.479 30.7342 219.611 30.9008C220.203 29.6297 220.528 28.2504 220.566 26.8483C220.566 26.3008 220.483 25.063 219.7 25.063V25.0511ZM213.276 25.0451C212.505 25.0451 212.344 25.9318 212.344 26.6757C212.399 27.9987 212.722 29.2966 213.294 30.4902C213.983 29.3801 214.37 28.1078 214.415 26.8006C214.415 26.0032 214.219 25.0154 213.276 25.0154V25.0451Z" fill="white"/>
<path d="M226.008 48.6221L207.239 48.5991L207.226 58.9596L225.996 58.9826L226.008 48.6221Z" fill="#455A64"/>
<path d="M223.865 58.9834C222.756 60.9472 220.638 62.7027 216.604 62.6968C212.57 62.6908 210.452 60.9115 209.349 58.9656L223.865 58.9834Z" fill="#455A64"/>
<path d="M223.865 58.9833C223.537 59.5711 223.125 60.1083 222.643 60.5782L209.717 59.5665C209.581 59.3701 209.456 59.1678 209.344 58.9714L223.865 58.9833Z" fill="#37474F"/>
<path d="M226.553 50.6045L206.686 52.4195V51.515L226.553 49.7V50.6045Z" fill="#37474F"/>
<path d="M226.547 53.3362L206.68 55.1572V54.2526L226.547 52.4316V53.3362Z" fill="#37474F"/>
<path d="M226.547 56.0735L206.674 57.8885L206.68 56.9899L226.547 55.1689V56.0735Z" fill="#37474F"/>
<g opacity="0.5">
<path d="M199.691 20.5525C200.38 20.6655 201.275 17.1069 205.102 12.9889C206.798 11.1619 213.235 8.87681 212.778 6.76424C212.321 4.65167 206.573 6.81184 203.678 10.1681C199.039 15.5597 199.039 20.4453 199.691 20.5525Z" fill="white"/>
<path d="M233.547 21.3385C233.808 21.3385 234.058 21.2344 234.243 21.0492C234.427 20.8639 234.531 20.6126 234.531 20.3506C234.531 20.0886 234.427 19.8374 234.243 19.6521C234.058 19.4669 233.808 19.3628 233.547 19.3628C233.285 19.3628 233.035 19.4669 232.85 19.6521C232.666 19.8374 232.562 20.0886 232.562 20.3506C232.562 20.6126 232.666 20.8639 232.85 21.0492C233.035 21.2344 233.285 21.3385 233.547 21.3385Z" fill="white"/>
<path d="M227.335 36.1742C228.029 36.7039 231.393 33.5975 232.912 29.8901C234.169 26.8135 234.395 22.9216 233.546 22.6954C232.698 22.4693 232.146 27.8073 231.132 29.777C229.845 32.2526 226.6 35.5791 227.335 36.1742Z" fill="white"/>
</g>
<path d="M159.045 195.544C159.045 195.544 135.678 212.915 135.666 212.915C131.514 216.658 127.895 220.014 126.175 221.925C126.162 221.931 126.152 221.942 126.145 221.954C125.702 222.36 125.355 222.86 125.13 223.418C125.13 223.418 125.13 223.454 125.13 223.466C125.397 225.471 154.246 259.808 155.657 260.671C157.069 261.534 159.614 257.57 159.555 255.315C159.496 253.06 154.305 234.975 154.305 234.975L177.47 217.402L159.045 195.544Z" fill="#EB9481"/>
<path d="M155.141 260.296C153.741 259.439 125.415 225.489 125.148 223.496C125.145 223.478 125.145 223.46 125.148 223.442C125.148 223.204 125.528 222.698 126.163 221.978C126.169 221.966 126.18 221.955 126.192 221.949C127.889 220.038 131.484 216.682 135.684 212.933C135.684 212.933 139.688 209.862 141.189 208.845L159.217 231.411L154.352 235.029C154.352 235.029 159.009 252.733 159.068 254.964C159.128 257.196 156.559 261.159 155.141 260.296Z" fill="#EBEBEB"/>
<path d="M156.044 260.094C154.644 259.195 126.383 223.907 126.151 221.877C126.051 221.11 130.939 216.676 136.995 211.493L137.185 211.332L155.676 233.892L155.284 234.196C155.284 234.196 160.083 252.56 160.095 254.815C160.107 257.071 157.444 260.998 156.044 260.094Z" fill="#263238"/>
<path d="M157.087 258.594C152.472 252.53 133.263 228.501 128.239 222.853C128.197 222.811 128.168 222.853 128.203 222.889C132.652 229 152.045 252.869 156.992 258.672C157.099 258.797 157.188 258.737 157.087 258.594Z" fill="white"/>
<path d="M156.749 236.166C155.308 233.47 152.656 230.899 149.559 230.447C149.441 230.447 149.417 230.602 149.506 230.661C152.018 232.316 154.345 234.237 156.447 236.392C156.479 236.426 156.522 236.447 156.568 236.451C156.615 236.455 156.661 236.442 156.699 236.414C156.736 236.386 156.762 236.346 156.771 236.3C156.781 236.254 156.773 236.206 156.749 236.166Z" fill="#EBEBEB"/>
<path d="M157.087 238.671C155.645 235.981 152.993 233.404 149.897 232.958C149.778 232.958 149.754 233.112 149.843 233.166C152.354 234.822 154.681 236.744 156.784 238.897C156.816 238.931 156.859 238.952 156.906 238.956C156.952 238.961 156.999 238.947 157.036 238.919C157.073 238.891 157.099 238.851 157.109 238.805C157.118 238.759 157.11 238.711 157.087 238.671Z" fill="#EBEBEB"/>
<path d="M157.425 241.176C155.983 238.486 153.332 235.916 150.241 235.463C150.116 235.463 150.093 235.618 150.182 235.678C152.694 237.332 155.021 239.254 157.122 241.408C157.156 241.436 157.199 241.452 157.243 241.452C157.287 241.453 157.33 241.439 157.365 241.412C157.4 241.385 157.425 241.347 157.436 241.305C157.447 241.262 157.443 241.217 157.425 241.176Z" fill="#EBEBEB"/>
<path d="M137.938 220.336C137.161 216.766 131.602 217.956 132.379 221.526C133.157 225.097 138.685 223.924 137.938 220.336Z" fill="white"/>
<path d="M157.74 259.618C158.001 260.445 155.776 261.999 155.242 261.695C154.708 261.392 124.057 222.758 123.701 221.991C123.345 221.223 125.854 219.569 126.584 220.235C127.313 220.902 157.74 259.618 157.74 259.618Z" fill="url(#paint9_linear_153_3100)"/>
<path opacity="0.4" d="M157.74 259.618C158.001 260.445 155.776 261.999 155.242 261.695C154.708 261.392 124.057 222.758 123.701 221.991C123.345 221.223 125.854 219.569 126.584 220.235C127.313 220.902 157.74 259.618 157.74 259.618Z" fill="black"/>
<path d="M173.436 169.254C171.822 177.234 138.804 209.095 138.804 209.095L161.821 235.755C161.821 235.755 208.685 188.808 206.258 171.164C204.129 155.822 181.243 95.897 181.243 95.897H154.809C154.809 95.897 175.02 161.404 173.436 169.254Z" fill="#263238"/>
<path d="M164.443 229.417C161.382 225.597 162.313 226.65 159.211 222.871C157.698 221.02 147.708 208.857 145.994 207.399C145.952 207.369 145.893 207.399 145.917 207.464C147.068 209.416 157.265 221.407 158.813 223.228C161.987 226.953 161.121 225.847 164.336 229.536C164.344 229.543 164.353 229.549 164.363 229.552C164.373 229.556 164.383 229.557 164.394 229.557C164.404 229.556 164.414 229.553 164.424 229.549C164.433 229.544 164.442 229.538 164.449 229.53C164.456 229.522 164.461 229.513 164.465 229.503C164.468 229.493 164.47 229.483 164.469 229.472C164.469 229.462 164.466 229.452 164.462 229.442C164.457 229.433 164.451 229.424 164.443 229.417Z" fill="#37474F"/>
<path d="M176.717 165.362C176.337 163.368 175.91 161.38 175.489 159.411C174.629 155.358 173.709 153.097 172.76 149.068C170.862 141.07 168.793 133.12 166.555 125.217C164.301 117.284 161.922 109.37 159.181 101.592C158.843 100.628 158.493 99.6696 158.143 98.7115C158.113 98.6401 158.001 98.6758 158.024 98.7472C160.397 106.543 162.847 114.309 165.072 122.146C167.296 129.984 169.343 137.791 171.277 145.67C172.25 149.627 173.151 151.811 174.035 155.787C174.466 157.742 174.892 159.698 175.311 161.654C175.822 163.636 176.191 165.653 176.414 167.688C176.482 169.622 175.938 171.528 174.86 173.133C173.869 174.758 172.707 176.287 171.579 177.823C169.325 180.893 147.815 204.929 147.127 205.584C147.074 205.637 147.157 205.715 147.21 205.661C150.093 203.066 168.34 183.25 170.66 180.185C171.803 178.666 172.922 177.13 174.018 175.579C175.115 174.169 176 172.605 176.646 170.938C177.251 169.111 177.09 167.224 176.717 165.362Z" fill="#37474F"/>
<g opacity="0.2">
<path d="M154.81 95.897C154.81 95.897 169.082 141.636 172.701 161.47L176.498 95.897H154.81Z" fill="#050400"/>
</g>
<path d="M167.059 223.877L171.805 253.036C172.089 258.648 172.445 263.557 172.861 266.086C172.858 266.1 172.858 266.114 172.861 266.128C173.021 267.08 173.181 267.681 173.365 267.836C173.365 267.836 173.365 267.866 173.395 267.872C175.121 268.919 219.879 267.931 221.445 267.372C223.011 266.812 221.522 262.337 219.754 260.986C217.987 259.636 200.677 252.322 200.677 252.322L195.64 223.692L167.059 223.877Z" fill="#EB9481"/>
<path d="M220.768 267.55C219.22 268.104 175.091 268.925 173.382 267.884L173.347 267.848C173.049 267.325 172.877 266.741 172.842 266.14C172.84 266.126 172.84 266.112 172.842 266.098C172.427 263.575 172.077 258.66 171.787 253.048C171.787 253.048 170.689 248.091 170.47 246.181L199.579 246.264L200.647 252.334C200.647 252.334 217.31 259.808 219.084 261.159C220.857 262.51 222.323 266.991 220.768 267.55Z" fill="#EBEBEB"/>
<path d="M221.172 266.723C219.594 267.253 174.468 267.187 172.754 266.092C172.095 265.682 171.271 250.935 171.271 250.852L200.605 250.566V251.066C200.605 251.066 217.868 258.838 219.63 260.249C221.392 261.659 222.768 266.199 221.172 266.723Z" fill="#263238"/>
<path d="M220.668 264.967C213.057 264.771 182.358 264.688 174.824 265.075C174.759 265.075 174.759 265.116 174.824 265.122C182.358 265.479 213.057 265.313 220.668 265.092C220.828 265.086 220.828 264.973 220.668 264.967Z" fill="white"/>
<path d="M203.044 251.156C200.048 250.59 196.388 251.049 194.098 253.185C194.009 253.268 194.127 253.393 194.222 253.358C197.083 252.436 200.035 251.826 203.026 251.537C203.076 251.539 203.125 251.521 203.163 251.487C203.2 251.453 203.222 251.406 203.224 251.355C203.227 251.305 203.209 251.255 203.175 251.218C203.141 251.18 203.094 251.158 203.044 251.156Z" fill="#EBEBEB"/>
<path d="M205.197 252.465C202.231 251.9 198.547 252.358 196.257 254.494C196.168 254.578 196.287 254.703 196.382 254.673C199.242 253.747 202.194 253.134 205.185 252.846C205.235 252.848 205.284 252.829 205.321 252.794C205.358 252.76 205.379 252.712 205.381 252.662C205.382 252.611 205.364 252.562 205.33 252.525C205.295 252.488 205.247 252.467 205.197 252.465Z" fill="#EBEBEB"/>
<path d="M207.344 253.774C204.378 253.179 200.694 253.667 198.398 255.803C198.315 255.886 198.428 256.011 198.529 255.981C201.393 255.055 204.349 254.442 207.344 254.155C207.395 254.155 207.443 254.134 207.478 254.099C207.514 254.063 207.534 254.015 207.534 253.964C207.534 253.914 207.514 253.865 207.478 253.829C207.443 253.794 207.395 253.774 207.344 253.774Z" fill="#EBEBEB"/>
<path d="M178.935 255.934C175.667 254.286 173.11 259.38 176.384 261.028C179.659 262.677 182.21 257.583 178.935 255.934Z" fill="white"/>
<path d="M221.867 265.099C222.673 265.414 222.495 268.134 221.908 268.354C221.321 268.574 172.119 268.283 171.283 268.092C170.447 267.902 170.761 264.891 171.734 264.742C172.707 264.593 221.867 265.099 221.867 265.099Z" fill="url(#paint10_linear_153_3100)"/>
<path opacity="0.4" d="M221.867 265.099C222.673 265.414 222.495 268.134 221.908 268.354C221.321 268.574 172.119 268.283 171.283 268.092C170.447 267.902 170.761 264.891 171.734 264.742C172.707 264.593 221.867 265.099 221.867 265.099Z" fill="black"/>
<path d="M175.904 95.8973C176.688 100.261 176.87 104.713 176.444 109.126C175.892 114.672 175.204 119.576 174.463 120.189C173.721 120.802 169.456 123.569 168.05 124.426C168.05 124.426 181.101 162.232 184.429 175.425C189.299 194.557 200.962 247.544 200.962 247.544H169.853C169.853 247.544 160.403 197.312 156.269 179.109C152.709 163.494 143.657 133.37 143.657 133.37C142.257 131.74 138.395 124.735 138.057 121.974C137.25 115.428 140.258 95.9092 140.258 95.9092C140.258 95.9092 175.904 95.8795 175.904 95.8973Z" fill="#263238"/>
<path d="M197.111 241.521C192.686 241.486 193.955 241.426 189.53 241.45C187.365 241.45 173.134 241.545 171.14 241.944C171.093 241.944 171.093 242.039 171.14 242.045C173.169 242.384 187.394 242.045 189.56 241.968C193.985 241.854 192.716 241.831 197.135 241.664C197.194 241.658 197.194 241.521 197.111 241.521Z" fill="#37474F"/>
<path d="M176.639 118.623C173.619 120.29 170.749 122.218 168.062 124.384C168.045 124.402 168.034 124.425 168.033 124.449C168.031 124.474 168.037 124.498 168.051 124.518C168.065 124.539 168.085 124.553 168.109 124.56C168.132 124.567 168.158 124.566 168.18 124.556C171.087 122.735 174.059 120.956 176.865 118.968C176.903 118.935 176.927 118.89 176.934 118.84C176.941 118.79 176.93 118.739 176.902 118.697C176.875 118.655 176.833 118.625 176.785 118.611C176.736 118.597 176.685 118.602 176.639 118.623Z" fill="#37474F"/>
<path d="M174.267 97.0872C174.237 96.98 174.047 96.986 174.065 97.0872C174.604 100.574 174.968 104.085 175.157 107.608C175.263 109.239 175.347 118.32 172.469 118.112C171.983 118.076 171.675 117.653 171.497 116.963C171.363 116.041 171.345 115.105 171.443 114.178C171.443 112.268 171.443 110.364 171.289 108.459C171.071 104.91 170.488 101.392 169.551 97.9619C169.546 97.9383 169.532 97.9174 169.512 97.9041C169.492 97.8907 169.468 97.8858 169.444 97.8905C169.42 97.8953 169.4 97.9092 169.386 97.9293C169.373 97.9494 169.368 97.974 169.373 97.9976C170.204 102.839 170.672 107.737 170.773 112.649C170.773 115.029 170.18 118.677 172.624 118.659C175.068 118.641 175.821 112.559 175.875 110.923C175.936 106.261 175.396 101.61 174.267 97.0872Z" fill="#37474F"/>
<path d="M172.576 118.356C172.424 118.995 172.311 119.643 172.237 120.296C172.14 120.809 172.14 121.336 172.237 121.849C172.237 121.945 172.392 121.933 172.433 121.849C172.652 121.348 172.794 120.816 172.854 120.272C172.973 119.677 173.109 119.082 173.216 118.487C173.234 118.402 173.216 118.313 173.169 118.241C173.121 118.168 173.046 118.118 172.961 118.1C172.876 118.083 172.788 118.1 172.716 118.148C172.643 118.196 172.593 118.271 172.576 118.356Z" fill="#37474F"/>
<path d="M160.64 197.657C159.97 194.569 159.193 191.516 158.368 188.469C158.309 188.255 158.012 188.356 158.048 188.564C158.552 191.355 159.033 194.152 159.602 196.931C160.172 199.71 160.735 202.472 161.281 205.263C162.366 210.743 163.381 216.242 164.461 221.729C164.769 223.276 165.054 224.835 165.344 226.382C165.499 227.156 165.653 227.924 165.819 228.697C165.985 229.471 166.222 230.221 166.347 230.994C166.347 231.066 166.472 231.03 166.46 230.959C166.335 230.221 166.323 229.465 166.24 228.721C166.157 227.977 166.056 227.281 165.955 226.561C165.766 225.174 165.528 223.8 165.321 222.395C164.894 219.628 164.419 216.867 163.933 214.106" fill="#37474F"/>
<path d="M187.667 187.285C186.635 182.107 177.683 153.406 174.367 143.29L171.502 134.578C171.022 133.131 168.678 125.3 168.388 124.556C168.383 124.54 168.372 124.527 168.358 124.519C168.343 124.512 168.326 124.51 168.311 124.515C168.295 124.519 168.282 124.53 168.274 124.545C168.266 124.559 168.264 124.576 168.269 124.592C168.939 127.258 169.859 131.138 170.642 133.786C171.425 136.434 172.25 138.987 173.056 141.582C174.64 146.688 183.871 175.347 186.344 185.618C187.038 188.499 187.727 191.373 188.361 194.265C188.996 197.157 189.548 200.055 190.141 202.947C190.141 203.031 190.289 203.007 190.277 202.947C189.668 197.686 188.797 192.459 187.667 187.285Z" fill="#37474F"/>
<path d="M143.484 101.414C143.218 104.312 142.968 107.21 142.755 110.114C142.541 113.018 142.346 115.922 142.31 118.82C142.214 120.26 142.542 121.696 143.253 122.95C144.459 125.596 145.873 128.141 147.483 130.561C149.903 137.446 151.706 144.498 153.759 151.49C156.132 159.851 160.818 176.74 163.096 185.131C165.606 195.027 168.032 209.238 170.049 219.36L173.199 236.535C170.648 224.407 165.487 196.86 162.568 185.274L157.912 168.456C154.352 155.882 151.107 143.171 147.115 130.74C145.101 127.7 143.432 124.445 142.138 121.034C141.8 117.386 142.381 113.738 142.612 110.102C142.873 107.204 143.17 104.306 143.484 101.414Z" fill="#37474F"/>
<path d="M144.546 114.13C145.293 113.851 146.118 113.785 146.889 113.571C147.697 113.351 148.49 113.079 149.262 112.756C150.734 112.133 152.116 111.316 153.373 110.328C154.576 109.293 155.5 107.971 156.06 106.483C156.404 105.692 157.881 101.497 157.899 101.467C157.917 101.437 158.136 101.407 158.13 101.509C158.095 102.074 157.247 105.674 156.944 106.561C156.482 108.264 155.546 109.8 154.245 110.988C152.889 112.122 151.337 112.996 149.665 113.565C148.811 113.874 147.932 114.107 147.037 114.261C146.215 114.454 145.365 114.496 144.528 114.386C144.392 114.362 144.463 114.178 144.546 114.13Z" fill="#37474F"/>
<path d="M186.048 111.393C185.64 111.219 185.219 111.076 184.79 110.965C184.34 110.784 183.907 110.563 183.497 110.304C182.625 109.729 181.843 109.027 181.177 108.221C180.407 107.188 179.826 106.026 179.463 104.788C179.226 104.068 178.585 100.211 178.573 100.182C178.561 100.152 178.449 100.134 178.454 100.229C178.528 101.794 178.712 103.351 179.006 104.889C179.327 106.314 179.919 107.664 180.75 108.864C181.441 109.774 182.319 110.525 183.325 111.066C183.767 111.313 184.243 111.495 184.737 111.607C185.163 111.747 185.622 111.747 186.048 111.607C186.148 111.596 186.107 111.429 186.048 111.393Z" fill="#37474F"/>
<path d="M137.345 105.079C137.451 105.204 184.44 104.865 184.861 104.377C185.455 103.687 174.83 54.8536 169.746 48.7599C166.092 44.3801 160.255 44.6835 157.158 48.1648C146.018 60.5724 136.977 104.639 137.345 105.079Z" fill="#455A64"/>
<path d="M180.922 80.9478C180.922 80.9478 173.009 76.9309 169.954 77.163C165.249 77.5141 158.463 87.9579 160.415 89.0648C163.47 90.7787 171.858 97.0092 183.099 98.2173C189.204 98.8778 199.953 90.3204 198.588 84.2862C196.666 75.8002 180.43 79.7159 180.922 80.9478Z" fill="#D3766A"/>
<path d="M162.741 94.0339C162.806 94.0339 163.251 94.2005 163.986 94.4207L164.099 94.4564C168.928 95.9256 173.836 97.1177 178.799 98.0269H178.924C182.358 98.622 185.657 98.9195 188.006 98.622C188.728 98.5129 189.434 98.313 190.106 98.0269C194.413 96.2892 199.692 91.2964 199.526 86.018C199.212 75.8063 180.834 57.5727 176.207 53.3952C173.537 50.9851 171.503 49.5688 169.747 48.7654C172.364 54.634 174.545 60.6886 176.272 66.8799C176.812 68.7604 177.316 70.7301 177.779 72.7594C179.238 76.5263 180.567 80.1385 180.828 80.8407C180.842 80.8758 180.853 80.9115 180.863 80.9478L180.662 80.8645C179.155 80.204 170.322 75.9967 170.322 75.9967L162.741 94.0339Z" fill="#455A64"/>
<path d="M168.429 89.8149C168.975 88.5414 169.533 87.268 170.078 85.9885C170.624 84.7091 171.164 83.4951 171.716 82.2513C172.267 81.0076 172.902 79.6746 173.323 78.3357C173.323 78.3357 173.323 78.294 173.282 78.3357C172.582 79.4849 171.956 80.6775 171.407 81.9062C170.814 83.1618 170.221 84.4294 169.669 85.6969C169.117 86.9645 168.577 88.1903 168.055 89.446C167.485 90.7425 167.003 92.0766 166.614 93.439C166.614 93.4926 166.679 93.5402 166.709 93.4807C167.351 92.2923 167.925 91.0684 168.429 89.8149Z" fill="#263238"/>
<path d="M190.141 98.0215C188.912 98.4943 187.602 98.7188 186.285 98.6821C173.721 98.3548 163.15 93.6 162.806 93.6655C162.741 93.6655 162.764 93.8023 162.836 93.8023C163.399 93.838 175.293 98.9261 184.547 99.1046C187.65 99.1641 189.157 98.7297 190.171 98.0572C190.141 98.0632 190.141 98.0156 190.141 98.0215Z" fill="#263238"/>
<path opacity="0.1" d="M175.121 62.417C175.655 64.2915 177.364 70.7483 177.826 72.7537C179.286 76.5206 180.614 80.1328 180.875 80.835C180.889 80.8701 180.901 80.9058 180.911 80.9421L185.906 83.1202L185.544 82.5251L175.121 62.417Z" fill="black"/>
<path d="M190.046 84.9352C188.624 84.0498 187.148 83.2548 185.627 82.5548C184.867 82.1978 184.102 81.8764 183.319 81.5967C182.536 81.317 181.611 81.1028 180.78 80.7993C180.721 80.7993 180.679 80.8767 180.744 80.9005C181.522 81.1802 182.269 81.5967 183.022 81.9359C183.776 82.2751 184.588 82.6381 185.395 82.9714C186.949 83.626 188.48 84.3282 190.028 85.0006C190.052 85.0185 190.082 84.9709 190.046 84.9352Z" fill="#263238"/>
<path d="M189.708 84.3756C188.854 84.078 184.238 81.9536 183.574 82.7093C181.409 85.1433 179.588 86.7857 177.885 87.3927C174.919 88.4401 173.234 88.3567 172.404 88.934C162.26 95.8727 148.349 102.639 143.277 103.079C135.595 103.74 132.035 97.5092 132.842 91.2965C134.432 79.0198 147.673 56.9955 154.512 50.1639C158.155 46.5457 158.232 51.5683 157.04 57.1264C156.34 60.3875 156.262 62.4822 154.934 67.243C153.747 71.5038 150.621 82.3939 150.573 82.6498C150.573 82.6796 150.573 82.6796 150.662 82.6498C150.995 82.5606 159.751 77.5559 168.708 74.4792C171.87 73.3962 178.484 71.6883 180.97 72.5809C182.453 73.1105 182.471 73.7711 182.471 73.7711C183.371 73.8137 184.239 74.1199 184.968 74.6518C185.445 74.9497 185.793 75.4173 185.941 75.961C186.731 76.1112 187.475 76.441 188.118 76.9251C188.659 77.5063 189.011 78.239 189.127 79.0257C192.401 81.8167 189.708 84.3756 189.708 84.3756Z" fill="#EB9481"/>
<path d="M189.079 78.9841C187.361 78.4392 185.517 78.4392 183.799 78.9841C183.734 78.9841 183.764 79.1508 183.835 79.1448C185.578 78.9104 187.344 78.8964 189.091 79.1032C189.138 79.1032 189.126 79.0198 189.079 78.9841Z" fill="#263238"/>
<path d="M185.875 75.9433C184.138 75.4635 182.295 75.5299 180.596 76.1338C180.531 76.1338 180.566 76.3004 180.637 76.2885C182.371 75.9974 184.135 75.9214 185.887 76.0624C185.941 76.0445 185.923 75.9552 185.875 75.9433Z" fill="#263238"/>
<path d="M182.429 73.7535C180.674 73.3488 178.836 73.4963 177.167 74.176C177.102 74.176 177.167 74.3486 177.215 74.3307C178.936 73.9632 180.695 73.8093 182.453 73.8725C182.477 73.8725 182.429 73.7654 182.429 73.7535Z" fill="#263238"/>
<path d="M168.275 74.6576C167.484 74.8532 166.703 75.0916 165.938 75.3718C165.119 75.6455 164.306 75.9371 163.517 76.2703C161.933 76.9439 160.387 77.7027 158.884 78.5436C158.825 78.5733 158.884 78.6686 158.926 78.6388C160.474 77.9544 162.04 77.3058 163.612 76.675L165.914 75.7169C166.703 75.3896 167.534 75.1218 168.287 74.7588C168.352 74.7291 168.334 74.6457 168.275 74.6576Z" fill="#263238"/>
<path d="M162.046 76.8838C162.808 76.5177 163.616 76.2593 164.449 76.1161L175.56 92.4335C175.56 92.4335 149.654 103.145 144.291 104.115C138.929 105.085 132.427 101.3 131.834 94.4925C130.95 84.9354 144.641 62.7028 151.778 53.2052C155.052 48.8491 160.747 44.3859 157.84 57.3708C156.221 64.613 150.686 82.68 150.686 82.68C150.686 82.68 160.095 77.7169 162.046 76.8838Z" fill="#455A64"/>
<path d="M164.359 76.11C162.882 76.3123 156.647 79.0557 153.598 80.6506C150.561 82.2319 147.679 84.0969 144.991 86.2206C143.472 87.4108 142.025 88.7259 140.642 90.0649C140.634 90.068 140.627 90.0729 140.622 90.0793C140.616 90.0857 140.612 90.0933 140.61 90.1016C140.608 90.1099 140.608 90.1185 140.61 90.1268C140.612 90.1351 140.616 90.1428 140.621 90.1493C140.627 90.1559 140.633 90.161 140.641 90.1642C140.649 90.1675 140.658 90.1688 140.666 90.1681C140.675 90.1674 140.683 90.1647 140.69 90.1602C140.697 90.1557 140.703 90.1495 140.708 90.1422C146.001 85.8304 151.74 82.1016 157.828 79.02C159.566 78.175 162.574 76.8836 164.294 76.2826C164.78 76.0981 164.407 76.1041 164.359 76.11Z" fill="#263238"/>
<path d="M156.684 65.1424C156.334 65.8208 155.978 66.4992 155.687 67.2073C155.671 67.2399 155.657 67.2738 155.646 67.3085C156.037 65.7136 156.399 64.1188 156.737 62.5121C156.737 62.4109 156.595 62.3752 156.565 62.4704C154.75 68.4213 150.96 81.0372 150.568 82.7035C150.572 82.714 150.578 82.7231 150.587 82.7295C150.597 82.736 150.607 82.7394 150.618 82.7394C150.629 82.7394 150.64 82.736 150.649 82.7295C150.658 82.7231 150.665 82.714 150.669 82.7035C151.185 81.2455 154.626 71.3194 155.284 68.695C155.521 68.2249 155.759 67.7548 155.978 67.2787C156.293 66.5825 156.542 65.8624 156.803 65.1424C156.797 65.131 156.789 65.1213 156.779 65.1145C156.768 65.1078 156.756 65.1042 156.743 65.1042C156.731 65.1042 156.719 65.1078 156.708 65.1145C156.698 65.1213 156.689 65.131 156.684 65.1424Z" fill="#263238"/>
<path d="M173.014 88.696C173.94 89.9517 174.836 91.2192 175.749 92.4868C172.783 93.8257 169.817 95.1349 166.803 96.3787C160.871 98.8602 154.862 101.044 148.764 102.96C145.756 103.996 142.464 104.948 139.349 103.752C142.511 104.722 145.649 103.674 148.627 102.562C151.605 101.449 154.684 100.497 157.662 99.3541C162.876 97.4201 170.28 94.4208 175.512 92.3201L175.458 92.5046C174.64 91.2371 173.815 89.9755 173.014 88.696Z" fill="#263238"/>
<path d="M168.192 74.634C163.841 76.0987 159.572 77.7972 155.403 79.722L155.219 79.8054C153.047 80.8111 151.897 81.6918 151.57 81.7632C151.281 81.531 150.954 81.3499 150.603 81.2276C149.975 81.0075 143.9 80.6325 143.942 78.764C143.983 76.8954 146.439 76.8775 146.801 76.8775C146.403 76.818 143.093 76.2408 144.06 74.5448C144.742 73.3546 147.987 73.3189 148.32 73.3129C147.981 73.2237 144.92 72.4203 145.858 70.6886C146.522 69.4449 150.147 69.3913 150.568 69.433C150.224 69.3258 147.519 69.0342 148.681 67.5227C149.494 66.4694 156.352 67.0823 159.466 68.4213C164.099 70.403 168.192 74.634 168.192 74.634Z" fill="#EB9481"/>
<path d="M155.408 79.7227L155.224 79.806C154.133 79.0502 150.063 77.1876 146.919 76.9734C146.729 76.9734 146.712 76.8484 146.919 76.8484C149.975 76.9129 152.938 77.9161 155.408 79.7227Z" fill="#263238"/>
<path d="M148.48 73.4265C152.81 74.0216 154.803 74.8607 158.624 76.997C158.677 76.997 158.73 76.9435 158.683 76.9078C155.094 74.5274 152.881 73.3848 148.509 73.3372C148.308 73.3134 148.278 73.3967 148.48 73.4265Z" fill="#263238"/>
<path d="M150.71 69.4989C154.862 70.3498 157.105 71.1711 160.575 73.6645C160.582 73.6707 160.591 73.6755 160.6 73.6784C160.609 73.6813 160.619 73.6824 160.629 73.6816C160.638 73.6808 160.648 73.678 160.656 73.6736C160.665 73.6691 160.673 73.663 160.679 73.6556C160.685 73.6481 160.69 73.6396 160.693 73.6303C160.696 73.6211 160.697 73.6113 160.696 73.6017C160.695 73.592 160.692 73.5826 160.688 73.5739C160.683 73.5653 160.677 73.5577 160.67 73.5514C157.372 70.7009 154.607 69.6595 150.739 69.3858C150.478 69.3798 150.449 69.4632 150.71 69.4989Z" fill="#263238"/>
<path d="M166.946 54.6985C164.467 55.1686 159.905 50.878 158.386 47.7538C158.28 47.5396 158.701 45.3734 159.086 42.6717C159.312 41.0471 159.525 39.2262 159.602 37.554L169.972 40.583C169.281 42.6485 168.843 44.7907 168.667 46.9623C168.659 47.1932 168.673 47.4243 168.708 47.6526C168.708 47.6883 168.708 47.724 168.708 47.7657C168.845 49.0808 169.343 54.2462 166.946 54.6985Z" fill="#EB9481"/>
<path d="M168.684 47.6592C168.684 47.6592 168.684 47.7247 168.684 47.7663C168.327 47.7965 167.968 47.7965 167.61 47.7663C161.56 47.3498 160.492 39.8516 160.296 37.751L162.882 38.5067L169.971 40.5896C169.277 42.6538 168.84 44.7967 168.672 46.9689C168.652 47.1988 168.656 47.4302 168.684 47.6592Z" fill="#263238"/>
<path d="M157.514 26.4796C156.748 30.3834 159.845 41.1129 162.776 43.273C167.023 46.4151 173.453 46.1057 175.945 41.1069C178.383 36.2688 174.1 22.3556 170.879 20.4454C166.151 17.6306 158.7 20.7013 157.514 26.4796Z" fill="#EB9481"/>
<path d="M167.368 32.4065C167.368 32.4065 167.32 32.4541 167.332 32.4839C167.558 33.2039 167.7 34.0608 167.119 34.4893C167.119 34.4893 167.119 34.5369 167.119 34.525C167.896 34.1858 167.7 33.0492 167.368 32.4065Z" fill="#263238"/>
<path d="M166.507 31.8355C165.321 32.0735 165.914 34.436 166.994 34.2158C168.074 33.9956 167.504 31.6272 166.507 31.8355Z" fill="#263238"/>
<path d="M171.698 31.3477C171.698 31.3477 171.763 31.3477 171.769 31.4012C171.924 32.1332 172.22 32.9544 172.956 33.0377V33.0794C172.113 33.1627 171.752 32.0677 171.698 31.3477Z" fill="#263238"/>
<path d="M172.161 30.4256C173.312 30.0507 173.976 32.3894 172.908 32.7345C171.841 33.0797 171.2 30.741 172.161 30.4256Z" fill="#263238"/>
<path d="M165.119 30.7108C165.446 30.6477 165.769 30.5663 166.086 30.4668C166.437 30.4319 166.767 30.2812 167.023 30.0384C167.084 29.9512 167.117 29.8473 167.117 29.7408C167.117 29.6343 167.084 29.5304 167.023 29.4433C166.855 29.2908 166.649 29.1865 166.427 29.1415C166.204 29.0965 165.974 29.1123 165.76 29.1874C165.303 29.2673 164.894 29.5183 164.615 29.8896C164.565 29.9752 164.54 30.0726 164.541 30.1715C164.543 30.2704 164.571 30.3672 164.622 30.4514C164.674 30.5356 164.748 30.6042 164.835 30.6499C164.923 30.6956 165.021 30.7166 165.119 30.7108Z" fill="#263238"/>
<path d="M173.038 29.5443C172.761 29.7248 172.474 29.8897 172.178 30.0382C171.899 30.2582 171.555 30.3796 171.199 30.3834C171.088 30.3615 170.988 30.3036 170.913 30.2187C170.838 30.1338 170.792 30.0264 170.784 29.9133C170.802 29.6871 170.88 29.4699 171.009 29.2837C171.138 29.0976 171.315 28.9493 171.52 28.854C171.905 28.5967 172.373 28.4927 172.831 28.5624C172.935 28.5838 173.03 28.6352 173.106 28.7103C173.181 28.7854 173.233 28.8809 173.255 28.9851C173.277 29.0894 173.268 29.1978 173.23 29.2972C173.191 29.3965 173.125 29.4824 173.038 29.5443Z" fill="#263238"/>
<path d="M168.53 36.9355C168.786 37.1802 169.089 37.3693 169.421 37.4912C169.752 37.613 170.106 37.6649 170.458 37.6436C170.766 37.6285 171.07 37.5684 171.36 37.4651C171.418 37.4525 171.473 37.4325 171.526 37.4056C171.579 37.3889 171.631 37.3669 171.68 37.3401C171.718 37.3245 171.749 37.2965 171.768 37.2608C171.788 37.2251 171.794 37.1838 171.787 37.1438C171.781 37.1186 171.771 37.0945 171.757 37.0724V37.0069C171.639 36.4416 171.378 35.5965 171.378 35.5965C171.609 35.6501 172.766 35.8703 172.677 35.5965C172 33.074 171.067 30.6274 169.895 28.2948C169.886 28.2799 169.872 28.2686 169.856 28.2631C169.84 28.2575 169.822 28.2581 169.806 28.2646C169.79 28.2711 169.777 28.2832 169.77 28.2986C169.762 28.314 169.76 28.3316 169.764 28.3483C170.357 30.6811 171.401 32.8889 172.054 35.2276C171.64 35.1437 171.217 35.1196 170.796 35.1562C170.719 35.1978 171.33 36.7748 171.39 37.0307C170.941 37.1887 170.465 37.2549 169.99 37.2252C169.515 37.1956 169.051 37.0708 168.625 36.8581C168.518 36.8284 168.477 36.8938 168.53 36.9355Z" fill="#263238"/>
<path d="M158.837 36.0251C160.528 36.1382 161.139 34.585 161.34 33.502C161.542 32.4189 159.946 26.4025 160.415 24.7422C160.884 23.0819 162.378 21.9096 163.773 22.0286C165.167 22.1477 167.219 23.5283 168.168 23.2188C169.117 22.9094 168.922 20.773 169.598 20.6361C171.081 20.3267 173.406 23.683 174.011 25.26C174.011 25.26 172.617 18.2498 165.368 19.0829C158.297 19.8923 157.063 25.135 156.868 27.3606C156.535 31.6453 158.837 36.0251 158.837 36.0251Z" fill="#263238"/>
<path d="M161.341 34.9833C161.341 34.9833 158.57 31.6507 157.046 32.6684C155.521 33.686 157.811 38.6669 159.751 39.2143C159.995 39.3012 160.254 39.3377 160.512 39.3214C160.77 39.3051 161.023 39.2366 161.254 39.1198C161.485 39.003 161.69 38.8404 161.857 38.6419C162.024 38.4434 162.149 38.213 162.225 37.9647L161.341 34.9833Z" fill="#EB9481"/>
<path d="M157.739 34.0493C157.704 34.0493 157.704 34.091 157.739 34.1029C159.098 34.5254 159.899 35.6918 160.492 36.9236C160.404 36.7976 160.29 36.6922 160.158 36.6147C160.026 36.5372 159.879 36.4894 159.727 36.4747C159.574 36.46 159.42 36.4787 159.276 36.5295C159.132 36.5803 159 36.662 158.89 36.7689C158.854 36.7689 158.89 36.8462 158.932 36.8343C159.157 36.7418 159.406 36.7213 159.644 36.7756C159.882 36.8299 160.097 36.9564 160.26 37.1378C160.531 37.4422 160.768 37.7755 160.966 38.1316C161.038 38.2447 161.245 38.1673 161.192 38.0305V38.0007C161.073 36.3166 159.554 34.0672 157.739 34.0493Z" fill="#263238"/>
<path d="M168.744 47.7064L167.705 53.5621L158.493 45.8259L156.405 48.9204C156.405 48.9204 165.427 60.5246 165.404 59.9534L167.877 54.1572L171.437 57.573L170.339 49.6702L168.744 47.7064Z" fill="#EBEBEB"/>
<path d="M171.021 52.9373C170.737 51.402 170.802 51.277 170.428 49.7595C170.428 49.706 170.327 49.6941 170.321 49.7595C170.191 51.2829 170.998 55.7104 171.158 57.1327C170.986 56.9899 167.907 54.1572 167.877 54.1572C167.426 55.0737 165.457 59.3345 165.374 59.7035C163.944 57.8587 158.516 51.1818 156.885 49.4739C156.876 49.465 156.864 49.4599 156.851 49.4593C156.838 49.4587 156.825 49.4627 156.815 49.4707C156.805 49.4786 156.798 49.4899 156.796 49.5025C156.793 49.5151 156.796 49.5282 156.802 49.5393C158.101 51.5091 165.303 60.5128 165.392 60.4711C165.481 60.4295 167.61 55.3831 167.948 54.3536C168.577 54.9487 171.739 58.2276 171.721 57.9956C171.577 56.2983 171.343 54.6099 171.021 52.9373Z" fill="#263238"/>
<path d="M28.7862 151.794C28.7862 151.794 13.6058 149.663 17.1592 131.281C17.1533 131.281 34.1252 135.101 28.7862 151.794Z" fill="url(#paint11_linear_153_3100)"/>
<path opacity="0.1" d="M28.7862 151.794C28.7862 151.794 13.6058 149.663 17.1592 131.281C17.1533 131.281 34.1252 135.101 28.7862 151.794Z" fill="black"/>
<path d="M28.0147 147.956C27.7181 147.027 27.3681 146.117 26.9825 145.218C26.9825 145.099 26.9825 144.986 26.941 144.873C26.941 144.617 26.8995 144.367 26.8817 144.111C26.8342 143.564 26.8045 143.016 26.7689 142.463C26.7037 141.368 26.6384 140.267 26.6206 139.166C26.6206 139.107 26.5257 139.113 26.5257 139.166C26.5257 140.267 26.5257 141.362 26.5257 142.463C26.5257 143.016 26.5791 143.564 26.6147 144.111C26.6147 144.236 26.6147 144.355 26.6147 144.48C25.7646 142.648 24.7458 140.898 23.5715 139.256C23.0495 138.524 22.5037 137.821 21.9105 137.143C21.3173 136.465 20.6707 135.786 20.0537 135.102C20.0181 135.054 19.9529 135.102 19.9944 135.167C21.0835 136.378 22.0623 137.685 22.919 139.071C23.3757 139.773 23.8147 140.487 24.23 141.219L24.0876 141.166L23.5478 140.946L22.308 140.475C21.4953 140.172 20.6766 139.88 19.8639 139.565C19.8164 139.565 19.7809 139.63 19.8639 139.648C20.6707 139.97 21.4656 140.315 22.2368 140.66L23.4232 141.166L24.0164 141.41C24.1441 141.475 24.2797 141.523 24.4198 141.553C24.7223 142.106 25.013 142.659 25.3096 143.225C26.0128 144.649 26.6309 146.113 27.1605 147.611C27.202 147.718 27.2376 147.819 27.2732 147.926C26.8752 147.693 26.4585 147.494 26.0274 147.331L24.4554 146.611C23.3935 146.123 22.3317 145.623 21.3114 145.046C21.2639 145.016 21.2164 145.099 21.2698 145.129C22.3139 145.724 23.3342 146.319 24.3783 146.879C24.9003 147.158 25.4283 147.438 25.9622 147.694C26.4033 147.965 26.8836 148.165 27.3859 148.289C27.8958 149.682 28.2306 151.133 28.3825 152.609C28.5545 154.686 28.5308 156.775 28.5783 158.864C28.5783 158.872 28.5814 158.879 28.5869 158.885C28.5925 158.89 28.6 158.893 28.6079 158.893C28.6158 158.893 28.6233 158.89 28.6289 158.885C28.6344 158.879 28.6376 158.872 28.6376 158.864C28.7859 156.971 28.8749 155.067 28.8808 153.169C28.8738 151.396 28.5813 149.635 28.0147 147.956Z" fill="#263238"/>
<path d="M25.6783 137.149C25.5307 138.223 25.4809 139.308 25.5295 140.392C25.5295 140.422 25.5712 140.392 25.5712 140.392C25.6366 139.321 25.6426 138.25 25.7675 137.178C25.7735 137.113 25.6842 137.089 25.6783 137.149Z" fill="#263238"/>
<path d="M21.335 138.065C20.6566 137.806 20.0033 137.485 19.3833 137.107C19.3359 137.071 19.2884 137.154 19.3418 137.184C19.947 137.598 20.611 137.917 21.3113 138.13C21.3469 138.142 21.3766 138.083 21.335 138.065Z" fill="#263238"/>
<path d="M29.2669 180.983C29.2669 179.299 29.2254 177.614 29.2016 175.936C29.2016 170.342 29.1245 164.755 29.0237 159.167C28.9446 154.731 28.8417 150.296 28.7152 145.86C28.7152 145.831 28.7152 145.819 28.6796 145.801V142.165C28.6796 142.135 28.644 142.123 28.6084 142.123C28.5728 142.123 28.5313 142.123 28.5313 142.171C28.5313 143.385 28.5313 144.599 28.5313 145.813C28.5275 145.821 28.5256 145.83 28.5256 145.84C28.5256 145.849 28.5275 145.858 28.5313 145.866C28.3059 153.757 28.1042 161.654 28.0627 169.557C28.0627 171.158 28.0627 172.764 28.0627 174.371C28.0112 179.529 27.9915 184.686 28.0033 189.844C28.0033 190.665 28.0033 191.48 28.0033 192.301C28.0033 197.014 28.0508 201.727 28.0508 206.435C28.0508 206.691 28.3355 206.815 28.644 206.827C28.9525 206.839 29.3499 206.702 29.3499 206.417C29.3499 201.222 29.3855 196.027 29.3855 190.831C29.2788 187.529 29.2906 184.256 29.2669 180.983Z" fill="#263238"/>
<path d="M22.9249 175.871C22.9249 175.871 15.6283 170.444 8.68769 174.086C1.74706 177.728 0.67334 191.891 0.67334 191.891C0.67334 191.891 10.847 193.349 17.2834 187.231C23.4469 181.375 22.9249 175.871 22.9249 175.871Z" fill="url(#paint12_linear_153_3100)"/>
<path opacity="0.1" d="M22.9249 175.871C22.9249 175.871 15.6283 170.444 8.68769 174.086C1.74706 177.728 0.67334 191.891 0.67334 191.891C0.67334 191.891 10.847 193.349 17.2834 187.231C23.4469 181.375 22.9249 175.871 22.9249 175.871Z" fill="black"/>
<path d="M24.918 176.204C23.5758 175.67 22.1222 175.48 20.6884 175.651C20.3922 175.6 20.0929 175.57 19.7926 175.561L18.7663 175.484L16.6367 175.335C15.1952 175.228 13.7477 175.139 12.3121 174.996C12.2588 174.996 12.2528 175.079 12.3121 175.085C13.7359 175.27 15.1536 175.472 16.5774 175.615C17.313 175.686 18.0485 175.764 18.7841 175.817L19.318 175.871C19.0985 175.918 18.885 175.972 18.6714 176.032C17.5247 176.367 16.4155 176.819 15.3613 177.382C14.7681 177.484 14.2164 177.644 13.6528 177.781C12.7452 177.989 11.8732 178.227 10.9477 178.46C9.1681 178.93 7.42404 179.453 5.66219 179.965C5.65311 179.968 5.64527 179.975 5.63974 179.983C5.63421 179.991 5.63124 180 5.63124 180.01C5.63124 180.019 5.63421 180.029 5.63974 180.037C5.64527 180.045 5.65311 180.051 5.66219 180.054C7.44184 179.62 9.22149 179.227 10.9537 178.805C11.8079 178.602 12.6681 178.4 13.5223 178.21L14.1926 178.055C12.2347 179.268 10.4857 180.791 9.01386 182.566C7.58734 184.316 6.37635 186.232 5.4071 188.273C5.4071 188.326 5.45456 188.374 5.48422 188.32C6.68158 186.218 8.14954 184.283 9.8503 182.566C9.8147 182.661 9.78504 182.756 9.75538 182.857L9.34606 184.149C9.07911 185.011 8.80624 185.874 8.54522 186.737C8.54522 186.797 8.61641 186.815 8.64013 186.737C8.94267 185.904 9.23335 185.059 9.52996 184.22C9.67826 183.809 9.82063 183.399 9.96301 182.982C10.0401 182.768 10.1113 182.554 10.1825 182.339L10.2537 182.143C11.0674 181.348 11.9335 180.608 12.846 179.929C14.047 179.04 15.3469 178.293 16.7197 177.704C16.7197 177.829 16.6723 177.954 16.6426 178.079L16.4291 179.078C16.2867 179.769 16.1562 180.465 16.0197 181.161C15.7469 182.578 15.5748 184.018 15.3079 185.434C15.3079 185.493 15.385 185.511 15.3969 185.434C15.7231 184.006 16.1503 182.601 16.4647 181.173C16.6248 180.459 16.785 179.745 16.9333 179.031C16.9986 178.692 17.0697 178.358 17.135 178.025C17.1706 177.835 17.218 177.65 17.2358 177.466C17.3723 177.412 17.5028 177.347 17.6333 177.299C19.5494 176.585 21.6672 176.073 23.7078 176.466C24.6746 176.643 25.5823 177.058 26.3496 177.674C27.1169 178.29 27.7196 179.087 28.1036 179.995C28.1688 180.156 28.4239 180.054 28.3824 179.894C27.9849 178.186 26.5197 176.883 24.918 176.204Z" fill="#263238"/>
<path d="M13.7418 182.239C13.5342 183.167 13.3266 184.095 13.1486 185.024C12.917 185.913 12.7465 186.818 12.6384 187.731C12.6384 187.773 12.6859 187.773 12.6978 187.731C12.9548 186.835 13.153 185.922 13.291 185C13.4749 184.083 13.6528 183.167 13.8308 182.25C13.8427 182.203 13.7537 182.185 13.7418 182.239Z" fill="#263238"/>
<path d="M6.67735 184.601C5.746 185.071 4.84431 185.613 3.87737 186C3.86992 186 3.86275 186.003 3.85643 186.007C3.85011 186.011 3.84483 186.016 3.84101 186.023C3.83719 186.029 3.83494 186.036 3.83445 186.044C3.83396 186.051 3.83524 186.059 3.83819 186.066C3.84113 186.073 3.84566 186.079 3.8514 186.083C3.85714 186.088 3.86394 186.092 3.87123 186.093C3.87851 186.095 3.88609 186.095 3.89335 186.093C3.9006 186.091 3.90732 186.088 3.91296 186.083C4.8667 185.65 5.79733 185.167 6.70108 184.637L6.67735 184.601Z" fill="#263238"/>
<path d="M24.5683 165.904C24.5683 165.904 15.6701 166.499 11.5176 160.548C7.36508 154.597 8.2727 146.266 8.2727 146.266C8.2727 146.266 17.6455 147.408 21.3709 151.651C25.0963 155.894 24.5683 165.904 24.5683 165.904Z" fill="url(#paint13_linear_153_3100)"/>
<path d="M28.7861 174.735C28.4776 173.776 28.098 172.83 27.7361 171.89C27.3742 170.95 27.0183 170.105 26.6268 169.212C25.8267 167.407 24.9337 165.646 23.9514 163.934C23.3226 162.845 22.6463 161.791 21.9522 160.75C21.9522 160.589 21.9048 160.435 21.8811 160.274L21.7565 159.441C21.6675 158.875 21.5666 158.31 21.4717 157.745C21.27 156.507 21.015 155.281 20.8192 154.043C20.8192 153.984 20.7183 153.984 20.7243 154.043C20.9082 155.269 21.0268 156.495 21.1989 157.721C21.2819 158.316 21.359 158.911 21.4539 159.506C21.4539 159.726 21.5192 159.941 21.5548 160.155C20.1909 158.16 18.7174 156.243 17.1413 154.412L16.4887 153.68C16.4887 153.615 16.4294 153.549 16.4057 153.478L16.2099 152.966C16.0794 152.609 15.9489 152.252 15.8243 151.895C15.5752 151.193 15.3497 150.491 15.1599 149.771C15.1565 149.761 15.1505 149.754 15.1425 149.748C15.1346 149.743 15.1251 149.74 15.1154 149.74C15.1057 149.74 15.0963 149.743 15.0883 149.748C15.0804 149.754 15.0743 149.761 15.0709 149.771C15.2489 150.508 15.4387 151.24 15.6641 151.966C15.765 152.318 15.8777 152.663 16.0023 153.008C16.0023 153.061 16.0438 153.121 16.0675 153.18C14.9226 151.931 13.7362 150.729 12.5082 149.538C12.4667 149.497 12.4074 149.568 12.4489 149.61C14.7516 152.042 16.8619 154.651 18.7607 157.412C18.5422 157.345 18.3204 157.289 18.0963 157.245C17.4082 157.114 16.7141 157.013 16.026 156.924C14.5667 156.739 13.1192 156.555 11.6718 156.328C11.6125 156.328 11.5887 156.406 11.6718 156.418C13.054 156.691 14.4243 157.013 15.8243 157.322C16.4709 157.471 17.1235 157.596 17.776 157.727C18.2906 157.843 18.7978 157.99 19.2946 158.167L19.7277 158.762C20.3861 159.72 21.015 160.696 21.626 161.678L20.7183 161.5C20.0302 161.363 19.3362 161.238 18.6421 161.125C17.2836 160.899 15.9192 160.667 14.5726 160.357C14.5635 160.361 14.5557 160.367 14.5502 160.375C14.5446 160.383 14.5417 160.392 14.5417 160.402C14.5417 160.412 14.5446 160.421 14.5502 160.429C14.5557 160.437 14.5635 160.443 14.5726 160.446C15.937 160.768 17.2896 161.143 18.6421 161.506C19.2946 161.678 19.9531 161.839 20.6116 161.988L21.6082 162.202C21.7387 162.236 21.8715 162.26 22.0056 162.273C23.3107 164.392 24.5308 166.56 25.6658 168.778C26.1641 169.748 26.6446 170.736 27.1073 171.723C27.57 172.711 27.9912 173.776 28.4361 174.812C28.5014 175.044 28.8276 174.961 28.7861 174.735Z" fill="#263238"/>
<path d="M19.6212 154.162C19.4551 153.305 19.2712 152.455 19.0873 151.604C19.0839 151.594 19.0778 151.587 19.0699 151.581C19.0619 151.575 19.0525 151.573 19.0428 151.573C19.0331 151.573 19.0236 151.575 19.0157 151.581C19.0077 151.587 19.0017 151.594 18.9983 151.604C19.1644 152.443 19.3246 153.282 19.4788 154.127C19.633 154.972 19.7517 155.817 19.983 156.632C19.9202 155.801 19.7992 154.976 19.6212 154.162Z" fill="#263238"/>
<path d="M14.418 153.912C14.0027 153.704 13.5638 153.537 13.1367 153.371L12.4604 153.103L12.1104 152.966C11.9788 152.928 11.8531 152.872 11.7367 152.799C11.6714 152.752 11.624 152.871 11.6951 152.877C11.8275 152.915 11.9549 152.969 12.0748 153.037L12.4129 153.186L13.0655 153.478C13.4944 153.677 13.934 153.852 14.3824 154.001C14.4358 154.001 14.4655 153.936 14.418 153.912Z" fill="#263238"/>
<path d="M33.7037 158.864C33.7037 158.864 39.1079 148.747 47.3477 147.176C55.5875 145.605 60.5942 154.091 60.5942 154.091C60.5942 154.091 54.5968 161.768 47.057 163.106C39.5173 164.445 33.7037 158.864 33.7037 158.864Z" fill="url(#paint14_linear_153_3100)"/>
<path d="M52.8289 151.71C50.689 151.424 48.519 151.45 46.3865 151.788L46.7484 151.591L48.5755 150.651C49.8279 149.955 51.1149 149.323 52.4314 148.759C52.4389 148.758 52.446 148.755 52.4524 148.751C52.4587 148.747 52.464 148.742 52.4678 148.735C52.4716 148.729 52.4738 148.722 52.4743 148.714C52.4748 148.707 52.4735 148.699 52.4706 148.692C52.4677 148.686 52.4631 148.679 52.4574 148.675C52.4516 148.67 52.4448 148.666 52.4376 148.665C52.4303 148.663 52.4227 148.663 52.4154 148.665C52.4082 148.667 52.4015 148.67 52.3958 148.675C51.1085 149.27 49.7738 149.776 48.4865 150.371C47.8399 150.669 47.2052 150.966 46.5823 151.317C46.173 151.532 45.7281 151.734 45.3306 151.99C43.5243 152.356 41.7692 152.941 40.1044 153.734L41.1306 152.609C41.8959 151.77 42.6493 150.883 43.5035 150.121C43.551 150.08 43.5035 150.014 43.4383 150.056C42.5781 150.841 41.6586 151.561 40.834 152.377C40.4306 152.775 40.0451 153.186 39.6476 153.603C39.4637 153.817 39.2739 154.031 39.0959 154.257C36.2757 155.773 33.8255 157.897 31.9217 160.477C30.0179 163.057 28.7078 166.028 28.0858 169.176C28.0858 169.236 28.157 169.265 28.1689 169.212C29.3297 165.353 31.4036 161.833 34.2137 158.952C37.2346 155.86 41.0392 153.652 45.2179 152.567C47.698 151.932 50.2632 151.697 52.817 151.871C52.9238 151.883 52.9297 151.728 52.8289 151.71Z" fill="#263238"/>
<path opacity="0.1" d="M60.5707 154.091C60.5707 154.091 54.5733 161.768 47.0335 163.107C41.2793 164.13 36.5514 161.119 34.6294 159.643L34.2141 158.959C34.2141 158.959 38.1056 155.668 45.4852 153.77C52.8648 151.871 60.5707 154.091 60.5707 154.091Z" fill="black"/>
<path d="M48.06 148.104C47.4296 148.467 46.8197 148.864 46.2329 149.294C45.6621 149.729 45.132 150.215 44.649 150.746C44.6074 150.794 44.649 150.853 44.7202 150.818C45.2659 150.341 45.8117 149.865 46.3752 149.413C46.9272 148.962 47.5056 148.545 48.1074 148.163C48.1549 148.152 48.1074 148.05 48.06 148.104Z" fill="#263238"/>
<path d="M52.5683 149.836L51.6489 150.199L50.7294 150.58C50.6641 150.58 50.7294 150.711 50.765 150.687L51.6785 150.312L52.5921 149.926C52.6455 149.884 52.6217 149.795 52.5683 149.836Z" fill="#263238"/>
<path d="M32.6241 171.598C32.6241 171.598 34.0716 181.638 41.5936 185.155C49.1156 188.672 58.2926 185.155 58.2926 185.155C58.2926 185.155 54.6859 163.428 32.6241 171.598Z" fill="url(#paint15_linear_153_3100)"/>
<path opacity="0.1" d="M32.6241 171.598C32.6241 171.598 34.0716 181.638 41.5936 185.155C49.1156 188.672 58.2926 185.155 58.2926 185.155C58.2926 185.155 54.6859 163.428 32.6241 171.598Z" fill="black"/>
<path d="M53.1077 178.621C52.4137 178.543 51.7255 178.424 51.0374 178.299C50.6993 178.234 50.3611 178.174 50.0289 178.103L49.501 178.002C49.2993 177.811 49.0976 177.615 48.9078 177.436C47.4816 176.177 45.9403 175.055 44.3044 174.086C43.4136 173.558 42.4925 173.083 41.5459 172.664H41.6883L44.162 172.771C45.8171 172.848 47.4662 172.884 49.1213 172.991C49.1806 172.991 49.1747 172.908 49.1213 172.902C47.4662 172.789 45.8171 172.604 44.162 172.461L41.7536 172.247L40.5137 172.14L40.1993 172.104C39.7722 171.946 39.3392 171.797 38.9002 171.658C36.8478 170.952 34.6403 170.83 32.5231 171.307C30.6308 171.789 28.7443 173.033 28.252 175.038C28.252 175.104 28.3409 175.157 28.3706 175.086C29.0765 173.414 30.9274 172.569 32.6002 172.223C33.7247 172.003 34.8786 171.979 36.0112 172.152C36.0844 172.67 36.2116 173.178 36.3909 173.669C36.5985 174.378 36.8002 175.086 36.9841 175.788C37.4112 177.198 37.8799 178.597 38.301 180.013C38.301 180.067 38.4019 180.013 38.39 179.983C38.04 178.573 37.7434 177.151 37.4053 175.74C37.2392 175.05 37.0672 174.354 36.8951 173.664C36.7962 173.181 36.6694 172.704 36.5155 172.235C37.1741 172.353 37.8257 172.508 38.4671 172.699C39.6303 173.043 40.7698 173.462 41.8781 173.955C41.9908 174.669 42.1451 175.377 42.3112 176.086C42.5188 176.966 42.7442 177.871 43.023 178.716C43.0282 178.726 43.0368 178.734 43.0473 178.738C43.0578 178.742 43.0695 178.743 43.0802 178.739C43.091 178.736 43.1001 178.728 43.1059 178.719C43.1118 178.709 43.1139 178.697 43.112 178.686L43.0764 178.525C42.9044 177.704 42.7264 176.889 42.5544 176.068C42.412 175.407 42.2875 174.741 42.1451 174.08C43.0764 174.503 43.9959 174.967 44.8857 175.479C44.8857 175.681 44.9569 175.889 44.9807 176.074C45.04 176.413 45.0993 176.758 45.1646 177.103C45.3069 177.877 45.4552 178.644 45.6451 179.412C45.9839 180.894 46.4158 182.353 46.9383 183.78C46.9315 183.789 46.9279 183.799 46.9279 183.81C46.9279 183.821 46.9315 183.831 46.9383 183.84L46.9798 183.887C46.9874 183.894 46.997 183.898 47.007 183.899C47.0171 183.899 47.0272 183.897 47.0358 183.892C47.0444 183.886 47.0511 183.879 47.0549 183.869C47.0587 183.86 47.0594 183.849 47.0569 183.84C46.7069 182.352 46.3095 180.864 45.9832 179.382C45.823 178.638 45.6569 177.895 45.5086 177.145L45.2951 176.02L45.2417 175.687C46.2547 176.283 47.2331 176.937 48.1722 177.645C49.7957 178.867 51.2994 180.242 52.6628 181.751C52.7162 181.81 52.823 181.751 52.7696 181.662C52.1764 180.906 51.6247 180.168 50.9899 179.466C50.6103 179.061 50.2188 178.668 49.8035 178.275H49.9281C50.284 178.335 50.634 178.389 50.9899 178.436C51.684 178.525 52.384 178.597 53.084 178.674C53.1433 178.716 53.167 178.627 53.1077 178.621Z" fill="#263238"/>
<path d="M47.8223 182.024C47.8223 181.935 47.8223 181.852 47.7807 181.762C47.7392 181.673 47.7036 181.548 47.6858 181.435C47.5316 180.763 47.4011 180.084 47.2765 179.406C47.2765 179.358 47.1935 179.376 47.1994 179.406C47.2499 180.308 47.4504 181.195 47.7926 182.03C47.7926 182.03 47.8519 182.03 47.846 182.03L47.8223 182.024Z" fill="#263238"/>
<path d="M41.5225 181.863C41.5225 181.852 41.5181 181.842 41.5103 181.834C41.5025 181.826 41.492 181.822 41.481 181.822C41.2674 180.935 41.0657 180.036 40.8878 179.15C40.7928 178.68 40.692 178.209 40.603 177.733L40.4606 176.972C40.4404 176.747 40.3864 176.526 40.3005 176.317C40.2964 176.31 40.2904 176.303 40.283 176.299C40.2757 176.295 40.2674 176.292 40.2589 176.292C40.2505 176.292 40.2421 176.295 40.2348 176.299C40.2275 176.303 40.2215 176.31 40.2174 176.317C40.2069 176.773 40.271 177.227 40.4072 177.662C40.4962 178.15 40.5911 178.644 40.6979 179.126C40.9194 180.118 41.1685 181.109 41.4454 182.101C41.4454 182.155 41.5462 182.143 41.5462 182.101L41.5225 181.863Z" fill="#263238"/>
<path d="M52.4255 175.728C51.0492 175.538 49.6729 175.341 48.2729 175.175C48.2196 175.175 48.1899 175.258 48.2729 175.264C49.6433 175.466 51.0195 175.639 52.4255 175.818C52.4611 175.829 52.5144 175.74 52.4255 175.728Z" fill="#263238"/>
<path d="M28.786 148.051C28.786 148.051 24.1649 127.818 45.8707 119.588C45.8707 119.588 51.8859 146.266 28.786 148.051Z" fill="url(#paint16_linear_153_3100)"/>
<path d="M33.455 136.56L33.6923 136.417L34.9143 135.732L37.4355 134.316C39.0906 133.388 40.7279 132.424 42.3948 131.513C42.4482 131.484 42.3948 131.406 42.3473 131.436C40.6745 132.346 38.9779 133.221 37.2931 134.09L34.8076 135.411L33.7872 135.947C34.511 134.572 35.2881 133.221 36.1601 131.918C37.2931 130.18 38.533 128.532 39.8321 126.913C39.8418 126.898 39.8461 126.881 39.8443 126.863C39.8425 126.845 39.8347 126.829 39.8222 126.816C39.8096 126.804 39.7931 126.796 39.7755 126.794C39.7579 126.792 39.7402 126.796 39.7253 126.806C37.82 128.664 36.1359 130.736 34.7067 132.983C34.7067 132.912 34.7067 132.84 34.7067 132.769C34.7067 132.263 34.7423 131.763 34.7542 131.257C34.7542 130.27 34.7186 129.276 34.7542 128.282C34.7542 128.222 34.6652 128.228 34.6593 128.282C34.6237 129.252 34.505 130.222 34.4516 131.198C34.422 131.68 34.3982 132.168 34.3864 132.656C34.3864 132.918 34.3508 133.215 34.3864 133.507C33.9415 134.215 33.5084 134.941 33.105 135.673C32.3777 136.994 31.73 138.357 31.1652 139.755C31.1652 139.249 31.1118 138.75 31.0822 138.244C31.0169 137.131 30.8805 136.03 30.8389 134.917C30.8389 134.905 30.8339 134.892 30.825 134.884C30.8161 134.875 30.8041 134.87 30.7915 134.87C30.7789 134.87 30.7668 134.875 30.7579 134.884C30.749 134.892 30.744 134.905 30.744 134.917C30.744 136.024 30.744 137.137 30.744 138.244C30.744 138.803 30.7796 139.357 30.8152 139.91L30.8508 140.505C30.1606 142.316 29.6132 144.178 29.2135 146.075C28.8265 148.106 28.5434 150.156 28.3652 152.216C28.6091 150.368 29.006 148.542 29.5517 146.759C29.8166 145.799 30.1014 144.849 30.4059 143.909C31.3076 143.481 32.1855 142.951 33.0457 142.463C33.9059 141.975 34.8669 141.469 35.7745 140.969C37.5542 139.97 39.3872 138.958 41.2618 138.077C41.3151 138.077 41.2618 137.976 41.2084 138C39.316 138.857 37.4118 139.678 35.555 140.612C34.6296 141.076 33.716 141.576 32.8144 142.088C32.061 142.511 31.2898 142.939 30.5661 143.427C30.7796 142.796 30.9991 142.171 31.2364 141.547C31.8889 139.856 32.6285 138.194 33.455 136.56Z" fill="#263238"/>
<path d="M31.6275 131.93C31.6275 131.87 31.5326 131.87 31.5326 131.93C31.6097 133.084 31.6512 134.239 31.7758 135.393C31.7795 135.404 31.7863 135.413 31.7953 135.419C31.8043 135.426 31.8152 135.429 31.8262 135.429C31.8373 135.429 31.8481 135.426 31.8572 135.419C31.8662 135.413 31.873 135.404 31.8767 135.393C31.8351 134.233 31.7106 133.084 31.6275 131.93Z" fill="#263238"/>
<path d="M42.0325 135.798C40.674 136.345 39.3037 136.869 37.9511 137.434C37.9155 137.434 37.9511 137.512 37.9511 137.5C39.3274 136.982 40.6799 136.423 42.0443 135.887C42.1155 135.863 42.0918 135.774 42.0325 135.798Z" fill="#263238"/>
<path d="M44.0967 126.449C42.7692 127.063 41.4796 127.756 40.2348 128.525C40.2282 128.53 40.2225 128.535 40.218 128.542C40.2135 128.548 40.2104 128.556 40.2087 128.563C40.2054 128.579 40.2084 128.595 40.217 128.609C40.2257 128.622 40.2393 128.632 40.2549 128.635C40.2704 128.638 40.2867 128.635 40.3001 128.627C41.5577 127.889 42.839 127.181 44.1441 126.532C44.2094 126.502 44.1501 126.425 44.0967 126.449Z" fill="#263238"/>
<path d="M43.4981 195.515H12.8525V227.917H43.4981V195.515Z" fill="#455A64"/>
<path d="M12.3067 206.976H10.7406V268.425H12.3067V206.976Z" fill="#263238"/>
<path d="M45.4316 206.976H43.8655V268.425H45.4316V206.976Z" fill="#263238"/>
<path d="M29.7053 206.976H28.1392V268.425H29.7053V206.976Z" fill="#263238"/>
<path d="M44.6488 225.841H11.5236V230.328H44.6488V225.841Z" fill="#263238"/>
</g>
<defs>
<linearGradient id="paint0_linear_153_3100" x1="67.7712" y1="234.333" x2="90.5313" y2="277.41" gradientUnits="userSpaceOnUse">
<stop stop-color="#E9038A"/>
<stop offset="1" stop-color="#0A6195"/>
</linearGradient>
<linearGradient id="paint1_linear_153_3100" x1="67.7712" y1="259.077" x2="90.5314" y2="302.154" gradientUnits="userSpaceOnUse">
<stop stop-color="#E9038A"/>
<stop offset="1" stop-color="#0A6195"/>
</linearGradient>
<linearGradient id="paint2_linear_153_3100" x1="64.4923" y1="263.364" x2="107.676" y2="317.562" gradientUnits="userSpaceOnUse">
<stop stop-color="#E9038A"/>
<stop offset="1" stop-color="#0A6195"/>
</linearGradient>
<linearGradient id="paint3_linear_153_3100" x1="72.6531" y1="241.317" x2="158.156" y2="268.249" gradientUnits="userSpaceOnUse">
<stop stop-color="#E9038A"/>
<stop offset="1" stop-color="#0A6195"/>
</linearGradient>
<linearGradient id="paint4_linear_153_3100" x1="91.7787" y1="137.572" x2="162.829" y2="140.58" gradientUnits="userSpaceOnUse">
<stop stop-color="#E9038A"/>
<stop offset="1" stop-color="#0A6195"/>
</linearGradient>
<linearGradient id="paint5_linear_153_3100" x1="65.269" y1="144.651" x2="154.127" y2="149.737" gradientUnits="userSpaceOnUse">
<stop stop-color="#E9038A"/>
<stop offset="1" stop-color="#0A6195"/>
</linearGradient>
<linearGradient id="paint6_linear_153_3100" x1="96.3677" y1="118.828" x2="122.583" y2="121.618" gradientUnits="userSpaceOnUse">
<stop stop-color="#E9038A"/>
<stop offset="1" stop-color="#0A6195"/>
</linearGradient>
<linearGradient id="paint7_linear_153_3100" x1="196.519" y1="9.30996" x2="238.822" y2="11.9214" gradientUnits="userSpaceOnUse">
<stop stop-color="#E9038A"/>
<stop offset="1" stop-color="#0A6195"/>
</linearGradient>
<linearGradient id="paint8_linear_153_3100" x1="198.232" y1="10.9911" x2="236.943" y2="13.275" gradientUnits="userSpaceOnUse">
<stop stop-color="#E9038A"/>
<stop offset="1" stop-color="#0A6195"/>
</linearGradient>
<linearGradient id="paint9_linear_153_3100" x1="124.929" y1="227.731" x2="158.116" y2="229.587" gradientUnits="userSpaceOnUse">
<stop stop-color="#E9038A"/>
<stop offset="1" stop-color="#0A6195"/>
</linearGradient>
<linearGradient id="paint10_linear_153_3100" x1="172.712" y1="265.397" x2="199.241" y2="290.559" gradientUnits="userSpaceOnUse">
<stop stop-color="#E9038A"/>
<stop offset="1" stop-color="#0A6195"/>
</linearGradient>
<linearGradient id="paint11_linear_153_3100" x1="17.1093" y1="135.049" x2="29.9783" y2="135.615" gradientUnits="userSpaceOnUse">
<stop stop-color="#E9038A"/>
<stop offset="1" stop-color="#0A6195"/>
</linearGradient>
<linearGradient id="paint12_linear_153_3100" x1="1.49788" y1="176.357" x2="23.1002" y2="178.068" gradientUnits="userSpaceOnUse">
<stop stop-color="#E9038A"/>
<stop offset="1" stop-color="#0A6195"/>
</linearGradient>
<linearGradient id="paint13_linear_153_3100" x1="8.79633" y1="149.876" x2="24.763" y2="150.786" gradientUnits="userSpaceOnUse">
<stop stop-color="#E9038A"/>
<stop offset="1" stop-color="#0A6195"/>
</linearGradient>
<linearGradient id="paint14_linear_153_3100" x1="34.6997" y1="149.982" x2="60.6281" y2="152.899" gradientUnits="userSpaceOnUse">
<stop stop-color="#E9038A"/>
<stop offset="1" stop-color="#0A6195"/>
</linearGradient>
<linearGradient id="paint15_linear_153_3100" x1="33.5748" y1="172.875" x2="58.3729" y2="175.441" gradientUnits="userSpaceOnUse">
<stop stop-color="#E9038A"/>
<stop offset="1" stop-color="#0A6195"/>
</linearGradient>
<linearGradient id="paint16_linear_153_3100" x1="29.0481" y1="124.816" x2="46.7873" y2="125.591" gradientUnits="userSpaceOnUse">
<stop stop-color="#E9038A"/>
<stop offset="1" stop-color="#0A6195"/>
</linearGradient>
<clipPath id="clip0_153_3100">
<rect width="255.658" height="268.249" fill="white" transform="translate(0.678955 0.456055)"/>
</clipPath>
</defs>
</svg>
