<svg width="51" height="60" viewBox="0 0 51 60" fill="none" xmlns="http://www.w3.org/2000/svg">
<circle cx="36" cy="43.5" r="12.5" fill="#1688CC" fill-opacity="0.3"/>
<g clip-path="url(#clip0_152_1471)">
<path d="M50.4996 41.4274C50.4684 42.0889 50.4011 42.7482 50.298 43.4023C50.2529 43.7613 50.1134 44.102 49.8939 44.3896C49.6743 44.6772 49.3825 44.9015 49.0481 45.0397C48.4231 45.3131 47.7982 45.5741 47.1732 45.8381C46.6326 46.0662 46.0952 46.0647 45.6108 45.7162C45.5164 45.6372 45.3992 45.5905 45.2764 45.5829C45.1535 45.5754 45.0315 45.6073 44.9281 45.6741C43.574 46.3115 42.2147 46.9412 40.8502 47.563C40.7344 47.6028 40.6329 47.6756 40.5582 47.7725C40.4835 47.8695 40.4389 47.9862 40.4299 48.1083C40.2362 49.4394 39.4784 50.2956 38.1535 50.6081C37.8504 50.6784 37.7723 50.7956 37.7582 51.1034C37.6988 52.5096 36.8051 53.547 35.4021 53.8314C35.0896 53.8954 35.0099 54.0251 34.9834 54.3251C34.8521 55.814 33.8131 56.7905 32.2898 56.8718C32.0554 56.8843 31.9132 56.9015 31.832 57.1843C31.2695 59.0857 29.6571 59.7966 27.8604 58.9576C27.6969 58.8911 27.54 58.8095 27.3917 58.7139C27.1557 58.5467 27.0245 58.5889 26.8292 58.8185C25.5215 60.3606 23.4513 60.2856 22.2326 58.6529C22.0529 58.4108 21.9357 58.3967 21.6701 58.4967C20.2452 59.031 19.014 58.6529 18.1485 57.3889C17.9719 57.1311 17.8485 57.139 17.5907 57.2233C15.5111 57.9077 13.6269 56.4531 13.7784 54.2704C13.8034 53.8985 13.7175 53.7876 13.3488 53.7064C12.9408 53.6208 12.5569 53.4455 12.225 53.1934C11.893 52.9412 11.6213 52.6184 11.4295 52.2483C11.2376 51.8782 11.1304 51.47 11.1157 51.0534C11.101 50.6368 11.179 50.2222 11.3442 49.8394C11.4833 49.4988 11.4317 49.3098 11.2083 49.0285C10.5458 48.1973 9.69744 47.6552 8.75063 47.2099C7.80381 46.7646 6.91168 46.2725 6.0008 45.7944C5.74144 45.6569 5.53208 45.6006 5.25241 45.7819C4.81337 46.0678 4.32434 46.0428 3.84625 45.8475C3.18066 45.5725 2.51508 45.296 1.86043 44.9991C1.54725 44.8612 1.27513 44.6445 1.0706 44.3701C0.866062 44.0958 0.736081 43.7731 0.693319 43.4336C0.113668 40.1166 0.891748 37.0558 2.47446 34.1592C3.34701 32.5652 4.50835 31.1475 5.89925 29.9782C6.90387 29.1267 7.55227 29.0673 8.71157 29.7063C9.42871 30.1 10.1412 30.5 10.8567 30.8953C11.263 31.1218 11.6036 31.4249 11.6864 31.8952C11.752 32.2702 11.977 32.4436 12.2738 32.6202C14.3706 33.8701 16.6486 34.0263 18.9922 33.7717C20.9546 33.5654 22.8982 33.5764 24.6528 34.6622C24.9231 34.8294 25.0871 34.6622 25.2777 34.556C27.0885 33.5076 29.0025 32.8936 31.1274 33.1186C32.1226 33.2233 33.0413 33.6357 34.0287 33.7717C35.9036 34.031 37.5035 33.328 39.0425 32.3905C39.0911 32.358 39.1317 32.3148 39.1609 32.2641C39.1902 32.2134 39.2074 32.1567 39.2112 32.0983C39.3237 31.4343 39.7659 31.064 40.3299 30.7703C41.0377 30.4016 41.7361 30.0032 42.422 29.6079C43.2828 29.1173 44.1047 29.1751 44.8609 29.8079C47.7826 32.2515 49.5684 35.3606 50.2684 39.0995C50.4059 39.8683 50.4832 40.6466 50.4996 41.4274ZM23.3247 35.7778C22.881 35.6434 22.5904 35.5341 22.292 35.4653C21.2092 35.2185 20.1187 35.3091 19.0328 35.42C16.3314 35.7153 13.7409 35.4294 11.377 33.9763C11.0489 33.7748 10.8661 33.8764 10.6271 34.0982C7.8585 36.6762 6.3612 39.8515 6.13517 43.6242C6.1133 43.9726 6.26172 44.1038 6.52577 44.2382C7.91475 44.9429 9.29434 45.6647 10.6833 46.3693C11.0483 46.5534 11.3754 46.8047 11.6473 47.1099C12.3723 47.9161 12.3801 47.9114 12.9582 46.9677C13.5738 45.9647 14.4675 45.4553 15.6408 45.5334C16.8142 45.6116 17.6126 46.2162 18.0704 47.2693C18.1938 47.5536 18.3094 47.6411 18.6234 47.6021C19.9437 47.4458 21.0655 48.0708 21.592 49.2832C21.7264 49.5957 21.8561 49.6613 22.1857 49.6332C23.5825 49.516 24.5793 50.1113 25.1543 51.4096C25.2762 51.6831 25.4043 51.7221 25.6777 51.6862C26.3794 51.5842 27.0938 51.7501 27.6788 52.1507C28.2638 52.5513 28.6767 53.1574 28.8353 53.8485C29.0478 54.786 28.7634 55.6078 28.2713 56.3999C27.8026 57.153 27.8229 57.164 28.6166 57.4936C29.2853 57.7733 29.8352 57.6499 30.1118 57.1655C30.4008 56.6546 30.2415 56.2281 29.5853 55.7594C29.1165 55.4328 28.9947 55.0219 29.2306 54.6141C29.4665 54.2063 29.9337 54.097 30.4477 54.3735C30.8758 54.6047 31.2852 54.8719 31.7195 55.0907C31.97 55.2302 32.2652 55.2658 32.5416 55.1898C32.818 55.1138 33.0536 54.9323 33.1975 54.6844C33.3438 54.4386 33.3903 54.1459 33.3272 53.8669C33.2641 53.5878 33.0963 53.3436 32.8585 53.1845C32.5898 52.9939 32.2898 52.847 32.007 52.6752C31.4539 52.3393 31.2961 51.9159 31.5523 51.4721C31.8086 51.0284 32.2695 50.955 32.8226 51.2596C33.3163 51.5331 33.7928 51.8377 34.2975 52.0908C34.5796 52.2412 34.9091 52.2763 35.2166 52.1886C35.5241 52.1009 35.7855 51.8973 35.9459 51.6207C36.1062 51.3441 36.153 51.0161 36.0764 50.7057C35.9997 50.3953 35.8056 50.1267 35.5349 49.9566C35.2771 49.78 34.9974 49.6441 34.7318 49.4785C34.1803 49.1457 34.0147 48.7161 34.2631 48.277C34.5115 47.838 34.974 47.7458 35.5286 48.052C36.0411 48.3348 36.5333 48.652 37.0582 48.9051C37.3243 49.0346 37.6289 49.0611 37.9133 48.9795C38.1977 48.8978 38.4419 48.7138 38.5988 48.4629C38.7621 48.228 38.8337 47.9414 38.8 47.6572C38.7663 47.3731 38.6297 47.1111 38.416 46.9209C38.2448 46.7624 38.0548 46.6254 37.8504 46.5131C35.6771 45.2538 33.4756 44.0445 31.332 42.7336C29.2228 41.4415 27.1401 41.3618 24.9684 42.5227C24.1086 43.0141 23.1988 43.4122 22.2545 43.7101C21.6291 43.9072 20.9666 43.9566 20.3189 43.8544C19.6713 43.7522 19.0562 43.5012 18.5219 43.1211C16.8704 42.0118 16.5736 39.8213 18.6297 38.687C20.1921 37.8277 21.6701 36.8121 23.3247 35.7778ZM44.8234 43.3523C44.5109 39.701 43.0813 36.7277 40.544 34.2607C40.119 33.8498 39.8206 33.8014 39.3112 34.117C37.2082 35.4169 34.9287 35.8825 32.5429 35.1122C30.229 34.3654 28.1244 34.7607 26.1199 35.984C23.8434 37.373 21.5889 38.7964 19.325 40.2025C18.6766 40.6072 18.6484 41.0868 19.2359 41.5962C19.5574 41.8982 19.9532 42.1097 20.3829 42.2093C20.8126 42.3089 21.261 42.2931 21.6826 42.1633C22.6841 41.8852 23.5981 41.3993 24.5184 40.9384C27.0589 39.6666 29.5181 39.7635 31.9695 41.2196C34.2272 42.5618 36.5176 43.8507 38.7956 45.16C39.1278 45.3267 39.4219 45.5602 39.6596 45.8459C39.8893 46.1584 40.1018 46.1162 40.4033 45.974C41.6689 45.3725 42.9375 44.7788 44.2187 44.2148C44.6828 44.0163 45.0109 43.796 44.8234 43.3508V43.3523ZM40.9299 32.3296C40.946 32.3772 40.9686 32.4225 40.997 32.4639C41.122 32.5858 41.2517 32.703 41.3814 32.8217C44.3187 35.5356 46.0124 38.8745 46.4248 42.8586C46.4717 43.318 46.2967 43.9851 46.6155 44.182C46.9342 44.3788 47.4388 43.8835 47.8841 43.7617C48.4653 43.6054 48.7184 43.2461 48.7684 42.643C49.1528 37.9558 47.3623 34.1888 43.8953 31.1297C43.7031 30.9593 43.5172 30.8828 43.2703 31.025C42.4907 31.4656 41.708 31.8952 40.9299 32.328V32.3296ZM10.1084 32.3624C9.2631 31.8937 8.49596 31.4687 7.73663 31.0359C7.63932 30.9712 7.52212 30.9434 7.40612 30.9574C7.29012 30.9715 7.18294 31.0264 7.10386 31.1125C3.87594 33.8998 2.12292 37.3918 2.14167 41.6852C2.14948 43.3867 2.21978 43.3867 3.77437 44.0382C3.81031 44.0532 3.84528 44.0704 3.87906 44.0898C4.33372 44.3538 4.48683 44.232 4.50402 43.6992C4.59523 41.0807 5.35873 38.5298 6.72107 36.2918C7.63949 34.8138 8.78225 33.4876 10.1084 32.3608V32.3624ZM15.3971 54.5485C15.3871 54.8041 15.4623 55.0559 15.6107 55.2642C15.7591 55.4726 15.9725 55.6259 16.2173 55.7C16.7939 55.9047 17.3517 55.6797 17.7032 55.0844C18.4729 53.7782 19.2317 52.4648 19.9796 51.144C20.3796 50.4394 20.2046 49.7238 19.5843 49.3738C18.964 49.0238 18.2703 49.2395 17.8657 49.941C17.1079 51.2331 16.3658 52.533 15.6143 53.8298C15.4767 54.0412 15.4015 54.287 15.3971 54.5391V54.5485ZM23.7372 52.4955C23.7415 52.2315 23.6614 51.973 23.5085 51.7577C23.3556 51.5424 23.138 51.3816 22.8872 51.2987C22.3388 51.1253 21.7779 51.3378 21.4436 51.8971C20.8077 52.9642 20.1937 54.0423 19.5765 55.125C19.175 55.8312 19.3297 56.5468 19.9343 56.9077C20.5702 57.2874 21.2655 57.0733 21.6998 56.3359C22.3123 55.2985 22.906 54.2501 23.506 53.2111C23.6497 52.9995 23.73 52.7512 23.7372 52.4955ZM13.9737 52.133C14.3628 52.1158 14.7299 52.0018 14.9346 51.6643C15.4986 50.7362 16.0595 49.8019 16.5626 48.8395C16.8501 48.288 16.5861 47.6271 16.0658 47.324C15.5455 47.0209 14.8346 47.1068 14.5034 47.6364C13.9023 48.5652 13.3531 49.5265 12.8582 50.5159C12.4863 51.269 13.1285 52.133 13.9737 52.133ZM27.2807 54.7219C27.2573 53.9517 26.9964 53.5657 26.4995 53.372C26.0027 53.1783 25.4855 53.2673 25.1793 53.697C24.5204 54.6342 23.9453 55.6275 23.4606 56.6655C23.2341 57.1452 23.4106 57.6296 23.8231 57.9764C24.2356 58.3233 24.7778 58.4451 25.1652 58.1014C26.2261 57.1296 26.7026 55.7765 27.276 54.7219H27.2807Z" fill="black"/>
<path d="M25.4766 32.272H15.1304C14.1164 32.272 13.9039 32.0517 13.9023 31.0314C13.9023 30.583 13.9023 30.1346 13.9023 29.6862C13.9023 28.5691 14.3976 27.7426 15.3773 27.2239C15.6288 27.0911 15.7616 26.9645 15.7772 26.6645C15.7934 26.2828 15.8948 25.9095 16.0741 25.5721C16.2533 25.2347 16.5058 24.9417 16.8131 24.7146C17.1021 24.4928 17.1662 24.26 17.1662 23.9334C17.1568 19.1608 17.1568 14.3872 17.1662 9.61247C17.1787 5.36898 19.8848 1.98794 23.9658 1.15049C26.2235 0.681772 28.3405 1.12393 30.2763 2.37229C30.9169 2.78477 30.9857 3.11912 30.6122 3.79564C30.0857 4.74714 30.0857 4.74715 30.9341 5.39085C32.6246 6.67307 34.3151 7.95632 36.0057 9.24062C36.715 9.77965 36.7681 10.0421 36.3494 10.8171C35.8807 11.6889 35.3807 12.5513 34.9307 13.4341C34.6573 13.9684 34.2651 14.1466 33.6917 14.0591C33.0762 13.9591 32.4574 13.8825 31.8372 13.82C31.2888 13.7638 30.9669 13.495 30.7935 12.9623C30.4966 12.0514 30.3419 11.9904 29.3873 12.2561C28.4616 12.5126 27.4817 12.4979 26.5641 12.2139C26.3813 12.1607 26.1157 11.9014 26.0078 12.1482C25.886 12.4201 25.8266 12.7732 26.1641 13.0451C26.6328 13.42 27.075 13.8372 27.5296 14.2356C29.2014 15.7043 30.8247 17.2151 31.984 19.1509C32.8739 20.6204 33.4476 22.2594 33.6683 23.9631C33.6778 24.0964 33.7173 24.2257 33.7839 24.3415C33.8504 24.4573 33.9423 24.5566 34.0527 24.6318C34.3905 24.8661 34.6698 25.175 34.8692 25.5345C35.0686 25.894 35.1827 26.2945 35.2026 26.7051C35.2182 26.9786 35.3385 27.0989 35.5744 27.2207C36.5822 27.7426 37.0837 28.5878 37.0775 29.7206C37.0775 30.2471 37.0775 30.7736 37.0775 31.3002C37.0665 31.9736 36.7962 32.2595 36.115 32.2736C35.2385 32.2923 34.362 32.2736 33.4839 32.2736L25.4766 32.272ZM18.8005 16.1121C18.8005 18.5478 18.8145 20.9836 18.7895 23.4194C18.7895 23.896 18.8989 24.0444 19.3958 24.0444C23.3127 24.0225 27.2296 24.0334 31.1466 24.0334C32.084 24.0334 32.084 24.0334 31.8637 23.096C31.3028 20.6274 29.9217 18.6588 28.114 16.9651C26.9906 15.9136 25.8313 14.8996 24.6767 13.8809C24.5154 13.7531 24.3921 13.5837 24.32 13.391C24.2478 13.1983 24.2296 12.9896 24.2673 12.7873C24.3564 12.1311 24.397 11.4702 24.4595 10.8108C24.497 10.4155 24.5532 10.0296 24.972 9.8312C25.3907 9.63277 25.7094 9.84682 26.0328 10.0859C26.9172 10.7343 27.9171 11.0093 28.9545 10.6358C29.6732 10.378 30.3013 10.4687 30.9857 10.6358C31.5809 10.7921 31.9637 11.0624 32.1059 11.6701C32.1465 11.8483 32.1653 12.0623 32.3606 12.1732C32.4985 12.2516 32.6508 12.3014 32.8083 12.3196C32.9659 12.3378 33.1255 12.324 33.2777 12.2791C33.4298 12.2342 33.5713 12.159 33.6937 12.0582C33.8162 11.9573 33.917 11.8328 33.9902 11.692C34.1667 11.367 34.3183 11.0249 34.5245 10.7202C34.7307 10.4155 34.6557 10.2359 34.3683 10.0218C32.6496 8.73909 30.9528 7.43448 29.2451 6.14081C27.9733 5.17993 27.9624 5.1768 28.728 3.76595C28.8842 3.48784 28.8452 3.38004 28.5639 3.25193C27.7343 2.8592 26.8343 2.6366 25.9172 2.59728C22.0003 2.46447 18.8536 5.45022 18.8036 9.37342C18.777 11.6295 18.8005 13.8716 18.8005 16.1121ZM25.461 30.6424H31.3075C32.5356 30.6424 33.7636 30.6424 34.9917 30.6424C35.1666 30.6424 35.3729 30.7158 35.4432 30.4174C35.7135 29.2644 35.1963 28.58 34.0276 28.58H17.0131C15.821 28.58 15.5616 28.8722 15.5257 30.0627C15.5116 30.583 15.7069 30.658 16.1647 30.6565C19.263 30.6221 22.3628 30.6346 25.461 30.6346V30.6424ZM25.486 26.9379C27.939 26.9379 30.3935 26.9379 32.8465 26.9379C33.0824 26.9379 33.4386 27.077 33.5308 26.8301C33.6558 26.4973 33.3886 26.2052 33.134 25.9849C32.8939 25.7796 32.5874 25.6686 32.2715 25.6724C31.9403 25.6724 31.6091 25.6724 31.2778 25.6724C27.1708 25.6724 23.0622 25.6724 18.952 25.6724C18.3724 25.6724 17.8583 25.7927 17.5459 26.3317C17.2771 26.7895 17.3615 26.9395 17.8834 26.9411L25.486 26.9379Z" fill="black"/>
</g>
<defs>
<clipPath id="clip0_152_1471">
<rect width="50" height="58.9557" fill="white" transform="translate(0.5 0.960449)"/>
</clipPath>
</defs>
</svg>
