<svg width="48" height="36" viewBox="0 0 48 36" fill="none" xmlns="http://www.w3.org/2000/svg">
<path d="M39 17.8821V18.1286C39 20.2714 37.7255 22.1893 35.7869 23.0357V23.3571C35.7869 25.9714 33.9018 28.1571 31.417 28.6286C30.9564 31.1143 28.7715 33 26.1474 33C23.7804 33 21.8633 31.0821 21.8633 28.7143V25.5H19.507C19.3249 25.5 19.1642 25.5857 19.0571 25.7464L18.0503 27.2464C18.4252 27.825 18.6394 28.5107 18.6394 29.25C18.6394 31.3179 16.9579 33 14.8908 33C12.8236 33 11.1421 31.3179 11.1421 29.25C11.1421 27.1821 12.8236 25.5 14.8908 25.5C15.437 25.5 15.9511 25.6179 16.4116 25.8321L17.2685 24.5571C17.7719 23.8071 18.5966 23.3571 19.4963 23.3571H21.8526V19.0714H16.326C15.8654 20.6143 14.4409 21.75 12.7487 21.75C10.6815 21.75 9 20.0679 9 18C9 15.9321 10.6815 14.25 12.7487 14.25C14.4409 14.25 15.8547 15.3857 16.326 16.9286H21.8526V12.6429H19.4963C18.5966 12.6429 17.7612 12.1929 17.2685 11.4536L16.4116 10.1786C15.9404 10.3929 15.437 10.5107 14.8908 10.5107C12.8236 10.5107 11.1421 8.82857 11.1421 6.76071C11.1421 4.69286 12.8236 3.01071 14.8908 3.01071C16.9579 3.01071 18.6394 4.69286 18.6394 6.76071C18.6394 7.5 18.4145 8.18571 18.0503 8.76429L19.0571 10.2643C19.1535 10.4143 19.3249 10.5 19.507 10.5H21.8633V7.28571C21.8633 4.91786 23.7804 3 26.1474 3C28.7608 3 30.9457 4.88571 31.417 7.37143C33.9018 7.83214 35.7869 10.0179 35.7869 12.6429V12.9643C37.7255 13.8107 39 15.7286 39 17.8714V17.8821Z" fill="white"/>
</svg>
