<svg width="191" height="64" viewBox="0 0 191 64" fill="none" xmlns="http://www.w3.org/2000/svg">
<path d="M16.3125 0.5H174.438L190.25 17.75H0.5L16.3125 0.5Z" fill="#9295BB"/>
<path d="M17.5 0.5H175L147.609 63.5H44.8913L17.5 0.5Z" fill="url(#paint0_linear_800_615)"/>
<path d="M112 31.8821V32.1286C112 34.2714 110.725 36.1893 108.787 37.0357V37.3571C108.787 39.9714 106.902 42.1571 104.417 42.6286C103.956 45.1143 101.772 47 99.1474 47C96.7804 47 94.8633 45.0821 94.8633 42.7143V39.5H92.507C92.3249 39.5 92.1642 39.5857 92.0571 39.7464L91.0503 41.2464C91.4252 41.825 91.6394 42.5107 91.6394 43.25C91.6394 45.3179 89.9579 47 87.8908 47C85.8236 47 84.1421 45.3179 84.1421 43.25C84.1421 41.1821 85.8236 39.5 87.8908 39.5C88.437 39.5 88.9511 39.6179 89.4116 39.8321L90.2685 38.5571C90.7719 37.8071 91.5966 37.3571 92.4963 37.3571H94.8526V33.0714H89.326C88.8654 34.6143 87.4409 35.75 85.7487 35.75C83.6815 35.75 82 34.0679 82 32C82 29.9321 83.6815 28.25 85.7487 28.25C87.4409 28.25 88.8547 29.3857 89.326 30.9286H94.8526V26.6429H92.4963C91.5966 26.6429 90.7612 26.1929 90.2685 25.4536L89.4116 24.1786C88.9404 24.3929 88.437 24.5107 87.8908 24.5107C85.8236 24.5107 84.1421 22.8286 84.1421 20.7607C84.1421 18.6929 85.8236 17.0107 87.8908 17.0107C89.9579 17.0107 91.6394 18.6929 91.6394 20.7607C91.6394 21.5 91.4145 22.1857 91.0503 22.7643L92.0571 24.2643C92.1535 24.4143 92.3249 24.5 92.507 24.5H94.8633V21.2857C94.8633 18.9179 96.7804 17 99.1474 17C101.761 17 103.946 18.8857 104.417 21.3714C106.902 21.8321 108.787 24.0179 108.787 26.6429V26.9643C110.725 27.8107 112 29.7286 112 31.8714V31.8821Z" fill="white"/>
<defs>
<linearGradient id="paint0_linear_800_615" x1="23.3333" y1="12.0714" x2="172.76" y2="37.5979" gradientUnits="userSpaceOnUse">
<stop stop-color="#E9038A"/>
<stop offset="1" stop-color="#0A6195"/>
</linearGradient>
</defs>
</svg>
