<svg width="80" height="60" viewBox="0 0 80 60" fill="none" xmlns="http://www.w3.org/2000/svg">
<rect width="80" height="60" rx="12" fill="white"/>
<path d="M38.6667 16.8465V17.9535C39.2148 17.8117 39.7852 17.8117 40.3333 17.9535V16.8465C41.3012 16.5013 42 15.585 42 14.5C42 13.1215 40.8785 12 39.5 12C38.1215 12 37 13.1215 37 14.5C37 15.585 37.6988 16.5013 38.6667 16.8465ZM39.5 13.6667C39.9598 13.6667 40.3333 14.0402 40.3333 14.5C40.3333 14.9598 39.9598 15.3333 39.5 15.3333C39.0402 15.3333 38.6667 14.9598 38.6667 14.5C38.6667 14.0402 39.0402 13.6667 39.5 13.6667ZM23.6667 16.8465V26.1667C23.6667 26.4825 23.8448 26.7705 24.1273 26.9122L27.8333 28.7652V26.9015L25.3333 25.6515V16.8465C26.3012 16.5013 27 15.585 27 14.5C27 13.1215 25.8785 12 24.5 12C23.1215 12 22 13.1215 22 14.5C22 15.585 22.6988 16.5013 23.6667 16.8465ZM24.5 13.6667C24.9598 13.6667 25.3333 14.0402 25.3333 14.5C25.3333 14.9598 24.9598 15.3333 24.5 15.3333C24.0402 15.3333 23.6667 14.9598 23.6667 14.5C23.6667 14.0402 24.0402 13.6667 24.5 13.6667ZM39.5 47C40.8785 47 42 45.8785 42 44.5C42 43.415 41.3012 42.4987 40.3333 42.1535V41.0467C40.0592 41.1178 39.7808 41.1667 39.5 41.1667C39.2192 41.1667 38.9408 41.1177 38.6667 41.0467V42.1535C37.6988 42.4987 37 43.415 37 44.5C37 45.8785 38.1215 47 39.5 47ZM39.5 43.6667C39.9598 43.6667 40.3333 44.0402 40.3333 44.5C40.3333 44.9598 39.9598 45.3333 39.5 45.3333C39.0402 45.3333 38.6667 44.9598 38.6667 44.5C38.6667 44.0402 39.0402 43.6667 39.5 43.6667ZM48.6667 46.1667C48.6667 46.6268 48.2935 47 47.8333 47C47.3732 47 47 46.6268 47 46.1667C47 45.7065 47.3732 45.3333 47.8333 45.3333C48.2935 45.3333 48.6667 45.7063 48.6667 46.1667ZM30.3333 46.1667C30.3333 45.7063 30.7065 45.3333 31.1667 45.3333C31.6268 45.3333 32 45.7063 32 46.1667C32 46.627 31.6268 47 31.1667 47C30.7065 47 30.3333 46.6268 30.3333 46.1667ZM47 12.8333C47 12.373 47.3732 12 47.8333 12C48.2935 12 48.6667 12.373 48.6667 12.8333C48.6667 13.2937 48.2935 13.6667 47.8333 13.6667C47.3732 13.6667 47 13.2935 47 12.8333ZM50.3333 19.5C50.3333 19.0397 50.7065 18.6667 51.1667 18.6667C51.6268 18.6667 52 19.0397 52 19.5C52 19.9603 51.6268 20.3333 51.1667 20.3333C50.7065 20.3333 50.3333 19.9602 50.3333 19.5ZM27 19.5C27 19.0397 27.3732 18.6667 27.8333 18.6667C28.2935 18.6667 28.6667 19.0397 28.6667 19.5C28.6667 19.9603 28.2935 20.3333 27.8333 20.3333C27.3732 20.3333 27 19.9602 27 19.5ZM22 29.5C22 29.0397 22.3732 28.6667 22.8333 28.6667C23.2935 28.6667 23.6667 29.0397 23.6667 29.5C23.6667 29.9603 23.2935 30.3333 22.8333 30.3333C22.3732 30.3333 22 29.9602 22 29.5ZM57 29.5C57 29.9602 56.6268 30.3333 56.1667 30.3333C55.7065 30.3333 55.3333 29.9602 55.3333 29.5C55.3333 29.0398 55.7065 28.6667 56.1667 28.6667C56.6268 28.6667 57 29.0397 57 29.5ZM50.3333 39.5C50.3333 39.0397 50.7065 38.6667 51.1667 38.6667C51.6268 38.6667 52 39.0397 52 39.5C52 39.9603 51.6268 40.3333 51.1667 40.3333C50.7065 40.3333 50.3333 39.9602 50.3333 39.5ZM27.8333 40.3333C27.3732 40.3333 27 39.9602 27 39.5C27 39.0398 27.3732 38.6667 27.8333 38.6667C28.2935 38.6667 28.6667 39.0397 28.6667 39.5C28.6667 39.9603 28.2935 40.3333 27.8333 40.3333ZM45.3333 41.1667C45.3333 41.6268 44.9602 42 44.5 42C44.0398 42 43.6667 41.6268 43.6667 41.1667C43.6667 40.7065 44.0398 40.3333 44.5 40.3333C44.9602 40.3333 45.3333 40.7063 45.3333 41.1667ZM34.5 40.3333C34.9602 40.3333 35.3333 40.7063 35.3333 41.1667C35.3333 41.627 34.9602 42 34.5 42C34.0398 42 33.6667 41.6268 33.6667 41.1667C33.6667 40.7065 34.0398 40.3333 34.5 40.3333ZM43.6667 17.8333C43.6667 17.373 44.0398 17 44.5 17C44.9602 17 45.3333 17.373 45.3333 17.8333C45.3333 18.2937 44.9602 18.6667 44.5 18.6667C44.0398 18.6667 43.6667 18.2935 43.6667 17.8333ZM33.6667 17.8333C33.6667 17.373 34.0398 17 34.5 17C34.9602 17 35.3333 17.373 35.3333 17.8333C35.3333 18.2937 34.9602 18.6667 34.5 18.6667C34.0398 18.6667 33.6667 18.2935 33.6667 17.8333ZM30.3333 12.8333C30.3333 12.373 30.7065 12 31.1667 12C31.6268 12 32 12.373 32 12.8333C32 13.2937 31.6268 13.6667 31.1667 13.6667C30.7065 13.6667 30.3333 13.2935 30.3333 12.8333ZM54.5 12C53.1215 12 52 13.1215 52 14.5C52 15.585 52.6988 16.5013 53.6667 16.8465V25.6515L51.1667 26.9015V28.7652L54.8727 26.9122C55.1542 26.7705 55.3333 26.4825 55.3333 26.1667V16.8465C56.3012 16.5013 57 15.585 57 14.5C57 13.1215 55.8785 12 54.5 12ZM54.5 15.3333C54.041 15.3333 53.6667 14.9598 53.6667 14.5C53.6667 14.0402 54.041 13.6667 54.5 13.6667C54.959 13.6667 55.3333 14.0402 55.3333 14.5C55.3333 14.9598 54.959 15.3333 54.5 15.3333ZM24.5 47C25.8785 47 27 45.8785 27 44.5C27 43.415 26.3012 42.4987 25.3333 42.1535V33.3485L27.8333 32.0985V30.2348L24.1273 32.0878C23.845 32.2295 23.6667 32.5175 23.6667 32.8333V42.1535C22.6988 42.4987 22 43.415 22 44.5C22 45.8785 23.1215 47 24.5 47ZM24.5 43.6667C24.9598 43.6667 25.3333 44.0402 25.3333 44.5C25.3333 44.9598 24.9598 45.3333 24.5 45.3333C24.0402 45.3333 23.6667 44.9598 23.6667 44.5C23.6667 44.0402 24.0402 43.6667 24.5 43.6667ZM55.3333 42.1535V32.8333C55.3333 32.5175 55.1543 32.2295 54.8727 32.0878L51.1667 30.2348V32.0985L53.6667 33.3485V42.1535C52.6988 42.4987 52 43.415 52 44.5C52 45.8785 53.1215 47 54.5 47C55.8785 47 57 45.8785 57 44.5C57 43.415 56.3012 42.4987 55.3333 42.1535ZM54.5 45.3333C54.041 45.3333 53.6667 44.9598 53.6667 44.5C53.6667 44.0402 54.041 43.6667 54.5 43.6667C54.959 43.6667 55.3333 44.0402 55.3333 44.5C55.3333 44.9598 54.959 45.3333 54.5 45.3333ZM39.5 26.7532L32.548 23.7738L38.262 21.4883C39.0568 21.1705 39.9432 21.1705 40.738 21.4883L46.452 23.7738L39.5 26.7532ZM38.25 37.75L33.262 35.7548C31.9965 35.2487 31.1667 34.023 31.1667 32.66V25.585L38.25 28.6208V37.75ZM45.738 35.7548L40.75 37.75V28.6207L47.8333 25.5848V32.6598C47.8333 34.0228 47.0035 35.2487 45.738 35.7548ZM30.3333 42.8333V37.7567L32 38.4233V42.8333C32 43.294 31.6273 43.6667 31.1667 43.6667C30.706 43.6667 30.3333 43.294 30.3333 42.8333ZM32 20.5767L30.3333 21.2433V16.1667C30.3333 15.706 30.706 15.3333 31.1667 15.3333C31.6273 15.3333 32 15.706 32 16.1667V20.5767ZM48.6667 21.243L47 20.5763V16.1665C47 15.7058 47.3727 15.3332 47.8333 15.3332C48.294 15.3332 48.6667 15.7058 48.6667 16.1665V21.243ZM48.6667 42.8333C48.6667 43.294 48.294 43.6667 47.8333 43.6667C47.3727 43.6667 47 43.294 47 42.8333V38.4235L48.6667 37.7568V42.8333Z" fill="url(#paint0_linear_672_802)"/>
<defs>
<linearGradient id="paint0_linear_672_802" x1="22" y1="29.5" x2="57" y2="29.5" gradientUnits="userSpaceOnUse">
<stop stop-color="#9B248E"/>
<stop offset="0.739" stop-color="#4A4792"/>
<stop offset="1" stop-color="#2D5393"/>
</linearGradient>
</defs>
</svg>
