<svg width="84" height="84" viewBox="0 0 84 84" fill="none" xmlns="http://www.w3.org/2000/svg">
<path d="M83.5328 41.8548C83.5328 57.6784 74.6833 71.4344 61.6645 78.4397C55.6177 81.6833 48.8625 83.3807 42.0008 83.3807C35.139 83.3807 28.3838 81.6833 22.337 78.4397C9.31824 71.4344 0.46875 57.6784 0.46875 41.8548C0.46875 18.9174 19.0634 0.322754 42.0008 0.322754C64.9382 0.322754 83.5328 18.9174 83.5328 41.8548Z" fill="url(#paint0_linear_152_988)"/>
<g style="mix-blend-mode:plus-lighter">
<path d="M61.6653 66.5156V78.4396C55.6186 81.6832 48.8634 83.3806 42.0016 83.3806C35.1398 83.3806 28.3846 81.6832 22.3379 78.4396V66.5156C22.3379 66.0485 22.5235 65.6004 22.8538 65.2701C23.1842 64.9397 23.6322 64.7542 24.0994 64.7542H59.9025C60.1339 64.754 60.3631 64.7994 60.577 64.8878C60.7909 64.9763 60.9852 65.106 61.1489 65.2696C61.3126 65.4332 61.4425 65.6274 61.5311 65.8412C61.6197 66.055 61.6653 66.2842 61.6653 66.5156Z" fill="url(#paint1_linear_152_988)"/>
</g>
<g clip-path="url(#clip0_152_988)">
<path d="M56.8496 35.5143C56.799 37.0357 56.9597 38.9151 56.771 40.784C56.3135 45.3253 54.3017 49.0317 50.6746 51.7879C48.2298 53.6464 45.6976 55.3808 43.1969 57.1606C42.8865 57.4043 42.5034 57.5367 42.1089 57.5367C41.7144 57.5367 41.3313 57.4043 41.0209 57.1606C38.4975 55.3651 35.9234 53.6307 33.4785 51.732C29.4794 48.6247 27.4624 44.4572 27.3664 39.3954C27.3123 36.4401 27.3297 33.483 27.3664 30.5276C27.3961 28.0543 28.5591 26.271 30.8416 25.2876C34.2871 23.7908 37.7466 22.3288 41.1938 20.8354C41.4878 20.6995 41.8077 20.6292 42.1316 20.6292C42.4554 20.6292 42.7754 20.6995 43.0694 20.8354C46.466 22.3009 49.88 23.7384 53.2644 25.2195C55.6394 26.2675 56.8636 28.091 56.8531 30.7128C56.8444 32.1922 56.8496 33.6786 56.8496 35.5143ZM34.7638 39.0635C34.7619 39.3244 34.8151 39.5828 34.9198 39.8218C35.0245 40.0608 35.1784 40.275 35.3716 40.4504C36.5451 41.6206 37.7116 42.7996 38.8904 43.9664C39.7636 44.8292 40.8445 44.8205 41.7195 43.9507C42.964 42.7082 44.208 41.464 45.4514 40.2181C46.562 39.1072 47.6779 38.0016 48.7833 36.8837C49.7421 35.9143 49.7229 34.6323 48.7537 33.9144C47.9713 33.331 47.0073 33.4271 46.2547 34.1834C44.3651 36.0663 42.4809 37.9538 40.6018 39.846C40.3591 40.0923 40.2263 40.1342 39.9679 39.86C39.2857 39.1369 38.5825 38.433 37.8583 37.7483C37.6049 37.486 37.2747 37.3108 36.9154 37.248C36.5561 37.1852 36.1862 37.2381 35.8588 37.399C35.1463 37.7081 34.79 38.2863 34.7638 39.0635Z" fill="white"/>
</g>
<defs>
<linearGradient id="paint0_linear_152_988" x1="3.5452" y1="15.5783" x2="84.2741" y2="21.0951" gradientUnits="userSpaceOnUse">
<stop stop-color="#E9038A"/>
<stop offset="1" stop-color="#0A6195"/>
</linearGradient>
<linearGradient id="paint1_linear_152_988" x1="42.0016" y1="65.0888" x2="42.0016" y2="82.5859" gradientUnits="userSpaceOnUse">
<stop stop-color="#A9A9A9"/>
<stop offset="1" stop-color="#3F4345"/>
</linearGradient>
<clipPath id="clip0_152_988">
<rect width="29.5339" height="36.9174" fill="white" transform="translate(27.332 20.6272)"/>
</clipPath>
</defs>
</svg>
