<svg width="64" height="64" viewBox="0 0 64 64" fill="none" xmlns="http://www.w3.org/2000/svg">
<path d="M61 28.3418C60.2736 29.8452 59.1229 31.0282 58.0645 32.2676C55.1693 35.6928 51.8539 38.7262 48.1996 41.2935C44.6525 43.762 40.8516 45.6665 36.6022 46.5393C31.5627 47.5738 26.7316 46.8192 22.0694 44.746C16.8085 42.4044 12.3521 38.8956 8.30704 34.8054C6.60866 33.0852 5.02283 31.2538 3.55972 29.3229C2.81627 28.3447 2.81059 27.6493 3.55972 26.6769C7.70547 21.2939 12.5209 16.6584 18.3408 13.1784C22.8583 10.4776 27.6851 8.8011 33.0084 9.01896C37.1825 9.18343 41.0516 10.4819 44.6781 12.5104C50.4526 15.7321 55.224 20.1571 59.3797 25.3091C59.9756 26.0478 60.6254 26.7519 61 27.6507V28.3418ZM32.0961 40.0902C38.6226 40.1032 43.9843 34.677 44.0056 28.023C44.0268 21.369 38.695 15.9355 32.1472 15.9038C25.5569 15.8706 20.0164 21.3719 19.9937 27.971C19.971 34.5702 25.4902 40.0786 32.0961 40.0902Z" fill="#C1C1C1"/>
<path d="M32.099 22.8174C34.8628 22.8044 37.1712 25.1258 37.2067 27.9609C37.2421 30.7959 34.9054 33.175 32.1132 33.1764C29.2756 33.1764 26.7941 30.7627 26.7898 28.0041C26.7856 25.2456 29.2571 22.8304 32.099 22.8174Z" fill="#C1C1C1"/>
</svg>
