<svg width="58" height="58" viewBox="0 0 58 58" fill="none" xmlns="http://www.w3.org/2000/svg">
<path opacity="0.3" d="M29 56.812C44.464 56.812 57 44.276 57 28.812C57 13.348 44.464 0.812012 29 0.812012C13.536 0.812012 1 13.348 1 28.812C1 44.276 13.536 56.812 29 56.812Z" fill="white" fill-opacity="0.8" stroke="white" stroke-width="0.403345" stroke-miterlimit="10"/>
<path fill-rule="evenodd" clip-rule="evenodd" d="M40.1157 18.9086C41.3678 19.2522 42.3539 20.2646 42.6885 21.5502C43.2966 23.8802 43.2966 28.7418 43.2966 28.7418C43.2966 28.7418 43.2966 33.6033 42.6885 35.9335C42.3539 37.2191 41.3678 38.2315 40.1157 38.5752C37.8466 39.1995 28.7468 39.1995 28.7468 39.1995C28.7468 39.1995 19.6471 39.1995 17.3778 38.5752C16.1257 38.2315 15.1396 37.2191 14.805 35.9335C14.197 33.6033 14.197 28.7418 14.197 28.7418C14.197 28.7418 14.197 23.8802 14.805 21.5502C15.1396 20.2646 16.1257 19.2522 17.3778 18.9086C19.6471 18.2842 28.7468 18.2842 28.7468 18.2842C28.7468 18.2842 37.8466 18.2842 40.1157 18.9086ZM26.0175 24.649V33.7426L33.2924 29.196L26.0175 24.649Z" fill="white"/>
</svg>
